<?xml version="1.0" encoding="UTF-8" standalone="no"?>
<!-- Created with Inkscape (http://www.inkscape.org/) -->

<svg
   xmlns:dc="http://purl.org/dc/elements/1.1/"
   xmlns:cc="http://creativecommons.org/ns#"
   xmlns:rdf="http://www.w3.org/1999/02/22-rdf-syntax-ns#"
   xmlns:svg="http://www.w3.org/2000/svg"
   xmlns="http://www.w3.org/2000/svg"
   xmlns:sodipodi="http://sodipodi.sourceforge.net/DTD/sodipodi-0.dtd"
   xmlns:inkscape="http://www.inkscape.org/namespaces/inkscape"
   width="70mm"
   height="90mm"
   viewBox="0 0 70 90"
   version="1.1"
   id="svg8"
   inkscape:version="0.92.1 r15371"
   sodipodi:docname="art.svg">
  <defs
     id="defs2" />
  <sodipodi:namedview
     id="base"
     pagecolor="#ffffff"
     bordercolor="#666666"
     borderopacity="1.0"
     inkscape:pageopacity="0.0"
     inkscape:pageshadow="2"
     inkscape:zoom="11.2"
     inkscape:cx="133.38093"
     inkscape:cy="110.71583"
     inkscape:document-units="mm"
     inkscape:current-layer="layer1"
     showgrid="false"
     inkscape:window-width="3840"
     inkscape:window-height="2084"
     inkscape:window-x="0"
     inkscape:window-y="39"
     inkscape:window-maximized="1" />
  <metadata
     id="metadata5">
    <rdf:RDF>
      <cc:Work
         rdf:about="">
        <dc:format>image/svg+xml</dc:format>
        <dc:type
           rdf:resource="http://purl.org/dc/dcmitype/StillImage" />
        <dc:title></dc:title>
      </cc:Work>
    </rdf:RDF>
  </metadata>
  <g
     inkscape:label="Layer 1"
     inkscape:groupmode="layer"
     id="layer1"
     transform="translate(0,-207)">
    <g
       aria-label="bitraf"
       style="font-style:normal;font-variant:normal;font-weight:600;font-stretch:normal;font-size:25.78337097px;line-height:125%;font-family:'Advent Pro';-inkscape-font-specification:'Advent Pro, Semi-Bold';font-variant-ligatures:normal;font-variant-caps:normal;font-variant-numeric:normal;font-feature-settings:normal;text-align:start;letter-spacing:0px;word-spacing:0px;writing-mode:lr-tb;text-anchor:start;fill:none;fill-opacity:1;stroke:#000000;stroke-width:0.26458332;stroke-linecap:butt;stroke-linejoin:miter;stroke-miterlimit:4;stroke-dasharray:none;stroke-opacity:1"
       id="text4487"
       transform="matrix(1.1931322,0,0,1.1931322,-94.816229,89.471628)">
      <path
         d="m 86.137564,140.70079 q 1.134468,-0.48988 2.397853,-0.48988 1.289169,0 2.578338,0.51567 2.191586,1.00555 2.191586,3.7128 v 4.87306 q 0,2.55255 -2.011103,3.58389 -1.521219,0.7735 -3.403405,0.7735 -1.882186,0 -4.099556,-0.3094 v -18.04836 h 2.346287 z m 0,2.42364 v 8.19911 q 0.721934,0.1547 1.521219,0.1547 0.799284,0 1.547002,-0.1547 0.773501,-0.18048 1.263385,-0.67037 0.515668,-0.51566 0.515668,-1.28916 v -4.38318 q 0,-1.10868 -0.593018,-1.72748 -0.670367,-0.69615 -2.011103,-0.69615 -1.340735,0 -2.243153,0.56723 z"
         style="font-style:normal;font-variant:normal;font-weight:600;font-stretch:normal;font-size:25.78337097px;font-family:'Advent Pro';-inkscape-font-specification:'Advent Pro, Semi-Bold';font-variant-ligatures:normal;font-variant-caps:normal;font-variant-numeric:normal;font-feature-settings:normal;text-align:start;writing-mode:lr-tb;text-anchor:start;fill:none;stroke:#000000;stroke-width:0.26458332;stroke-miterlimit:4;stroke-dasharray:none;stroke-opacity:1"
         id="path4489"
         inkscape:connector-curvature="0" />
      <path
         d="m 98.858434,136.3434 q 0,0.48989 -0.38675,0.90242 -0.386751,0.38675 -0.902418,0.38675 -0.489884,0 -0.902418,-0.38675 -0.386751,-0.41253 -0.386751,-0.90242 0,-0.51566 0.386751,-0.90241 0.412534,-0.38676 0.902418,-0.38676 0.515667,0 0.902418,0.38676 0.38675,0.38675 0.38675,0.90241 z m -0.1547,17.01703 h -2.346287 v -12.91747 h 2.346287 z"
         style="font-style:normal;font-variant:normal;font-weight:600;font-stretch:normal;font-size:25.78337097px;font-family:'Advent Pro';-inkscape-font-specification:'Advent Pro, Semi-Bold';font-variant-ligatures:normal;font-variant-caps:normal;font-variant-numeric:normal;font-feature-settings:normal;text-align:start;writing-mode:lr-tb;text-anchor:start;fill:none;stroke:#000000;stroke-width:0.26458332;stroke-miterlimit:4;stroke-dasharray:none;stroke-opacity:1"
         id="path4491"
         inkscape:connector-curvature="0" />
      <path
         d="m 106.25343,151.83921 -0.69615,1.8564 q -3.50654,-0.3094 -3.50654,-3.73859 v -14.64495 h 2.37207 v 5.13089 h 2.68147 l -0.6188,2.21737 h -2.06267 v 7.29669 q 0,1.62436 1.83062,1.88219 z"
         style="font-style:normal;font-variant:normal;font-weight:600;font-stretch:normal;font-size:25.78337097px;font-family:'Advent Pro';-inkscape-font-specification:'Advent Pro, Semi-Bold';font-variant-ligatures:normal;font-variant-caps:normal;font-variant-numeric:normal;font-feature-settings:normal;text-align:start;writing-mode:lr-tb;text-anchor:start;fill:none;stroke:#000000;stroke-width:0.26458332;stroke-miterlimit:4;stroke-dasharray:none;stroke-opacity:1"
         id="path4493"
         inkscape:connector-curvature="0" />
      <path
         d="m 111.60791,140.82971 q 1.16025,-0.59302 2.65568,-0.59302 0.46411,0 1.95954,0.28362 l -0.56723,2.24315 q -0.69615,-0.33518 -1.36652,-0.33518 -0.67037,0 -1.26339,0.20627 -1.3923,0.51566 -1.3923,1.80483 v 8.92105 h -2.34629 v -12.91747 h 2.21737 z"
         style="font-style:normal;font-variant:normal;font-weight:600;font-stretch:normal;font-size:25.78337097px;font-family:'Advent Pro';-inkscape-font-specification:'Advent Pro, Semi-Bold';font-variant-ligatures:normal;font-variant-caps:normal;font-variant-numeric:normal;font-feature-settings:normal;text-align:start;writing-mode:lr-tb;text-anchor:start;fill:none;stroke:#000000;stroke-width:0.26458332;stroke-miterlimit:4;stroke-dasharray:none;stroke-opacity:1"
         id="path4495"
         inkscape:connector-curvature="0" />
      <path
         d="m 119.1294,143.0213 q 2.24316,0 3.86751,1.03133 0,-2.1658 -3.19714,-2.1658 l 0.18048,-1.65014 q 2.08846,0 3.09401,0.48989 0.54145,0.28361 0.95398,0.56723 0.41254,0.28362 0.64459,0.74772 0.23205,0.4641 0.38675,0.82507 0.1547,0.33518 0.20626,0.9282 0.0774,0.90242 0.0774,1.88218 v 7.68345 q -2.68147,0.25783 -4.28003,0.25783 -5.64656,0 -5.64656,-4.61522 v -2.14002 q 0,-2.55256 1.77905,-3.42919 0.87663,-0.41253 1.93375,-0.41253 z m 3.86751,8.30224 v -4.92462 q -1.36652,-0.79929 -3.11979,-1.00555 -0.18048,-0.0258 -0.6188,-0.0258 -0.41253,0 -0.95399,0.38675 -0.54145,0.36097 -0.54145,1.36652 v 1.7017 q 0,2.65569 3.35184,2.65569 0.85085,0 1.88219,-0.1547 z"
         style="font-style:normal;font-variant:normal;font-weight:600;font-stretch:normal;font-size:25.78337097px;font-family:'Advent Pro';-inkscape-font-specification:'Advent Pro, Semi-Bold';font-variant-ligatures:normal;font-variant-caps:normal;font-variant-numeric:normal;font-feature-settings:normal;text-align:start;writing-mode:lr-tb;text-anchor:start;fill:none;stroke:#000000;stroke-width:0.26458332;stroke-miterlimit:4;stroke-dasharray:none;stroke-opacity:1"
         id="path4497"
         inkscape:connector-curvature="0" />
      <path
         d="m 131.03246,153.36043 h -2.37207 v -14.15507 q 0,-2.29472 1.18603,-3.22292 1.21182,-0.95399 2.47521,-0.95399 0.59301,0 1.46965,0.10313 l -0.38675,2.11424 q -0.3094,-0.0773 -0.74772,-0.0773 -0.41253,0 -0.90242,0.3094 -0.72193,0.41254 -0.72193,1.72749 v 1.2376 h 2.50098 l -0.6188,2.21737 h -1.88218 z"
         style="font-style:normal;font-variant:normal;font-weight:600;font-stretch:normal;font-size:25.78337097px;font-family:'Advent Pro';-inkscape-font-specification:'Advent Pro, Semi-Bold';font-variant-ligatures:normal;font-variant-caps:normal;font-variant-numeric:normal;font-feature-settings:normal;text-align:start;writing-mode:lr-tb;text-anchor:start;fill:none;stroke:#000000;stroke-width:0.26458332;stroke-miterlimit:4;stroke-dasharray:none;stroke-opacity:1"
         id="path4499"
         inkscape:connector-curvature="0" />
    </g>
    <g
       aria-label="433 MHz bridge"
       style="font-style:normal;font-variant:normal;font-weight:bold;font-stretch:normal;font-size:6.17990255px;line-height:125%;font-family:'Microgramma D Extended';-inkscape-font-specification:'Microgramma D Extended, Bold';font-variant-ligatures:normal;font-variant-caps:normal;font-variant-numeric:normal;font-feature-settings:normal;text-align:start;letter-spacing:0px;word-spacing:0px;writing-mode:lr-tb;text-anchor:start;fill:#000000;fill-opacity:1;stroke:none;stroke-width:0.15449755px;stroke-linecap:butt;stroke-linejoin:miter;stroke-opacity:1"
       id="text4504">
      <path
         d="M 10.283818,278.97184 H 9.4804308 v -2.4287 h -2.033188 l -2.4472414,1.77981 v 1.57587 h 3.2877082 v 0.76631 h 1.1927212 v -0.76631 h 0.8033872 z m -1.9961084,0 H 6.1247437 v -0.16068 l 1.9095899,-1.31014 h 0.253376 z"
         style="font-style:normal;font-variant:normal;font-weight:bold;font-stretch:normal;font-size:6.17990255px;font-family:'Microgramma D Extended';-inkscape-font-specification:'Microgramma D Extended, Bold';font-variant-ligatures:normal;font-variant-caps:normal;font-variant-numeric:normal;font-feature-settings:normal;text-align:start;writing-mode:lr-tb;text-anchor:start;stroke-width:0.15449755px"
         id="path5278" />
      <path
         d="m 11.817979,277.98305 v -0.0927 c 0,-0.44495 0,-0.44495 1.27306,-0.44495 1.062943,0 1.149462,0.0247 1.149462,0.3399 0,0.28427 -0.142138,0.34607 -0.760128,0.34607 h -0.951705 v 0.88373 h 0.723048 c 0.747769,0.0124 0.778668,0.0124 0.883727,0.0371 0.129777,0.0371 0.185397,0.12977 0.185397,0.31517 0,0.23484 -0.08034,0.31518 -0.339895,0.34608 -0.09888,0.0124 -0.698329,0.0309 -0.926985,0.0309 -0.426414,0 -0.957885,-0.0185 -1.032044,-0.0309 -0.173037,-0.0433 -0.216297,-0.1236 -0.216297,-0.45732 l -0.0062,-0.0742 h -1.192721 c 0,0.77867 0.05562,1.01351 0.271916,1.21744 0.259556,0.23484 0.692149,0.31518 1.742732,0.31518 1.328679,0 1.977569,-0.0433 2.305104,-0.1545 0.451133,-0.1545 0.61181,-0.42023 0.61181,-1.03204 0,-0.68597 -0.117418,-0.84047 -0.747768,-0.98261 0.512932,-0.10505 0.66743,-0.30899 0.66743,-0.8899 0,-0.49439 -0.09888,-0.75395 -0.358435,-0.93317 -0.259556,-0.17921 -0.667429,-0.22865 -1.86015,-0.22865 -2.274205,0 -2.620279,0.16067 -2.620279,1.24216 v 0.24719 z"
         style="font-style:normal;font-variant:normal;font-weight:bold;font-stretch:normal;font-size:6.17990255px;font-family:'Microgramma D Extended';-inkscape-font-specification:'Microgramma D Extended, Bold';font-variant-ligatures:normal;font-variant-caps:normal;font-variant-numeric:normal;font-feature-settings:normal;text-align:start;writing-mode:lr-tb;text-anchor:start;stroke-width:0.15449755px"
         id="path5280" />
      <path
         d="m 17.418516,277.98305 v -0.0927 c 0,-0.44495 0,-0.44495 1.27306,-0.44495 1.062943,0 1.149462,0.0247 1.149462,0.3399 0,0.28427 -0.142138,0.34607 -0.760128,0.34607 h -0.951705 v 0.88373 h 0.723048 c 0.747768,0.0124 0.778668,0.0124 0.883726,0.0371 0.129778,0.0371 0.185397,0.12977 0.185397,0.31517 0,0.23484 -0.08034,0.31518 -0.339894,0.34608 -0.09888,0.0124 -0.698329,0.0309 -0.926986,0.0309 -0.426413,0 -0.957885,-0.0185 -1.032043,-0.0309 -0.173038,-0.0433 -0.216297,-0.1236 -0.216297,-0.45732 l -0.0062,-0.0742 h -1.192721 c 0,0.77867 0.05562,1.01351 0.271916,1.21744 0.259556,0.23484 0.692149,0.31518 1.742732,0.31518 1.328679,0 1.977569,-0.0433 2.305104,-0.1545 0.451133,-0.1545 0.61181,-0.42023 0.61181,-1.03204 0,-0.68597 -0.117418,-0.84047 -0.747768,-0.98261 0.512932,-0.10505 0.667429,-0.30899 0.667429,-0.8899 0,-0.49439 -0.09888,-0.75395 -0.358434,-0.93317 -0.259556,-0.17921 -0.667429,-0.22865 -1.860151,-0.22865 -2.274204,0 -2.620278,0.16067 -2.620278,1.24216 v 0.24719 z"
         style="font-style:normal;font-variant:normal;font-weight:bold;font-stretch:normal;font-size:6.17990255px;font-family:'Microgramma D Extended';-inkscape-font-specification:'Microgramma D Extended, Bold';font-variant-ligatures:normal;font-variant-caps:normal;font-variant-numeric:normal;font-feature-settings:normal;text-align:start;writing-mode:lr-tb;text-anchor:start;stroke-width:0.15449755px"
         id="path5282" />
      <path
         d="m 23.352768,276.54314 v 4.12199 h 1.23598 l -0.0309,-3.08377 h 0.222476 l 1.551156,3.08377 h 1.044403 l 1.551156,-3.08377 h 0.210116 l -0.0309,3.08377 h 1.23598 v -4.12199 h -2.261844 l -1.229801,2.67589 -1.22362,-2.67589 z"
         style="font-style:normal;font-variant:normal;font-weight:bold;font-stretch:normal;font-size:6.17990255px;font-family:'Microgramma D Extended';-inkscape-font-specification:'Microgramma D Extended, Bold';font-variant-ligatures:normal;font-variant-caps:normal;font-variant-numeric:normal;font-feature-settings:normal;text-align:start;writing-mode:lr-tb;text-anchor:start;stroke-width:0.15449755px"
         id="path5284" />
      <path
         d="m 30.920734,276.54314 v 4.12199 h 1.316319 v -1.48936 h 2.836576 v 1.48936 h 1.316319 v -4.12199 h -1.316319 v 1.47699 h -2.836576 v -1.47699 z"
         style="font-style:normal;font-variant:normal;font-weight:bold;font-stretch:normal;font-size:6.17990255px;font-family:'Microgramma D Extended';-inkscape-font-specification:'Microgramma D Extended, Bold';font-variant-ligatures:normal;font-variant-caps:normal;font-variant-numeric:normal;font-feature-settings:normal;text-align:start;writing-mode:lr-tb;text-anchor:start;stroke-width:0.15449755px"
         id="path5286" />
      <path
         d="m 36.912245,277.74204 v 0.74159 h 1.748913 l -1.87869,1.42755 v 0.75395 h 3.553443 V 279.905 h -1.86633 l 1.804531,-1.32868 v -0.83428 z"
         style="font-style:normal;font-variant:normal;font-weight:bold;font-stretch:normal;font-size:6.17990255px;font-family:'Microgramma D Extended';-inkscape-font-specification:'Microgramma D Extended, Bold';font-variant-ligatures:normal;font-variant-caps:normal;font-variant-numeric:normal;font-feature-settings:normal;text-align:start;writing-mode:lr-tb;text-anchor:start;stroke-width:0.15449755px"
         id="path5288" />
      <path
         d="m 42.235459,276.54314 v 4.12199 h 1.032044 v -0.38315 h 0.05562 c 0.216297,0.36461 0.494392,0.45731 1.310139,0.45731 0.753949,0 1.161822,-0.0865 1.402838,-0.30282 0.247196,-0.21629 0.321355,-0.51293 0.321355,-1.24216 0,-0.76012 -0.08652,-1.0444 -0.370794,-1.2607 -0.253376,-0.19157 -0.661249,-0.27191 -1.384298,-0.27191 -0.729229,0 -1.007324,0.10506 -1.223621,0.46967 h -0.04944 v -1.58823 z m 2.064088,1.94049 c 0.296635,0 0.562371,0.0309 0.704509,0.0803 0.197756,0.0803 0.259555,0.2163 0.259555,0.60563 0,0.36462 -0.04326,0.5253 -0.166857,0.61181 -0.117418,0.0865 -0.383154,0.12978 -0.778668,0.12978 -0.290455,0 -0.568551,-0.0309 -0.704508,-0.0742 -0.222477,-0.0742 -0.284276,-0.21011 -0.284276,-0.62417 0,-0.37697 0.04944,-0.52529 0.203937,-0.61799 0.123598,-0.0742 0.383154,-0.11123 0.766308,-0.11123 z"
         style="font-style:normal;font-variant:normal;font-weight:bold;font-stretch:normal;font-size:6.17990255px;font-family:'Microgramma D Extended';-inkscape-font-specification:'Microgramma D Extended, Bold';font-variant-ligatures:normal;font-variant-caps:normal;font-variant-numeric:normal;font-feature-settings:normal;text-align:start;writing-mode:lr-tb;text-anchor:start;stroke-width:0.15449755px"
         id="path5290" />
      <path
         d="m 46.773824,277.74204 v 2.92309 h 1.093842 v -1.21126 c 0,-0.45113 0.0309,-0.61181 0.135958,-0.75395 0.105059,-0.13596 0.308995,-0.21012 0.556191,-0.21012 0.451133,0 0.574731,0.11742 0.574731,0.55002 h 1.032044 v -0.19776 c 0,-0.87755 -0.296635,-1.17418 -1.180361,-1.17418 -0.611811,0 -0.920806,0.14214 -1.124743,0.51293 h -0.05562 v -0.43877 z"
         style="font-style:normal;font-variant:normal;font-weight:bold;font-stretch:normal;font-size:6.17990255px;font-family:'Microgramma D Extended';-inkscape-font-specification:'Microgramma D Extended, Bold';font-variant-ligatures:normal;font-variant-caps:normal;font-variant-numeric:normal;font-feature-settings:normal;text-align:start;writing-mode:lr-tb;text-anchor:start;stroke-width:0.15449755px"
         id="path5292" />
      <path
         d="m 50.479352,277.74204 v 2.92309 h 1.093843 v -2.92309 z m 0,-1.1989 v 0.82192 h 1.093843 v -0.82192 z"
         style="font-style:normal;font-variant:normal;font-weight:bold;font-stretch:normal;font-size:6.17990255px;font-family:'Microgramma D Extended';-inkscape-font-specification:'Microgramma D Extended, Bold';font-variant-ligatures:normal;font-variant-caps:normal;font-variant-numeric:normal;font-feature-settings:normal;text-align:start;writing-mode:lr-tb;text-anchor:start;stroke-width:0.15449755px"
         id="path5294" />
      <path
         d="m 56.108086,276.54314 h -1.093843 v 1.58823 h -0.04326 c -0.210117,-0.37079 -0.463493,-0.46967 -1.229801,-0.46967 -0.753948,0 -1.056763,0.0494 -1.322499,0.22247 -0.308995,0.20394 -0.426413,0.5562 -0.426413,1.29778 0,0.72923 0.07416,1.02587 0.315175,1.24834 0.253376,0.22866 0.63035,0.309 1.421378,0.309 0.791027,0 1.081483,-0.10506 1.291599,-0.45731 h 0.05562 v 0.38315 h 1.032044 z m -2.008468,1.94049 c 0.778668,0 0.920805,0.11123 0.920805,0.71686 0,0.3399 -0.04326,0.4944 -0.166857,0.57473 -0.123598,0.0865 -0.420233,0.13596 -0.821927,0.13596 -0.821927,0 -0.945525,-0.0989 -0.945525,-0.74159 0,-0.58709 0.148317,-0.68596 1.013504,-0.68596 z"
         style="font-style:normal;font-variant:normal;font-weight:bold;font-stretch:normal;font-size:6.17990255px;font-family:'Microgramma D Extended';-inkscape-font-specification:'Microgramma D Extended, Bold';font-variant-ligatures:normal;font-variant-caps:normal;font-variant-numeric:normal;font-feature-settings:normal;text-align:start;writing-mode:lr-tb;text-anchor:start;stroke-width:0.15449755px"
         id="path5296" />
      <path
         d="m 59.608517,277.74204 v 0.38315 h -0.04944 c -0.228657,-0.36461 -0.488212,-0.45731 -1.24834,-0.45731 -0.550012,0 -0.957885,0.0433 -1.180362,0.13596 -0.457313,0.17921 -0.61181,0.50675 -0.61181,1.30396 0,0.7354 0.08652,1.03204 0.370794,1.25452 0.253376,0.19157 0.63653,0.26573 1.409018,0.26573 0.729228,0 0.988784,-0.0989 1.211261,-0.45731 h 0.04326 v 0.25955 c 0,0.40788 -0.01854,0.50058 -0.123598,0.61799 -0.129778,0.14832 -0.339895,0.19158 -0.914626,0.19158 -0.574731,0 -0.735408,-0.0556 -0.797207,-0.27809 l -0.01236,-0.0309 h -1.112382 c 0.0309,0.35225 0.123598,0.57473 0.321355,0.74776 0.278095,0.24102 0.655069,0.32136 1.582055,0.32136 0.692149,0 1.106202,-0.0433 1.427557,-0.1545 0.290456,-0.0989 0.525292,-0.32753 0.62417,-0.60563 0.08652,-0.24101 0.0927,-0.32135 0.0927,-0.80957 v -2.68825 z m -0.988784,0.74776 c 0.321355,0 0.568551,0.0309 0.698329,0.0865 0.173037,0.0803 0.228656,0.2163 0.228656,0.56855 0,0.30282 -0.03708,0.42642 -0.154498,0.51294 -0.123598,0.0927 -0.401693,0.14213 -0.828106,0.14213 -0.791028,0 -0.951705,-0.11123 -0.951705,-0.65507 0,-0.55001 0.160677,-0.65507 1.007324,-0.65507 z"
         style="font-style:normal;font-variant:normal;font-weight:bold;font-stretch:normal;font-size:6.17990255px;font-family:'Microgramma D Extended';-inkscape-font-specification:'Microgramma D Extended, Bold';font-variant-ligatures:normal;font-variant-caps:normal;font-variant-numeric:normal;font-feature-settings:normal;text-align:start;writing-mode:lr-tb;text-anchor:start;stroke-width:0.15449755px"
         id="path5298" />
      <path
         d="m 63.887616,279.73197 c -0.04326,0.25955 -0.173038,0.30899 -0.871367,0.30899 -0.395513,0 -0.62417,-0.0371 -0.741588,-0.1236 -0.105058,-0.0803 -0.135958,-0.17921 -0.135958,-0.47585 h 2.855115 c 0.0062,-0.1236 0.0062,-0.25956 0.0062,-0.29664 0,-0.66124 -0.09888,-0.98878 -0.358434,-1.20508 -0.265736,-0.21629 -0.611811,-0.27809 -1.600595,-0.27809 -0.951705,0 -1.316319,0.0618 -1.600595,0.25955 -0.308995,0.2163 -0.395514,0.50676 -0.395514,1.2916 0,0.74777 0.08652,1.03823 0.370795,1.25452 0.265735,0.19776 0.667429,0.27192 1.514076,0.27192 1.563515,0 1.965209,-0.19776 2.045548,-1.00732 z m -1.748913,-0.88991 c 0.01236,-0.40787 0.185397,-0.50057 0.920806,-0.50057 0.432593,0 0.655069,0.0433 0.753948,0.14831 0.06798,0.068 0.08034,0.1236 0.08652,0.35226 z"
         style="font-style:normal;font-variant:normal;font-weight:bold;font-stretch:normal;font-size:6.17990255px;font-family:'Microgramma D Extended';-inkscape-font-specification:'Microgramma D Extended, Bold';font-variant-ligatures:normal;font-variant-caps:normal;font-variant-numeric:normal;font-feature-settings:normal;text-align:start;writing-mode:lr-tb;text-anchor:start;stroke-width:0.15449755px"
         id="path5300" />
    </g>
  </g>
</svg>
