  0
SECTION
  2
HEADER
  9
$ACADVER
  1
AC1014
  9
$HANDSEED
  5
FFFF
  9
$MEASUREMENT
 70
     1
  0
ENDSEC
  0
SECTION
  2
TABLES
  0
TABLE
  2
VPORT
  5
8
330
0
100
AcDbSymbolTable
 70
     4
  0
VPORT
  5
2E
330
8
100
AcDbSymbolTableRecord
100
AcDbViewportTableRecord
  2
*ACTIVE
 70
     0
 10
0.0
 20
0.0
 11
1.0
 21
1.0
 12
210.0
 22
148.5
 13
0.0
 23
0.0
 14
10.0
 24
10.0
 15
10.0
 25
10.0
 16
0.0
 26
0.0
 36
1.0
 17
0.0
 27
0.0
 37
0.0
 40
341.0
 41
1.24
 42
50.0
 43
0.0
 44
0.0
 50
0.0
 51
0.0
 71
     0
 72
   100
 73
     1
 74
     3
 75
     0
 76
     0
 77
     0
 78
     0
  0
ENDTAB
  0
TABLE
  2
LTYPE
  5
5
330
0
100
AcDbSymbolTable
 70
     1
  0
LTYPE
  5
14
330
5
100
AcDbSymbolTableRecord
100
AcDbLinetypeTableRecord
  2
BYBLOCK
 70
     0
  3

 72
    65
 73
     0
 40
0.0
  0
LTYPE
  5
15
330
5
100
AcDbSymbolTableRecord
100
AcDbLinetypeTableRecord
  2
BYLAYER
 70
     0
  3

 72
    65
 73
     0
 40
0.0
  0
LTYPE
  5
16
330
5
100
AcDbSymbolTableRecord
100
AcDbLinetypeTableRecord
  2
CONTINUOUS
 70
     0
  3
Solid line
 72
    65
 73
     0
 40
0.0
  0
ENDTAB
  0
TABLE
  2
LAYER
  5
2
100
AcDbSymbolTable
 70
2
  0
LAYER
  5
50
100
AcDbSymbolTableRecord
100
AcDbLayerTableRecord
  2
0
 70
0
  6
CONTINUOUS
  0
LAYER
  5
51
100
AcDbSymbolTableRecord
100
AcDbLayerTableRecord
  2
Layer_1
 70
0
  6
CONTINUOUS
  0
ENDTAB
  0
TABLE
  2
STYLE
  5
3
330
0
100
AcDbSymbolTable
 70
     1
  0
STYLE
  5
11
330
3
100
AcDbSymbolTableRecord
100
AcDbTextStyleTableRecord
  2
STANDARD
 70
     0
 40
0.0
 41
1.0
 50
0.0
 71
     0
 42
2.5
  3
txt
  4

  0
ENDTAB
  0
TABLE
  2
VIEW
  5
6
330
0
100
AcDbSymbolTable
 70
     0
  0
ENDTAB
  0
TABLE
  2
UCS
  5
7
330
0
100
AcDbSymbolTable
 70
     0
  0
ENDTAB
  0
TABLE
  2
APPID
  5
9
330
0
100
AcDbSymbolTable
 70
     2
  0
APPID
  5
12
330
9
100
AcDbSymbolTableRecord
100
AcDbRegAppTableRecord
  2
ACAD
 70
     0
  0
ENDTAB
  0
TABLE
  2
DIMSTYLE
  5
A
330
0
100
AcDbSymbolTable
 70
     1
  0
DIMSTYLE
105
27
330
A
100
AcDbSymbolTableRecord
100
AcDbDimStyleTableRecord
  2
ISO-25
 70
     0
  3

  4

  5

  6

  7

 40
1.0
 41
2.5
 42
0.625
 43
3.75
 44
1.25
 45
0.0
 46
0.0
 47
0.0
 48
0.0
140
2.5
141
2.5
142
0.0
143
0.03937007874016
144
1.0
145
0.0
146
1.0
147
0.625
 71
     0
 72
     0
 73
     0
 74
     0
 75
     0
 76
     0
 77
     1
 78
     8
170
     0
171
     3
172
     1
173
     0
174
     0
175
     0
176
     0
177
     0
178
     0
270
     2
271
     2
272
     2
273
     2
274
     3
340
11
275
     0
280
     0
281
     0
282
     0
283
     0
284
     8
285
     0
286
     0
287
     3
288
     0
  0
ENDTAB
  0
TABLE
  2
BLOCK_RECORD
  5
1
330
0
100
AcDbSymbolTable
 70
     1
  0
BLOCK_RECORD
  5
1F
330
1
100
AcDbSymbolTableRecord
100
AcDbBlockTableRecord
  2
*MODEL_SPACE
  0
BLOCK_RECORD
  5
1B
330
1
100
AcDbSymbolTableRecord
100
AcDbBlockTableRecord
  2
*PAPER_SPACE
  0
ENDTAB
  0
ENDSEC
  0
SECTION
  2
BLOCKS
  0
BLOCK
  5
20
330
1F
100
AcDbEntity
  8
0
100
AcDbBlockBegin
  2
*MODEL_SPACE
 70
     0
 10
0.0
 20
0.0
 30
0.0
  3
*MODEL_SPACE
  1

  0
ENDBLK
  5
21
330
1F
100
AcDbEntity
  8
0
100
AcDbBlockEnd
  0
BLOCK
  5
1C
330
1B
100
AcDbEntity
 67
     1
  8
0
100
AcDbBlockBegin
  2
*PAPER_SPACE
  1

  0
ENDBLK
  5
1D
330
1B
100
AcDbEntity
 67
     1
  8
0
100
AcDbBlockEnd
  0
ENDSEC
  0
SECTION
  2
ENTITIES
  0
SPLINE
  5
100
100
AcDbEntity
  8
Layer_1
 62
7
100
AcDbSpline
 70
8
 71
3
 72
8
 73
4
 74
0
 40
0
 40
0
 40
0
 40
0
 40
1
 40
1
 40
1
 40
1
 10
2.105362
 20
10.491716
 30
0.0
 10
2.344116
 20
10.594814
 30
0.0
 10
2.596437
 20
10.646363
 30
0.0
 10
2.862323
 20
10.646363
 30
0.0
  0
SPLINE
  5
101
100
AcDbEntity
  8
Layer_1
 62
7
100
AcDbSpline
 70
8
 71
3
 72
8
 73
4
 74
0
 40
0
 40
0
 40
0
 40
0
 40
1
 40
1
 40
1
 40
1
 10
2.862323
 20
10.646363
 30
0.0
 10
3.133635
 20
10.646363
 30
0.0
 10
3.404948
 20
10.592100
 30
0.0
 10
3.676260
 20
10.483574
 30
0.0
  0
SPLINE
  5
102
100
AcDbEntity
  8
Layer_1
 62
7
100
AcDbSpline
 70
8
 71
3
 72
8
 73
4
 74
0
 40
0
 40
0
 40
0
 40
0
 40
1
 40
1
 40
1
 40
1
 10
3.676260
 20
10.483574
 30
0.0
 10
4.137491
 20
10.271951
 30
0.0
 10
4.368106
 20
9.881262
 30
0.0
 10
4.368106
 20
9.311507
 30
0.0
  0
LINE
  5
103
100
AcDbEntity
  8
Layer_1
 62
7
100
AcDbLine
 10
4.368106
 20
9.311507
 30
0.0
 11
4.368106
 21
7.773165
 31
0.0
  0
SPLINE
  5
104
100
AcDbEntity
  8
Layer_1
 62
7
100
AcDbSpline
 70
8
 71
3
 72
8
 73
4
 74
0
 40
0
 40
0
 40
0
 40
0
 40
1
 40
1
 40
1
 40
1
 10
4.368106
 20
7.773165
 30
0.0
 10
4.368106
 20
7.235968
 30
0.0
 10
4.156483
 20
6.858843
 30
0.0
 10
3.733235
 20
6.641792
 30
0.0
  0
SPLINE
  5
105
100
AcDbEntity
  8
Layer_1
 62
7
100
AcDbSpline
 70
8
 71
3
 72
8
 73
4
 74
0
 40
0
 40
0
 40
0
 40
0
 40
1
 40
1
 40
1
 40
1
 10
3.733235
 20
6.641792
 30
0.0
 10
3.413087
 20
6.479005
 30
0.0
 10
3.054955
 20
6.397612
 30
0.0
 10
2.658839
 20
6.397612
 30
0.0
  0
SPLINE
  5
106
100
AcDbEntity
  8
Layer_1
 62
7
100
AcDbSpline
 70
8
 71
3
 72
8
 73
4
 74
0
 40
0
 40
0
 40
0
 40
0
 40
1
 40
1
 40
1
 40
1
 10
2.658839
 20
6.397612
 30
0.0
 10
2.262723
 20
6.397612
 30
0.0
 10
1.831336
 20
6.430169
 30
0.0
 10
1.364679
 20
6.495284
 30
0.0
  0
LINE
  5
107
100
AcDbEntity
  8
Layer_1
 62
7
100
AcDbLine
 10
1.364679
 20
6.495284
 30
0.0
 11
1.364679
 21
12.192842
 31
0.0
  0
LINE
  5
108
100
AcDbEntity
  8
Layer_1
 62
7
100
AcDbLine
 10
1.364679
 20
12.192842
 30
0.0
 11
2.105362
 21
12.192842
 31
0.0
  0
LINE
  5
109
100
AcDbEntity
  8
Layer_1
 62
7
100
AcDbLine
 10
2.105362
 20
12.192842
 30
0.0
 11
2.105362
 21
10.491716
 31
0.0
  0
LINE
  5
10a
100
AcDbEntity
  8
Layer_1
 62
7
100
AcDbLine
 10
2.105362
 20
9.726614
 30
0.0
 11
2.105362
 21
7.138295
 31
0.0
  0
SPLINE
  5
10b
100
AcDbEntity
  8
Layer_1
 62
7
100
AcDbSpline
 70
8
 71
3
 72
8
 73
4
 74
0
 40
0
 40
0
 40
0
 40
0
 40
1
 40
1
 40
1
 40
1
 10
2.105362
 20
7.138295
 30
0.0
 10
2.257296
 20
7.105738
 30
0.0
 10
2.417371
 20
7.089459
 30
0.0
 10
2.585584
 20
7.089459
 30
0.0
  0
SPLINE
  5
10c
100
AcDbEntity
  8
Layer_1
 62
7
100
AcDbSpline
 70
8
 71
3
 72
8
 73
4
 74
0
 40
0
 40
0
 40
0
 40
0
 40
1
 40
1
 40
1
 40
1
 10
2.585584
 20
7.089459
 30
0.0
 10
2.753798
 20
7.089459
 30
0.0
 10
2.916585
 20
7.105738
 30
0.0
 10
3.073946
 20
7.138295
 30
0.0
  0
SPLINE
  5
10d
100
AcDbEntity
  8
Layer_1
 62
7
100
AcDbSpline
 70
8
 71
3
 72
8
 73
4
 74
0
 40
0
 40
0
 40
0
 40
0
 40
1
 40
1
 40
1
 40
1
 10
3.073946
 20
7.138295
 30
0.0
 10
3.236734
 20
7.176278
 30
0.0
 10
3.369677
 20
7.246820
 30
0.0
 10
3.472776
 20
7.349920
 30
0.0
  0
SPLINE
  5
10e
100
AcDbEntity
  8
Layer_1
 62
7
100
AcDbSpline
 70
8
 71
3
 72
8
 73
4
 74
0
 40
0
 40
0
 40
0
 40
0
 40
1
 40
1
 40
1
 40
1
 10
3.472776
 20
7.349920
 30
0.0
 10
3.581301
 20
7.458443
 30
0.0
 10
3.635563
 20
7.594098
 30
0.0
 10
3.635563
 20
7.756885
 30
0.0
  0
LINE
  5
10f
100
AcDbEntity
  8
Layer_1
 62
7
100
AcDbLine
 10
3.635563
 20
7.756885
 30
0.0
 11
3.635563
 21
9.140580
 31
0.0
  0
SPLINE
  5
110
100
AcDbEntity
  8
Layer_1
 62
7
100
AcDbSpline
 70
8
 71
3
 72
8
 73
4
 74
0
 40
0
 40
0
 40
0
 40
0
 40
1
 40
1
 40
1
 40
1
 10
3.635563
 20
9.140580
 30
0.0
 10
3.635563
 20
9.373908
 30
0.0
 10
3.573161
 20
9.555687
 30
0.0
 10
3.448357
 20
9.685916
 30
0.0
  0
SPLINE
  5
111
100
AcDbEntity
  8
Layer_1
 62
7
100
AcDbSpline
 70
8
 71
3
 72
8
 73
4
 74
0
 40
0
 40
0
 40
0
 40
0
 40
1
 40
1
 40
1
 40
1
 10
3.448357
 20
9.685916
 30
0.0
 10
3.307275
 20
9.832425
 30
0.0
 10
3.095652
 20
9.905679
 30
0.0
 10
2.813487
 20
9.905679
 30
0.0
  0
SPLINE
  5
112
100
AcDbEntity
  8
Layer_1
 62
7
100
AcDbSpline
 70
8
 71
3
 72
8
 73
4
 74
0
 40
0
 40
0
 40
0
 40
0
 40
1
 40
1
 40
1
 40
1
 10
2.813487
 20
9.905679
 30
0.0
 10
2.531322
 20
9.905679
 30
0.0
 10
2.295280
 20
9.845991
 30
0.0
 10
2.105362
 20
9.726614
 30
0.0
  0
LINE
  5
113
100
AcDbEntity
  8
Layer_1
 62
7
100
AcDbLine
 10
2.105362
 20
9.726614
 30
0.0
 11
2.105362
 21
9.726614
 31
0.0
  0
SPLINE
  5
114
100
AcDbEntity
  8
Layer_1
 62
7
100
AcDbSpline
 70
8
 71
3
 72
8
 73
4
 74
0
 40
0
 40
0
 40
0
 40
0
 40
1
 40
1
 40
1
 40
1
 10
6.121123
 20
11.867269
 30
0.0
 10
6.121123
 20
11.764169
 30
0.0
 10
6.080426
 20
11.669210
 30
0.0
 10
5.999032
 20
11.582391
 30
0.0
  0
SPLINE
  5
115
100
AcDbEntity
  8
Layer_1
 62
7
100
AcDbSpline
 70
8
 71
3
 72
8
 73
4
 74
0
 40
0
 40
0
 40
0
 40
0
 40
1
 40
1
 40
1
 40
1
 10
5.999032
 20
11.582391
 30
0.0
 10
5.917639
 20
11.500997
 30
0.0
 10
5.822679
 20
11.460300
 30
0.0
 10
5.714154
 20
11.460300
 30
0.0
  0
SPLINE
  5
116
100
AcDbEntity
  8
Layer_1
 62
7
100
AcDbSpline
 70
8
 71
3
 72
8
 73
4
 74
0
 40
0
 40
0
 40
0
 40
0
 40
1
 40
1
 40
1
 40
1
 10
5.714154
 20
11.460300
 30
0.0
 10
5.611056
 20
11.460300
 30
0.0
 10
5.516096
 20
11.500997
 30
0.0
 10
5.429276
 20
11.582391
 30
0.0
  0
SPLINE
  5
117
100
AcDbEntity
  8
Layer_1
 62
7
100
AcDbSpline
 70
8
 71
3
 72
8
 73
4
 74
0
 40
0
 40
0
 40
0
 40
0
 40
1
 40
1
 40
1
 40
1
 10
5.429276
 20
11.582391
 30
0.0
 10
5.347883
 20
11.669210
 30
0.0
 10
5.307186
 20
11.764169
 30
0.0
 10
5.307186
 20
11.867269
 30
0.0
  0
SPLINE
  5
118
100
AcDbEntity
  8
Layer_1
 62
7
100
AcDbSpline
 70
8
 71
3
 72
8
 73
4
 74
0
 40
0
 40
0
 40
0
 40
0
 40
1
 40
1
 40
1
 40
1
 10
5.307186
 20
11.867269
 30
0.0
 10
5.307186
 20
11.975793
 30
0.0
 10
5.347883
 20
12.070751
 30
0.0
 10
5.429276
 20
12.152145
 30
0.0
  0
SPLINE
  5
119
100
AcDbEntity
  8
Layer_1
 62
7
100
AcDbSpline
 70
8
 71
3
 72
8
 73
4
 74
0
 40
0
 40
0
 40
0
 40
0
 40
1
 40
1
 40
1
 40
1
 10
5.429276
 20
12.152145
 30
0.0
 10
5.516096
 20
12.233540
 30
0.0
 10
5.611056
 20
12.274238
 30
0.0
 10
5.714154
 20
12.274238
 30
0.0
  0
SPLINE
  5
11a
100
AcDbEntity
  8
Layer_1
 62
7
100
AcDbSpline
 70
8
 71
3
 72
8
 73
4
 74
0
 40
0
 40
0
 40
0
 40
0
 40
1
 40
1
 40
1
 40
1
 10
5.714154
 20
12.274238
 30
0.0
 10
5.822679
 20
12.274238
 30
0.0
 10
5.917639
 20
12.233540
 30
0.0
 10
5.999032
 20
12.152145
 30
0.0
  0
SPLINE
  5
11b
100
AcDbEntity
  8
Layer_1
 62
7
100
AcDbSpline
 70
8
 71
3
 72
8
 73
4
 74
0
 40
0
 40
0
 40
0
 40
0
 40
1
 40
1
 40
1
 40
1
 10
5.999032
 20
12.152145
 30
0.0
 10
6.080426
 20
12.070751
 30
0.0
 10
6.121123
 20
11.975793
 30
0.0
 10
6.121123
 20
11.867269
 30
0.0
  0
LINE
  5
11c
100
AcDbEntity
  8
Layer_1
 62
7
100
AcDbLine
 10
6.121123
 20
11.867269
 30
0.0
 11
6.121123
 21
11.867269
 31
0.0
  0
LINE
  5
11d
100
AcDbEntity
  8
Layer_1
 62
7
100
AcDbLine
 10
6.072287
 20
6.495284
 30
0.0
 11
5.331604
 21
6.495284
 31
0.0
  0
LINE
  5
11e
100
AcDbEntity
  8
Layer_1
 62
7
100
AcDbLine
 10
5.331604
 20
6.495284
 30
0.0
 11
5.331604
 21
10.573108
 31
0.0
  0
LINE
  5
11f
100
AcDbEntity
  8
Layer_1
 62
7
100
AcDbLine
 10
5.331604
 20
10.573108
 30
0.0
 11
6.072287
 21
10.573108
 31
0.0
  0
LINE
  5
120
100
AcDbEntity
  8
Layer_1
 62
7
100
AcDbLine
 10
6.072287
 20
10.573108
 30
0.0
 11
6.072287
 21
6.495284
 31
0.0
  0
LINE
  5
121
100
AcDbEntity
  8
Layer_1
 62
7
100
AcDbLine
 10
8.455596
 20
6.975507
 30
0.0
 11
8.235834
 21
6.389473
 31
0.0
  0
SPLINE
  5
122
100
AcDbEntity
  8
Layer_1
 62
7
100
AcDbSpline
 70
8
 71
3
 72
8
 73
4
 74
0
 40
0
 40
0
 40
0
 40
0
 40
1
 40
1
 40
1
 40
1
 10
8.235834
 20
6.389473
 30
0.0
 10
7.497864
 20
6.454588
 30
0.0
 10
7.128879
 20
6.847991
 30
0.0
 10
7.128879
 20
7.569682
 30
0.0
  0
LINE
  5
123
100
AcDbEntity
  8
Layer_1
 62
7
100
AcDbLine
 10
7.128879
 20
7.569682
 30
0.0
 11
7.128879
 21
12.192842
 31
0.0
  0
LINE
  5
124
100
AcDbEntity
  8
Layer_1
 62
7
100
AcDbLine
 10
7.128879
 20
12.192842
 30
0.0
 11
7.877701
 21
12.192842
 31
0.0
  0
LINE
  5
125
100
AcDbEntity
  8
Layer_1
 62
7
100
AcDbLine
 10
7.877701
 20
12.192842
 30
0.0
 11
7.877701
 21
10.573108
 31
0.0
  0
LINE
  5
126
100
AcDbEntity
  8
Layer_1
 62
7
100
AcDbLine
 10
7.877701
 20
10.573108
 30
0.0
 11
8.724195
 21
10.573108
 31
0.0
  0
LINE
  5
127
100
AcDbEntity
  8
Layer_1
 62
7
100
AcDbLine
 10
8.724195
 20
10.573108
 30
0.0
 11
8.528851
 21
9.873123
 31
0.0
  0
LINE
  5
128
100
AcDbEntity
  8
Layer_1
 62
7
100
AcDbLine
 10
8.528851
 20
9.873123
 30
0.0
 11
7.877701
 21
9.873123
 31
0.0
  0
LINE
  5
129
100
AcDbEntity
  8
Layer_1
 62
7
100
AcDbLine
 10
7.877701
 20
9.873123
 30
0.0
 11
7.877701
 21
7.569682
 31
0.0
  0
SPLINE
  5
12a
100
AcDbEntity
  8
Layer_1
 62
7
100
AcDbSpline
 70
8
 71
3
 72
8
 73
4
 74
0
 40
0
 40
0
 40
0
 40
0
 40
1
 40
1
 40
1
 40
1
 10
7.877701
 20
7.569682
 30
0.0
 10
7.877701
 20
7.227827
 30
0.0
 10
8.070333
 20
7.029769
 30
0.0
 10
8.455596
 20
6.975507
 30
0.0
  0
LINE
  5
12b
100
AcDbEntity
  8
Layer_1
 62
7
100
AcDbLine
 10
8.455596
 20
6.975507
 30
0.0
 11
8.455596
 21
6.975507
 31
0.0
  0
SPLINE
  5
12c
100
AcDbEntity
  8
Layer_1
 62
7
100
AcDbSpline
 70
8
 71
3
 72
8
 73
4
 74
0
 40
0
 40
0
 40
0
 40
0
 40
1
 40
1
 40
1
 40
1
 10
10.145914
 20
10.451018
 30
0.0
 10
10.390095
 20
10.575822
 30
0.0
 10
10.669546
 20
10.638224
 30
0.0
 10
10.984267
 20
10.638224
 30
0.0
  0
SPLINE
  5
12d
100
AcDbEntity
  8
Layer_1
 62
7
100
AcDbSpline
 70
8
 71
3
 72
8
 73
4
 74
0
 40
0
 40
0
 40
0
 40
0
 40
1
 40
1
 40
1
 40
1
 10
10.984267
 20
10.638224
 30
0.0
 10
11.081941
 20
10.638224
 30
0.0
 10
11.288139
 20
10.608380
 30
0.0
 10
11.602860
 20
10.548690
 30
0.0
  0
LINE
  5
12e
100
AcDbEntity
  8
Layer_1
 62
7
100
AcDbLine
 10
11.602860
 20
10.548690
 30
0.0
 11
11.423795
 21
9.840566
 31
0.0
  0
SPLINE
  5
12f
100
AcDbEntity
  8
Layer_1
 62
7
100
AcDbSpline
 70
8
 71
3
 72
8
 73
4
 74
0
 40
0
 40
0
 40
0
 40
0
 40
1
 40
1
 40
1
 40
1
 10
11.423795
 20
9.840566
 30
0.0
 10
11.277287
 20
9.911107
 30
0.0
 10
11.133491
 20
9.946377
 30
0.0
 10
10.992408
 20
9.946377
 30
0.0
  0
SPLINE
  5
130
100
AcDbEntity
  8
Layer_1
 62
7
100
AcDbSpline
 70
8
 71
3
 72
8
 73
4
 74
0
 40
0
 40
0
 40
0
 40
0
 40
1
 40
1
 40
1
 40
1
 10
10.992408
 20
9.946377
 30
0.0
 10
10.851325
 20
9.946377
 30
0.0
 10
10.718382
 20
9.924671
 30
0.0
 10
10.593578
 20
9.881261
 30
0.0
  0
SPLINE
  5
131
100
AcDbEntity
  8
Layer_1
 62
7
100
AcDbSpline
 70
8
 71
3
 72
8
 73
4
 74
0
 40
0
 40
0
 40
0
 40
0
 40
1
 40
1
 40
1
 40
1
 10
10.593578
 20
9.881261
 30
0.0
 10
10.300561
 20
9.772737
 30
0.0
 10
10.154052
 20
9.582819
 30
0.0
 10
10.154052
 20
9.311507
 30
0.0
  0
LINE
  5
132
100
AcDbEntity
  8
Layer_1
 62
7
100
AcDbLine
 10
10.154052
 20
9.311507
 30
0.0
 11
10.154052
 21
6.495284
 31
0.0
  0
LINE
  5
133
100
AcDbEntity
  8
Layer_1
 62
7
100
AcDbLine
 10
10.154052
 20
6.495284
 30
0.0
 11
9.413369
 21
6.495284
 31
0.0
  0
LINE
  5
134
100
AcDbEntity
  8
Layer_1
 62
7
100
AcDbLine
 10
9.413369
 20
6.495284
 30
0.0
 11
9.413369
 21
10.573108
 31
0.0
  0
LINE
  5
135
100
AcDbEntity
  8
Layer_1
 62
7
100
AcDbLine
 10
9.413369
 20
10.573108
 30
0.0
 11
10.113355
 21
10.573108
 31
0.0
  0
LINE
  5
136
100
AcDbEntity
  8
Layer_1
 62
7
100
AcDbLine
 10
10.113355
 20
10.573108
 30
0.0
 11
10.145914
 21
10.451018
 31
0.0
  0
SPLINE
  5
137
100
AcDbEntity
  8
Layer_1
 62
7
100
AcDbSpline
 70
8
 71
3
 72
8
 73
4
 74
0
 40
0
 40
0
 40
0
 40
0
 40
1
 40
1
 40
1
 40
1
 10
12.520320
 20
9.759170
 30
0.0
 10
12.992405
 20
9.759170
 30
0.0
 10
13.399374
 20
9.650646
 30
0.0
 10
13.741227
 20
9.433597
 30
0.0
  0
SPLINE
  5
138
100
AcDbEntity
  8
Layer_1
 62
7
100
AcDbSpline
 70
8
 71
3
 72
8
 73
4
 74
0
 40
0
 40
0
 40
0
 40
0
 40
1
 40
1
 40
1
 40
1
 10
13.741227
 20
9.433597
 30
0.0
 10
13.741227
 20
9.889401
 30
0.0
 10
13.404799
 20
10.117303
 30
0.0
 10
12.731944
 20
10.117303
 30
0.0
  0
LINE
  5
139
100
AcDbEntity
  8
Layer_1
 62
7
100
AcDbLine
 10
12.731944
 20
10.117303
 30
0.0
 11
12.788919
 21
10.638224
 31
0.0
  0
SPLINE
  5
13a
100
AcDbEntity
  8
Layer_1
 62
7
100
AcDbSpline
 70
8
 71
3
 72
8
 73
4
 74
0
 40
0
 40
0
 40
0
 40
0
 40
1
 40
1
 40
1
 40
1
 10
12.788919
 20
10.638224
 30
0.0
 10
13.228446
 20
10.638224
 30
0.0
 10
13.554021
 20
10.586674
 30
0.0
 10
13.765645
 20
10.483574
 30
0.0
  0
SPLINE
  5
13b
100
AcDbEntity
  8
Layer_1
 62
7
100
AcDbSpline
 70
8
 71
3
 72
8
 73
4
 74
0
 40
0
 40
0
 40
0
 40
0
 40
1
 40
1
 40
1
 40
1
 10
13.765645
 20
10.483574
 30
0.0
 10
13.879596
 20
10.423887
 30
0.0
 10
13.979981
 20
10.364199
 30
0.0
 10
14.066800
 20
10.304509
 30
0.0
  0
SPLINE
  5
13c
100
AcDbEntity
  8
Layer_1
 62
7
100
AcDbSpline
 70
8
 71
3
 72
8
 73
4
 74
0
 40
0
 40
0
 40
0
 40
0
 40
1
 40
1
 40
1
 40
1
 10
14.066800
 20
10.304509
 30
0.0
 10
14.153621
 20
10.244820
 30
0.0
 10
14.221450
 20
10.166139
 30
0.0
 10
14.270286
 20
10.068467
 30
0.0
  0
SPLINE
  5
13d
100
AcDbEntity
  8
Layer_1
 62
7
100
AcDbSpline
 70
8
 71
3
 72
8
 73
4
 74
0
 40
0
 40
0
 40
0
 40
0
 40
1
 40
1
 40
1
 40
1
 10
14.270286
 20
10.068467
 30
0.0
 10
14.319122
 20
9.970795
 30
0.0
 10
14.359819
 20
9.883975
 30
0.0
 10
14.392376
 20
9.808007
 30
0.0
  0
SPLINE
  5
13e
100
AcDbEntity
  8
Layer_1
 62
7
100
AcDbSpline
 70
8
 71
3
 72
8
 73
4
 74
0
 40
0
 40
0
 40
0
 40
0
 40
1
 40
1
 40
1
 40
1
 10
14.392376
 20
9.808007
 30
0.0
 10
14.424934
 20
9.737466
 30
0.0
 10
14.446638
 20
9.639794
 30
0.0
 10
14.457489
 20
9.514990
 30
0.0
  0
SPLINE
  5
13f
100
AcDbEntity
  8
Layer_1
 62
7
100
AcDbSpline
 70
8
 71
3
 72
8
 73
4
 74
0
 40
0
 40
0
 40
0
 40
0
 40
1
 40
1
 40
1
 40
1
 10
14.457489
 20
9.514990
 30
0.0
 10
14.473778
 20
9.325071
 30
0.0
 10
14.481923
 20
9.127013
 30
0.0
 10
14.481923
 20
8.920818
 30
0.0
  0
LINE
  5
140
100
AcDbEntity
  8
Layer_1
 62
7
100
AcDbLine
 10
14.481923
 20
8.920818
 30
0.0
 11
14.481923
 21
6.495284
 31
0.0
  0
SPLINE
  5
141
100
AcDbEntity
  8
Layer_1
 62
7
100
AcDbSpline
 70
8
 71
3
 72
8
 73
4
 74
0
 40
0
 40
0
 40
0
 40
0
 40
1
 40
1
 40
1
 40
1
 10
14.481923
 20
6.495284
 30
0.0
 10
13.917593
 20
6.441022
 30
0.0
 10
13.467216
 20
6.413891
 30
0.0
 10
13.130791
 20
6.413891
 30
0.0
  0
SPLINE
  5
142
100
AcDbEntity
  8
Layer_1
 62
7
100
AcDbSpline
 70
8
 71
3
 72
8
 73
4
 74
0
 40
0
 40
0
 40
0
 40
0
 40
1
 40
1
 40
1
 40
1
 10
13.130791
 20
6.413891
 30
0.0
 10
11.942442
 20
6.413891
 30
0.0
 10
11.348268
 20
6.899540
 30
0.0
 10
11.348268
 20
7.870837
 30
0.0
  0
LINE
  5
143
100
AcDbEntity
  8
Layer_1
 62
7
100
AcDbLine
 10
11.348268
 20
7.870837
 30
0.0
 11
11.348268
 21
8.546405
 31
0.0
  0
SPLINE
  5
144
100
AcDbEntity
  8
Layer_1
 62
7
100
AcDbSpline
 70
8
 71
3
 72
8
 73
4
 74
0
 40
0
 40
0
 40
0
 40
0
 40
1
 40
1
 40
1
 40
1
 10
11.348268
 20
8.546405
 30
0.0
 10
11.348268
 20
9.083605
 30
0.0
 10
11.535473
 20
9.444450
 30
0.0
 10
11.909884
 20
9.628942
 30
0.0
  0
SPLINE
  5
145
100
AcDbEntity
  8
Layer_1
 62
7
100
AcDbSpline
 70
8
 71
3
 72
8
 73
4
 74
0
 40
0
 40
0
 40
0
 40
0
 40
1
 40
1
 40
1
 40
1
 10
11.909884
 20
9.628942
 30
0.0
 10
12.094375
 20
9.715761
 30
0.0
 10
12.297859
 20
9.759170
 30
0.0
 10
12.520336
 20
9.759170
 30
0.0
  0
LINE
  5
146
100
AcDbEntity
  8
Layer_1
 62
7
100
AcDbLine
 10
12.520336
 20
9.759170
 30
0.0
 11
12.520320
 21
9.759170
 31
0.0
  0
LINE
  5
147
100
AcDbEntity
  8
Layer_1
 62
7
100
AcDbLine
 10
13.741227
 20
7.138295
 30
0.0
 11
13.741227
 21
8.692914
 31
0.0
  0
SPLINE
  5
148
100
AcDbEntity
  8
Layer_1
 62
7
100
AcDbSpline
 70
8
 71
3
 72
8
 73
4
 74
0
 40
0
 40
0
 40
0
 40
0
 40
1
 40
1
 40
1
 40
1
 10
13.741227
 20
8.692914
 30
0.0
 10
13.453635
 20
8.861128
 30
0.0
 10
13.125347
 20
8.966940
 30
0.0
 10
12.756362
 20
9.010349
 30
0.0
  0
SPLINE
  5
149
100
AcDbEntity
  8
Layer_1
 62
7
100
AcDbSpline
 70
8
 71
3
 72
8
 73
4
 74
0
 40
0
 40
0
 40
0
 40
0
 40
1
 40
1
 40
1
 40
1
 10
12.756362
 20
9.010349
 30
0.0
 10
12.718379
 20
9.015778
 30
0.0
 10
12.653264
 20
9.018493
 30
0.0
 10
12.561018
 20
9.018493
 30
0.0
  0
SPLINE
  5
14a
100
AcDbEntity
  8
Layer_1
 62
7
100
AcDbSpline
 70
8
 71
3
 72
8
 73
4
 74
0
 40
0
 40
0
 40
0
 40
0
 40
1
 40
1
 40
1
 40
1
 10
12.561018
 20
9.018493
 30
0.0
 10
12.474199
 20
9.018493
 30
0.0
 10
12.373813
 20
8.977796
 30
0.0
 10
12.259859
 20
8.896403
 30
0.0
  0
SPLINE
  5
14b
100
AcDbEntity
  8
Layer_1
 62
7
100
AcDbSpline
 70
8
 71
3
 72
8
 73
4
 74
0
 40
0
 40
0
 40
0
 40
0
 40
1
 40
1
 40
1
 40
1
 10
12.259859
 20
8.896403
 30
0.0
 10
12.145908
 20
8.820435
 30
0.0
 10
12.088933
 20
8.676639
 30
0.0
 10
12.088933
 20
8.465016
 30
0.0
  0
LINE
  5
14c
100
AcDbEntity
  8
Layer_1
 62
7
100
AcDbLine
 10
12.088933
 20
8.465016
 30
0.0
 11
12.088933
 21
7.927818
 31
0.0
  0
SPLINE
  5
14d
100
AcDbEntity
  8
Layer_1
 62
7
100
AcDbSpline
 70
8
 71
3
 72
8
 73
4
 74
0
 40
0
 40
0
 40
0
 40
0
 40
1
 40
1
 40
1
 40
1
 10
12.088933
 20
7.927818
 30
0.0
 10
12.088933
 20
7.368914
 30
0.0
 10
12.441639
 20
7.089462
 30
0.0
 10
13.147051
 20
7.089462
 30
0.0
  0
SPLINE
  5
14e
100
AcDbEntity
  8
Layer_1
 62
7
100
AcDbSpline
 70
8
 71
3
 72
8
 73
4
 74
0
 40
0
 40
0
 40
0
 40
0
 40
1
 40
1
 40
1
 40
1
 10
13.147051
 20
7.089462
 30
0.0
 10
13.326117
 20
7.089462
 30
0.0
 10
13.524176
 20
7.105741
 30
0.0
 10
13.741227
 20
7.138298
 30
0.0
  0
LINE
  5
14f
100
AcDbEntity
  8
Layer_1
 62
7
100
AcDbLine
 10
13.741227
 20
7.138298
 30
0.0
 11
13.741227
 21
7.138295
 31
0.0
  0
LINE
  5
150
100
AcDbEntity
  8
Layer_1
 62
7
100
AcDbLine
 10
16.277912
 20
6.495284
 30
0.0
 11
15.529090
 21
6.495284
 31
0.0
  0
LINE
  5
151
100
AcDbEntity
  8
Layer_1
 62
7
100
AcDbLine
 10
15.529090
 20
6.495284
 30
0.0
 11
15.529090
 21
10.963797
 31
0.0
  0
SPLINE
  5
152
100
AcDbEntity
  8
Layer_1
 62
7
100
AcDbSpline
 70
8
 71
3
 72
8
 73
4
 74
0
 40
0
 40
0
 40
0
 40
0
 40
1
 40
1
 40
1
 40
1
 10
15.529090
 20
10.963797
 30
0.0
 10
15.529090
 20
11.446733
 30
0.0
 10
15.653894
 20
11.785874
 30
0.0
 10
15.903500
 20
11.981218
 30
0.0
  0
SPLINE
  5
153
100
AcDbEntity
  8
Layer_1
 62
7
100
AcDbSpline
 70
8
 71
3
 72
8
 73
4
 74
0
 40
0
 40
0
 40
0
 40
0
 40
1
 40
1
 40
1
 40
1
 10
15.903500
 20
11.981218
 30
0.0
 10
16.158534
 20
12.181990
 30
0.0
 10
16.418994
 20
12.282376
 30
0.0
 10
16.684881
 20
12.282376
 30
0.0
  0
SPLINE
  5
154
100
AcDbEntity
  8
Layer_1
 62
7
100
AcDbSpline
 70
8
 71
3
 72
8
 73
4
 74
0
 40
0
 40
0
 40
0
 40
0
 40
1
 40
1
 40
1
 40
1
 10
16.684881
 20
12.282376
 30
0.0
 10
16.809683
 20
12.282376
 30
0.0
 10
16.964331
 20
12.271524
 30
0.0
 10
17.148825
 20
12.249820
 30
0.0
  0
LINE
  5
155
100
AcDbEntity
  8
Layer_1
 62
7
100
AcDbLine
 10
17.148825
 20
12.249820
 30
0.0
 11
17.026734
 21
11.582391
 31
0.0
  0
SPLINE
  5
156
100
AcDbEntity
  8
Layer_1
 62
7
100
AcDbSpline
 70
8
 71
3
 72
8
 73
4
 74
0
 40
0
 40
0
 40
0
 40
0
 40
1
 40
1
 40
1
 40
1
 10
17.026734
 20
11.582391
 30
0.0
 10
16.961619
 20
11.598659
 30
0.0
 10
16.882939
 20
11.606793
 30
0.0
 10
16.790692
 20
11.606793
 30
0.0
  0
SPLINE
  5
157
100
AcDbEntity
  8
Layer_1
 62
7
100
AcDbSpline
 70
8
 71
3
 72
8
 73
4
 74
0
 40
0
 40
0
 40
0
 40
0
 40
1
 40
1
 40
1
 40
1
 10
16.790692
 20
11.606793
 30
0.0
 10
16.703873
 20
11.606793
 30
0.0
 10
16.608913
 20
11.574236
 30
0.0
 10
16.505813
 20
11.509121
 30
0.0
  0
SPLINE
  5
158
100
AcDbEntity
  8
Layer_1
 62
7
100
AcDbSpline
 70
8
 71
3
 72
8
 73
4
 74
0
 40
0
 40
0
 40
0
 40
0
 40
1
 40
1
 40
1
 40
1
 10
16.505813
 20
11.509121
 30
0.0
 10
16.353879
 20
11.422299
 30
0.0
 10
16.277912
 20
11.240520
 30
0.0
 10
16.277912
 20
10.963782
 30
0.0
  0
LINE
  5
159
100
AcDbEntity
  8
Layer_1
 62
7
100
AcDbLine
 10
16.277912
 20
10.963782
 30
0.0
 11
16.277912
 21
10.573093
 31
0.0
  0
LINE
  5
15a
100
AcDbEntity
  8
Layer_1
 62
7
100
AcDbLine
 10
16.277912
 20
10.573093
 30
0.0
 11
17.067429
 21
10.573093
 31
0.0
  0
LINE
  5
15b
100
AcDbEntity
  8
Layer_1
 62
7
100
AcDbLine
 10
17.067429
 20
10.573093
 30
0.0
 11
16.872084
 21
9.873107
 31
0.0
  0
LINE
  5
15c
100
AcDbEntity
  8
Layer_1
 62
7
100
AcDbLine
 10
16.872084
 20
9.873107
 30
0.0
 11
16.277912
 21
9.873107
 31
0.0
  0
LINE
  5
15d
100
AcDbEntity
  8
Layer_1
 62
7
100
AcDbLine
 10
16.277912
 20
9.873107
 30
0.0
 11
16.277912
 21
6.495284
 31
0.0
  0
LINE
  5
15e
100
AcDbEntity
  8
Layer_1
 62
7
100
AcDbLine
 10
2.720927
 20
4.769951
 30
0.0
 11
2.508364
 21
4.769951
 31
0.0
  0
LINE
  5
15f
100
AcDbEntity
  8
Layer_1
 62
7
100
AcDbLine
 10
2.508364
 20
4.769951
 30
0.0
 11
2.508364
 21
5.412544
 31
0.0
  0
LINE
  5
160
100
AcDbEntity
  8
Layer_1
 62
7
100
AcDbLine
 10
2.508364
 20
5.412544
 30
0.0
 11
1.970416
 21
5.412544
 31
0.0
  0
LINE
  5
161
100
AcDbEntity
  8
Layer_1
 62
7
100
AcDbLine
 10
1.970416
 20
5.412544
 30
0.0
 11
1.322917
 21
4.941636
 31
0.0
  0
LINE
  5
162
100
AcDbEntity
  8
Layer_1
 62
7
100
AcDbLine
 10
1.322917
 20
4.941636
 30
0.0
 11
1.322917
 21
4.524687
 31
0.0
  0
LINE
  5
163
100
AcDbEntity
  8
Layer_1
 62
7
100
AcDbLine
 10
1.322917
 20
4.524687
 30
0.0
 11
2.192790
 21
4.524687
 31
0.0
  0
LINE
  5
164
100
AcDbEntity
  8
Layer_1
 62
7
100
AcDbLine
 10
2.192790
 20
4.524687
 30
0.0
 11
2.192790
 21
4.321934
 31
0.0
  0
LINE
  5
165
100
AcDbEntity
  8
Layer_1
 62
7
100
AcDbLine
 10
2.192790
 20
4.321934
 30
0.0
 11
2.508364
 21
4.321934
 31
0.0
  0
LINE
  5
166
100
AcDbEntity
  8
Layer_1
 62
7
100
AcDbLine
 10
2.508364
 20
4.321934
 30
0.0
 11
2.508364
 21
4.524687
 31
0.0
  0
LINE
  5
167
100
AcDbEntity
  8
Layer_1
 62
7
100
AcDbLine
 10
2.508364
 20
4.524687
 30
0.0
 11
2.720927
 21
4.524687
 31
0.0
  0
LINE
  5
168
100
AcDbEntity
  8
Layer_1
 62
7
100
AcDbLine
 10
2.720927
 20
4.524687
 30
0.0
 11
2.720927
 21
4.769951
 31
0.0
  0
LINE
  5
169
100
AcDbEntity
  8
Layer_1
 62
7
100
AcDbLine
 10
2.192790
 20
4.769951
 30
0.0
 11
1.620505
 21
4.769951
 31
0.0
  0
LINE
  5
16a
100
AcDbEntity
  8
Layer_1
 62
7
100
AcDbLine
 10
1.620505
 20
4.769951
 30
0.0
 11
1.620505
 21
4.812464
 31
0.0
  0
LINE
  5
16b
100
AcDbEntity
  8
Layer_1
 62
7
100
AcDbLine
 10
1.620505
 20
4.812464
 30
0.0
 11
2.125751
 21
5.159105
 31
0.0
  0
LINE
  5
16c
100
AcDbEntity
  8
Layer_1
 62
7
100
AcDbLine
 10
2.125751
 20
5.159105
 30
0.0
 11
2.192790
 21
5.159105
 31
0.0
  0
LINE
  5
16d
100
AcDbEntity
  8
Layer_1
 62
7
100
AcDbLine
 10
2.192790
 20
5.159105
 30
0.0
 11
2.192790
 21
4.769951
 31
0.0
  0
LINE
  5
16e
100
AcDbEntity
  8
Layer_1
 62
7
100
AcDbLine
 10
3.126840
 20
5.031568
 30
0.0
 11
3.126840
 21
5.056095
 31
0.0
  0
SPLINE
  5
16f
100
AcDbEntity
  8
Layer_1
 62
7
100
AcDbSpline
 70
8
 71
3
 72
8
 73
4
 74
0
 40
0
 40
0
 40
0
 40
0
 40
1
 40
1
 40
1
 40
1
 10
3.126840
 20
5.056095
 30
0.0
 10
3.126840
 20
5.173821
 30
0.0
 10
3.126840
 20
5.173821
 30
0.0
 10
3.463671
 20
5.173821
 30
0.0
  0
SPLINE
  5
170
100
AcDbEntity
  8
Layer_1
 62
7
100
AcDbSpline
 70
8
 71
3
 72
8
 73
4
 74
0
 40
0
 40
0
 40
0
 40
0
 40
1
 40
1
 40
1
 40
1
 10
3.463671
 20
5.173821
 30
0.0
 10
3.744908
 20
5.173821
 30
0.0
 10
3.767799
 20
5.167286
 30
0.0
 10
3.767799
 20
5.083889
 30
0.0
  0
SPLINE
  5
171
100
AcDbEntity
  8
Layer_1
 62
7
100
AcDbSpline
 70
8
 71
3
 72
8
 73
4
 74
0
 40
0
 40
0
 40
0
 40
0
 40
1
 40
1
 40
1
 40
1
 10
3.767799
 20
5.083889
 30
0.0
 10
3.767799
 20
5.008676
 30
0.0
 10
3.730192
 20
4.992325
 30
0.0
 10
3.566682
 20
4.992325
 30
0.0
  0
LINE
  5
172
100
AcDbEntity
  8
Layer_1
 62
7
100
AcDbLine
 10
3.566682
 20
4.992325
 30
0.0
 11
3.314877
 21
4.992325
 31
0.0
  0
LINE
  5
173
100
AcDbEntity
  8
Layer_1
 62
7
100
AcDbLine
 10
3.314877
 20
4.992325
 30
0.0
 11
3.314877
 21
4.758505
 31
0.0
  0
LINE
  5
174
100
AcDbEntity
  8
Layer_1
 62
7
100
AcDbLine
 10
3.314877
 20
4.758505
 30
0.0
 11
3.506183
 21
4.758505
 31
0.0
  0
SPLINE
  5
175
100
AcDbEntity
  8
Layer_1
 62
7
100
AcDbSpline
 70
8
 71
3
 72
8
 73
4
 74
0
 40
0
 40
0
 40
0
 40
0
 40
1
 40
1
 40
1
 40
1
 10
3.506183
 20
4.758505
 30
0.0
 10
3.704030
 20
4.755224
 30
0.0
 10
3.712206
 20
4.755224
 30
0.0
 10
3.740003
 20
4.748689
 30
0.0
  0
SPLINE
  5
176
100
AcDbEntity
  8
Layer_1
 62
7
100
AcDbSpline
 70
8
 71
3
 72
8
 73
4
 74
0
 40
0
 40
0
 40
0
 40
0
 40
1
 40
1
 40
1
 40
1
 10
3.740003
 20
4.748689
 30
0.0
 10
3.774339
 20
4.738873
 30
0.0
 10
3.789056
 20
4.714354
 30
0.0
 10
3.789056
 20
4.665300
 30
0.0
  0
SPLINE
  5
177
100
AcDbEntity
  8
Layer_1
 62
7
100
AcDbSpline
 70
8
 71
3
 72
8
 73
4
 74
0
 40
0
 40
0
 40
0
 40
0
 40
1
 40
1
 40
1
 40
1
 10
3.789056
 20
4.665300
 30
0.0
 10
3.789056
 20
4.603165
 30
0.0
 10
3.767799
 20
4.581909
 30
0.0
 10
3.699125
 20
4.573733
 30
0.0
  0
SPLINE
  5
178
100
AcDbEntity
  8
Layer_1
 62
7
100
AcDbSpline
 70
8
 71
3
 72
8
 73
4
 74
0
 40
0
 40
0
 40
0
 40
0
 40
1
 40
1
 40
1
 40
1
 10
3.699125
 20
4.573733
 30
0.0
 10
3.672963
 20
4.570452
 30
0.0
 10
3.514359
 20
4.565557
 30
0.0
 10
3.453860
 20
4.565557
 30
0.0
  0
SPLINE
  5
179
100
AcDbEntity
  8
Layer_1
 62
7
100
AcDbSpline
 70
8
 71
3
 72
8
 73
4
 74
0
 40
0
 40
0
 40
0
 40
0
 40
1
 40
1
 40
1
 40
1
 10
3.453860
 20
4.565557
 30
0.0
 10
3.341038
 20
4.565557
 30
0.0
 10
3.200420
 20
4.570452
 30
0.0
 10
3.180799
 20
4.573733
 30
0.0
  0
SPLINE
  5
17a
100
AcDbEntity
  8
Layer_1
 62
7
100
AcDbSpline
 70
8
 71
3
 72
8
 73
4
 74
0
 40
0
 40
0
 40
0
 40
0
 40
1
 40
1
 40
1
 40
1
 10
3.180799
 20
4.573733
 30
0.0
 10
3.135016
 20
4.585189
 30
0.0
 10
3.123570
 20
4.606436
 30
0.0
 10
3.123570
 20
4.694732
 30
0.0
  0
LINE
  5
17b
100
AcDbEntity
  8
Layer_1
 62
7
100
AcDbLine
 10
3.123570
 20
4.694732
 30
0.0
 11
3.121930
 21
4.714364
 31
0.0
  0
LINE
  5
17c
100
AcDbEntity
  8
Layer_1
 62
7
100
AcDbLine
 10
3.121930
 20
4.714364
 30
0.0
 11
2.806356
 21
4.714364
 31
0.0
  0
SPLINE
  5
17d
100
AcDbEntity
  8
Layer_1
 62
7
100
AcDbSpline
 70
8
 71
3
 72
8
 73
4
 74
0
 40
0
 40
0
 40
0
 40
0
 40
1
 40
1
 40
1
 40
1
 10
2.806356
 20
4.714364
 30
0.0
 10
2.806356
 20
4.508341
 30
0.0
 10
2.821072
 20
4.446207
 30
0.0
 10
2.878300
 20
4.392250
 30
0.0
  0
SPLINE
  5
17e
100
AcDbEntity
  8
Layer_1
 62
7
100
AcDbSpline
 70
8
 71
3
 72
8
 73
4
 74
0
 40
0
 40
0
 40
0
 40
0
 40
1
 40
1
 40
1
 40
1
 10
2.878300
 20
4.392250
 30
0.0
 10
2.946974
 20
4.330115
 30
0.0
 10
3.061431
 20
4.308859
 30
0.0
 10
3.339398
 20
4.308859
 30
0.0
  0
SPLINE
  5
17f
100
AcDbEntity
  8
Layer_1
 62
7
100
AcDbSpline
 70
8
 71
3
 72
8
 73
4
 74
0
 40
0
 40
0
 40
0
 40
0
 40
1
 40
1
 40
1
 40
1
 10
3.339398
 20
4.308859
 30
0.0
 10
3.690944
 20
4.308859
 30
0.0
 10
3.862630
 20
4.320315
 30
0.0
 10
3.949290
 20
4.349737
 30
0.0
  0
SPLINE
  5
180
100
AcDbEntity
  8
Layer_1
 62
7
100
AcDbSpline
 70
8
 71
3
 72
8
 73
4
 74
0
 40
0
 40
0
 40
0
 40
0
 40
1
 40
1
 40
1
 40
1
 10
3.949290
 20
4.349737
 30
0.0
 10
4.068652
 20
4.390615
 30
0.0
 10
4.111165
 20
4.460923
 30
0.0
 10
4.111165
 20
4.622797
 30
0.0
  0
SPLINE
  5
181
100
AcDbEntity
  8
Layer_1
 62
7
100
AcDbSpline
 70
8
 71
3
 72
8
 73
4
 74
0
 40
0
 40
0
 40
0
 40
0
 40
1
 40
1
 40
1
 40
1
 10
4.111165
 20
4.622797
 30
0.0
 10
4.111165
 20
4.804294
 30
0.0
 10
4.080098
 20
4.845172
 30
0.0
 10
3.913318
 20
4.882780
 30
0.0
  0
SPLINE
  5
182
100
AcDbEntity
  8
Layer_1
 62
7
100
AcDbSpline
 70
8
 71
3
 72
8
 73
4
 74
0
 40
0
 40
0
 40
0
 40
0
 40
1
 40
1
 40
1
 40
1
 10
3.913318
 20
4.882780
 30
0.0
 10
4.049031
 20
4.910574
 30
0.0
 10
4.089909
 20
4.964533
 30
0.0
 10
4.089909
 20
5.118232
 30
0.0
  0
SPLINE
  5
183
100
AcDbEntity
  8
Layer_1
 62
7
100
AcDbSpline
 70
8
 71
3
 72
8
 73
4
 74
0
 40
0
 40
0
 40
0
 40
0
 40
1
 40
1
 40
1
 40
1
 10
4.089909
 20
5.118232
 30
0.0
 10
4.089909
 20
5.249040
 30
0.0
 10
4.063747
 20
5.317715
 30
0.0
 10
3.995073
 20
5.365134
 30
0.0
  0
SPLINE
  5
184
100
AcDbEntity
  8
Layer_1
 62
7
100
AcDbSpline
 70
8
 71
3
 72
8
 73
4
 74
0
 40
0
 40
0
 40
0
 40
0
 40
1
 40
1
 40
1
 40
1
 10
3.995073
 20
5.365134
 30
0.0
 10
3.926398
 20
5.412550
 30
0.0
 10
3.818482
 20
5.425631
 30
0.0
 10
3.502908
 20
5.425631
 30
0.0
  0
SPLINE
  5
185
100
AcDbEntity
  8
Layer_1
 62
7
100
AcDbSpline
 70
8
 71
3
 72
8
 73
4
 74
0
 40
0
 40
0
 40
0
 40
0
 40
1
 40
1
 40
1
 40
1
 10
3.502908
 20
5.425631
 30
0.0
 10
2.901191
 20
5.425631
 30
0.0
 10
2.809626
 20
5.383120
 30
0.0
 10
2.809626
 20
5.096976
 30
0.0
  0
LINE
  5
186
100
AcDbEntity
  8
Layer_1
 62
7
100
AcDbLine
 10
2.809626
 20
5.096976
 30
0.0
 11
2.809626
 21
5.031573
 31
0.0
  0
LINE
  5
187
100
AcDbEntity
  8
Layer_1
 62
7
100
AcDbLine
 10
2.809626
 20
5.031573
 30
0.0
 11
3.126840
 21
5.031568
 31
0.0
  0
LINE
  5
188
100
AcDbEntity
  8
Layer_1
 62
7
100
AcDbLine
 10
4.608649
 20
5.031568
 30
0.0
 11
4.608649
 21
5.056095
 31
0.0
  0
SPLINE
  5
189
100
AcDbEntity
  8
Layer_1
 62
7
100
AcDbSpline
 70
8
 71
3
 72
8
 73
4
 74
0
 40
0
 40
0
 40
0
 40
0
 40
1
 40
1
 40
1
 40
1
 10
4.608649
 20
5.056095
 30
0.0
 10
4.608649
 20
5.173821
 30
0.0
 10
4.608649
 20
5.173821
 30
0.0
 10
4.945479
 20
5.173821
 30
0.0
  0
SPLINE
  5
18a
100
AcDbEntity
  8
Layer_1
 62
7
100
AcDbSpline
 70
8
 71
3
 72
8
 73
4
 74
0
 40
0
 40
0
 40
0
 40
0
 40
1
 40
1
 40
1
 40
1
 10
4.945479
 20
5.173821
 30
0.0
 10
5.226716
 20
5.173821
 30
0.0
 10
5.249608
 20
5.167286
 30
0.0
 10
5.249608
 20
5.083889
 30
0.0
  0
SPLINE
  5
18b
100
AcDbEntity
  8
Layer_1
 62
7
100
AcDbSpline
 70
8
 71
3
 72
8
 73
4
 74
0
 40
0
 40
0
 40
0
 40
0
 40
1
 40
1
 40
1
 40
1
 10
5.249608
 20
5.083889
 30
0.0
 10
5.249608
 20
5.008676
 30
0.0
 10
5.212001
 20
4.992325
 30
0.0
 10
5.048491
 20
4.992325
 30
0.0
  0
LINE
  5
18c
100
AcDbEntity
  8
Layer_1
 62
7
100
AcDbLine
 10
5.048491
 20
4.992325
 30
0.0
 11
4.796685
 21
4.992325
 31
0.0
  0
LINE
  5
18d
100
AcDbEntity
  8
Layer_1
 62
7
100
AcDbLine
 10
4.796685
 20
4.992325
 30
0.0
 11
4.796685
 21
4.758505
 31
0.0
  0
LINE
  5
18e
100
AcDbEntity
  8
Layer_1
 62
7
100
AcDbLine
 10
4.796685
 20
4.758505
 30
0.0
 11
4.987992
 21
4.758505
 31
0.0
  0
SPLINE
  5
18f
100
AcDbEntity
  8
Layer_1
 62
7
100
AcDbSpline
 70
8
 71
3
 72
8
 73
4
 74
0
 40
0
 40
0
 40
0
 40
0
 40
1
 40
1
 40
1
 40
1
 10
4.987992
 20
4.758505
 30
0.0
 10
5.185839
 20
4.755224
 30
0.0
 10
5.194015
 20
4.755224
 30
0.0
 10
5.221811
 20
4.748689
 30
0.0
  0
SPLINE
  5
190
100
AcDbEntity
  8
Layer_1
 62
7
100
AcDbSpline
 70
8
 71
3
 72
8
 73
4
 74
0
 40
0
 40
0
 40
0
 40
0
 40
1
 40
1
 40
1
 40
1
 10
5.221811
 20
4.748689
 30
0.0
 10
5.256148
 20
4.738873
 30
0.0
 10
5.270864
 20
4.714354
 30
0.0
 10
5.270864
 20
4.665300
 30
0.0
  0
SPLINE
  5
191
100
AcDbEntity
  8
Layer_1
 62
7
100
AcDbSpline
 70
8
 71
3
 72
8
 73
4
 74
0
 40
0
 40
0
 40
0
 40
0
 40
1
 40
1
 40
1
 40
1
 10
5.270864
 20
4.665300
 30
0.0
 10
5.270864
 20
4.603165
 30
0.0
 10
5.249607
 20
4.581909
 30
0.0
 10
5.180934
 20
4.573733
 30
0.0
  0
SPLINE
  5
192
100
AcDbEntity
  8
Layer_1
 62
7
100
AcDbSpline
 70
8
 71
3
 72
8
 73
4
 74
0
 40
0
 40
0
 40
0
 40
0
 40
1
 40
1
 40
1
 40
1
 10
5.180934
 20
4.573733
 30
0.0
 10
5.154772
 20
4.570452
 30
0.0
 10
4.996168
 20
4.565557
 30
0.0
 10
4.935669
 20
4.565557
 30
0.0
  0
SPLINE
  5
193
100
AcDbEntity
  8
Layer_1
 62
7
100
AcDbSpline
 70
8
 71
3
 72
8
 73
4
 74
0
 40
0
 40
0
 40
0
 40
0
 40
1
 40
1
 40
1
 40
1
 10
4.935669
 20
4.565557
 30
0.0
 10
4.822847
 20
4.565557
 30
0.0
 10
4.682228
 20
4.570452
 30
0.0
 10
4.662607
 20
4.573733
 30
0.0
  0
SPLINE
  5
194
100
AcDbEntity
  8
Layer_1
 62
7
100
AcDbSpline
 70
8
 71
3
 72
8
 73
4
 74
0
 40
0
 40
0
 40
0
 40
0
 40
1
 40
1
 40
1
 40
1
 10
4.662607
 20
4.573733
 30
0.0
 10
4.616824
 20
4.585189
 30
0.0
 10
4.605379
 20
4.606436
 30
0.0
 10
4.605379
 20
4.694732
 30
0.0
  0
LINE
  5
195
100
AcDbEntity
  8
Layer_1
 62
7
100
AcDbLine
 10
4.605379
 20
4.694732
 30
0.0
 11
4.603738
 21
4.714364
 31
0.0
  0
LINE
  5
196
100
AcDbEntity
  8
Layer_1
 62
7
100
AcDbLine
 10
4.603738
 20
4.714364
 30
0.0
 11
4.288164
 21
4.714364
 31
0.0
  0
SPLINE
  5
197
100
AcDbEntity
  8
Layer_1
 62
7
100
AcDbSpline
 70
8
 71
3
 72
8
 73
4
 74
0
 40
0
 40
0
 40
0
 40
0
 40
1
 40
1
 40
1
 40
1
 10
4.288164
 20
4.714364
 30
0.0
 10
4.288164
 20
4.508341
 30
0.0
 10
4.302880
 20
4.446207
 30
0.0
 10
4.360109
 20
4.392250
 30
0.0
  0
SPLINE
  5
198
100
AcDbEntity
  8
Layer_1
 62
7
100
AcDbSpline
 70
8
 71
3
 72
8
 73
4
 74
0
 40
0
 40
0
 40
0
 40
0
 40
1
 40
1
 40
1
 40
1
 10
4.360109
 20
4.392250
 30
0.0
 10
4.428783
 20
4.330115
 30
0.0
 10
4.543240
 20
4.308859
 30
0.0
 10
4.821207
 20
4.308859
 30
0.0
  0
SPLINE
  5
199
100
AcDbEntity
  8
Layer_1
 62
7
100
AcDbSpline
 70
8
 71
3
 72
8
 73
4
 74
0
 40
0
 40
0
 40
0
 40
0
 40
1
 40
1
 40
1
 40
1
 10
4.821207
 20
4.308859
 30
0.0
 10
5.172753
 20
4.308859
 30
0.0
 10
5.344438
 20
4.320315
 30
0.0
 10
5.431099
 20
4.349737
 30
0.0
  0
SPLINE
  5
19a
100
AcDbEntity
  8
Layer_1
 62
7
100
AcDbSpline
 70
8
 71
3
 72
8
 73
4
 74
0
 40
0
 40
0
 40
0
 40
0
 40
1
 40
1
 40
1
 40
1
 10
5.431099
 20
4.349737
 30
0.0
 10
5.550461
 20
4.390615
 30
0.0
 10
5.592973
 20
4.460923
 30
0.0
 10
5.592973
 20
4.622797
 30
0.0
  0
SPLINE
  5
19b
100
AcDbEntity
  8
Layer_1
 62
7
100
AcDbSpline
 70
8
 71
3
 72
8
 73
4
 74
0
 40
0
 40
0
 40
0
 40
0
 40
1
 40
1
 40
1
 40
1
 10
5.592973
 20
4.622797
 30
0.0
 10
5.592973
 20
4.804294
 30
0.0
 10
5.561907
 20
4.845172
 30
0.0
 10
5.395126
 20
4.882780
 30
0.0
  0
SPLINE
  5
19c
100
AcDbEntity
  8
Layer_1
 62
7
100
AcDbSpline
 70
8
 71
3
 72
8
 73
4
 74
0
 40
0
 40
0
 40
0
 40
0
 40
1
 40
1
 40
1
 40
1
 10
5.395126
 20
4.882780
 30
0.0
 10
5.530840
 20
4.910574
 30
0.0
 10
5.571717
 20
4.964533
 30
0.0
 10
5.571717
 20
5.118232
 30
0.0
  0
SPLINE
  5
19d
100
AcDbEntity
  8
Layer_1
 62
7
100
AcDbSpline
 70
8
 71
3
 72
8
 73
4
 74
0
 40
0
 40
0
 40
0
 40
0
 40
1
 40
1
 40
1
 40
1
 10
5.571717
 20
5.118232
 30
0.0
 10
5.571717
 20
5.249040
 30
0.0
 10
5.545555
 20
5.317715
 30
0.0
 10
5.476881
 20
5.365134
 30
0.0
  0
SPLINE
  5
19e
100
AcDbEntity
  8
Layer_1
 62
7
100
AcDbSpline
 70
8
 71
3
 72
8
 73
4
 74
0
 40
0
 40
0
 40
0
 40
0
 40
1
 40
1
 40
1
 40
1
 10
5.476881
 20
5.365134
 30
0.0
 10
5.408207
 20
5.412550
 30
0.0
 10
5.300291
 20
5.425631
 30
0.0
 10
4.984716
 20
5.425631
 30
0.0
  0
SPLINE
  5
19f
100
AcDbEntity
  8
Layer_1
 62
7
100
AcDbSpline
 70
8
 71
3
 72
8
 73
4
 74
0
 40
0
 40
0
 40
0
 40
0
 40
1
 40
1
 40
1
 40
1
 10
4.984716
 20
5.425631
 30
0.0
 10
4.383000
 20
5.425631
 30
0.0
 10
4.291435
 20
5.383120
 30
0.0
 10
4.291435
 20
5.096976
 30
0.0
  0
LINE
  5
1a0
100
AcDbEntity
  8
Layer_1
 62
7
100
AcDbLine
 10
4.291435
 20
5.096976
 30
0.0
 11
4.291435
 21
5.031573
 31
0.0
  0
LINE
  5
1a1
100
AcDbEntity
  8
Layer_1
 62
7
100
AcDbLine
 10
4.291435
 20
5.031573
 30
0.0
 11
4.608649
 21
5.031568
 31
0.0
  0
LINE
  5
1a2
100
AcDbEntity
  8
Layer_1
 62
7
100
AcDbLine
 10
6.178753
 20
5.412544
 30
0.0
 11
6.178753
 21
4.321934
 31
0.0
  0
LINE
  5
1a3
100
AcDbEntity
  8
Layer_1
 62
7
100
AcDbLine
 10
6.178753
 20
4.321934
 30
0.0
 11
6.505773
 21
4.321934
 31
0.0
  0
LINE
  5
1a4
100
AcDbEntity
  8
Layer_1
 62
7
100
AcDbLine
 10
6.505773
 20
4.321934
 30
0.0
 11
6.497597
 21
5.137849
 31
0.0
  0
LINE
  5
1a5
100
AcDbEntity
  8
Layer_1
 62
7
100
AcDbLine
 10
6.497597
 20
5.137849
 30
0.0
 11
6.556461
 21
5.137849
 31
0.0
  0
LINE
  5
1a6
100
AcDbEntity
  8
Layer_1
 62
7
100
AcDbLine
 10
6.556461
 20
5.137849
 30
0.0
 11
6.966871
 21
4.321934
 31
0.0
  0
LINE
  5
1a7
100
AcDbEntity
  8
Layer_1
 62
7
100
AcDbLine
 10
6.966871
 20
4.321934
 30
0.0
 11
7.243202
 21
4.321934
 31
0.0
  0
LINE
  5
1a8
100
AcDbEntity
  8
Layer_1
 62
7
100
AcDbLine
 10
7.243202
 20
4.321934
 30
0.0
 11
7.653612
 21
5.137849
 31
0.0
  0
LINE
  5
1a9
100
AcDbEntity
  8
Layer_1
 62
7
100
AcDbLine
 10
7.653612
 20
5.137849
 30
0.0
 11
7.709206
 21
5.137849
 31
0.0
  0
LINE
  5
1aa
100
AcDbEntity
  8
Layer_1
 62
7
100
AcDbLine
 10
7.709206
 20
5.137849
 30
0.0
 11
7.701030
 21
4.321934
 31
0.0
  0
LINE
  5
1ab
100
AcDbEntity
  8
Layer_1
 62
7
100
AcDbLine
 10
7.701030
 20
4.321934
 30
0.0
 11
8.028050
 21
4.321934
 31
0.0
  0
LINE
  5
1ac
100
AcDbEntity
  8
Layer_1
 62
7
100
AcDbLine
 10
8.028050
 20
4.321934
 30
0.0
 11
8.028050
 21
5.412544
 31
0.0
  0
LINE
  5
1ad
100
AcDbEntity
  8
Layer_1
 62
7
100
AcDbLine
 10
8.028050
 20
5.412544
 30
0.0
 11
7.429603
 21
5.412544
 31
0.0
  0
LINE
  5
1ae
100
AcDbEntity
  8
Layer_1
 62
7
100
AcDbLine
 10
7.429603
 20
5.412544
 30
0.0
 11
7.104219
 21
4.704548
 31
0.0
  0
LINE
  5
1af
100
AcDbEntity
  8
Layer_1
 62
7
100
AcDbLine
 10
7.104219
 20
4.704548
 30
0.0
 11
6.780469
 21
5.412544
 31
0.0
  0
LINE
  5
1b0
100
AcDbEntity
  8
Layer_1
 62
7
100
AcDbLine
 10
6.780469
 20
5.412544
 30
0.0
 11
6.178753
 21
5.412544
 31
0.0
  0
LINE
  5
1b1
100
AcDbEntity
  8
Layer_1
 62
7
100
AcDbLine
 10
8.181111
 20
5.412544
 30
0.0
 11
8.181111
 21
4.321934
 31
0.0
  0
LINE
  5
1b2
100
AcDbEntity
  8
Layer_1
 62
7
100
AcDbLine
 10
8.181111
 20
4.321934
 30
0.0
 11
8.529387
 21
4.321934
 31
0.0
  0
LINE
  5
1b3
100
AcDbEntity
  8
Layer_1
 62
7
100
AcDbLine
 10
8.529387
 20
4.321934
 30
0.0
 11
8.529387
 21
4.715994
 31
0.0
  0
LINE
  5
1b4
100
AcDbEntity
  8
Layer_1
 62
7
100
AcDbLine
 10
8.529387
 20
4.715994
 30
0.0
 11
9.279898
 21
4.715994
 31
0.0
  0
LINE
  5
1b5
100
AcDbEntity
  8
Layer_1
 62
7
100
AcDbLine
 10
9.279898
 20
4.715994
 30
0.0
 11
9.279898
 21
4.321934
 31
0.0
  0
LINE
  5
1b6
100
AcDbEntity
  8
Layer_1
 62
7
100
AcDbLine
 10
9.279898
 20
4.321934
 30
0.0
 11
9.628174
 21
4.321934
 31
0.0
  0
LINE
  5
1b7
100
AcDbEntity
  8
Layer_1
 62
7
100
AcDbLine
 10
9.628174
 20
4.321934
 30
0.0
 11
9.628174
 21
5.412544
 31
0.0
  0
LINE
  5
1b8
100
AcDbEntity
  8
Layer_1
 62
7
100
AcDbLine
 10
9.628174
 20
5.412544
 30
0.0
 11
9.279898
 21
5.412544
 31
0.0
  0
LINE
  5
1b9
100
AcDbEntity
  8
Layer_1
 62
7
100
AcDbLine
 10
9.279898
 20
5.412544
 30
0.0
 11
9.279898
 21
5.021757
 31
0.0
  0
LINE
  5
1ba
100
AcDbEntity
  8
Layer_1
 62
7
100
AcDbLine
 10
9.279898
 20
5.021757
 30
0.0
 11
8.529387
 21
5.021757
 31
0.0
  0
LINE
  5
1bb
100
AcDbEntity
  8
Layer_1
 62
7
100
AcDbLine
 10
8.529387
 20
5.021757
 30
0.0
 11
8.529387
 21
5.412544
 31
0.0
  0
LINE
  5
1bc
100
AcDbEntity
  8
Layer_1
 62
7
100
AcDbLine
 10
8.529387
 20
5.412544
 30
0.0
 11
8.181111
 21
5.412544
 31
0.0
  0
LINE
  5
1bd
100
AcDbEntity
  8
Layer_1
 62
7
100
AcDbLine
 10
9.766365
 20
5.095335
 30
0.0
 11
9.766365
 21
4.899123
 31
0.0
  0
LINE
  5
1be
100
AcDbEntity
  8
Layer_1
 62
7
100
AcDbLine
 10
9.766365
 20
4.899123
 30
0.0
 11
10.229098
 21
4.899123
 31
0.0
  0
LINE
  5
1bf
100
AcDbEntity
  8
Layer_1
 62
7
100
AcDbLine
 10
10.229098
 20
4.899123
 30
0.0
 11
9.732028
 21
4.521417
 31
0.0
  0
LINE
  5
1c0
100
AcDbEntity
  8
Layer_1
 62
7
100
AcDbLine
 10
9.732028
 20
4.521417
 30
0.0
 11
9.732028
 21
4.321934
 31
0.0
  0
LINE
  5
1c1
100
AcDbEntity
  8
Layer_1
 62
7
100
AcDbLine
 10
9.732028
 20
4.321934
 30
0.0
 11
10.672210
 21
4.321934
 31
0.0
  0
LINE
  5
1c2
100
AcDbEntity
  8
Layer_1
 62
7
100
AcDbLine
 10
10.672210
 20
4.321934
 30
0.0
 11
10.672210
 21
4.523052
 31
0.0
  0
LINE
  5
1c3
100
AcDbEntity
  8
Layer_1
 62
7
100
AcDbLine
 10
10.672210
 20
4.523052
 30
0.0
 11
10.178410
 21
4.523052
 31
0.0
  0
LINE
  5
1c4
100
AcDbEntity
  8
Layer_1
 62
7
100
AcDbLine
 10
10.178410
 20
4.523052
 30
0.0
 11
10.655859
 21
4.874599
 31
0.0
  0
LINE
  5
1c5
100
AcDbEntity
  8
Layer_1
 62
7
100
AcDbLine
 10
10.655859
 20
4.874599
 30
0.0
 11
10.655859
 21
5.095335
 31
0.0
  0
LINE
  5
1c6
100
AcDbEntity
  8
Layer_1
 62
7
100
AcDbLine
 10
10.655859
 20
5.095335
 30
0.0
 11
9.766365
 21
5.095335
 31
0.0
  0
LINE
  5
1c7
100
AcDbEntity
  8
Layer_1
 62
7
100
AcDbLine
 10
11.174799
 20
5.412544
 30
0.0
 11
11.174799
 21
4.321934
 31
0.0
  0
LINE
  5
1c8
100
AcDbEntity
  8
Layer_1
 62
7
100
AcDbLine
 10
11.174799
 20
4.321934
 30
0.0
 11
11.447860
 21
4.321934
 31
0.0
  0
LINE
  5
1c9
100
AcDbEntity
  8
Layer_1
 62
7
100
AcDbLine
 10
11.447860
 20
4.321934
 30
0.0
 11
11.447860
 21
4.423309
 31
0.0
  0
LINE
  5
1ca
100
AcDbEntity
  8
Layer_1
 62
7
100
AcDbLine
 10
11.447860
 20
4.423309
 30
0.0
 11
11.462576
 21
4.423309
 31
0.0
  0
SPLINE
  5
1cb
100
AcDbEntity
  8
Layer_1
 62
7
100
AcDbSpline
 70
8
 71
3
 72
8
 73
4
 74
0
 40
0
 40
0
 40
0
 40
0
 40
1
 40
1
 40
1
 40
1
 10
11.462576
 20
4.423309
 30
0.0
 10
11.519805
 20
4.326840
 30
0.0
 10
11.593384
 20
4.302313
 30
0.0
 10
11.809217
 20
4.302313
 30
0.0
  0
SPLINE
  5
1cc
100
AcDbEntity
  8
Layer_1
 62
7
100
AcDbSpline
 70
8
 71
3
 72
8
 73
4
 74
0
 40
0
 40
0
 40
0
 40
0
 40
1
 40
1
 40
1
 40
1
 10
11.809217
 20
4.302313
 30
0.0
 10
12.008700
 20
4.302313
 30
0.0
 10
12.116616
 20
4.325199
 30
0.0
 10
12.180385
 20
4.382434
 30
0.0
  0
SPLINE
  5
1cd
100
AcDbEntity
  8
Layer_1
 62
7
100
AcDbSpline
 70
8
 71
3
 72
8
 73
4
 74
0
 40
0
 40
0
 40
0
 40
0
 40
1
 40
1
 40
1
 40
1
 10
12.180385
 20
4.382434
 30
0.0
 10
12.245789
 20
4.439661
 30
0.0
 10
12.265410
 20
4.518147
 30
0.0
 10
12.265410
 20
4.711089
 30
0.0
  0
SPLINE
  5
1ce
100
AcDbEntity
  8
Layer_1
 62
7
100
AcDbSpline
 70
8
 71
3
 72
8
 73
4
 74
0
 40
0
 40
0
 40
0
 40
0
 40
1
 40
1
 40
1
 40
1
 10
12.265410
 20
4.711089
 30
0.0
 10
12.265410
 20
4.912204
 30
0.0
 10
12.242518
 20
4.987420
 30
0.0
 10
12.167304
 20
5.044649
 30
0.0
  0
SPLINE
  5
1cf
100
AcDbEntity
  8
Layer_1
 62
7
100
AcDbSpline
 70
8
 71
3
 72
8
 73
4
 74
0
 40
0
 40
0
 40
0
 40
0
 40
1
 40
1
 40
1
 40
1
 10
12.167304
 20
5.044649
 30
0.0
 10
12.100265
 20
5.095335
 30
0.0
 10
11.992349
 20
5.116592
 30
0.0
 10
11.801042
 20
5.116592
 30
0.0
  0
SPLINE
  5
1d0
100
AcDbEntity
  8
Layer_1
 62
7
100
AcDbSpline
 70
8
 71
3
 72
8
 73
4
 74
0
 40
0
 40
0
 40
0
 40
0
 40
1
 40
1
 40
1
 40
1
 10
11.801042
 20
5.116592
 30
0.0
 10
11.608100
 20
5.116592
 30
0.0
 10
11.534521
 20
5.088795
 30
0.0
 10
11.477292
 20
4.992325
 30
0.0
  0
LINE
  5
1d1
100
AcDbEntity
  8
Layer_1
 62
7
100
AcDbLine
 10
11.477292
 20
4.992325
 30
0.0
 11
11.464211
 21
4.992325
 31
0.0
  0
LINE
  5
1d2
100
AcDbEntity
  8
Layer_1
 62
7
100
AcDbLine
 10
11.464211
 20
4.992325
 30
0.0
 11
11.464211
 21
5.412544
 31
0.0
  0
LINE
  5
1d3
100
AcDbEntity
  8
Layer_1
 62
7
100
AcDbLine
 10
11.464211
 20
5.412544
 30
0.0
 11
11.174799
 21
5.412544
 31
0.0
  0
SPLINE
  5
1d4
100
AcDbEntity
  8
Layer_1
 62
7
100
AcDbSpline
 70
8
 71
3
 72
8
 73
4
 74
0
 40
0
 40
0
 40
0
 40
0
 40
1
 40
1
 40
1
 40
1
 10
11.720922
 20
4.899123
 30
0.0
 10
11.799406
 20
4.899123
 30
0.0
 10
11.869716
 20
4.890947
 30
0.0
 10
11.907323
 20
4.877877
 30
0.0
  0
SPLINE
  5
1d5
100
AcDbEntity
  8
Layer_1
 62
7
100
AcDbSpline
 70
8
 71
3
 72
8
 73
4
 74
0
 40
0
 40
0
 40
0
 40
0
 40
1
 40
1
 40
1
 40
1
 10
11.907323
 20
4.877877
 30
0.0
 10
11.959646
 20
4.856631
 30
0.0
 10
11.975997
 20
4.820647
 30
0.0
 10
11.975997
 20
4.717637
 30
0.0
  0
SPLINE
  5
1d6
100
AcDbEntity
  8
Layer_1
 62
7
100
AcDbSpline
 70
8
 71
3
 72
8
 73
4
 74
0
 40
0
 40
0
 40
0
 40
0
 40
1
 40
1
 40
1
 40
1
 10
11.975997
 20
4.717637
 30
0.0
 10
11.975997
 20
4.621165
 30
0.0
 10
11.964551
 20
4.578652
 30
0.0
 10
11.931849
 20
4.555763
 30
0.0
  0
SPLINE
  5
1d7
100
AcDbEntity
  8
Layer_1
 62
7
100
AcDbSpline
 70
8
 71
3
 72
8
 73
4
 74
0
 40
0
 40
0
 40
0
 40
0
 40
1
 40
1
 40
1
 40
1
 10
11.931849
 20
4.555763
 30
0.0
 10
11.900783
 20
4.532876
 30
0.0
 10
11.830473
 20
4.521425
 30
0.0
 10
11.725827
 20
4.521425
 30
0.0
  0
SPLINE
  5
1d8
100
AcDbEntity
  8
Layer_1
 62
7
100
AcDbSpline
 70
8
 71
3
 72
8
 73
4
 74
0
 40
0
 40
0
 40
0
 40
0
 40
1
 40
1
 40
1
 40
1
 10
11.725827
 20
4.521425
 30
0.0
 10
11.648977
 20
4.521425
 30
0.0
 10
11.575398
 20
4.529601
 30
0.0
 10
11.539426
 20
4.541057
 30
0.0
  0
SPLINE
  5
1d9
100
AcDbEntity
  8
Layer_1
 62
7
100
AcDbSpline
 70
8
 71
3
 72
8
 73
4
 74
0
 40
0
 40
0
 40
0
 40
0
 40
1
 40
1
 40
1
 40
1
 10
11.539426
 20
4.541057
 30
0.0
 10
11.480562
 20
4.560689
 30
0.0
 10
11.464211
 20
4.596649
 30
0.0
 10
11.464211
 20
4.706202
 30
0.0
  0
SPLINE
  5
1da
100
AcDbEntity
  8
Layer_1
 62
7
100
AcDbSpline
 70
8
 71
3
 72
8
 73
4
 74
0
 40
0
 40
0
 40
0
 40
0
 40
1
 40
1
 40
1
 40
1
 10
11.464211
 20
4.706202
 30
0.0
 10
11.464211
 20
4.805942
 30
0.0
 10
11.477292
 20
4.845185
 30
0.0
 10
11.518169
 20
4.869712
 30
0.0
  0
SPLINE
  5
1db
100
AcDbEntity
  8
Layer_1
 62
7
100
AcDbSpline
 70
8
 71
3
 72
8
 73
4
 74
0
 40
0
 40
0
 40
0
 40
0
 40
1
 40
1
 40
1
 40
1
 10
11.518169
 20
4.869712
 30
0.0
 10
11.550871
 20
4.889344
 30
0.0
 10
11.619546
 20
4.899141
 30
0.0
 10
11.720922
 20
4.899141
 30
0.0
  0
LINE
  5
1dc
100
AcDbEntity
  8
Layer_1
 62
7
100
AcDbLine
 10
11.720922
 20
4.899141
 30
0.0
 11
11.720922
 21
4.899123
 31
0.0
  0
LINE
  5
1dd
100
AcDbEntity
  8
Layer_1
 62
7
100
AcDbLine
 10
12.375574
 20
5.095335
 30
0.0
 11
12.375574
 21
4.321934
 31
0.0
  0
LINE
  5
1de
100
AcDbEntity
  8
Layer_1
 62
7
100
AcDbLine
 10
12.375574
 20
4.321934
 30
0.0
 11
12.664987
 21
4.321934
 31
0.0
  0
LINE
  5
1df
100
AcDbEntity
  8
Layer_1
 62
7
100
AcDbLine
 10
12.664987
 20
4.321934
 30
0.0
 11
12.664987
 21
4.642414
 31
0.0
  0
SPLINE
  5
1e0
100
AcDbEntity
  8
Layer_1
 62
7
100
AcDbSpline
 70
8
 71
3
 72
8
 73
4
 74
0
 40
0
 40
0
 40
0
 40
0
 40
1
 40
1
 40
1
 40
1
 10
12.664987
 20
4.642414
 30
0.0
 10
12.664987
 20
4.761775
 30
0.0
 10
12.673162
 20
4.804288
 30
0.0
 10
12.700959
 20
4.841896
 30
0.0
  0
SPLINE
  5
1e1
100
AcDbEntity
  8
Layer_1
 62
7
100
AcDbSpline
 70
8
 71
3
 72
8
 73
4
 74
0
 40
0
 40
0
 40
0
 40
0
 40
1
 40
1
 40
1
 40
1
 10
12.700959
 20
4.841896
 30
0.0
 10
12.728756
 20
4.877869
 30
0.0
 10
12.782714
 20
4.897490
 30
0.0
 10
12.848118
 20
4.897490
 30
0.0
  0
SPLINE
  5
1e2
100
AcDbEntity
  8
Layer_1
 62
7
100
AcDbSpline
 70
8
 71
3
 72
8
 73
4
 74
0
 40
0
 40
0
 40
0
 40
0
 40
1
 40
1
 40
1
 40
1
 10
12.848118
 20
4.897490
 30
0.0
 10
12.967480
 20
4.897490
 30
0.0
 10
13.000182
 20
4.866423
 30
0.0
 10
13.000182
 20
4.751964
 30
0.0
  0
LINE
  5
1e3
100
AcDbEntity
  8
Layer_1
 62
7
100
AcDbLine
 10
13.000182
 20
4.751964
 30
0.0
 11
13.273244
 21
4.751964
 31
0.0
  0
LINE
  5
1e4
100
AcDbEntity
  8
Layer_1
 62
7
100
AcDbLine
 10
13.273244
 20
4.751964
 30
0.0
 11
13.273244
 21
4.804288
 31
0.0
  0
SPLINE
  5
1e5
100
AcDbEntity
  8
Layer_1
 62
7
100
AcDbSpline
 70
8
 71
3
 72
8
 73
4
 74
0
 40
0
 40
0
 40
0
 40
0
 40
1
 40
1
 40
1
 40
1
 10
13.273244
 20
4.804288
 30
0.0
 10
13.273244
 20
5.036473
 30
0.0
 10
13.194759
 20
5.114957
 30
0.0
 10
12.960940
 20
5.114957
 30
0.0
  0
SPLINE
  5
1e6
100
AcDbEntity
  8
Layer_1
 62
7
100
AcDbSpline
 70
8
 71
3
 72
8
 73
4
 74
0
 40
0
 40
0
 40
0
 40
0
 40
1
 40
1
 40
1
 40
1
 10
12.960940
 20
5.114957
 30
0.0
 10
12.799065
 20
5.114957
 30
0.0
 10
12.717310
 20
5.077349
 30
0.0
 10
12.663352
 20
4.979244
 30
0.0
  0
LINE
  5
1e7
100
AcDbEntity
  8
Layer_1
 62
7
100
AcDbLine
 10
12.663352
 20
4.979244
 30
0.0
 11
12.648635
 21
4.979244
 31
0.0
  0
LINE
  5
1e8
100
AcDbEntity
  8
Layer_1
 62
7
100
AcDbLine
 10
12.648635
 20
4.979244
 30
0.0
 11
12.648635
 21
5.095335
 31
0.0
  0
LINE
  5
1e9
100
AcDbEntity
  8
Layer_1
 62
7
100
AcDbLine
 10
12.648635
 20
5.095335
 30
0.0
 11
12.375574
 21
5.095335
 31
0.0
  0
LINE
  5
1ea
100
AcDbEntity
  8
Layer_1
 62
7
100
AcDbLine
 10
13.355995
 20
5.095335
 30
0.0
 11
13.355995
 21
4.321934
 31
0.0
  0
LINE
  5
1eb
100
AcDbEntity
  8
Layer_1
 62
7
100
AcDbLine
 10
13.355995
 20
4.321934
 30
0.0
 11
13.645408
 21
4.321934
 31
0.0
  0
LINE
  5
1ec
100
AcDbEntity
  8
Layer_1
 62
7
100
AcDbLine
 10
13.645408
 20
4.321934
 30
0.0
 11
13.645408
 21
5.095335
 31
0.0
  0
LINE
  5
1ed
100
AcDbEntity
  8
Layer_1
 62
7
100
AcDbLine
 10
13.645408
 20
5.095335
 30
0.0
 11
13.355995
 21
5.095335
 31
0.0
  0
LINE
  5
1ee
100
AcDbEntity
  8
Layer_1
 62
7
100
AcDbLine
 10
13.355995
 20
5.412544
 30
0.0
 11
13.355995
 21
5.195078
 31
0.0
  0
LINE
  5
1ef
100
AcDbEntity
  8
Layer_1
 62
7
100
AcDbLine
 10
13.355995
 20
5.195078
 30
0.0
 11
13.645408
 21
5.195078
 31
0.0
  0
LINE
  5
1f0
100
AcDbEntity
  8
Layer_1
 62
7
100
AcDbLine
 10
13.645408
 20
5.195078
 30
0.0
 11
13.645408
 21
5.412544
 31
0.0
  0
LINE
  5
1f1
100
AcDbEntity
  8
Layer_1
 62
7
100
AcDbLine
 10
13.645408
 20
5.412544
 30
0.0
 11
13.355995
 21
5.412544
 31
0.0
  0
LINE
  5
1f2
100
AcDbEntity
  8
Layer_1
 62
7
100
AcDbLine
 10
14.845264
 20
5.412544
 30
0.0
 11
14.555852
 21
5.412544
 31
0.0
  0
LINE
  5
1f3
100
AcDbEntity
  8
Layer_1
 62
7
100
AcDbLine
 10
14.555852
 20
5.412544
 30
0.0
 11
14.555852
 21
4.992325
 31
0.0
  0
LINE
  5
1f4
100
AcDbEntity
  8
Layer_1
 62
7
100
AcDbLine
 10
14.555852
 20
4.992325
 30
0.0
 11
14.544406
 21
4.992325
 31
0.0
  0
SPLINE
  5
1f5
100
AcDbEntity
  8
Layer_1
 62
7
100
AcDbSpline
 70
8
 71
3
 72
8
 73
4
 74
0
 40
0
 40
0
 40
0
 40
0
 40
1
 40
1
 40
1
 40
1
 10
14.544406
 20
4.992325
 30
0.0
 10
14.488812
 20
5.090430
 30
0.0
 10
14.421773
 20
5.116592
 30
0.0
 10
14.219021
 20
5.116592
 30
0.0
  0
SPLINE
  5
1f6
100
AcDbEntity
  8
Layer_1
 62
7
100
AcDbSpline
 70
8
 71
3
 72
8
 73
4
 74
0
 40
0
 40
0
 40
0
 40
0
 40
1
 40
1
 40
1
 40
1
 10
14.219021
 20
5.116592
 30
0.0
 10
14.019539
 20
5.116592
 30
0.0
 10
13.939419
 20
5.103521
 30
0.0
 10
13.869110
 20
5.057730
 30
0.0
  0
SPLINE
  5
1f7
100
AcDbEntity
  8
Layer_1
 62
7
100
AcDbSpline
 70
8
 71
3
 72
8
 73
4
 74
0
 40
0
 40
0
 40
0
 40
0
 40
1
 40
1
 40
1
 40
1
 10
13.869110
 20
5.057730
 30
0.0
 10
13.787355
 20
5.003771
 30
0.0
 10
13.756288
 20
4.910569
 30
0.0
 10
13.756288
 20
4.714359
 30
0.0
  0
SPLINE
  5
1f8
100
AcDbEntity
  8
Layer_1
 62
7
100
AcDbSpline
 70
8
 71
3
 72
8
 73
4
 74
0
 40
0
 40
0
 40
0
 40
0
 40
1
 40
1
 40
1
 40
1
 10
13.756288
 20
4.714359
 30
0.0
 10
13.756288
 20
4.521417
 30
0.0
 10
13.775910
 20
4.442931
 30
0.0
 10
13.839678
 20
4.384069
 30
0.0
  0
SPLINE
  5
1f9
100
AcDbEntity
  8
Layer_1
 62
7
100
AcDbSpline
 70
8
 71
3
 72
8
 73
4
 74
0
 40
0
 40
0
 40
0
 40
0
 40
1
 40
1
 40
1
 40
1
 10
13.839678
 20
4.384069
 30
0.0
 10
13.906717
 20
4.323569
 30
0.0
 10
14.006458
 20
4.302313
 30
0.0
 10
14.215751
 20
4.302313
 30
0.0
  0
SPLINE
  5
1fa
100
AcDbEntity
  8
Layer_1
 62
7
100
AcDbSpline
 70
8
 71
3
 72
8
 73
4
 74
0
 40
0
 40
0
 40
0
 40
0
 40
1
 40
1
 40
1
 40
1
 10
14.215751
 20
4.302313
 30
0.0
 10
14.425044
 20
4.302313
 30
0.0
 10
14.501893
 20
4.330110
 30
0.0
 10
14.557487
 20
4.423309
 30
0.0
  0
LINE
  5
1fb
100
AcDbEntity
  8
Layer_1
 62
7
100
AcDbLine
 10
14.557487
 20
4.423309
 30
0.0
 11
14.572203
 21
4.423309
 31
0.0
  0
LINE
  5
1fc
100
AcDbEntity
  8
Layer_1
 62
7
100
AcDbLine
 10
14.572203
 20
4.423309
 30
0.0
 11
14.572203
 21
4.321934
 31
0.0
  0
LINE
  5
1fd
100
AcDbEntity
  8
Layer_1
 62
7
100
AcDbLine
 10
14.572203
 20
4.321934
 30
0.0
 11
14.845264
 21
4.321934
 31
0.0
  0
LINE
  5
1fe
100
AcDbEntity
  8
Layer_1
 62
7
100
AcDbLine
 10
14.845264
 20
4.321934
 30
0.0
 11
14.845264
 21
5.412544
 31
0.0
  0
SPLINE
  5
1ff
100
AcDbEntity
  8
Layer_1
 62
7
100
AcDbSpline
 70
8
 71
3
 72
8
 73
4
 74
0
 40
0
 40
0
 40
0
 40
0
 40
1
 40
1
 40
1
 40
1
 10
14.313857
 20
4.899123
 30
0.0
 10
14.519880
 20
4.899123
 30
0.0
 10
14.557487
 20
4.869693
 30
0.0
 10
14.557487
 20
4.709454
 30
0.0
  0
SPLINE
  5
200
100
AcDbEntity
  8
Layer_1
 62
7
100
AcDbSpline
 70
8
 71
3
 72
8
 73
4
 74
0
 40
0
 40
0
 40
0
 40
0
 40
1
 40
1
 40
1
 40
1
 10
14.557487
 20
4.709454
 30
0.0
 10
14.557487
 20
4.619522
 30
0.0
 10
14.546041
 20
4.578644
 30
0.0
 10
14.513339
 20
4.557390
 30
0.0
  0
SPLINE
  5
201
100
AcDbEntity
  8
Layer_1
 62
7
100
AcDbSpline
 70
8
 71
3
 72
8
 73
4
 74
0
 40
0
 40
0
 40
0
 40
0
 40
1
 40
1
 40
1
 40
1
 10
14.513339
 20
4.557390
 30
0.0
 10
14.480637
 20
4.534503
 30
0.0
 10
14.402153
 20
4.521417
 30
0.0
 10
14.295871
 20
4.521417
 30
0.0
  0
SPLINE
  5
202
100
AcDbEntity
  8
Layer_1
 62
7
100
AcDbSpline
 70
8
 71
3
 72
8
 73
4
 74
0
 40
0
 40
0
 40
0
 40
0
 40
1
 40
1
 40
1
 40
1
 10
14.295871
 20
4.521417
 30
0.0
 10
14.078403
 20
4.521417
 30
0.0
 10
14.045701
 20
4.547584
 30
0.0
 10
14.045701
 20
4.717629
 30
0.0
  0
SPLINE
  5
203
100
AcDbEntity
  8
Layer_1
 62
7
100
AcDbSpline
 70
8
 71
3
 72
8
 73
4
 74
0
 40
0
 40
0
 40
0
 40
0
 40
1
 40
1
 40
1
 40
1
 10
14.045701
 20
4.717629
 30
0.0
 10
14.045701
 20
4.872964
 30
0.0
 10
14.084943
 20
4.899123
 30
0.0
 10
14.313857
 20
4.899123
 30
0.0
  0
LINE
  5
204
100
AcDbEntity
  8
Layer_1
 62
7
100
AcDbLine
 10
14.313857
 20
4.899123
 30
0.0
 11
14.313857
 21
4.899123
 31
0.0
  0
LINE
  5
205
100
AcDbEntity
  8
Layer_1
 62
7
100
AcDbLine
 10
15.771420
 20
5.095335
 30
0.0
 11
15.771420
 21
4.993960
 31
0.0
  0
LINE
  5
206
100
AcDbEntity
  8
Layer_1
 62
7
100
AcDbLine
 10
15.771420
 20
4.993960
 30
0.0
 11
15.758339
 21
4.993960
 31
0.0
  0
SPLINE
  5
207
100
AcDbEntity
  8
Layer_1
 62
7
100
AcDbSpline
 70
8
 71
3
 72
8
 73
4
 74
0
 40
0
 40
0
 40
0
 40
0
 40
1
 40
1
 40
1
 40
1
 10
15.758339
 20
4.993960
 30
0.0
 10
15.697840
 20
5.090430
 30
0.0
 10
15.629166
 20
5.114957
 30
0.0
 10
15.428049
 20
5.114957
 30
0.0
  0
SPLINE
  5
208
100
AcDbEntity
  8
Layer_1
 62
7
100
AcDbSpline
 70
8
 71
3
 72
8
 73
4
 74
0
 40
0
 40
0
 40
0
 40
0
 40
1
 40
1
 40
1
 40
1
 10
15.428049
 20
5.114957
 30
0.0
 10
15.282525
 20
5.114957
 30
0.0
 10
15.174609
 20
5.103500
 30
0.0
 10
15.115745
 20
5.078984
 30
0.0
  0
SPLINE
  5
209
100
AcDbEntity
  8
Layer_1
 62
7
100
AcDbSpline
 70
8
 71
3
 72
8
 73
4
 74
0
 40
0
 40
0
 40
0
 40
0
 40
1
 40
1
 40
1
 40
1
 10
15.115745
 20
5.078984
 30
0.0
 10
14.994748
 20
5.031568
 30
0.0
 10
14.953870
 20
4.944906
 30
0.0
 10
14.953870
 20
4.733978
 30
0.0
  0
SPLINE
  5
20a
100
AcDbEntity
  8
Layer_1
 62
7
100
AcDbSpline
 70
8
 71
3
 72
8
 73
4
 74
0
 40
0
 40
0
 40
0
 40
0
 40
1
 40
1
 40
1
 40
1
 10
14.953870
 20
4.733978
 30
0.0
 10
14.953870
 20
4.539403
 30
0.0
 10
14.976762
 20
4.460917
 30
0.0
 10
15.051976
 20
4.402053
 30
0.0
  0
SPLINE
  5
20b
100
AcDbEntity
  8
Layer_1
 62
7
100
AcDbSpline
 70
8
 71
3
 72
8
 73
4
 74
0
 40
0
 40
0
 40
0
 40
0
 40
1
 40
1
 40
1
 40
1
 10
15.051976
 20
4.402053
 30
0.0
 10
15.119015
 20
4.351367
 30
0.0
 10
15.220391
 20
4.331745
 30
0.0
 10
15.424779
 20
4.331745
 30
0.0
  0
SPLINE
  5
20c
100
AcDbEntity
  8
Layer_1
 62
7
100
AcDbSpline
 70
8
 71
3
 72
8
 73
4
 74
0
 40
0
 40
0
 40
0
 40
0
 40
1
 40
1
 40
1
 40
1
 10
15.424779
 20
4.331745
 30
0.0
 10
15.617720
 20
4.331745
 30
0.0
 10
15.686395
 20
4.357912
 30
0.0
 10
15.745258
 20
4.452742
 30
0.0
  0
LINE
  5
20d
100
AcDbEntity
  8
Layer_1
 62
7
100
AcDbLine
 10
15.745258
 20
4.452742
 30
0.0
 11
15.756704
 21
4.452742
 31
0.0
  0
LINE
  5
20e
100
AcDbEntity
  8
Layer_1
 62
7
100
AcDbLine
 10
15.756704
 20
4.452742
 30
0.0
 11
15.756704
 21
4.384069
 31
0.0
  0
SPLINE
  5
20f
100
AcDbEntity
  8
Layer_1
 62
7
100
AcDbSpline
 70
8
 71
3
 72
8
 73
4
 74
0
 40
0
 40
0
 40
0
 40
0
 40
1
 40
1
 40
1
 40
1
 10
15.756704
 20
4.384069
 30
0.0
 10
15.756704
 20
4.276151
 30
0.0
 10
15.751799
 20
4.251624
 30
0.0
 10
15.724002
 20
4.220559
 30
0.0
  0
SPLINE
  5
210
100
AcDbEntity
  8
Layer_1
 62
7
100
AcDbSpline
 70
8
 71
3
 72
8
 73
4
 74
0
 40
0
 40
0
 40
0
 40
0
 40
1
 40
1
 40
1
 40
1
 10
15.724002
 20
4.220559
 30
0.0
 10
15.689665
 20
4.181316
 30
0.0
 10
15.634072
 20
4.169870
 30
0.0
 10
15.482007
 20
4.169870
 30
0.0
  0
SPLINE
  5
211
100
AcDbEntity
  8
Layer_1
 62
7
100
AcDbSpline
 70
8
 71
3
 72
8
 73
4
 74
0
 40
0
 40
0
 40
0
 40
0
 40
1
 40
1
 40
1
 40
1
 10
15.482007
 20
4.169870
 30
0.0
 10
15.329943
 20
4.169870
 30
0.0
 10
15.287431
 20
4.184581
 30
0.0
 10
15.271080
 20
4.243448
 30
0.0
  0
LINE
  5
212
100
AcDbEntity
  8
Layer_1
 62
7
100
AcDbLine
 10
15.271080
 20
4.243448
 30
0.0
 11
15.267810
 21
4.251624
 31
0.0
  0
LINE
  5
213
100
AcDbEntity
  8
Layer_1
 62
7
100
AcDbLine
 10
15.267810
 20
4.251624
 30
0.0
 11
14.973492
 21
4.251624
 31
0.0
  0
SPLINE
  5
214
100
AcDbEntity
  8
Layer_1
 62
7
100
AcDbSpline
 70
8
 71
3
 72
8
 73
4
 74
0
 40
0
 40
0
 40
0
 40
0
 40
1
 40
1
 40
1
 40
1
 10
14.973492
 20
4.251624
 30
0.0
 10
14.981667
 20
4.158424
 30
0.0
 10
15.006194
 20
4.099560
 30
0.0
 10
15.058517
 20
4.053779
 30
0.0
  0
SPLINE
  5
215
100
AcDbEntity
  8
Layer_1
 62
7
100
AcDbSpline
 70
8
 71
3
 72
8
 73
4
 74
0
 40
0
 40
0
 40
0
 40
0
 40
1
 40
1
 40
1
 40
1
 10
15.058517
 20
4.053779
 30
0.0
 10
15.132096
 20
3.990009
 30
0.0
 10
15.231837
 20
3.968753
 30
0.0
 10
15.477102
 20
3.968753
 30
0.0
  0
SPLINE
  5
216
100
AcDbEntity
  8
Layer_1
 62
7
100
AcDbSpline
 70
8
 71
3
 72
8
 73
4
 74
0
 40
0
 40
0
 40
0
 40
0
 40
1
 40
1
 40
1
 40
1
 10
15.477102
 20
3.968753
 30
0.0
 10
15.660233
 20
3.968753
 30
0.0
 10
15.769785
 20
3.980209
 30
0.0
 10
15.854810
 20
4.009631
 30
0.0
  0
SPLINE
  5
217
100
AcDbEntity
  8
Layer_1
 62
7
100
AcDbSpline
 70
8
 71
3
 72
8
 73
4
 74
0
 40
0
 40
0
 40
0
 40
0
 40
1
 40
1
 40
1
 40
1
 10
15.854810
 20
4.009631
 30
0.0
 10
15.931660
 20
4.035798
 30
0.0
 10
15.993794
 20
4.096290
 30
0.0
 10
16.019955
 20
4.169870
 30
0.0
  0
SPLINE
  5
218
100
AcDbEntity
  8
Layer_1
 62
7
100
AcDbSpline
 70
8
 71
3
 72
8
 73
4
 74
0
 40
0
 40
0
 40
0
 40
0
 40
1
 40
1
 40
1
 40
1
 10
16.019955
 20
4.169870
 30
0.0
 10
16.042847
 20
4.233638
 30
0.0
 10
16.044482
 20
4.254894
 30
0.0
 10
16.044482
 20
4.384069
 30
0.0
  0
LINE
  5
219
100
AcDbEntity
  8
Layer_1
 62
7
100
AcDbLine
 10
16.044482
 20
4.384069
 30
0.0
 11
16.044482
 21
5.095335
 31
0.0
  0
LINE
  5
21a
100
AcDbEntity
  8
Layer_1
 62
7
100
AcDbLine
 10
16.044482
 20
5.095335
 30
0.0
 11
15.771420
 21
5.095335
 31
0.0
  0
SPLINE
  5
21b
100
AcDbEntity
  8
Layer_1
 62
7
100
AcDbSpline
 70
8
 71
3
 72
8
 73
4
 74
0
 40
0
 40
0
 40
0
 40
0
 40
1
 40
1
 40
1
 40
1
 10
15.509804
 20
4.897490
 30
0.0
 10
15.594830
 20
4.897490
 30
0.0
 10
15.660233
 20
4.889315
 30
0.0
 10
15.694571
 20
4.874604
 30
0.0
  0
SPLINE
  5
21c
100
AcDbEntity
  8
Layer_1
 62
7
100
AcDbSpline
 70
8
 71
3
 72
8
 73
4
 74
0
 40
0
 40
0
 40
0
 40
0
 40
1
 40
1
 40
1
 40
1
 10
15.694571
 20
4.874604
 30
0.0
 10
15.740353
 20
4.853358
 30
0.0
 10
15.755069
 20
4.817375
 30
0.0
 10
15.755069
 20
4.724175
 30
0.0
  0
SPLINE
  5
21d
100
AcDbEntity
  8
Layer_1
 62
7
100
AcDbSpline
 70
8
 71
3
 72
8
 73
4
 74
0
 40
0
 40
0
 40
0
 40
0
 40
1
 40
1
 40
1
 40
1
 10
15.755069
 20
4.724175
 30
0.0
 10
15.755069
 20
4.644054
 30
0.0
 10
15.745258
 20
4.611351
 30
0.0
 10
15.714192
 20
4.588460
 30
0.0
  0
SPLINE
  5
21e
100
AcDbEntity
  8
Layer_1
 62
7
100
AcDbSpline
 70
8
 71
3
 72
8
 73
4
 74
0
 40
0
 40
0
 40
0
 40
0
 40
1
 40
1
 40
1
 40
1
 10
15.714192
 20
4.588460
 30
0.0
 10
15.681490
 20
4.563933
 30
0.0
 10
15.607910
 20
4.550854
 30
0.0
 10
15.495088
 20
4.550854
 30
0.0
  0
SPLINE
  5
21f
100
AcDbEntity
  8
Layer_1
 62
7
100
AcDbSpline
 70
8
 71
3
 72
8
 73
4
 74
0
 40
0
 40
0
 40
0
 40
0
 40
1
 40
1
 40
1
 40
1
 10
15.495088
 20
4.550854
 30
0.0
 10
15.285796
 20
4.550854
 30
0.0
 10
15.243283
 20
4.580284
 30
0.0
 10
15.243283
 20
4.724175
 30
0.0
  0
SPLINE
  5
220
100
AcDbEntity
  8
Layer_1
 62
7
100
AcDbSpline
 70
8
 71
3
 72
8
 73
4
 74
0
 40
0
 40
0
 40
0
 40
0
 40
1
 40
1
 40
1
 40
1
 10
15.243283
 20
4.724175
 30
0.0
 10
15.243283
 20
4.869699
 30
0.0
 10
15.285796
 20
4.897496
 30
0.0
 10
15.509804
 20
4.897496
 30
0.0
  0
LINE
  5
221
100
AcDbEntity
  8
Layer_1
 62
7
100
AcDbLine
 10
15.509804
 20
4.897496
 30
0.0
 11
15.509804
 21
4.897490
 31
0.0
  0
SPLINE
  5
222
100
AcDbEntity
  8
Layer_1
 62
7
100
AcDbSpline
 70
8
 71
3
 72
8
 73
4
 74
0
 40
0
 40
0
 40
0
 40
0
 40
1
 40
1
 40
1
 40
1
 10
16.903598
 20
4.568833
 30
0.0
 10
16.892153
 20
4.500160
 30
0.0
 10
16.857815
 20
4.487079
 30
0.0
 10
16.673049
 20
4.487079
 30
0.0
  0
SPLINE
  5
223
100
AcDbEntity
  8
Layer_1
 62
7
100
AcDbSpline
 70
8
 71
3
 72
8
 73
4
 74
0
 40
0
 40
0
 40
0
 40
0
 40
1
 40
1
 40
1
 40
1
 10
16.673049
 20
4.487079
 30
0.0
 10
16.568403
 20
4.487079
 30
0.0
 10
16.507904
 20
4.496895
 30
0.0
 10
16.476837
 20
4.519782
 30
0.0
  0
SPLINE
  5
224
100
AcDbEntity
  8
Layer_1
 62
7
100
AcDbSpline
 70
8
 71
3
 72
8
 73
4
 74
0
 40
0
 40
0
 40
0
 40
0
 40
1
 40
1
 40
1
 40
1
 10
16.476837
 20
4.519782
 30
0.0
 10
16.449041
 20
4.541028
 30
0.0
 10
16.440865
 20
4.567198
 30
0.0
 10
16.440865
 20
4.645684
 30
0.0
  0
LINE
  5
225
100
AcDbEntity
  8
Layer_1
 62
7
100
AcDbLine
 10
16.440865
 20
4.645684
 30
0.0
 11
17.196281
 21
4.645684
 31
0.0
  0
SPLINE
  5
226
100
AcDbEntity
  8
Layer_1
 62
7
100
AcDbSpline
 70
8
 71
3
 72
8
 73
4
 74
0
 40
0
 40
0
 40
0
 40
0
 40
1
 40
1
 40
1
 40
1
 10
17.196281
 20
4.645684
 30
0.0
 10
17.197921
 20
4.678386
 30
0.0
 10
17.197921
 20
4.714359
 30
0.0
 10
17.197921
 20
4.724170
 30
0.0
  0
SPLINE
  5
227
100
AcDbEntity
  8
Layer_1
 62
7
100
AcDbSpline
 70
8
 71
3
 72
8
 73
4
 74
0
 40
0
 40
0
 40
0
 40
0
 40
1
 40
1
 40
1
 40
1
 10
17.197921
 20
4.724170
 30
0.0
 10
17.197921
 20
4.899123
 30
0.0
 10
17.171759
 20
4.985785
 30
0.0
 10
17.103086
 20
5.043014
 30
0.0
  0
SPLINE
  5
228
100
AcDbEntity
  8
Layer_1
 62
7
100
AcDbSpline
 70
8
 71
3
 72
8
 73
4
 74
0
 40
0
 40
0
 40
0
 40
0
 40
1
 40
1
 40
1
 40
1
 10
17.103086
 20
5.043014
 30
0.0
 10
17.032776
 20
5.100241
 30
0.0
 10
16.941211
 20
5.116592
 30
0.0
 10
16.679595
 20
5.116592
 30
0.0
  0
SPLINE
  5
229
100
AcDbEntity
  8
Layer_1
 62
7
100
AcDbSpline
 70
8
 71
3
 72
8
 73
4
 74
0
 40
0
 40
0
 40
0
 40
0
 40
1
 40
1
 40
1
 40
1
 10
16.679595
 20
5.116592
 30
0.0
 10
16.427790
 20
5.116592
 30
0.0
 10
16.331319
 20
5.100241
 30
0.0
 10
16.256104
 20
5.047919
 30
0.0
  0
SPLINE
  5
22a
100
AcDbEntity
  8
Layer_1
 62
7
100
AcDbSpline
 70
8
 71
3
 72
8
 73
4
 74
0
 40
0
 40
0
 40
0
 40
0
 40
1
 40
1
 40
1
 40
1
 10
16.256104
 20
5.047919
 30
0.0
 10
16.174349
 20
4.990690
 30
0.0
 10
16.151458
 20
4.913839
 30
0.0
 10
16.151458
 20
4.706183
 30
0.0
  0
SPLINE
  5
22b
100
AcDbEntity
  8
Layer_1
 62
7
100
AcDbSpline
 70
8
 71
3
 72
8
 73
4
 74
0
 40
0
 40
0
 40
0
 40
0
 40
1
 40
1
 40
1
 40
1
 10
16.151458
 20
4.706183
 30
0.0
 10
16.151458
 20
4.508336
 30
0.0
 10
16.174350
 20
4.431485
 30
0.0
 10
16.249564
 20
4.374258
 30
0.0
  0
SPLINE
  5
22c
100
AcDbEntity
  8
Layer_1
 62
7
100
AcDbSpline
 70
8
 71
3
 72
8
 73
4
 74
0
 40
0
 40
0
 40
0
 40
0
 40
1
 40
1
 40
1
 40
1
 10
16.249564
 20
4.374258
 30
0.0
 10
16.319873
 20
4.321934
 30
0.0
 10
16.426155
 20
4.302313
 30
0.0
 10
16.650163
 20
4.302313
 30
0.0
  0
SPLINE
  5
22d
100
AcDbEntity
  8
Layer_1
 62
7
100
AcDbSpline
 70
8
 71
3
 72
8
 73
4
 74
0
 40
0
 40
0
 40
0
 40
0
 40
1
 40
1
 40
1
 40
1
 10
16.650163
 20
4.302313
 30
0.0
 10
17.063843
 20
4.302313
 30
0.0
 10
17.170125
 20
4.354637
 30
0.0
 10
17.191381
 20
4.568833
 30
0.0
  0
LINE
  5
22e
100
AcDbEntity
  8
Layer_1
 62
7
100
AcDbLine
 10
17.191381
 20
4.568833
 30
0.0
 11
16.903598
 21
4.568833
 31
0.0
  0
SPLINE
  5
22f
100
AcDbEntity
  8
Layer_1
 62
7
100
AcDbSpline
 70
8
 71
3
 72
8
 73
4
 74
0
 40
0
 40
0
 40
0
 40
0
 40
1
 40
1
 40
1
 40
1
 10
16.440865
 20
4.804288
 30
0.0
 10
16.444135
 20
4.912204
 30
0.0
 10
16.489918
 20
4.936731
 30
0.0
 10
16.684495
 20
4.936731
 30
0.0
  0
SPLINE
  5
230
100
AcDbEntity
  8
Layer_1
 62
7
100
AcDbSpline
 70
8
 71
3
 72
8
 73
4
 74
0
 40
0
 40
0
 40
0
 40
0
 40
1
 40
1
 40
1
 40
1
 10
16.684495
 20
4.936731
 30
0.0
 10
16.798952
 20
4.936731
 30
0.0
 10
16.857815
 20
4.925274
 30
0.0
 10
16.883977
 20
4.897490
 30
0.0
  0
SPLINE
  5
231
100
AcDbEntity
  8
Layer_1
 62
7
100
AcDbSpline
 70
8
 71
3
 72
8
 73
4
 74
0
 40
0
 40
0
 40
0
 40
0
 40
1
 40
1
 40
1
 40
1
 10
16.883977
 20
4.897490
 30
0.0
 10
16.901964
 20
4.879499
 30
0.0
 10
16.905234
 20
4.864788
 30
0.0
 10
16.906869
 20
4.804288
 30
0.0
  0
LINE
  5
232
100
AcDbEntity
  8
Layer_1
 62
7
100
AcDbLine
 10
16.906869
 20
4.804288
 30
0.0
 11
16.440865
 21
4.804288
 31
0.0
  0
ENDSEC
  0
SECTION
  2
OBJECTS
  0
DICTIONARY
  5
C
330
0
100
AcDbDictionary
  3
ACAD_GROUP
350
D
  3
ACAD_MLINESTYLE
350
17
  0
DICTIONARY
  5
D
330
C
100
AcDbDictionary
  0
DICTIONARY
  5
1A
330
C
100
AcDbDictionary
  0
DICTIONARY
  5
17
330
C
100
AcDbDictionary
  3
STANDARD
350
18
  0
DICTIONARY
  5
19
330
C
100
AcDbDictionary
  0
ENDSEC
  0
EOF
