  0
SECTION
  2
HEADER
  9
$ACADVER
  1
AC1009
  9
$INSBASE
 10
0.0
 20
0.0
 30
0.0
  9
$EXTMIN
 10
0.0
 20
0.0
 30
0.0
  9
$EXTMAX
 10
0.0
 20
0.0
 30
0.0
  0
ENDSEC
  0
SECTION
  2
TABLES
  0
TABLE
  2
VPORT
 70
0
  0
ENDTAB
  0
TABLE
  2
LTYPE
 70
1
  0
LTYPE
  2
CONTINUOUS
 70
0
  3
Solid line
 72
65
 73
0
 40
0.0
  0
ENDTAB
  0
TABLE
  2
LAYER
 70
1
  0
LAYER
  2
0
 70
64
 62
7
  6
continuous
  0
ENDTAB
  0
TABLE
  2
STYLE
 70
1
  0
STYLE
  2
STANDARD
 70
0
 40
0
 41
1.0
 50
0.0
 71
0
 42
1
 3
ARIAL.TTF
 4

  0
ENDTAB
  0
TABLE
  2
VIEW
 70
0
  0
ENDTAB
  0
ENDSEC
  0
SECTION
  2
BLOCKS
  0
BLOCK
  8
Views
  2
SHAPE2DVIEW004
 70
0
 10
0.0
 20
0.0
 30
0.0
  3
SHAPE2DVIEW004
  0
LINE
  8
Views
 62
0
 10
45.0
 20
-35.0
 30
0.0
 11
45.0
 21
-31.0
 31
0.0
  0
LINE
  8
Views
 62
0
 10
41.0
 20
-35.0
 30
0.0
 11
45.0
 21
-35.0
 31
0.0
  0
LINE
  8
Views
 62
0
 10
45.0
 20
-31.0
 30
0.0
 11
45.0
 21
-26.2307692308
 31
0.0
  0
LINE
  8
Views
 62
0
 10
35.6
 20
-35.0
 30
0.0
 11
41.0
 21
-35.0
 31
0.0
  0
LINE
  8
Views
 62
0
 10
45.0
 20
-26.2307692308
 30
0.0
 11
41.0
 21
-26.2307692308
 31
0.0
  0
LINE
  8
Views
 62
0
 10
35.6
 20
-31.0
 30
0.0
 11
35.6
 21
-35.0
 31
0.0
  0
LINE
  8
Views
 62
0
 10
41.0
 20
-26.2307692308
 30
0.0
 11
41.0
 21
-21.4615384615
 31
0.0
  0
LINE
  8
Views
 62
0
 10
30.2
 20
-31.0
 30
0.0
 11
35.6
 21
-31.0
 31
0.0
  0
LINE
  8
Views
 62
0
 10
41.0
 20
-21.4615384615
 30
0.0
 11
45.0
 21
-21.4615384615
 31
0.0
  0
LINE
  8
Views
 62
0
 10
30.2
 20
-35.0
 30
0.0
 11
30.2
 21
-31.0
 31
0.0
  0
LINE
  8
Views
 62
0
 10
45.0
 20
-21.4615384615
 30
0.0
 11
45.0
 21
-16.6923076923
 31
0.0
  0
LINE
  8
Views
 62
0
 10
24.8
 20
-35.0
 30
0.0
 11
30.2
 21
-35.0
 31
0.0
  0
LINE
  8
Views
 62
0
 10
45.0
 20
-16.6923076923
 30
0.0
 11
41.0
 21
-16.6923076923
 31
0.0
  0
LINE
  8
Views
 62
0
 10
24.8
 20
-31.0
 30
0.0
 11
24.8
 21
-35.0
 31
0.0
  0
LINE
  8
Views
 62
0
 10
41.0
 20
-16.6923076923
 30
0.0
 11
41.0
 21
-11.9230769231
 31
0.0
  0
LINE
  8
Views
 62
0
 10
19.4
 20
-31.0
 30
0.0
 11
24.8
 21
-31.0
 31
0.0
  0
LINE
  8
Views
 62
0
 10
41.0
 20
-11.9230769231
 30
0.0
 11
45.0
 21
-11.9230769231
 31
0.0
  0
LINE
  8
Views
 62
0
 10
19.4
 20
-35.0
 30
0.0
 11
19.4
 21
-31.0
 31
0.0
  0
LINE
  8
Views
 62
0
 10
45.0
 20
-11.9230769231
 30
0.0
 11
45.0
 21
-7.15384615385
 31
0.0
  0
LINE
  8
Views
 62
0
 10
14.0
 20
-35.0
 30
0.0
 11
19.4
 21
-35.0
 31
0.0
  0
LINE
  8
Views
 62
0
 10
45.0
 20
-7.15384615385
 30
0.0
 11
41.0
 21
-7.15384615385
 31
0.0
  0
LINE
  8
Views
 62
0
 10
10.0
 20
-35.0
 30
0.0
 11
14.0
 21
-35.0
 31
0.0
  0
LINE
  8
Views
 62
0
 10
41.0
 20
-7.15384615385
 30
0.0
 11
41.0
 21
-2.38461538462
 31
0.0
  0
LINE
  8
Views
 62
0
 10
10.0
 20
-31.0
 30
0.0
 11
10.0
 21
-35.0
 31
0.0
  0
LINE
  8
Views
 62
0
 10
41.0
 20
-2.38461538462
 30
0.0
 11
45.0
 21
-2.38461538462
 31
0.0
  0
LINE
  8
Views
 62
0
 10
10.0
 20
-26.2307692308
 30
0.0
 11
10.0
 21
-31.0
 31
0.0
  0
LINE
  8
Views
 62
0
 10
45.0
 20
-2.38461538462
 30
0.0
 11
45.0
 21
2.38461538462
 31
0.0
  0
LINE
  8
Views
 62
0
 10
14.0
 20
-26.2307692308
 30
0.0
 11
10.0
 21
-26.2307692308
 31
0.0
  0
LINE
  8
Views
 62
0
 10
45.0
 20
2.38461538462
 30
0.0
 11
41.0
 21
2.38461538462
 31
0.0
  0
LINE
  8
Views
 62
0
 10
14.0
 20
-21.4615384615
 30
0.0
 11
14.0
 21
-26.2307692308
 31
0.0
  0
LINE
  8
Views
 62
0
 10
41.0
 20
2.38461538462
 30
0.0
 11
41.0
 21
7.15384615385
 31
0.0
  0
LINE
  8
Views
 62
0
 10
10.0
 20
-21.4615384615
 30
0.0
 11
14.0
 21
-21.4615384615
 31
0.0
  0
LINE
  8
Views
 62
0
 10
41.0
 20
7.15384615385
 30
0.0
 11
45.0
 21
7.15384615385
 31
0.0
  0
LINE
  8
Views
 62
0
 10
10.0
 20
-16.6923076923
 30
0.0
 11
10.0
 21
-21.4615384615
 31
0.0
  0
LINE
  8
Views
 62
0
 10
45.0
 20
7.15384615385
 30
0.0
 11
45.0
 21
11.9230769231
 31
0.0
  0
LINE
  8
Views
 62
0
 10
14.0
 20
-16.6923076923
 30
0.0
 11
10.0
 21
-16.6923076923
 31
0.0
  0
LINE
  8
Views
 62
0
 10
45.0
 20
11.9230769231
 30
0.0
 11
41.0
 21
11.9230769231
 31
0.0
  0
LINE
  8
Views
 62
0
 10
14.0
 20
-11.9230769231
 30
0.0
 11
14.0
 21
-16.6923076923
 31
0.0
  0
LINE
  8
Views
 62
0
 10
41.0
 20
11.9230769231
 30
0.0
 11
41.0
 21
16.6923076923
 31
0.0
  0
LINE
  8
Views
 62
0
 10
10.0
 20
-11.9230769231
 30
0.0
 11
14.0
 21
-11.9230769231
 31
0.0
  0
LINE
  8
Views
 62
0
 10
41.0
 20
16.6923076923
 30
0.0
 11
45.0
 21
16.6923076923
 31
0.0
  0
LINE
  8
Views
 62
0
 10
10.0
 20
-7.15384615385
 30
0.0
 11
10.0
 21
-11.9230769231
 31
0.0
  0
LINE
  8
Views
 62
0
 10
45.0
 20
16.6923076923
 30
0.0
 11
45.0
 21
21.4615384615
 31
0.0
  0
LINE
  8
Views
 62
0
 10
14.0
 20
-7.15384615385
 30
0.0
 11
10.0
 21
-7.15384615385
 31
0.0
  0
LINE
  8
Views
 62
0
 10
45.0
 20
21.4615384615
 30
0.0
 11
41.0
 21
21.4615384615
 31
0.0
  0
LINE
  8
Views
 62
0
 10
14.0
 20
-2.38461538462
 30
0.0
 11
14.0
 21
-7.15384615385
 31
0.0
  0
LINE
  8
Views
 62
0
 10
41.0
 20
21.4615384615
 30
0.0
 11
41.0
 21
26.2307692308
 31
0.0
  0
LINE
  8
Views
 62
0
 10
10.0
 20
-2.38461538462
 30
0.0
 11
14.0
 21
-2.38461538462
 31
0.0
  0
LINE
  8
Views
 62
0
 10
41.0
 20
26.2307692308
 30
0.0
 11
45.0
 21
26.2307692308
 31
0.0
  0
LINE
  8
Views
 62
0
 10
10.0
 20
2.38461538462
 30
0.0
 11
10.0
 21
-2.38461538462
 31
0.0
  0
LINE
  8
Views
 62
0
 10
45.0
 20
26.2307692308
 30
0.0
 11
45.0
 21
31.0
 31
0.0
  0
LINE
  8
Views
 62
0
 10
14.0
 20
2.38461538462
 30
0.0
 11
10.0
 21
2.38461538462
 31
0.0
  0
LINE
  8
Views
 62
0
 10
45.0
 20
31.0
 30
0.0
 11
45.0
 21
35.0
 31
0.0
  0
LINE
  8
Views
 62
0
 10
14.0
 20
7.15384615385
 30
0.0
 11
14.0
 21
2.38461538462
 31
0.0
  0
LINE
  8
Views
 62
0
 10
45.0
 20
35.0
 30
0.0
 11
41.0
 21
35.0
 31
0.0
  0
LINE
  8
Views
 62
0
 10
10.0
 20
7.15384615385
 30
0.0
 11
14.0
 21
7.15384615385
 31
0.0
  0
LINE
  8
Views
 62
0
 10
41.0
 20
35.0
 30
0.0
 11
35.6
 21
35.0
 31
0.0
  0
LINE
  8
Views
 62
0
 10
10.0
 20
11.9230769231
 30
0.0
 11
10.0
 21
7.15384615385
 31
0.0
  0
LINE
  8
Views
 62
0
 10
35.6
 20
35.0
 30
0.0
 11
35.6
 21
31.0
 31
0.0
  0
LINE
  8
Views
 62
0
 10
14.0
 20
11.9230769231
 30
0.0
 11
10.0
 21
11.9230769231
 31
0.0
  0
LINE
  8
Views
 62
0
 10
35.6
 20
31.0
 30
0.0
 11
30.2
 21
31.0
 31
0.0
  0
LINE
  8
Views
 62
0
 10
14.0
 20
16.6923076923
 30
0.0
 11
14.0
 21
11.9230769231
 31
0.0
  0
LINE
  8
Views
 62
0
 10
30.2
 20
31.0
 30
0.0
 11
30.2
 21
35.0
 31
0.0
  0
LINE
  8
Views
 62
0
 10
10.0
 20
16.6923076923
 30
0.0
 11
14.0
 21
16.6923076923
 31
0.0
  0
LINE
  8
Views
 62
0
 10
30.2
 20
35.0
 30
0.0
 11
24.8
 21
35.0
 31
0.0
  0
LINE
  8
Views
 62
0
 10
10.0
 20
21.4615384615
 30
0.0
 11
10.0
 21
16.6923076923
 31
0.0
  0
LINE
  8
Views
 62
0
 10
24.8
 20
35.0
 30
0.0
 11
24.8
 21
31.0
 31
0.0
  0
LINE
  8
Views
 62
0
 10
14.0
 20
21.4615384615
 30
0.0
 11
10.0
 21
21.4615384615
 31
0.0
  0
LINE
  8
Views
 62
0
 10
24.8
 20
31.0
 30
0.0
 11
19.4
 21
31.0
 31
0.0
  0
LINE
  8
Views
 62
0
 10
14.0
 20
26.2307692308
 30
0.0
 11
14.0
 21
21.4615384615
 31
0.0
  0
LINE
  8
Views
 62
0
 10
19.4
 20
31.0
 30
0.0
 11
19.4
 21
35.0
 31
0.0
  0
LINE
  8
Views
 62
0
 10
10.0
 20
26.2307692308
 30
0.0
 11
14.0
 21
26.2307692308
 31
0.0
  0
LINE
  8
Views
 62
0
 10
19.4
 20
35.0
 30
0.0
 11
14.0
 21
35.0
 31
0.0
  0
LINE
  8
Views
 62
0
 10
10.0
 20
31.0
 30
0.0
 11
10.0
 21
26.2307692308
 31
0.0
  0
LINE
  8
Views
 62
0
 10
14.0
 20
35.0
 30
0.0
 11
10.0
 21
35.0
 31
0.0
  0
LINE
  8
Views
 62
0
 10
10.0
 20
35.0
 30
0.0
 11
10.0
 21
31.0
 31
0.0
  0
CIRCLE
  8
Views
 62
0
 10
18.0
 20
0.0
 30
0.0
 40
1.75
  0
ENDBLK
  0
BLOCK
  8
Views
  2
SHAPE2DVIEW002
 70
0
 10
0.0
 20
0.0
 30
0.0
  3
SHAPE2DVIEW002
  0
LINE
  8
Views
 62
0
 10
190.0
 20
41.0
 30
0.0
 11
194.0
 21
41.0
 31
0.0
  0
LINE
  8
Views
 62
0
 10
190.0
 20
36.1764705882
 30
0.0
 11
190.0
 21
41.0
 31
0.0
  0
LINE
  8
Views
 62
0
 10
194.0
 20
41.0
 30
0.0
 11
198.769230769
 21
41.0
 31
0.0
  0
LINE
  8
Views
 62
0
 10
194.0
 20
36.1764705882
 30
0.0
 11
190.0
 21
36.1764705882
 31
0.0
  0
LINE
  8
Views
 62
0
 10
198.769230769
 20
41.0
 30
0.0
 11
198.769230769
 21
45.0
 31
0.0
  0
LINE
  8
Views
 62
0
 10
194.0
 20
31.3529411765
 30
0.0
 11
194.0
 21
36.1764705882
 31
0.0
  0
LINE
  8
Views
 62
0
 10
198.769230769
 20
45.0
 30
0.0
 11
203.538461538
 21
45.0
 31
0.0
  0
LINE
  8
Views
 62
0
 10
190.0
 20
31.3529411765
 30
0.0
 11
194.0
 21
31.3529411765
 31
0.0
  0
LINE
  8
Views
 62
0
 10
203.538461538
 20
45.0
 30
0.0
 11
203.538461538
 21
41.0
 31
0.0
  0
LINE
  8
Views
 62
0
 10
190.0
 20
26.5294117647
 30
0.0
 11
190.0
 21
31.3529411765
 31
0.0
  0
LINE
  8
Views
 62
0
 10
203.538461538
 20
41.0
 30
0.0
 11
208.307692308
 21
41.0
 31
0.0
  0
LINE
  8
Views
 62
0
 10
194.0
 20
26.5294117647
 30
0.0
 11
190.0
 21
26.5294117647
 31
0.0
  0
LINE
  8
Views
 62
0
 10
208.307692308
 20
41.0
 30
0.0
 11
208.307692308
 21
45.0
 31
0.0
  0
LINE
  8
Views
 62
0
 10
194.0
 20
21.7058823529
 30
0.0
 11
194.0
 21
26.5294117647
 31
0.0
  0
LINE
  8
Views
 62
0
 10
208.307692308
 20
45.0
 30
0.0
 11
213.076923077
 21
45.0
 31
0.0
  0
LINE
  8
Views
 62
0
 10
190.0
 20
21.7058823529
 30
0.0
 11
194.0
 21
21.7058823529
 31
0.0
  0
LINE
  8
Views
 62
0
 10
213.076923077
 20
45.0
 30
0.0
 11
213.076923077
 21
41.0
 31
0.0
  0
LINE
  8
Views
 62
0
 10
190.0
 20
16.8823529412
 30
0.0
 11
190.0
 21
21.7058823529
 31
0.0
  0
LINE
  8
Views
 62
0
 10
213.076923077
 20
41.0
 30
0.0
 11
217.846153846
 21
41.0
 31
0.0
  0
LINE
  8
Views
 62
0
 10
194.0
 20
16.8823529412
 30
0.0
 11
190.0
 21
16.8823529412
 31
0.0
  0
LINE
  8
Views
 62
0
 10
217.846153846
 20
41.0
 30
0.0
 11
217.846153846
 21
45.0
 31
0.0
  0
LINE
  8
Views
 62
0
 10
194.0
 20
12.0588235294
 30
0.0
 11
194.0
 21
16.8823529412
 31
0.0
  0
LINE
  8
Views
 62
0
 10
217.846153846
 20
45.0
 30
0.0
 11
222.615384615
 21
45.0
 31
0.0
  0
LINE
  8
Views
 62
0
 10
190.0
 20
12.0588235294
 30
0.0
 11
194.0
 21
12.0588235294
 31
0.0
  0
LINE
  8
Views
 62
0
 10
222.615384615
 20
45.0
 30
0.0
 11
222.615384615
 21
41.0
 31
0.0
  0
LINE
  8
Views
 62
0
 10
190.0
 20
7.23529411765
 30
0.0
 11
190.0
 21
12.0588235294
 31
0.0
  0
LINE
  8
Views
 62
0
 10
222.615384615
 20
41.0
 30
0.0
 11
227.384615385
 21
41.0
 31
0.0
  0
LINE
  8
Views
 62
0
 10
194.0
 20
7.23529411765
 30
0.0
 11
190.0
 21
7.23529411765
 31
0.0
  0
LINE
  8
Views
 62
0
 10
227.384615385
 20
41.0
 30
0.0
 11
227.384615385
 21
45.0
 31
0.0
  0
LINE
  8
Views
 62
0
 10
194.0
 20
2.41176470588
 30
0.0
 11
194.0
 21
7.23529411765
 31
0.0
  0
LINE
  8
Views
 62
0
 10
227.384615385
 20
45.0
 30
0.0
 11
232.153846154
 21
45.0
 31
0.0
  0
LINE
  8
Views
 62
0
 10
190.0
 20
2.41176470588
 30
0.0
 11
194.0
 21
2.41176470588
 31
0.0
  0
LINE
  8
Views
 62
0
 10
232.153846154
 20
45.0
 30
0.0
 11
232.153846154
 21
41.0
 31
0.0
  0
LINE
  8
Views
 62
0
 10
190.0
 20
-2.41176470588
 30
0.0
 11
190.0
 21
2.41176470588
 31
0.0
  0
LINE
  8
Views
 62
0
 10
232.153846154
 20
41.0
 30
0.0
 11
236.923076923
 21
41.0
 31
0.0
  0
LINE
  8
Views
 62
0
 10
194.0
 20
-2.41176470588
 30
0.0
 11
190.0
 21
-2.41176470588
 31
0.0
  0
LINE
  8
Views
 62
0
 10
236.923076923
 20
41.0
 30
0.0
 11
236.923076923
 21
45.0
 31
0.0
  0
LINE
  8
Views
 62
0
 10
194.0
 20
-7.23529411765
 30
0.0
 11
194.0
 21
-2.41176470588
 31
0.0
  0
LINE
  8
Views
 62
0
 10
236.923076923
 20
45.0
 30
0.0
 11
241.692307692
 21
45.0
 31
0.0
  0
LINE
  8
Views
 62
0
 10
190.0
 20
-7.23529411765
 30
0.0
 11
194.0
 21
-7.23529411765
 31
0.0
  0
LINE
  8
Views
 62
0
 10
241.692307692
 20
45.0
 30
0.0
 11
241.692307692
 21
41.0
 31
0.0
  0
LINE
  8
Views
 62
0
 10
190.0
 20
-12.0588235294
 30
0.0
 11
190.0
 21
-7.23529411765
 31
0.0
  0
LINE
  8
Views
 62
0
 10
241.692307692
 20
41.0
 30
0.0
 11
246.461538462
 21
41.0
 31
0.0
  0
LINE
  8
Views
 62
0
 10
194.0
 20
-12.0588235294
 30
0.0
 11
190.0
 21
-12.0588235294
 31
0.0
  0
LINE
  8
Views
 62
0
 10
246.461538462
 20
41.0
 30
0.0
 11
246.461538462
 21
45.0
 31
0.0
  0
LINE
  8
Views
 62
0
 10
194.0
 20
-16.8823529412
 30
0.0
 11
194.0
 21
-12.0588235294
 31
0.0
  0
LINE
  8
Views
 62
0
 10
246.461538462
 20
45.0
 30
0.0
 11
251.230769231
 21
45.0
 31
0.0
  0
LINE
  8
Views
 62
0
 10
190.0
 20
-16.8823529412
 30
0.0
 11
194.0
 21
-16.8823529412
 31
0.0
  0
LINE
  8
Views
 62
0
 10
251.230769231
 20
45.0
 30
0.0
 11
251.230769231
 21
41.0
 31
0.0
  0
LINE
  8
Views
 62
0
 10
190.0
 20
-21.7058823529
 30
0.0
 11
190.0
 21
-16.8823529412
 31
0.0
  0
LINE
  8
Views
 62
0
 10
251.230769231
 20
41.0
 30
0.0
 11
256.0
 21
41.0
 31
0.0
  0
LINE
  8
Views
 62
0
 10
194.0
 20
-21.7058823529
 30
0.0
 11
190.0
 21
-21.7058823529
 31
0.0
  0
LINE
  8
Views
 62
0
 10
256.0
 20
41.0
 30
0.0
 11
260.0
 21
41.0
 31
0.0
  0
LINE
  8
Views
 62
0
 10
194.0
 20
-26.5294117647
 30
0.0
 11
194.0
 21
-21.7058823529
 31
0.0
  0
LINE
  8
Views
 62
0
 10
260.0
 20
41.0
 30
0.0
 11
260.0
 21
36.1764705882
 31
0.0
  0
LINE
  8
Views
 62
0
 10
190.0
 20
-26.5294117647
 30
0.0
 11
194.0
 21
-26.5294117647
 31
0.0
  0
LINE
  8
Views
 62
0
 10
260.0
 20
36.1764705882
 30
0.0
 11
256.0
 21
36.1764705882
 31
0.0
  0
LINE
  8
Views
 62
0
 10
190.0
 20
-31.3529411765
 30
0.0
 11
190.0
 21
-26.5294117647
 31
0.0
  0
LINE
  8
Views
 62
0
 10
256.0
 20
36.1764705882
 30
0.0
 11
256.0
 21
31.3529411765
 31
0.0
  0
LINE
  8
Views
 62
0
 10
194.0
 20
-31.3529411765
 30
0.0
 11
190.0
 21
-31.3529411765
 31
0.0
  0
LINE
  8
Views
 62
0
 10
256.0
 20
31.3529411765
 30
0.0
 11
260.0
 21
31.3529411765
 31
0.0
  0
LINE
  8
Views
 62
0
 10
194.0
 20
-36.1764705882
 30
0.0
 11
194.0
 21
-31.3529411765
 31
0.0
  0
LINE
  8
Views
 62
0
 10
260.0
 20
31.3529411765
 30
0.0
 11
260.0
 21
26.5294117647
 31
0.0
  0
LINE
  8
Views
 62
0
 10
190.0
 20
-36.1764705882
 30
0.0
 11
194.0
 21
-36.1764705882
 31
0.0
  0
LINE
  8
Views
 62
0
 10
260.0
 20
26.5294117647
 30
0.0
 11
256.0
 21
26.5294117647
 31
0.0
  0
LINE
  8
Views
 62
0
 10
190.0
 20
-41.0
 30
0.0
 11
190.0
 21
-36.1764705882
 31
0.0
  0
LINE
  8
Views
 62
0
 10
256.0
 20
26.5294117647
 30
0.0
 11
256.0
 21
21.7058823529
 31
0.0
  0
LINE
  8
Views
 62
0
 10
194.0
 20
-41.0
 30
0.0
 11
190.0
 21
-41.0
 31
0.0
  0
LINE
  8
Views
 62
0
 10
256.0
 20
21.7058823529
 30
0.0
 11
260.0
 21
21.7058823529
 31
0.0
  0
LINE
  8
Views
 62
0
 10
198.769230769
 20
-41.0
 30
0.0
 11
194.0
 21
-41.0
 31
0.0
  0
LINE
  8
Views
 62
0
 10
260.0
 20
21.7058823529
 30
0.0
 11
260.0
 21
16.8823529412
 31
0.0
  0
LINE
  8
Views
 62
0
 10
198.769230769
 20
-45.0
 30
0.0
 11
198.769230769
 21
-41.0
 31
0.0
  0
LINE
  8
Views
 62
0
 10
260.0
 20
16.8823529412
 30
0.0
 11
256.0
 21
16.8823529412
 31
0.0
  0
LINE
  8
Views
 62
0
 10
203.538461538
 20
-45.0
 30
0.0
 11
198.769230769
 21
-45.0
 31
0.0
  0
LINE
  8
Views
 62
0
 10
256.0
 20
16.8823529412
 30
0.0
 11
256.0
 21
12.0588235294
 31
0.0
  0
LINE
  8
Views
 62
0
 10
203.538461538
 20
-41.0
 30
0.0
 11
203.538461538
 21
-45.0
 31
0.0
  0
LINE
  8
Views
 62
0
 10
256.0
 20
12.0588235294
 30
0.0
 11
260.0
 21
12.0588235294
 31
0.0
  0
LINE
  8
Views
 62
0
 10
208.307692308
 20
-41.0
 30
0.0
 11
203.538461538
 21
-41.0
 31
0.0
  0
LINE
  8
Views
 62
0
 10
260.0
 20
12.0588235294
 30
0.0
 11
260.0
 21
7.23529411765
 31
0.0
  0
LINE
  8
Views
 62
0
 10
208.307692308
 20
-45.0
 30
0.0
 11
208.307692308
 21
-41.0
 31
0.0
  0
LINE
  8
Views
 62
0
 10
260.0
 20
7.23529411765
 30
0.0
 11
256.0
 21
7.23529411765
 31
0.0
  0
LINE
  8
Views
 62
0
 10
213.076923077
 20
-45.0
 30
0.0
 11
208.307692308
 21
-45.0
 31
0.0
  0
LINE
  8
Views
 62
0
 10
256.0
 20
7.23529411765
 30
0.0
 11
256.0
 21
2.41176470588
 31
0.0
  0
LINE
  8
Views
 62
0
 10
213.076923077
 20
-41.0
 30
0.0
 11
213.076923077
 21
-45.0
 31
0.0
  0
LINE
  8
Views
 62
0
 10
256.0
 20
2.41176470588
 30
0.0
 11
260.0
 21
2.41176470588
 31
0.0
  0
LINE
  8
Views
 62
0
 10
217.846153846
 20
-41.0
 30
0.0
 11
213.076923077
 21
-41.0
 31
0.0
  0
LINE
  8
Views
 62
0
 10
260.0
 20
2.41176470588
 30
0.0
 11
260.0
 21
-2.41176470588
 31
0.0
  0
LINE
  8
Views
 62
0
 10
217.846153846
 20
-45.0
 30
0.0
 11
217.846153846
 21
-41.0
 31
0.0
  0
LINE
  8
Views
 62
0
 10
260.0
 20
-2.41176470588
 30
0.0
 11
256.0
 21
-2.41176470588
 31
0.0
  0
LINE
  8
Views
 62
0
 10
222.615384615
 20
-45.0
 30
0.0
 11
217.846153846
 21
-45.0
 31
0.0
  0
LINE
  8
Views
 62
0
 10
256.0
 20
-2.41176470588
 30
0.0
 11
256.0
 21
-7.23529411765
 31
0.0
  0
LINE
  8
Views
 62
0
 10
222.615384615
 20
-41.0
 30
0.0
 11
222.615384615
 21
-45.0
 31
0.0
  0
LINE
  8
Views
 62
0
 10
256.0
 20
-7.23529411765
 30
0.0
 11
260.0
 21
-7.23529411765
 31
0.0
  0
LINE
  8
Views
 62
0
 10
227.384615385
 20
-41.0
 30
0.0
 11
222.615384615
 21
-41.0
 31
0.0
  0
LINE
  8
Views
 62
0
 10
260.0
 20
-7.23529411765
 30
0.0
 11
260.0
 21
-12.0588235294
 31
0.0
  0
LINE
  8
Views
 62
0
 10
227.384615385
 20
-45.0
 30
0.0
 11
227.384615385
 21
-41.0
 31
0.0
  0
LINE
  8
Views
 62
0
 10
260.0
 20
-12.0588235294
 30
0.0
 11
256.0
 21
-12.0588235294
 31
0.0
  0
LINE
  8
Views
 62
0
 10
232.153846154
 20
-45.0
 30
0.0
 11
227.384615385
 21
-45.0
 31
0.0
  0
LINE
  8
Views
 62
0
 10
256.0
 20
-12.0588235294
 30
0.0
 11
256.0
 21
-16.8823529412
 31
0.0
  0
LINE
  8
Views
 62
0
 10
232.153846154
 20
-41.0
 30
0.0
 11
232.153846154
 21
-45.0
 31
0.0
  0
LINE
  8
Views
 62
0
 10
256.0
 20
-16.8823529412
 30
0.0
 11
260.0
 21
-16.8823529412
 31
0.0
  0
LINE
  8
Views
 62
0
 10
236.923076923
 20
-41.0
 30
0.0
 11
232.153846154
 21
-41.0
 31
0.0
  0
LINE
  8
Views
 62
0
 10
260.0
 20
-16.8823529412
 30
0.0
 11
260.0
 21
-21.7058823529
 31
0.0
  0
LINE
  8
Views
 62
0
 10
236.923076923
 20
-45.0
 30
0.0
 11
236.923076923
 21
-41.0
 31
0.0
  0
LINE
  8
Views
 62
0
 10
260.0
 20
-21.7058823529
 30
0.0
 11
256.0
 21
-21.7058823529
 31
0.0
  0
LINE
  8
Views
 62
0
 10
241.692307692
 20
-45.0
 30
0.0
 11
236.923076923
 21
-45.0
 31
0.0
  0
LINE
  8
Views
 62
0
 10
256.0
 20
-21.7058823529
 30
0.0
 11
256.0
 21
-26.5294117647
 31
0.0
  0
LINE
  8
Views
 62
0
 10
241.692307692
 20
-41.0
 30
0.0
 11
241.692307692
 21
-45.0
 31
0.0
  0
LINE
  8
Views
 62
0
 10
256.0
 20
-26.5294117647
 30
0.0
 11
260.0
 21
-26.5294117647
 31
0.0
  0
LINE
  8
Views
 62
0
 10
246.461538462
 20
-41.0
 30
0.0
 11
241.692307692
 21
-41.0
 31
0.0
  0
LINE
  8
Views
 62
0
 10
260.0
 20
-26.5294117647
 30
0.0
 11
260.0
 21
-31.3529411765
 31
0.0
  0
LINE
  8
Views
 62
0
 10
246.461538462
 20
-45.0
 30
0.0
 11
246.461538462
 21
-41.0
 31
0.0
  0
LINE
  8
Views
 62
0
 10
260.0
 20
-31.3529411765
 30
0.0
 11
256.0
 21
-31.3529411765
 31
0.0
  0
LINE
  8
Views
 62
0
 10
251.230769231
 20
-45.0
 30
0.0
 11
246.461538462
 21
-45.0
 31
0.0
  0
LINE
  8
Views
 62
0
 10
256.0
 20
-31.3529411765
 30
0.0
 11
256.0
 21
-36.1764705882
 31
0.0
  0
LINE
  8
Views
 62
0
 10
251.230769231
 20
-41.0
 30
0.0
 11
251.230769231
 21
-45.0
 31
0.0
  0
LINE
  8
Views
 62
0
 10
256.0
 20
-36.1764705882
 30
0.0
 11
260.0
 21
-36.1764705882
 31
0.0
  0
LINE
  8
Views
 62
0
 10
256.0
 20
-41.0
 30
0.0
 11
251.230769231
 21
-41.0
 31
0.0
  0
LINE
  8
Views
 62
0
 10
260.0
 20
-36.1764705882
 30
0.0
 11
260.0
 21
-41.0
 31
0.0
  0
LINE
  8
Views
 62
0
 10
260.0
 20
-41.0
 30
0.0
 11
256.0
 21
-41.0
 31
0.0
  0
CIRCLE
  8
Views
 62
0
 10
248.0
 20
-33.0
 30
0.0
 40
1.0
  0
CIRCLE
  8
Views
 62
0
 10
248.0
 20
33.0
 30
0.0
 40
1.0
  0
CIRCLE
  8
Views
 62
0
 10
202.0
 20
-33.0
 30
0.0
 40
1.0
  0
CIRCLE
  8
Views
 62
0
 10
202.0
 20
33.0
 30
0.0
 40
1.0
  0
ENDBLK
  0
BLOCK
  8
Views
  2
SHAPE2DVIEW003
 70
0
 10
0.0
 20
0.0
 30
0.0
  3
SHAPE2DVIEW003
  0
LINE
  8
Views
 62
0
 10
90.0
 20
35.0
 30
0.0
 11
90.0
 21
31.0
 31
0.0
  0
LINE
  8
Views
 62
0
 10
90.0
 20
31.0
 30
0.0
 11
90.0
 21
26.2307692308
 31
0.0
  0
LINE
  8
Views
 62
0
 10
90.0
 20
26.2307692308
 30
0.0
 11
86.0
 21
26.2307692308
 31
0.0
  0
LINE
  8
Views
 62
0
 10
86.0
 20
26.2307692308
 30
0.0
 11
86.0
 21
21.4615384615
 31
0.0
  0
LINE
  8
Views
 62
0
 10
86.0
 20
21.4615384615
 30
0.0
 11
90.0
 21
21.4615384615
 31
0.0
  0
LINE
  8
Views
 62
0
 10
90.0
 20
21.4615384615
 30
0.0
 11
90.0
 21
16.6923076923
 31
0.0
  0
LINE
  8
Views
 62
0
 10
90.0
 20
16.6923076923
 30
0.0
 11
86.0
 21
16.6923076923
 31
0.0
  0
LINE
  8
Views
 62
0
 10
86.0
 20
16.6923076923
 30
0.0
 11
86.0
 21
11.9230769231
 31
0.0
  0
LINE
  8
Views
 62
0
 10
86.0
 20
11.9230769231
 30
0.0
 11
90.0
 21
11.9230769231
 31
0.0
  0
LINE
  8
Views
 62
0
 10
90.0
 20
11.9230769231
 30
0.0
 11
90.0
 21
7.15384615385
 31
0.0
  0
LINE
  8
Views
 62
0
 10
90.0
 20
7.15384615385
 30
0.0
 11
86.0
 21
7.15384615385
 31
0.0
  0
LINE
  8
Views
 62
0
 10
86.0
 20
7.15384615385
 30
0.0
 11
86.0
 21
2.38461538462
 31
0.0
  0
LINE
  8
Views
 62
0
 10
86.0
 20
2.38461538462
 30
0.0
 11
90.0
 21
2.38461538462
 31
0.0
  0
LINE
  8
Views
 62
0
 10
90.0
 20
2.38461538462
 30
0.0
 11
90.0
 21
-2.38461538462
 31
0.0
  0
LINE
  8
Views
 62
0
 10
90.0
 20
-2.38461538462
 30
0.0
 11
86.0
 21
-2.38461538462
 31
0.0
  0
LINE
  8
Views
 62
0
 10
86.0
 20
-2.38461538462
 30
0.0
 11
86.0
 21
-7.15384615385
 31
0.0
  0
LINE
  8
Views
 62
0
 10
86.0
 20
-7.15384615385
 30
0.0
 11
90.0
 21
-7.15384615385
 31
0.0
  0
LINE
  8
Views
 62
0
 10
90.0
 20
-7.15384615385
 30
0.0
 11
90.0
 21
-11.9230769231
 31
0.0
  0
LINE
  8
Views
 62
0
 10
90.0
 20
-11.9230769231
 30
0.0
 11
86.0
 21
-11.9230769231
 31
0.0
  0
LINE
  8
Views
 62
0
 10
86.0
 20
-11.9230769231
 30
0.0
 11
86.0
 21
-16.6923076923
 31
0.0
  0
LINE
  8
Views
 62
0
 10
86.0
 20
-16.6923076923
 30
0.0
 11
90.0
 21
-16.6923076923
 31
0.0
  0
LINE
  8
Views
 62
0
 10
90.0
 20
-16.6923076923
 30
0.0
 11
90.0
 21
-21.4615384615
 31
0.0
  0
LINE
  8
Views
 62
0
 10
90.0
 20
-21.4615384615
 30
0.0
 11
86.0
 21
-21.4615384615
 31
0.0
  0
LINE
  8
Views
 62
0
 10
86.0
 20
-21.4615384615
 30
0.0
 11
86.0
 21
-26.2307692308
 31
0.0
  0
LINE
  8
Views
 62
0
 10
86.0
 20
-26.2307692308
 30
0.0
 11
90.0
 21
-26.2307692308
 31
0.0
  0
LINE
  8
Views
 62
0
 10
90.0
 20
-26.2307692308
 30
0.0
 11
90.0
 21
-31.0
 31
0.0
  0
LINE
  8
Views
 62
0
 10
90.0
 20
-31.0
 30
0.0
 11
90.0
 21
-35.0
 31
0.0
  0
LINE
  8
Views
 62
0
 10
90.0
 20
-35.0
 30
0.0
 11
86.0
 21
-35.0
 31
0.0
  0
LINE
  8
Views
 62
0
 10
86.0
 20
-35.0
 30
0.0
 11
80.6
 21
-35.0
 31
0.0
  0
LINE
  8
Views
 62
0
 10
80.6
 20
-35.0
 30
0.0
 11
80.6
 21
-31.0
 31
0.0
  0
LINE
  8
Views
 62
0
 10
80.6
 20
-31.0
 30
0.0
 11
75.2
 21
-31.0
 31
0.0
  0
LINE
  8
Views
 62
0
 10
75.2
 20
-31.0
 30
0.0
 11
75.2
 21
-35.0
 31
0.0
  0
LINE
  8
Views
 62
0
 10
75.2
 20
-35.0
 30
0.0
 11
69.8
 21
-35.0
 31
0.0
  0
LINE
  8
Views
 62
0
 10
69.8
 20
-35.0
 30
0.0
 11
69.8
 21
-31.0
 31
0.0
  0
LINE
  8
Views
 62
0
 10
69.8
 20
-31.0
 30
0.0
 11
64.4
 21
-31.0
 31
0.0
  0
LINE
  8
Views
 62
0
 10
64.4
 20
-31.0
 30
0.0
 11
64.4
 21
-35.0
 31
0.0
  0
LINE
  8
Views
 62
0
 10
64.4
 20
-35.0
 30
0.0
 11
59.0
 21
-35.0
 31
0.0
  0
LINE
  8
Views
 62
0
 10
59.0
 20
-35.0
 30
0.0
 11
55.0
 21
-35.0
 31
0.0
  0
LINE
  8
Views
 62
0
 10
55.0
 20
-35.0
 30
0.0
 11
55.0
 21
-31.0
 31
0.0
  0
LINE
  8
Views
 62
0
 10
55.0
 20
-31.0
 30
0.0
 11
55.0
 21
-26.2307692308
 31
0.0
  0
LINE
  8
Views
 62
0
 10
55.0
 20
-26.2307692308
 30
0.0
 11
59.0
 21
-26.2307692308
 31
0.0
  0
LINE
  8
Views
 62
0
 10
59.0
 20
-26.2307692308
 30
0.0
 11
59.0
 21
-21.4615384615
 31
0.0
  0
LINE
  8
Views
 62
0
 10
59.0
 20
-21.4615384615
 30
0.0
 11
55.0
 21
-21.4615384615
 31
0.0
  0
LINE
  8
Views
 62
0
 10
55.0
 20
-21.4615384615
 30
0.0
 11
55.0
 21
-16.6923076923
 31
0.0
  0
LINE
  8
Views
 62
0
 10
55.0
 20
-16.6923076923
 30
0.0
 11
59.0
 21
-16.6923076923
 31
0.0
  0
LINE
  8
Views
 62
0
 10
59.0
 20
-16.6923076923
 30
0.0
 11
59.0
 21
-11.9230769231
 31
0.0
  0
LINE
  8
Views
 62
0
 10
59.0
 20
-11.9230769231
 30
0.0
 11
55.0
 21
-11.9230769231
 31
0.0
  0
LINE
  8
Views
 62
0
 10
55.0
 20
-11.9230769231
 30
0.0
 11
55.0
 21
-7.15384615385
 31
0.0
  0
LINE
  8
Views
 62
0
 10
55.0
 20
-7.15384615385
 30
0.0
 11
59.0
 21
-7.15384615385
 31
0.0
  0
LINE
  8
Views
 62
0
 10
59.0
 20
-7.15384615385
 30
0.0
 11
59.0
 21
-2.38461538462
 31
0.0
  0
LINE
  8
Views
 62
0
 10
59.0
 20
-2.38461538462
 30
0.0
 11
55.0
 21
-2.38461538462
 31
0.0
  0
LINE
  8
Views
 62
0
 10
55.0
 20
-2.38461538462
 30
0.0
 11
55.0
 21
2.38461538462
 31
0.0
  0
LINE
  8
Views
 62
0
 10
55.0
 20
2.38461538462
 30
0.0
 11
59.0
 21
2.38461538462
 31
0.0
  0
LINE
  8
Views
 62
0
 10
59.0
 20
2.38461538462
 30
0.0
 11
59.0
 21
7.15384615385
 31
0.0
  0
LINE
  8
Views
 62
0
 10
59.0
 20
7.15384615385
 30
0.0
 11
55.0
 21
7.15384615385
 31
0.0
  0
LINE
  8
Views
 62
0
 10
55.0
 20
7.15384615385
 30
0.0
 11
55.0
 21
11.9230769231
 31
0.0
  0
LINE
  8
Views
 62
0
 10
55.0
 20
11.9230769231
 30
0.0
 11
59.0
 21
11.9230769231
 31
0.0
  0
LINE
  8
Views
 62
0
 10
59.0
 20
11.9230769231
 30
0.0
 11
59.0
 21
16.6923076923
 31
0.0
  0
LINE
  8
Views
 62
0
 10
59.0
 20
16.6923076923
 30
0.0
 11
55.0
 21
16.6923076923
 31
0.0
  0
LINE
  8
Views
 62
0
 10
55.0
 20
16.6923076923
 30
0.0
 11
55.0
 21
21.4615384615
 31
0.0
  0
LINE
  8
Views
 62
0
 10
55.0
 20
21.4615384615
 30
0.0
 11
59.0
 21
21.4615384615
 31
0.0
  0
LINE
  8
Views
 62
0
 10
59.0
 20
21.4615384615
 30
0.0
 11
59.0
 21
26.2307692308
 31
0.0
  0
LINE
  8
Views
 62
0
 10
59.0
 20
26.2307692308
 30
0.0
 11
55.0
 21
26.2307692308
 31
0.0
  0
LINE
  8
Views
 62
0
 10
55.0
 20
26.2307692308
 30
0.0
 11
55.0
 21
31.0
 31
0.0
  0
LINE
  8
Views
 62
0
 10
55.0
 20
31.0
 30
0.0
 11
55.0
 21
35.0
 31
0.0
  0
LINE
  8
Views
 62
0
 10
55.0
 20
35.0
 30
0.0
 11
59.0
 21
35.0
 31
0.0
  0
LINE
  8
Views
 62
0
 10
59.0
 20
35.0
 30
0.0
 11
64.4
 21
35.0
 31
0.0
  0
LINE
  8
Views
 62
0
 10
64.4
 20
35.0
 30
0.0
 11
64.4
 21
31.0
 31
0.0
  0
LINE
  8
Views
 62
0
 10
64.4
 20
31.0
 30
0.0
 11
69.8
 21
31.0
 31
0.0
  0
LINE
  8
Views
 62
0
 10
69.8
 20
31.0
 30
0.0
 11
69.8
 21
35.0
 31
0.0
  0
LINE
  8
Views
 62
0
 10
69.8
 20
35.0
 30
0.0
 11
75.2
 21
35.0
 31
0.0
  0
LINE
  8
Views
 62
0
 10
75.2
 20
35.0
 30
0.0
 11
75.2
 21
31.0
 31
0.0
  0
LINE
  8
Views
 62
0
 10
75.2
 20
31.0
 30
0.0
 11
80.6
 21
31.0
 31
0.0
  0
LINE
  8
Views
 62
0
 10
80.6
 20
31.0
 30
0.0
 11
80.6
 21
35.0
 31
0.0
  0
LINE
  8
Views
 62
0
 10
80.6
 20
35.0
 30
0.0
 11
86.0
 21
35.0
 31
0.0
  0
LINE
  8
Views
 62
0
 10
86.0
 20
35.0
 30
0.0
 11
90.0
 21
35.0
 31
0.0
  0
ENDBLK
  0
BLOCK
  8
Views
  2
SHAPE2DVIEW005
 70
0
 10
0.0
 20
0.0
 30
0.0
  3
SHAPE2DVIEW005
  0
LINE
  8
Views
 62
0
 10
131.0
 20
41.0
 30
0.0
 11
131.0
 21
36.1764705882
 31
0.0
  0
LINE
  8
Views
 62
0
 10
131.0
 20
36.1764705882
 30
0.0
 11
135.0
 21
36.1764705882
 31
0.0
  0
LINE
  8
Views
 62
0
 10
135.0
 20
36.1764705882
 30
0.0
 11
135.0
 21
31.3529411765
 31
0.0
  0
LINE
  8
Views
 62
0
 10
135.0
 20
31.3529411765
 30
0.0
 11
131.0
 21
31.3529411765
 31
0.0
  0
LINE
  8
Views
 62
0
 10
131.0
 20
31.3529411765
 30
0.0
 11
131.0
 21
26.5294117647
 31
0.0
  0
LINE
  8
Views
 62
0
 10
131.0
 20
26.5294117647
 30
0.0
 11
135.0
 21
26.5294117647
 31
0.0
  0
LINE
  8
Views
 62
0
 10
135.0
 20
26.5294117647
 30
0.0
 11
135.0
 21
21.7058823529
 31
0.0
  0
LINE
  8
Views
 62
0
 10
135.0
 20
21.7058823529
 30
0.0
 11
131.0
 21
21.7058823529
 31
0.0
  0
LINE
  8
Views
 62
0
 10
131.0
 20
21.7058823529
 30
0.0
 11
131.0
 21
16.8823529412
 31
0.0
  0
LINE
  8
Views
 62
0
 10
131.0
 20
16.8823529412
 30
0.0
 11
135.0
 21
16.8823529412
 31
0.0
  0
LINE
  8
Views
 62
0
 10
135.0
 20
16.8823529412
 30
0.0
 11
135.0
 21
12.0588235294
 31
0.0
  0
LINE
  8
Views
 62
0
 10
135.0
 20
12.0588235294
 30
0.0
 11
131.0
 21
12.0588235294
 31
0.0
  0
LINE
  8
Views
 62
0
 10
131.0
 20
12.0588235294
 30
0.0
 11
131.0
 21
7.23529411765
 31
0.0
  0
LINE
  8
Views
 62
0
 10
131.0
 20
7.23529411765
 30
0.0
 11
135.0
 21
7.23529411765
 31
0.0
  0
LINE
  8
Views
 62
0
 10
135.0
 20
7.23529411765
 30
0.0
 11
135.0
 21
2.41176470588
 31
0.0
  0
LINE
  8
Views
 62
0
 10
135.0
 20
2.41176470588
 30
0.0
 11
131.0
 21
2.41176470588
 31
0.0
  0
LINE
  8
Views
 62
0
 10
131.0
 20
2.41176470588
 30
0.0
 11
131.0
 21
-2.41176470588
 31
0.0
  0
LINE
  8
Views
 62
0
 10
131.0
 20
-2.41176470588
 30
0.0
 11
135.0
 21
-2.41176470588
 31
0.0
  0
LINE
  8
Views
 62
0
 10
135.0
 20
-2.41176470588
 30
0.0
 11
135.0
 21
-7.23529411765
 31
0.0
  0
LINE
  8
Views
 62
0
 10
135.0
 20
-7.23529411765
 30
0.0
 11
131.0
 21
-7.23529411765
 31
0.0
  0
LINE
  8
Views
 62
0
 10
131.0
 20
-7.23529411765
 30
0.0
 11
131.0
 21
-12.0588235294
 31
0.0
  0
LINE
  8
Views
 62
0
 10
131.0
 20
-12.0588235294
 30
0.0
 11
135.0
 21
-12.0588235294
 31
0.0
  0
LINE
  8
Views
 62
0
 10
135.0
 20
-12.0588235294
 30
0.0
 11
135.0
 21
-16.8823529412
 31
0.0
  0
LINE
  8
Views
 62
0
 10
135.0
 20
-16.8823529412
 30
0.0
 11
131.0
 21
-16.8823529412
 31
0.0
  0
LINE
  8
Views
 62
0
 10
131.0
 20
-16.8823529412
 30
0.0
 11
131.0
 21
-21.7058823529
 31
0.0
  0
LINE
  8
Views
 62
0
 10
131.0
 20
-21.7058823529
 30
0.0
 11
135.0
 21
-21.7058823529
 31
0.0
  0
LINE
  8
Views
 62
0
 10
135.0
 20
-21.7058823529
 30
0.0
 11
135.0
 21
-26.5294117647
 31
0.0
  0
LINE
  8
Views
 62
0
 10
135.0
 20
-26.5294117647
 30
0.0
 11
131.0
 21
-26.5294117647
 31
0.0
  0
LINE
  8
Views
 62
0
 10
131.0
 20
-26.5294117647
 30
0.0
 11
131.0
 21
-31.3529411765
 31
0.0
  0
LINE
  8
Views
 62
0
 10
131.0
 20
-31.3529411765
 30
0.0
 11
135.0
 21
-31.3529411765
 31
0.0
  0
LINE
  8
Views
 62
0
 10
135.0
 20
-31.3529411765
 30
0.0
 11
135.0
 21
-36.1764705882
 31
0.0
  0
LINE
  8
Views
 62
0
 10
135.0
 20
-36.1764705882
 30
0.0
 11
131.0
 21
-36.1764705882
 31
0.0
  0
LINE
  8
Views
 62
0
 10
131.0
 20
-36.1764705882
 30
0.0
 11
131.0
 21
-41.0
 31
0.0
  0
LINE
  8
Views
 62
0
 10
131.0
 20
-41.0
 30
0.0
 11
125.6
 21
-41.0
 31
0.0
  0
LINE
  8
Views
 62
0
 10
125.6
 20
-41.0
 30
0.0
 11
125.6
 21
-45.0
 31
0.0
  0
LINE
  8
Views
 62
0
 10
125.6
 20
-45.0
 30
0.0
 11
120.2
 21
-45.0
 31
0.0
  0
LINE
  8
Views
 62
0
 10
120.2
 20
-45.0
 30
0.0
 11
120.2
 21
-41.0
 31
0.0
  0
LINE
  8
Views
 62
0
 10
120.2
 20
-41.0
 30
0.0
 11
114.8
 21
-41.0
 31
0.0
  0
LINE
  8
Views
 62
0
 10
114.8
 20
-41.0
 30
0.0
 11
114.8
 21
-45.0
 31
0.0
  0
LINE
  8
Views
 62
0
 10
114.8
 20
-45.0
 30
0.0
 11
109.4
 21
-45.0
 31
0.0
  0
LINE
  8
Views
 62
0
 10
109.4
 20
-45.0
 30
0.0
 11
109.4
 21
-41.0
 31
0.0
  0
LINE
  8
Views
 62
0
 10
109.4
 20
-41.0
 30
0.0
 11
104.0
 21
-41.0
 31
0.0
  0
LINE
  8
Views
 62
0
 10
104.0
 20
-41.0
 30
0.0
 11
104.0
 21
-36.1764705882
 31
0.0
  0
LINE
  8
Views
 62
0
 10
104.0
 20
-36.1764705882
 30
0.0
 11
100.0
 21
-36.1764705882
 31
0.0
  0
LINE
  8
Views
 62
0
 10
100.0
 20
-36.1764705882
 30
0.0
 11
100.0
 21
-31.3529411765
 31
0.0
  0
LINE
  8
Views
 62
0
 10
100.0
 20
-31.3529411765
 30
0.0
 11
104.0
 21
-31.3529411765
 31
0.0
  0
LINE
  8
Views
 62
0
 10
104.0
 20
-31.3529411765
 30
0.0
 11
104.0
 21
-26.5294117647
 31
0.0
  0
LINE
  8
Views
 62
0
 10
104.0
 20
-26.5294117647
 30
0.0
 11
100.0
 21
-26.5294117647
 31
0.0
  0
LINE
  8
Views
 62
0
 10
100.0
 20
-26.5294117647
 30
0.0
 11
100.0
 21
-21.7058823529
 31
0.0
  0
LINE
  8
Views
 62
0
 10
100.0
 20
-21.7058823529
 30
0.0
 11
104.0
 21
-21.7058823529
 31
0.0
  0
LINE
  8
Views
 62
0
 10
104.0
 20
-21.7058823529
 30
0.0
 11
104.0
 21
-16.8823529412
 31
0.0
  0
LINE
  8
Views
 62
0
 10
104.0
 20
-16.8823529412
 30
0.0
 11
100.0
 21
-16.8823529412
 31
0.0
  0
LINE
  8
Views
 62
0
 10
100.0
 20
-16.8823529412
 30
0.0
 11
100.0
 21
-12.0588235294
 31
0.0
  0
LINE
  8
Views
 62
0
 10
100.0
 20
-12.0588235294
 30
0.0
 11
104.0
 21
-12.0588235294
 31
0.0
  0
LINE
  8
Views
 62
0
 10
104.0
 20
-12.0588235294
 30
0.0
 11
104.0
 21
-7.23529411765
 31
0.0
  0
LINE
  8
Views
 62
0
 10
104.0
 20
-7.23529411765
 30
0.0
 11
100.0
 21
-7.23529411765
 31
0.0
  0
LINE
  8
Views
 62
0
 10
100.0
 20
-7.23529411765
 30
0.0
 11
100.0
 21
-2.41176470588
 31
0.0
  0
LINE
  8
Views
 62
0
 10
100.0
 20
-2.41176470588
 30
0.0
 11
104.0
 21
-2.41176470588
 31
0.0
  0
LINE
  8
Views
 62
0
 10
104.0
 20
-2.41176470588
 30
0.0
 11
104.0
 21
2.41176470588
 31
0.0
  0
LINE
  8
Views
 62
0
 10
104.0
 20
2.41176470588
 30
0.0
 11
100.0
 21
2.41176470588
 31
0.0
  0
LINE
  8
Views
 62
0
 10
100.0
 20
2.41176470588
 30
0.0
 11
100.0
 21
7.23529411765
 31
0.0
  0
LINE
  8
Views
 62
0
 10
100.0
 20
7.23529411765
 30
0.0
 11
104.0
 21
7.23529411765
 31
0.0
  0
LINE
  8
Views
 62
0
 10
104.0
 20
7.23529411765
 30
0.0
 11
104.0
 21
12.0588235294
 31
0.0
  0
LINE
  8
Views
 62
0
 10
104.0
 20
12.0588235294
 30
0.0
 11
100.0
 21
12.0588235294
 31
0.0
  0
LINE
  8
Views
 62
0
 10
100.0
 20
12.0588235294
 30
0.0
 11
100.0
 21
16.8823529412
 31
0.0
  0
LINE
  8
Views
 62
0
 10
100.0
 20
16.8823529412
 30
0.0
 11
104.0
 21
16.8823529412
 31
0.0
  0
LINE
  8
Views
 62
0
 10
104.0
 20
16.8823529412
 30
0.0
 11
104.0
 21
21.7058823529
 31
0.0
  0
LINE
  8
Views
 62
0
 10
104.0
 20
21.7058823529
 30
0.0
 11
100.0
 21
21.7058823529
 31
0.0
  0
LINE
  8
Views
 62
0
 10
100.0
 20
21.7058823529
 30
0.0
 11
100.0
 21
26.5294117647
 31
0.0
  0
LINE
  8
Views
 62
0
 10
100.0
 20
26.5294117647
 30
0.0
 11
104.0
 21
26.5294117647
 31
0.0
  0
LINE
  8
Views
 62
0
 10
104.0
 20
26.5294117647
 30
0.0
 11
104.0
 21
31.3529411765
 31
0.0
  0
LINE
  8
Views
 62
0
 10
104.0
 20
31.3529411765
 30
0.0
 11
100.0
 21
31.3529411765
 31
0.0
  0
LINE
  8
Views
 62
0
 10
100.0
 20
31.3529411765
 30
0.0
 11
100.0
 21
36.1764705882
 31
0.0
  0
LINE
  8
Views
 62
0
 10
100.0
 20
36.1764705882
 30
0.0
 11
104.0
 21
36.1764705882
 31
0.0
  0
LINE
  8
Views
 62
0
 10
104.0
 20
36.1764705882
 30
0.0
 11
104.0
 21
41.0
 31
0.0
  0
LINE
  8
Views
 62
0
 10
104.0
 20
41.0
 30
0.0
 11
109.4
 21
41.0
 31
0.0
  0
LINE
  8
Views
 62
0
 10
109.4
 20
41.0
 30
0.0
 11
109.4
 21
45.0
 31
0.0
  0
LINE
  8
Views
 62
0
 10
109.4
 20
45.0
 30
0.0
 11
114.8
 21
45.0
 31
0.0
  0
LINE
  8
Views
 62
0
 10
114.8
 20
45.0
 30
0.0
 11
114.8
 21
41.0
 31
0.0
  0
LINE
  8
Views
 62
0
 10
114.8
 20
41.0
 30
0.0
 11
120.2
 21
41.0
 31
0.0
  0
LINE
  8
Views
 62
0
 10
120.2
 20
41.0
 30
0.0
 11
120.2
 21
45.0
 31
0.0
  0
LINE
  8
Views
 62
0
 10
120.2
 20
45.0
 30
0.0
 11
125.6
 21
45.0
 31
0.0
  0
LINE
  8
Views
 62
0
 10
125.6
 20
45.0
 30
0.0
 11
125.6
 21
41.0
 31
0.0
  0
LINE
  8
Views
 62
0
 10
125.6
 20
41.0
 30
0.0
 11
131.0
 21
41.0
 31
0.0
  0
ENDBLK
  0
BLOCK
  8
Views
  2
SHAPE2DVIEW
 70
0
 10
0.0
 20
0.0
 30
0.0
  3
SHAPE2DVIEW
  0
LINE
  8
Views
 62
0
 10
176.0
 20
41.0
 30
0.0
 11
176.0
 21
36.1764705882
 31
0.0
  0
LINE
  8
Views
 62
0
 10
176.0
 20
36.1764705882
 30
0.0
 11
180.0
 21
36.1764705882
 31
0.0
  0
LINE
  8
Views
 62
0
 10
180.0
 20
36.1764705882
 30
0.0
 11
180.0
 21
31.3529411765
 31
0.0
  0
LINE
  8
Views
 62
0
 10
180.0
 20
31.3529411765
 30
0.0
 11
176.0
 21
31.3529411765
 31
0.0
  0
LINE
  8
Views
 62
0
 10
176.0
 20
31.3529411765
 30
0.0
 11
176.0
 21
26.5294117647
 31
0.0
  0
LINE
  8
Views
 62
0
 10
176.0
 20
26.5294117647
 30
0.0
 11
180.0
 21
26.5294117647
 31
0.0
  0
LINE
  8
Views
 62
0
 10
180.0
 20
26.5294117647
 30
0.0
 11
180.0
 21
21.7058823529
 31
0.0
  0
LINE
  8
Views
 62
0
 10
180.0
 20
21.7058823529
 30
0.0
 11
176.0
 21
21.7058823529
 31
0.0
  0
LINE
  8
Views
 62
0
 10
176.0
 20
21.7058823529
 30
0.0
 11
176.0
 21
16.8823529412
 31
0.0
  0
LINE
  8
Views
 62
0
 10
176.0
 20
16.8823529412
 30
0.0
 11
180.0
 21
16.8823529412
 31
0.0
  0
LINE
  8
Views
 62
0
 10
180.0
 20
16.8823529412
 30
0.0
 11
180.0
 21
12.0588235294
 31
0.0
  0
LINE
  8
Views
 62
0
 10
180.0
 20
12.0588235294
 30
0.0
 11
176.0
 21
12.0588235294
 31
0.0
  0
LINE
  8
Views
 62
0
 10
176.0
 20
12.0588235294
 30
0.0
 11
176.0
 21
7.23529411765
 31
0.0
  0
LINE
  8
Views
 62
0
 10
176.0
 20
7.23529411765
 30
0.0
 11
180.0
 21
7.23529411765
 31
0.0
  0
LINE
  8
Views
 62
0
 10
180.0
 20
7.23529411765
 30
0.0
 11
180.0
 21
2.41176470588
 31
0.0
  0
LINE
  8
Views
 62
0
 10
180.0
 20
2.41176470588
 30
0.0
 11
176.0
 21
2.41176470588
 31
0.0
  0
LINE
  8
Views
 62
0
 10
176.0
 20
2.41176470588
 30
0.0
 11
176.0
 21
-2.41176470588
 31
0.0
  0
LINE
  8
Views
 62
0
 10
176.0
 20
-2.41176470588
 30
0.0
 11
180.0
 21
-2.41176470588
 31
0.0
  0
LINE
  8
Views
 62
0
 10
180.0
 20
-2.41176470588
 30
0.0
 11
180.0
 21
-7.23529411765
 31
0.0
  0
LINE
  8
Views
 62
0
 10
180.0
 20
-7.23529411765
 30
0.0
 11
176.0
 21
-7.23529411765
 31
0.0
  0
LINE
  8
Views
 62
0
 10
176.0
 20
-7.23529411765
 30
0.0
 11
176.0
 21
-12.0588235294
 31
0.0
  0
LINE
  8
Views
 62
0
 10
176.0
 20
-12.0588235294
 30
0.0
 11
180.0
 21
-12.0588235294
 31
0.0
  0
LINE
  8
Views
 62
0
 10
180.0
 20
-12.0588235294
 30
0.0
 11
180.0
 21
-16.8823529412
 31
0.0
  0
LINE
  8
Views
 62
0
 10
180.0
 20
-16.8823529412
 30
0.0
 11
176.0
 21
-16.8823529412
 31
0.0
  0
LINE
  8
Views
 62
0
 10
176.0
 20
-16.8823529412
 30
0.0
 11
176.0
 21
-21.7058823529
 31
0.0
  0
LINE
  8
Views
 62
0
 10
176.0
 20
-21.7058823529
 30
0.0
 11
180.0
 21
-21.7058823529
 31
0.0
  0
LINE
  8
Views
 62
0
 10
180.0
 20
-21.7058823529
 30
0.0
 11
180.0
 21
-26.5294117647
 31
0.0
  0
LINE
  8
Views
 62
0
 10
180.0
 20
-26.5294117647
 30
0.0
 11
176.0
 21
-26.5294117647
 31
0.0
  0
LINE
  8
Views
 62
0
 10
176.0
 20
-26.5294117647
 30
0.0
 11
176.0
 21
-31.3529411765
 31
0.0
  0
LINE
  8
Views
 62
0
 10
176.0
 20
-31.3529411765
 30
0.0
 11
180.0
 21
-31.3529411765
 31
0.0
  0
LINE
  8
Views
 62
0
 10
180.0
 20
-31.3529411765
 30
0.0
 11
180.0
 21
-36.1764705882
 31
0.0
  0
LINE
  8
Views
 62
0
 10
180.0
 20
-36.1764705882
 30
0.0
 11
176.0
 21
-36.1764705882
 31
0.0
  0
LINE
  8
Views
 62
0
 10
176.0
 20
-36.1764705882
 30
0.0
 11
176.0
 21
-41.0
 31
0.0
  0
LINE
  8
Views
 62
0
 10
176.0
 20
-41.0
 30
0.0
 11
170.6
 21
-41.0
 31
0.0
  0
LINE
  8
Views
 62
0
 10
170.6
 20
-41.0
 30
0.0
 11
170.6
 21
-45.0
 31
0.0
  0
LINE
  8
Views
 62
0
 10
170.6
 20
-45.0
 30
0.0
 11
165.2
 21
-45.0
 31
0.0
  0
LINE
  8
Views
 62
0
 10
165.2
 20
-45.0
 30
0.0
 11
165.2
 21
-41.0
 31
0.0
  0
LINE
  8
Views
 62
0
 10
165.2
 20
-41.0
 30
0.0
 11
159.8
 21
-41.0
 31
0.0
  0
LINE
  8
Views
 62
0
 10
159.8
 20
-41.0
 30
0.0
 11
159.8
 21
-45.0
 31
0.0
  0
LINE
  8
Views
 62
0
 10
159.8
 20
-45.0
 30
0.0
 11
154.4
 21
-45.0
 31
0.0
  0
LINE
  8
Views
 62
0
 10
154.4
 20
-45.0
 30
0.0
 11
154.4
 21
-41.0
 31
0.0
  0
LINE
  8
Views
 62
0
 10
154.4
 20
-41.0
 30
0.0
 11
149.0
 21
-41.0
 31
0.0
  0
LINE
  8
Views
 62
0
 10
149.0
 20
-41.0
 30
0.0
 11
149.0
 21
-36.1764705882
 31
0.0
  0
LINE
  8
Views
 62
0
 10
149.0
 20
-36.1764705882
 30
0.0
 11
145.0
 21
-36.1764705882
 31
0.0
  0
LINE
  8
Views
 62
0
 10
145.0
 20
-36.1764705882
 30
0.0
 11
145.0
 21
-31.3529411765
 31
0.0
  0
LINE
  8
Views
 62
0
 10
145.0
 20
-31.3529411765
 30
0.0
 11
149.0
 21
-31.3529411765
 31
0.0
  0
LINE
  8
Views
 62
0
 10
149.0
 20
-31.3529411765
 30
0.0
 11
149.0
 21
-26.5294117647
 31
0.0
  0
LINE
  8
Views
 62
0
 10
149.0
 20
-26.5294117647
 30
0.0
 11
145.0
 21
-26.5294117647
 31
0.0
  0
LINE
  8
Views
 62
0
 10
145.0
 20
-26.5294117647
 30
0.0
 11
145.0
 21
-21.7058823529
 31
0.0
  0
LINE
  8
Views
 62
0
 10
145.0
 20
-21.7058823529
 30
0.0
 11
149.0
 21
-21.7058823529
 31
0.0
  0
LINE
  8
Views
 62
0
 10
149.0
 20
-21.7058823529
 30
0.0
 11
149.0
 21
-16.8823529412
 31
0.0
  0
LINE
  8
Views
 62
0
 10
149.0
 20
-16.8823529412
 30
0.0
 11
145.0
 21
-16.8823529412
 31
0.0
  0
LINE
  8
Views
 62
0
 10
145.0
 20
-16.8823529412
 30
0.0
 11
145.0
 21
-12.0588235294
 31
0.0
  0
LINE
  8
Views
 62
0
 10
145.0
 20
-12.0588235294
 30
0.0
 11
149.0
 21
-12.0588235294
 31
0.0
  0
LINE
  8
Views
 62
0
 10
149.0
 20
-12.0588235294
 30
0.0
 11
149.0
 21
-7.23529411765
 31
0.0
  0
LINE
  8
Views
 62
0
 10
149.0
 20
-7.23529411765
 30
0.0
 11
145.0
 21
-7.23529411765
 31
0.0
  0
LINE
  8
Views
 62
0
 10
145.0
 20
-7.23529411765
 30
0.0
 11
145.0
 21
-2.41176470588
 31
0.0
  0
LINE
  8
Views
 62
0
 10
145.0
 20
-2.41176470588
 30
0.0
 11
149.0
 21
-2.41176470588
 31
0.0
  0
LINE
  8
Views
 62
0
 10
149.0
 20
-2.41176470588
 30
0.0
 11
149.0
 21
2.41176470588
 31
0.0
  0
LINE
  8
Views
 62
0
 10
149.0
 20
2.41176470588
 30
0.0
 11
145.0
 21
2.41176470588
 31
0.0
  0
LINE
  8
Views
 62
0
 10
145.0
 20
2.41176470588
 30
0.0
 11
145.0
 21
7.23529411765
 31
0.0
  0
LINE
  8
Views
 62
0
 10
145.0
 20
7.23529411765
 30
0.0
 11
149.0
 21
7.23529411765
 31
0.0
  0
LINE
  8
Views
 62
0
 10
149.0
 20
7.23529411765
 30
0.0
 11
149.0
 21
12.0588235294
 31
0.0
  0
LINE
  8
Views
 62
0
 10
149.0
 20
12.0588235294
 30
0.0
 11
145.0
 21
12.0588235294
 31
0.0
  0
LINE
  8
Views
 62
0
 10
145.0
 20
12.0588235294
 30
0.0
 11
145.0
 21
16.8823529412
 31
0.0
  0
LINE
  8
Views
 62
0
 10
145.0
 20
16.8823529412
 30
0.0
 11
149.0
 21
16.8823529412
 31
0.0
  0
LINE
  8
Views
 62
0
 10
149.0
 20
16.8823529412
 30
0.0
 11
149.0
 21
21.7058823529
 31
0.0
  0
LINE
  8
Views
 62
0
 10
149.0
 20
21.7058823529
 30
0.0
 11
145.0
 21
21.7058823529
 31
0.0
  0
LINE
  8
Views
 62
0
 10
145.0
 20
21.7058823529
 30
0.0
 11
145.0
 21
26.5294117647
 31
0.0
  0
LINE
  8
Views
 62
0
 10
145.0
 20
26.5294117647
 30
0.0
 11
149.0
 21
26.5294117647
 31
0.0
  0
LINE
  8
Views
 62
0
 10
149.0
 20
26.5294117647
 30
0.0
 11
149.0
 21
31.3529411765
 31
0.0
  0
LINE
  8
Views
 62
0
 10
149.0
 20
31.3529411765
 30
0.0
 11
145.0
 21
31.3529411765
 31
0.0
  0
LINE
  8
Views
 62
0
 10
145.0
 20
31.3529411765
 30
0.0
 11
145.0
 21
36.1764705882
 31
0.0
  0
LINE
  8
Views
 62
0
 10
145.0
 20
36.1764705882
 30
0.0
 11
149.0
 21
36.1764705882
 31
0.0
  0
LINE
  8
Views
 62
0
 10
149.0
 20
36.1764705882
 30
0.0
 11
149.0
 21
41.0
 31
0.0
  0
LINE
  8
Views
 62
0
 10
149.0
 20
41.0
 30
0.0
 11
154.4
 21
41.0
 31
0.0
  0
LINE
  8
Views
 62
0
 10
154.4
 20
41.0
 30
0.0
 11
154.4
 21
45.0
 31
0.0
  0
LINE
  8
Views
 62
0
 10
154.4
 20
45.0
 30
0.0
 11
159.8
 21
45.0
 31
0.0
  0
LINE
  8
Views
 62
0
 10
159.8
 20
45.0
 30
0.0
 11
159.8
 21
41.0
 31
0.0
  0
LINE
  8
Views
 62
0
 10
159.8
 20
41.0
 30
0.0
 11
165.2
 21
41.0
 31
0.0
  0
LINE
  8
Views
 62
0
 10
165.2
 20
41.0
 30
0.0
 11
165.2
 21
45.0
 31
0.0
  0
LINE
  8
Views
 62
0
 10
165.2
 20
45.0
 30
0.0
 11
170.6
 21
45.0
 31
0.0
  0
LINE
  8
Views
 62
0
 10
170.6
 20
45.0
 30
0.0
 11
170.6
 21
41.0
 31
0.0
  0
LINE
  8
Views
 62
0
 10
170.6
 20
41.0
 30
0.0
 11
176.0
 21
41.0
 31
0.0
  0
ENDBLK
  0
BLOCK
  8
Views
  2
SHAPE2DVIEW001
 70
0
 10
0.0
 20
0.0
 30
0.0
  3
SHAPE2DVIEW001
  0
LINE
  8
Views
 62
0
 10
270.0
 20
-41.0
 30
0.0
 11
274.0
 21
-41.0
 31
0.0
  0
LINE
  8
Views
 62
0
 10
270.0
 20
-36.1764705882
 30
0.0
 11
270.0
 21
-41.0
 31
0.0
  0
LINE
  8
Views
 62
0
 10
274.0
 20
-41.0
 30
0.0
 11
278.769230769
 21
-41.0
 31
0.0
  0
LINE
  8
Views
 62
0
 10
274.0
 20
-36.1764705882
 30
0.0
 11
270.0
 21
-36.1764705882
 31
0.0
  0
LINE
  8
Views
 62
0
 10
278.769230769
 20
-41.0
 30
0.0
 11
278.769230769
 21
-45.0
 31
0.0
  0
LINE
  8
Views
 62
0
 10
274.0
 20
-31.3529411765
 30
0.0
 11
274.0
 21
-36.1764705882
 31
0.0
  0
LINE
  8
Views
 62
0
 10
278.769230769
 20
-45.0
 30
0.0
 11
283.538461538
 21
-45.0
 31
0.0
  0
LINE
  8
Views
 62
0
 10
270.0
 20
-31.3529411765
 30
0.0
 11
274.0
 21
-31.3529411765
 31
0.0
  0
LINE
  8
Views
 62
0
 10
283.538461538
 20
-45.0
 30
0.0
 11
283.538461538
 21
-41.0
 31
0.0
  0
LINE
  8
Views
 62
0
 10
270.0
 20
-26.5294117647
 30
0.0
 11
270.0
 21
-31.3529411765
 31
0.0
  0
LINE
  8
Views
 62
0
 10
283.538461538
 20
-41.0
 30
0.0
 11
288.307692308
 21
-41.0
 31
0.0
  0
LINE
  8
Views
 62
0
 10
274.0
 20
-26.5294117647
 30
0.0
 11
270.0
 21
-26.5294117647
 31
0.0
  0
LINE
  8
Views
 62
0
 10
288.307692308
 20
-41.0
 30
0.0
 11
288.307692308
 21
-45.0
 31
0.0
  0
LINE
  8
Views
 62
0
 10
274.0
 20
-21.7058823529
 30
0.0
 11
274.0
 21
-26.5294117647
 31
0.0
  0
LINE
  8
Views
 62
0
 10
288.307692308
 20
-45.0
 30
0.0
 11
293.076923077
 21
-45.0
 31
0.0
  0
LINE
  8
Views
 62
0
 10
270.0
 20
-21.7058823529
 30
0.0
 11
274.0
 21
-21.7058823529
 31
0.0
  0
LINE
  8
Views
 62
0
 10
293.076923077
 20
-45.0
 30
0.0
 11
293.076923077
 21
-41.0
 31
0.0
  0
LINE
  8
Views
 62
0
 10
270.0
 20
-16.8823529412
 30
0.0
 11
270.0
 21
-21.7058823529
 31
0.0
  0
LINE
  8
Views
 62
0
 10
293.076923077
 20
-41.0
 30
0.0
 11
297.846153846
 21
-41.0
 31
0.0
  0
LINE
  8
Views
 62
0
 10
274.0
 20
-16.8823529412
 30
0.0
 11
270.0
 21
-16.8823529412
 31
0.0
  0
LINE
  8
Views
 62
0
 10
297.846153846
 20
-41.0
 30
0.0
 11
297.846153846
 21
-45.0
 31
0.0
  0
LINE
  8
Views
 62
0
 10
274.0
 20
-12.0588235294
 30
0.0
 11
274.0
 21
-16.8823529412
 31
0.0
  0
LINE
  8
Views
 62
0
 10
297.846153846
 20
-45.0
 30
0.0
 11
302.615384615
 21
-45.0
 31
0.0
  0
LINE
  8
Views
 62
0
 10
270.0
 20
-12.0588235294
 30
0.0
 11
274.0
 21
-12.0588235294
 31
0.0
  0
LINE
  8
Views
 62
0
 10
302.615384615
 20
-45.0
 30
0.0
 11
302.615384615
 21
-41.0
 31
0.0
  0
LINE
  8
Views
 62
0
 10
270.0
 20
-7.23529411765
 30
0.0
 11
270.0
 21
-12.0588235294
 31
0.0
  0
LINE
  8
Views
 62
0
 10
302.615384615
 20
-41.0
 30
0.0
 11
307.384615385
 21
-41.0
 31
0.0
  0
LINE
  8
Views
 62
0
 10
274.0
 20
-7.23529411765
 30
0.0
 11
270.0
 21
-7.23529411765
 31
0.0
  0
LINE
  8
Views
 62
0
 10
307.384615385
 20
-41.0
 30
0.0
 11
307.384615385
 21
-45.0
 31
0.0
  0
LINE
  8
Views
 62
0
 10
274.0
 20
-2.41176470588
 30
0.0
 11
274.0
 21
-7.23529411765
 31
0.0
  0
LINE
  8
Views
 62
0
 10
307.384615385
 20
-45.0
 30
0.0
 11
312.153846154
 21
-45.0
 31
0.0
  0
LINE
  8
Views
 62
0
 10
270.0
 20
-2.41176470588
 30
0.0
 11
274.0
 21
-2.41176470588
 31
0.0
  0
LINE
  8
Views
 62
0
 10
312.153846154
 20
-45.0
 30
0.0
 11
312.153846154
 21
-41.0
 31
0.0
  0
LINE
  8
Views
 62
0
 10
270.0
 20
2.41176470588
 30
0.0
 11
270.0
 21
-2.41176470588
 31
0.0
  0
LINE
  8
Views
 62
0
 10
312.153846154
 20
-41.0
 30
0.0
 11
316.923076923
 21
-41.0
 31
0.0
  0
LINE
  8
Views
 62
0
 10
274.0
 20
2.41176470588
 30
0.0
 11
270.0
 21
2.41176470588
 31
0.0
  0
LINE
  8
Views
 62
0
 10
316.923076923
 20
-41.0
 30
0.0
 11
316.923076923
 21
-45.0
 31
0.0
  0
LINE
  8
Views
 62
0
 10
274.0
 20
7.23529411765
 30
0.0
 11
274.0
 21
2.41176470588
 31
0.0
  0
LINE
  8
Views
 62
0
 10
316.923076923
 20
-45.0
 30
0.0
 11
321.692307692
 21
-45.0
 31
0.0
  0
LINE
  8
Views
 62
0
 10
270.0
 20
7.23529411765
 30
0.0
 11
274.0
 21
7.23529411765
 31
0.0
  0
LINE
  8
Views
 62
0
 10
321.692307692
 20
-45.0
 30
0.0
 11
321.692307692
 21
-41.0
 31
0.0
  0
LINE
  8
Views
 62
0
 10
270.0
 20
12.0588235294
 30
0.0
 11
270.0
 21
7.23529411765
 31
0.0
  0
LINE
  8
Views
 62
0
 10
321.692307692
 20
-41.0
 30
0.0
 11
326.461538462
 21
-41.0
 31
0.0
  0
LINE
  8
Views
 62
0
 10
274.0
 20
12.0588235294
 30
0.0
 11
270.0
 21
12.0588235294
 31
0.0
  0
LINE
  8
Views
 62
0
 10
326.461538462
 20
-41.0
 30
0.0
 11
326.461538462
 21
-45.0
 31
0.0
  0
LINE
  8
Views
 62
0
 10
274.0
 20
16.8823529412
 30
0.0
 11
274.0
 21
12.0588235294
 31
0.0
  0
LINE
  8
Views
 62
0
 10
326.461538462
 20
-45.0
 30
0.0
 11
331.230769231
 21
-45.0
 31
0.0
  0
LINE
  8
Views
 62
0
 10
270.0
 20
16.8823529412
 30
0.0
 11
274.0
 21
16.8823529412
 31
0.0
  0
LINE
  8
Views
 62
0
 10
331.230769231
 20
-45.0
 30
0.0
 11
331.230769231
 21
-41.0
 31
0.0
  0
LINE
  8
Views
 62
0
 10
270.0
 20
21.7058823529
 30
0.0
 11
270.0
 21
16.8823529412
 31
0.0
  0
LINE
  8
Views
 62
0
 10
331.230769231
 20
-41.0
 30
0.0
 11
336.0
 21
-41.0
 31
0.0
  0
LINE
  8
Views
 62
0
 10
274.0
 20
21.7058823529
 30
0.0
 11
270.0
 21
21.7058823529
 31
0.0
  0
LINE
  8
Views
 62
0
 10
336.0
 20
-41.0
 30
0.0
 11
340.0
 21
-41.0
 31
0.0
  0
LINE
  8
Views
 62
0
 10
274.0
 20
26.5294117647
 30
0.0
 11
274.0
 21
21.7058823529
 31
0.0
  0
LINE
  8
Views
 62
0
 10
340.0
 20
-41.0
 30
0.0
 11
340.0
 21
-36.1764705882
 31
0.0
  0
LINE
  8
Views
 62
0
 10
270.0
 20
26.5294117647
 30
0.0
 11
274.0
 21
26.5294117647
 31
0.0
  0
LINE
  8
Views
 62
0
 10
340.0
 20
-36.1764705882
 30
0.0
 11
336.0
 21
-36.1764705882
 31
0.0
  0
LINE
  8
Views
 62
0
 10
270.0
 20
31.3529411765
 30
0.0
 11
270.0
 21
26.5294117647
 31
0.0
  0
LINE
  8
Views
 62
0
 10
336.0
 20
-36.1764705882
 30
0.0
 11
336.0
 21
-31.3529411765
 31
0.0
  0
LINE
  8
Views
 62
0
 10
274.0
 20
31.3529411765
 30
0.0
 11
270.0
 21
31.3529411765
 31
0.0
  0
LINE
  8
Views
 62
0
 10
336.0
 20
-31.3529411765
 30
0.0
 11
340.0
 21
-31.3529411765
 31
0.0
  0
LINE
  8
Views
 62
0
 10
274.0
 20
36.1764705882
 30
0.0
 11
274.0
 21
31.3529411765
 31
0.0
  0
LINE
  8
Views
 62
0
 10
340.0
 20
-31.3529411765
 30
0.0
 11
340.0
 21
-26.5294117647
 31
0.0
  0
LINE
  8
Views
 62
0
 10
270.0
 20
36.1764705882
 30
0.0
 11
274.0
 21
36.1764705882
 31
0.0
  0
LINE
  8
Views
 62
0
 10
340.0
 20
-26.5294117647
 30
0.0
 11
336.0
 21
-26.5294117647
 31
0.0
  0
LINE
  8
Views
 62
0
 10
270.0
 20
41.0
 30
0.0
 11
270.0
 21
36.1764705882
 31
0.0
  0
LINE
  8
Views
 62
0
 10
336.0
 20
-26.5294117647
 30
0.0
 11
336.0
 21
-21.7058823529
 31
0.0
  0
LINE
  8
Views
 62
0
 10
274.0
 20
41.0
 30
0.0
 11
270.0
 21
41.0
 31
0.0
  0
LINE
  8
Views
 62
0
 10
336.0
 20
-21.7058823529
 30
0.0
 11
340.0
 21
-21.7058823529
 31
0.0
  0
LINE
  8
Views
 62
0
 10
278.769230769
 20
41.0
 30
0.0
 11
274.0
 21
41.0
 31
0.0
  0
LINE
  8
Views
 62
0
 10
340.0
 20
-21.7058823529
 30
0.0
 11
340.0
 21
-16.8823529412
 31
0.0
  0
LINE
  8
Views
 62
0
 10
278.769230769
 20
45.0
 30
0.0
 11
278.769230769
 21
41.0
 31
0.0
  0
LINE
  8
Views
 62
0
 10
340.0
 20
-16.8823529412
 30
0.0
 11
336.0
 21
-16.8823529412
 31
0.0
  0
LINE
  8
Views
 62
0
 10
283.538461538
 20
45.0
 30
0.0
 11
278.769230769
 21
45.0
 31
0.0
  0
LINE
  8
Views
 62
0
 10
336.0
 20
-16.8823529412
 30
0.0
 11
336.0
 21
-12.0588235294
 31
0.0
  0
LINE
  8
Views
 62
0
 10
283.538461538
 20
41.0
 30
0.0
 11
283.538461538
 21
45.0
 31
0.0
  0
LINE
  8
Views
 62
0
 10
336.0
 20
-12.0588235294
 30
0.0
 11
340.0
 21
-12.0588235294
 31
0.0
  0
LINE
  8
Views
 62
0
 10
288.307692308
 20
41.0
 30
0.0
 11
283.538461538
 21
41.0
 31
0.0
  0
LINE
  8
Views
 62
0
 10
340.0
 20
-12.0588235294
 30
0.0
 11
340.0
 21
-7.23529411765
 31
0.0
  0
LINE
  8
Views
 62
0
 10
288.307692308
 20
45.0
 30
0.0
 11
288.307692308
 21
41.0
 31
0.0
  0
LINE
  8
Views
 62
0
 10
340.0
 20
-7.23529411765
 30
0.0
 11
336.0
 21
-7.23529411765
 31
0.0
  0
LINE
  8
Views
 62
0
 10
293.076923077
 20
45.0
 30
0.0
 11
288.307692308
 21
45.0
 31
0.0
  0
LINE
  8
Views
 62
0
 10
336.0
 20
-7.23529411765
 30
0.0
 11
336.0
 21
-2.41176470588
 31
0.0
  0
LINE
  8
Views
 62
0
 10
293.076923077
 20
41.0
 30
0.0
 11
293.076923077
 21
45.0
 31
0.0
  0
LINE
  8
Views
 62
0
 10
336.0
 20
-2.41176470588
 30
0.0
 11
340.0
 21
-2.41176470588
 31
0.0
  0
LINE
  8
Views
 62
0
 10
297.846153846
 20
41.0
 30
0.0
 11
293.076923077
 21
41.0
 31
0.0
  0
LINE
  8
Views
 62
0
 10
340.0
 20
-2.41176470588
 30
0.0
 11
340.0
 21
2.41176470588
 31
0.0
  0
LINE
  8
Views
 62
0
 10
297.846153846
 20
45.0
 30
0.0
 11
297.846153846
 21
41.0
 31
0.0
  0
LINE
  8
Views
 62
0
 10
340.0
 20
2.41176470588
 30
0.0
 11
336.0
 21
2.41176470588
 31
0.0
  0
LINE
  8
Views
 62
0
 10
302.615384615
 20
45.0
 30
0.0
 11
297.846153846
 21
45.0
 31
0.0
  0
LINE
  8
Views
 62
0
 10
336.0
 20
2.41176470588
 30
0.0
 11
336.0
 21
7.23529411765
 31
0.0
  0
LINE
  8
Views
 62
0
 10
302.615384615
 20
41.0
 30
0.0
 11
302.615384615
 21
45.0
 31
0.0
  0
LINE
  8
Views
 62
0
 10
336.0
 20
7.23529411765
 30
0.0
 11
340.0
 21
7.23529411765
 31
0.0
  0
LINE
  8
Views
 62
0
 10
307.384615385
 20
41.0
 30
0.0
 11
302.615384615
 21
41.0
 31
0.0
  0
LINE
  8
Views
 62
0
 10
340.0
 20
7.23529411765
 30
0.0
 11
340.0
 21
12.0588235294
 31
0.0
  0
LINE
  8
Views
 62
0
 10
307.384615385
 20
45.0
 30
0.0
 11
307.384615385
 21
41.0
 31
0.0
  0
LINE
  8
Views
 62
0
 10
340.0
 20
12.0588235294
 30
0.0
 11
336.0
 21
12.0588235294
 31
0.0
  0
LINE
  8
Views
 62
0
 10
312.153846154
 20
45.0
 30
0.0
 11
307.384615385
 21
45.0
 31
0.0
  0
LINE
  8
Views
 62
0
 10
336.0
 20
12.0588235294
 30
0.0
 11
336.0
 21
16.8823529412
 31
0.0
  0
LINE
  8
Views
 62
0
 10
312.153846154
 20
41.0
 30
0.0
 11
312.153846154
 21
45.0
 31
0.0
  0
LINE
  8
Views
 62
0
 10
336.0
 20
16.8823529412
 30
0.0
 11
340.0
 21
16.8823529412
 31
0.0
  0
LINE
  8
Views
 62
0
 10
316.923076923
 20
41.0
 30
0.0
 11
312.153846154
 21
41.0
 31
0.0
  0
LINE
  8
Views
 62
0
 10
340.0
 20
16.8823529412
 30
0.0
 11
340.0
 21
21.7058823529
 31
0.0
  0
LINE
  8
Views
 62
0
 10
316.923076923
 20
45.0
 30
0.0
 11
316.923076923
 21
41.0
 31
0.0
  0
LINE
  8
Views
 62
0
 10
340.0
 20
21.7058823529
 30
0.0
 11
336.0
 21
21.7058823529
 31
0.0
  0
LINE
  8
Views
 62
0
 10
321.692307692
 20
45.0
 30
0.0
 11
316.923076923
 21
45.0
 31
0.0
  0
LINE
  8
Views
 62
0
 10
336.0
 20
21.7058823529
 30
0.0
 11
336.0
 21
26.5294117647
 31
0.0
  0
LINE
  8
Views
 62
0
 10
321.692307692
 20
41.0
 30
0.0
 11
321.692307692
 21
45.0
 31
0.0
  0
LINE
  8
Views
 62
0
 10
336.0
 20
26.5294117647
 30
0.0
 11
340.0
 21
26.5294117647
 31
0.0
  0
LINE
  8
Views
 62
0
 10
326.461538462
 20
41.0
 30
0.0
 11
321.692307692
 21
41.0
 31
0.0
  0
LINE
  8
Views
 62
0
 10
340.0
 20
26.5294117647
 30
0.0
 11
340.0
 21
31.3529411765
 31
0.0
  0
LINE
  8
Views
 62
0
 10
326.461538462
 20
45.0
 30
0.0
 11
326.461538462
 21
41.0
 31
0.0
  0
LINE
  8
Views
 62
0
 10
340.0
 20
31.3529411765
 30
0.0
 11
336.0
 21
31.3529411765
 31
0.0
  0
LINE
  8
Views
 62
0
 10
331.230769231
 20
45.0
 30
0.0
 11
326.461538462
 21
45.0
 31
0.0
  0
LINE
  8
Views
 62
0
 10
336.0
 20
31.3529411765
 30
0.0
 11
336.0
 21
36.1764705882
 31
0.0
  0
LINE
  8
Views
 62
0
 10
331.230769231
 20
41.0
 30
0.0
 11
331.230769231
 21
45.0
 31
0.0
  0
LINE
  8
Views
 62
0
 10
336.0
 20
36.1764705882
 30
0.0
 11
340.0
 21
36.1764705882
 31
0.0
  0
LINE
  8
Views
 62
0
 10
336.0
 20
41.0
 30
0.0
 11
331.230769231
 21
41.0
 31
0.0
  0
LINE
  8
Views
 62
0
 10
340.0
 20
36.1764705882
 30
0.0
 11
340.0
 21
41.0
 31
0.0
  0
LINE
  8
Views
 62
0
 10
340.0
 20
41.0
 30
0.0
 11
336.0
 21
41.0
 31
0.0
  0
CIRCLE
  8
Views
 62
0
 10
328.0
 20
33.0
 30
0.0
 40
1.0
  0
CIRCLE
  8
Views
 62
0
 10
328.0
 20
-33.0
 30
0.0
 40
1.0
  0
CIRCLE
  8
Views
 62
0
 10
282.0
 20
33.0
 30
0.0
 40
1.0
  0
CIRCLE
  8
Views
 62
0
 10
282.0
 20
-33.0
 30
0.0
 40
1.0
  0
ENDBLK
  0
ENDSEC
  0
SECTION
  2
ENTITIES
  0
INSERT
  2
SHAPE2DVIEW004
  8
Views
 62
0
 10
0.0
 20
0.0
 30
0.0
  0
INSERT
  2
SHAPE2DVIEW002
  8
Views
 62
0
 10
0.0
 20
0.0
 30
0.0
  0
INSERT
  2
SHAPE2DVIEW003
  8
Views
 62
0
 10
0.0
 20
0.0
 30
0.0
  0
INSERT
  2
SHAPE2DVIEW005
  8
Views
 62
0
 10
0.0
 20
0.0
 30
0.0
  0
INSERT
  2
SHAPE2DVIEW
  8
Views
 62
0
 10
0.0
 20
0.0
 30
0.0
  0
INSERT
  2
SHAPE2DVIEW001
  8
Views
 62
0
 10
0.0
 20
0.0
 30
0.0
  0
ENDSEC
  0
EOF
