  0
SECTION
  2
HEADER
  9
$ACADVER
  1
AC1014
  9
$HANDSEED
  5
FFFF
  9
$MEASUREMENT
 70
     1
  0
ENDSEC
  0
SECTION
  2
TABLES
  0
TABLE
  2
VPORT
  5
8
330
0
100
AcDbSymbolTable
 70
     4
  0
VPORT
  5
2E
330
8
100
AcDbSymbolTableRecord
100
AcDbViewportTableRecord
  2
*ACTIVE
 70
     0
 10
0.0
 20
0.0
 11
1.0
 21
1.0
 12
210.0
 22
148.5
 13
0.0
 23
0.0
 14
10.0
 24
10.0
 15
10.0
 25
10.0
 16
0.0
 26
0.0
 36
1.0
 17
0.0
 27
0.0
 37
0.0
 40
341.0
 41
1.24
 42
50.0
 43
0.0
 44
0.0
 50
0.0
 51
0.0
 71
     0
 72
   100
 73
     1
 74
     3
 75
     0
 76
     0
 77
     0
 78
     0
  0
ENDTAB
  0
TABLE
  2
LTYPE
  5
5
330
0
100
AcDbSymbolTable
 70
     1
  0
LTYPE
  5
14
330
5
100
AcDbSymbolTableRecord
100
AcDbLinetypeTableRecord
  2
BYBLOCK
 70
     0
  3

 72
    65
 73
     0
 40
0.0
  0
LTYPE
  5
15
330
5
100
AcDbSymbolTableRecord
100
AcDbLinetypeTableRecord
  2
BYLAYER
 70
     0
  3

 72
    65
 73
     0
 40
0.0
  0
LTYPE
  5
16
330
5
100
AcDbSymbolTableRecord
100
AcDbLinetypeTableRecord
  2
CONTINUOUS
 70
     0
  3
Solid line
 72
    65
 73
     0
 40
0.0
  0
ENDTAB
  0
TABLE
  2
LAYER
  5
2
100
AcDbSymbolTable
 70
2
  0
LAYER
  5
50
100
AcDbSymbolTableRecord
100
AcDbLayerTableRecord
  2
0
 70
0
  6
CONTINUOUS
  0
LAYER
  5
51
100
AcDbSymbolTableRecord
100
AcDbLayerTableRecord
  2
Layer_1
 70
0
  6
CONTINUOUS
  0
ENDTAB
  0
TABLE
  2
STYLE
  5
3
330
0
100
AcDbSymbolTable
 70
     1
  0
STYLE
  5
11
330
3
100
AcDbSymbolTableRecord
100
AcDbTextStyleTableRecord
  2
STANDARD
 70
     0
 40
0.0
 41
1.0
 50
0.0
 71
     0
 42
2.5
  3
txt
  4

  0
ENDTAB
  0
TABLE
  2
VIEW
  5
6
330
0
100
AcDbSymbolTable
 70
     0
  0
ENDTAB
  0
TABLE
  2
UCS
  5
7
330
0
100
AcDbSymbolTable
 70
     0
  0
ENDTAB
  0
TABLE
  2
APPID
  5
9
330
0
100
AcDbSymbolTable
 70
     2
  0
APPID
  5
12
330
9
100
AcDbSymbolTableRecord
100
AcDbRegAppTableRecord
  2
ACAD
 70
     0
  0
ENDTAB
  0
TABLE
  2
DIMSTYLE
  5
A
330
0
100
AcDbSymbolTable
 70
     1
  0
DIMSTYLE
105
27
330
A
100
AcDbSymbolTableRecord
100
AcDbDimStyleTableRecord
  2
ISO-25
 70
     0
  3

  4

  5

  6

  7

 40
1.0
 41
2.5
 42
0.625
 43
3.75
 44
1.25
 45
0.0
 46
0.0
 47
0.0
 48
0.0
140
2.5
141
2.5
142
0.0
143
0.03937007874016
144
1.0
145
0.0
146
1.0
147
0.625
 71
     0
 72
     0
 73
     0
 74
     0
 75
     0
 76
     0
 77
     1
 78
     8
170
     0
171
     3
172
     1
173
     0
174
     0
175
     0
176
     0
177
     0
178
     0
270
     2
271
     2
272
     2
273
     2
274
     3
340
11
275
     0
280
     0
281
     0
282
     0
283
     0
284
     8
285
     0
286
     0
287
     3
288
     0
  0
ENDTAB
  0
TABLE
  2
BLOCK_RECORD
  5
1
330
0
100
AcDbSymbolTable
 70
     1
  0
BLOCK_RECORD
  5
1F
330
1
100
AcDbSymbolTableRecord
100
AcDbBlockTableRecord
  2
*MODEL_SPACE
  0
BLOCK_RECORD
  5
1B
330
1
100
AcDbSymbolTableRecord
100
AcDbBlockTableRecord
  2
*PAPER_SPACE
  0
ENDTAB
  0
ENDSEC
  0
SECTION
  2
BLOCKS
  0
BLOCK
  5
20
330
1F
100
AcDbEntity
  8
0
100
AcDbBlockBegin
  2
*MODEL_SPACE
 70
     0
 10
0.0
 20
0.0
 30
0.0
  3
*MODEL_SPACE
  1

  0
ENDBLK
  5
21
330
1F
100
AcDbEntity
  8
0
100
AcDbBlockEnd
  0
BLOCK
  5
1C
330
1B
100
AcDbEntity
 67
     1
  8
0
100
AcDbBlockBegin
  2
*PAPER_SPACE
  1

  0
ENDBLK
  5
1D
330
1B
100
AcDbEntity
 67
     1
  8
0
100
AcDbBlockEnd
  0
ENDSEC
  0
SECTION
  2
ENTITIES
  0
SPLINE
  5
100
100
AcDbEntity
  8
Layer_1
 62
7
100
AcDbSpline
 70
8
 71
3
 72
8
 73
4
 74
0
 40
0
 40
0
 40
0
 40
0
 40
1
 40
1
 40
1
 40
1
 10
15.910320
 20
54.364139
 30
0.0
 10
15.674680
 20
54.364139
 30
0.0
 10
15.482889
 20
54.139378
 30
0.0
 10
15.530336
 20
53.918144
 30
0.0
  0
SPLINE
  5
101
100
AcDbEntity
  8
Layer_1
 62
7
100
AcDbSpline
 70
8
 71
3
 72
8
 73
4
 74
0
 40
0
 40
0
 40
0
 40
0
 40
1
 40
1
 40
1
 40
1
 10
15.530336
 20
53.918144
 30
0.0
 10
15.562982
 20
53.765918
 30
0.0
 10
15.694744
 20
53.634888
 30
0.0
 10
15.844918
 20
53.605393
 30
0.0
  0
LINE
  5
102
100
AcDbEntity
  8
Layer_1
 62
7
100
AcDbLine
 10
15.844918
 20
53.605393
 30
0.0
 11
15.851031
 21
53.604264
 31
0.0
  0
LINE
  5
103
100
AcDbEntity
  8
Layer_1
 62
7
100
AcDbLine
 10
15.851031
 20
53.604264
 30
0.0
 11
15.850823
 21
53.605676
 31
0.0
  0
SPLINE
  5
104
100
AcDbEntity
  8
Layer_1
 62
7
100
AcDbSpline
 70
8
 71
3
 72
8
 73
4
 74
0
 40
0
 40
0
 40
0
 40
0
 40
1
 40
1
 40
1
 40
1
 10
15.850823
 20
53.605676
 30
0.0
 10
15.905573
 20
53.595459
 30
0.0
 10
15.936629
 20
53.595262
 30
0.0
 10
15.991407
 20
53.609542
 30
0.0
  0
SPLINE
  5
105
100
AcDbEntity
  8
Layer_1
 62
7
100
AcDbSpline
 70
8
 71
3
 72
8
 73
4
 74
0
 40
0
 40
0
 40
0
 40
0
 40
1
 40
1
 40
1
 40
1
 10
15.991407
 20
53.609542
 30
0.0
 10
16.067467
 20
53.629354
 30
0.0
 10
16.125117
 20
53.663952
 30
0.0
 10
16.179056
 20
53.722214
 30
0.0
  0
SPLINE
  5
106
100
AcDbEntity
  8
Layer_1
 62
7
100
AcDbSpline
 70
8
 71
3
 72
8
 73
4
 74
0
 40
0
 40
0
 40
0
 40
0
 40
1
 40
1
 40
1
 40
1
 10
16.179056
 20
53.722214
 30
0.0
 10
16.323572
 20
53.878305
 30
0.0
 10
16.326709
 20
54.090121
 30
0.0
 10
16.186391
 20
54.240131
 30
0.0
  0
SPLINE
  5
107
100
AcDbEntity
  8
Layer_1
 62
7
100
AcDbSpline
 70
8
 71
3
 72
8
 73
4
 74
0
 40
0
 40
0
 40
0
 40
0
 40
1
 40
1
 40
1
 40
1
 10
16.186391
 20
54.240131
 30
0.0
 10
16.109357
 20
54.322486
 30
0.0
 10
16.016573
 20
54.364213
 30
0.0
 10
15.910316
 20
54.364213
 30
0.0
  0
LINE
  5
108
100
AcDbEntity
  8
Layer_1
 62
7
100
AcDbLine
 10
15.910316
 20
54.364213
 30
0.0
 11
15.910320
 21
54.364139
 31
0.0
  0
SPLINE
  5
109
100
AcDbEntity
  8
Layer_1
 62
7
100
AcDbSpline
 70
8
 71
3
 72
8
 73
4
 74
0
 40
0
 40
0
 40
0
 40
0
 40
1
 40
1
 40
1
 40
1
 10
26.049897
 20
54.360894
 30
0.0
 10
25.904678
 20
54.380113
 30
0.0
 10
25.645151
 20
54.373142
 30
0.0
 10
25.519548
 20
54.346416
 30
0.0
  0
SPLINE
  5
10a
100
AcDbEntity
  8
Layer_1
 62
7
100
AcDbSpline
 70
8
 71
3
 72
8
 73
4
 74
0
 40
0
 40
0
 40
0
 40
0
 40
1
 40
1
 40
1
 40
1
 10
25.519548
 20
54.346416
 30
0.0
 10
25.262719
 20
54.291817
 30
0.0
 10
25.061726
 20
54.181256
 30
0.0
 10
24.917482
 20
54.015129
 30
0.0
  0
SPLINE
  5
10b
100
AcDbEntity
  8
Layer_1
 62
7
100
AcDbSpline
 70
8
 71
3
 72
8
 73
4
 74
0
 40
0
 40
0
 40
0
 40
0
 40
1
 40
1
 40
1
 40
1
 10
24.917482
 20
54.015129
 30
0.0
 10
24.773238
 20
53.848999
 30
0.0
 10
24.685790
 20
53.627539
 30
0.0
 10
24.655466
 20
53.351529
 30
0.0
  0
SPLINE
  5
10c
100
AcDbEntity
  8
Layer_1
 62
7
100
AcDbSpline
 70
8
 71
3
 72
8
 73
4
 74
0
 40
0
 40
0
 40
0
 40
0
 40
1
 40
1
 40
1
 40
1
 10
24.655466
 20
53.351529
 30
0.0
 10
24.653744
 20
53.336007
 30
0.0
 10
24.652576
 20
53.280812
 30
0.0
 10
24.651388
 20
53.182421
 30
0.0
  0
SPLINE
  5
10d
100
AcDbEntity
  8
Layer_1
 62
7
100
AcDbSpline
 70
8
 71
3
 72
8
 73
4
 74
0
 40
0
 40
0
 40
0
 40
0
 40
1
 40
1
 40
1
 40
1
 10
24.651388
 20
53.182421
 30
0.0
 10
24.650202
 20
53.084033
 30
0.0
 10
24.649102
 20
52.942958
 30
0.0
 10
24.648331
 20
52.757818
 30
0.0
  0
SPLINE
  5
10e
100
AcDbEntity
  8
Layer_1
 62
7
100
AcDbSpline
 70
8
 71
3
 72
8
 73
4
 74
0
 40
0
 40
0
 40
0
 40
0
 40
1
 40
1
 40
1
 40
1
 10
24.648331
 20
52.757818
 30
0.0
 10
24.646779
 20
52.387537
 30
0.0
 10
24.646102
 20
51.840768
 30
0.0
 10
24.646102
 20
51.105446
 30
0.0
  0
LINE
  5
10f
100
AcDbEntity
  8
Layer_1
 62
7
100
AcDbLine
 10
24.646102
 20
51.105446
 30
0.0
 11
24.646102
 21
48.941061
 31
0.0
  0
LINE
  5
110
100
AcDbEntity
  8
Layer_1
 62
7
100
AcDbLine
 10
24.646102
 20
48.941061
 30
0.0
 11
24.999396
 21
48.941061
 31
0.0
  0
LINE
  5
111
100
AcDbEntity
  8
Layer_1
 62
7
100
AcDbLine
 10
24.999396
 20
48.941061
 30
0.0
 11
25.352690
 21
48.941061
 31
0.0
  0
LINE
  5
112
100
AcDbEntity
  8
Layer_1
 62
7
100
AcDbLine
 10
25.352690
 20
48.941061
 30
0.0
 11
25.352690
 21
50.530879
 31
0.0
  0
LINE
  5
113
100
AcDbEntity
  8
Layer_1
 62
7
100
AcDbLine
 10
25.352690
 20
50.530879
 30
0.0
 11
25.352690
 21
52.111941
 31
0.0
  0
LINE
  5
114
100
AcDbEntity
  8
Layer_1
 62
7
100
AcDbLine
 10
25.352690
 20
52.111941
 30
0.0
 11
25.625912
 21
52.111941
 31
0.0
  0
LINE
  5
115
100
AcDbEntity
  8
Layer_1
 62
7
100
AcDbLine
 10
25.625912
 20
52.111941
 30
0.0
 11
25.906673
 21
52.111941
 31
0.0
  0
LINE
  5
116
100
AcDbEntity
  8
Layer_1
 62
7
100
AcDbLine
 10
25.906673
 20
52.111941
 30
0.0
 11
25.920934
 21
52.161451
 31
0.0
  0
SPLINE
  5
117
100
AcDbEntity
  8
Layer_1
 62
7
100
AcDbSpline
 70
8
 71
3
 72
8
 73
4
 74
0
 40
0
 40
0
 40
0
 40
0
 40
1
 40
1
 40
1
 40
1
 10
25.920934
 20
52.161451
 30
0.0
 10
25.950645
 20
52.265128
 30
0.0
 10
25.991929
 20
52.412369
 30
0.0
 10
26.025658
 20
52.534710
 30
0.0
  0
SPLINE
  5
118
100
AcDbEntity
  8
Layer_1
 62
7
100
AcDbSpline
 70
8
 71
3
 72
8
 73
4
 74
0
 40
0
 40
0
 40
0
 40
0
 40
1
 40
1
 40
1
 40
1
 10
26.025658
 20
52.534710
 30
0.0
 10
26.042524
 20
52.595882
 30
0.0
 10
26.057446
 20
52.650805
 30
0.0
 10
26.068242
 20
52.690985
 30
0.0
  0
SPLINE
  5
119
100
AcDbEntity
  8
Layer_1
 62
7
100
AcDbSpline
 70
8
 71
3
 72
8
 73
4
 74
0
 40
0
 40
0
 40
0
 40
0
 40
1
 40
1
 40
1
 40
1
 10
26.068242
 20
52.690985
 30
0.0
 10
26.073635
 20
52.711079
 30
0.0
 10
26.078080
 20
52.727417
 30
0.0
 10
26.081077
 20
52.739067
 30
0.0
  0
SPLINE
  5
11a
100
AcDbEntity
  8
Layer_1
 62
7
100
AcDbSpline
 70
8
 71
3
 72
8
 73
4
 74
0
 40
0
 40
0
 40
0
 40
0
 40
1
 40
1
 40
1
 40
1
 10
26.081077
 20
52.739067
 30
0.0
 10
26.082573
 20
52.744881
 30
0.0
 10
26.083758
 20
52.749594
 30
0.0
 10
26.084540
 20
52.752924
 30
0.0
  0
SPLINE
  5
11b
100
AcDbEntity
  8
Layer_1
 62
7
100
AcDbSpline
 70
8
 71
3
 72
8
 73
4
 74
0
 40
0
 40
0
 40
0
 40
0
 40
1
 40
1
 40
1
 40
1
 10
26.084540
 20
52.752924
 30
0.0
 10
26.084963
 20
52.754617
 30
0.0
 10
26.085161
 20
52.755972
 30
0.0
 10
26.085387
 20
52.756988
 30
0.0
  0
SPLINE
  5
11c
100
AcDbEntity
  8
Layer_1
 62
7
100
AcDbSpline
 70
8
 71
3
 72
8
 73
4
 74
0
 40
0
 40
0
 40
0
 40
0
 40
1
 40
1
 40
1
 40
1
 10
26.085387
 20
52.756988
 30
0.0
 10
26.085491
 20
52.757553
 30
0.0
 10
26.085491
 20
52.758117
 30
0.0
 10
26.085595
 20
52.758399
 30
0.0
  0
SPLINE
  5
11d
100
AcDbEntity
  8
Layer_1
 62
7
100
AcDbSpline
 70
8
 71
3
 72
8
 73
4
 74
0
 40
0
 40
0
 40
0
 40
0
 40
1
 40
1
 40
1
 40
1
 10
26.085595
 20
52.758399
 30
0.0
 10
26.085662
 20
52.758681
 30
0.0
 10
26.085804
 20
52.759810
 30
0.0
 10
26.085804
 20
52.759810
 30
0.0
  0
SPLINE
  5
11e
100
AcDbEntity
  8
Layer_1
 62
7
100
AcDbSpline
 70
8
 71
3
 72
8
 73
4
 74
0
 40
0
 40
0
 40
0
 40
0
 40
1
 40
1
 40
1
 40
1
 10
26.085804
 20
52.759810
 30
0.0
 10
26.085804
 20
52.759915
 30
0.0
 10
26.085493
 20
52.761786
 30
0.0
 10
26.085380
 20
52.761786
 30
0.0
  0
SPLINE
  5
11f
100
AcDbEntity
  8
Layer_1
 62
7
100
AcDbSpline
 70
8
 71
3
 72
8
 73
4
 74
0
 40
0
 40
0
 40
0
 40
0
 40
1
 40
1
 40
1
 40
1
 10
26.085380
 20
52.761786
 30
0.0
 10
26.085333
 20
52.761890
 30
0.0
 10
26.084759
 20
52.762915
 30
0.0
 10
26.084336
 20
52.763197
 30
0.0
  0
SPLINE
  5
120
100
AcDbEntity
  8
Layer_1
 62
7
100
AcDbSpline
 70
8
 71
3
 72
8
 73
4
 74
0
 40
0
 40
0
 40
0
 40
0
 40
1
 40
1
 40
1
 40
1
 10
26.084336
 20
52.763197
 30
0.0
 10
26.083602
 20
52.764044
 30
0.0
 10
26.082981
 20
52.764326
 30
0.0
 10
26.082304
 20
52.764890
 30
0.0
  0
SPLINE
  5
121
100
AcDbEntity
  8
Layer_1
 62
7
100
AcDbSpline
 70
8
 71
3
 72
8
 73
4
 74
0
 40
0
 40
0
 40
0
 40
0
 40
1
 40
1
 40
1
 40
1
 10
26.082304
 20
52.764890
 30
0.0
 10
26.080921
 20
52.765737
 30
0.0
 10
26.079595
 20
52.766019
 30
0.0
 10
26.077820
 20
52.766584
 30
0.0
  0
SPLINE
  5
122
100
AcDbEntity
  8
Layer_1
 62
7
100
AcDbSpline
 70
8
 71
3
 72
8
 73
4
 74
0
 40
0
 40
0
 40
0
 40
0
 40
1
 40
1
 40
1
 40
1
 10
26.077820
 20
52.766584
 30
0.0
 10
26.074252
 20
52.767430
 30
0.0
 10
26.069265
 20
52.768277
 30
0.0
 10
26.062540
 20
52.768841
 30
0.0
  0
SPLINE
  5
123
100
AcDbEntity
  8
Layer_1
 62
7
100
AcDbSpline
 70
8
 71
3
 72
8
 73
4
 74
0
 40
0
 40
0
 40
0
 40
0
 40
1
 40
1
 40
1
 40
1
 10
26.062540
 20
52.768841
 30
0.0
 10
26.049081
 20
52.770253
 30
0.0
 10
26.028553
 20
52.771381
 30
0.0
 10
25.999583
 20
52.772087
 30
0.0
  0
SPLINE
  5
124
100
AcDbEntity
  8
Layer_1
 62
7
100
AcDbSpline
 70
8
 71
3
 72
8
 73
4
 74
0
 40
0
 40
0
 40
0
 40
0
 40
1
 40
1
 40
1
 40
1
 10
25.999583
 20
52.772087
 30
0.0
 10
25.941641
 20
52.773780
 30
0.0
 10
25.849914
 20
52.774345
 30
0.0
 10
25.714747
 20
52.774345
 30
0.0
  0
LINE
  5
125
100
AcDbEntity
  8
Layer_1
 62
7
100
AcDbLine
 10
25.714747
 20
52.774345
 30
0.0
 11
25.352670
 21
52.774345
 31
0.0
  0
LINE
  5
126
100
AcDbEntity
  8
Layer_1
 62
7
100
AcDbLine
 10
25.352670
 20
52.774345
 30
0.0
 11
25.352670
 21
53.001726
 31
0.0
  0
SPLINE
  5
127
100
AcDbEntity
  8
Layer_1
 62
7
100
AcDbSpline
 70
8
 71
3
 72
8
 73
4
 74
0
 40
0
 40
0
 40
0
 40
0
 40
1
 40
1
 40
1
 40
1
 10
25.352670
 20
53.001726
 30
0.0
 10
25.352686
 20
53.065437
 30
0.0
 10
25.353884
 20
53.129871
 30
0.0
 10
25.355529
 20
53.182243
 30
0.0
  0
SPLINE
  5
128
100
AcDbEntity
  8
Layer_1
 62
7
100
AcDbSpline
 70
8
 71
3
 72
8
 73
4
 74
0
 40
0
 40
0
 40
0
 40
0
 40
1
 40
1
 40
1
 40
1
 10
25.355529
 20
53.182243
 30
0.0
 10
25.357166
 20
53.234615
 30
0.0
 10
25.359472
 20
53.275382
 30
0.0
 10
25.361840
 20
53.290433
 30
0.0
  0
SPLINE
  5
129
100
AcDbEntity
  8
Layer_1
 62
7
100
AcDbSpline
 70
8
 71
3
 72
8
 73
4
 74
0
 40
0
 40
0
 40
0
 40
0
 40
1
 40
1
 40
1
 40
1
 10
25.361840
 20
53.290433
 30
0.0
 10
25.386625
 20
53.447555
 30
0.0
 10
25.453068
 20
53.566100
 30
0.0
 10
25.553564
 20
53.641077
 30
0.0
  0
SPLINE
  5
12a
100
AcDbEntity
  8
Layer_1
 62
7
100
AcDbSpline
 70
8
 71
3
 72
8
 73
4
 74
0
 40
0
 40
0
 40
0
 40
0
 40
1
 40
1
 40
1
 40
1
 10
25.553564
 20
53.641077
 30
0.0
 10
25.654061
 20
53.716055
 30
0.0
 10
25.788892
 20
53.747492
 30
0.0
 10
25.950663
 20
53.729503
 30
0.0
  0
SPLINE
  5
12b
100
AcDbEntity
  8
Layer_1
 62
7
100
AcDbSpline
 70
8
 71
3
 72
8
 73
4
 74
0
 40
0
 40
0
 40
0
 40
0
 40
1
 40
1
 40
1
 40
1
 10
25.950663
 20
53.729503
 30
0.0
 10
25.977418
 20
53.726540
 30
0.0
 10
26.001957
 20
53.724282
 30
0.0
 10
26.019937
 20
53.722786
 30
0.0
  0
SPLINE
  5
12c
100
AcDbEntity
  8
Layer_1
 62
7
100
AcDbSpline
 70
8
 71
3
 72
8
 73
4
 74
0
 40
0
 40
0
 40
0
 40
0
 40
1
 40
1
 40
1
 40
1
 10
26.019937
 20
53.722786
 30
0.0
 10
26.028929
 20
53.721940
 30
0.0
 10
26.036298
 20
53.721375
 30
0.0
 10
26.041533
 20
53.721093
 30
0.0
  0
SPLINE
  5
12d
100
AcDbEntity
  8
Layer_1
 62
7
100
AcDbSpline
 70
8
 71
3
 72
8
 73
4
 74
0
 40
0
 40
0
 40
0
 40
0
 40
1
 40
1
 40
1
 40
1
 10
26.041533
 20
53.721093
 30
0.0
 10
26.044158
 20
53.720989
 30
0.0
 10
26.046060
 20
53.720884
 30
0.0
 10
26.047646
 20
53.720884
 30
0.0
  0
SPLINE
  5
12e
100
AcDbEntity
  8
Layer_1
 62
7
100
AcDbSpline
 70
8
 71
3
 72
8
 73
4
 74
0
 40
0
 40
0
 40
0
 40
0
 40
1
 40
1
 40
1
 40
1
 10
26.047646
 20
53.720884
 30
0.0
 10
26.048492
 20
53.720896
 30
0.0
 10
26.049198
 20
53.720989
 30
0.0
 10
26.049875
 20
53.721093
 30
0.0
  0
SPLINE
  5
12f
100
AcDbEntity
  8
Layer_1
 62
7
100
AcDbSpline
 70
8
 71
3
 72
8
 73
4
 74
0
 40
0
 40
0
 40
0
 40
0
 40
1
 40
1
 40
1
 40
1
 10
26.049875
 20
53.721093
 30
0.0
 10
26.050186
 20
53.721135
 30
0.0
 10
26.050609
 20
53.721144
 30
0.0
 10
26.051089
 20
53.721302
 30
0.0
  0
SPLINE
  5
130
100
AcDbEntity
  8
Layer_1
 62
7
100
AcDbSpline
 70
8
 71
3
 72
8
 73
4
 74
0
 40
0
 40
0
 40
0
 40
0
 40
1
 40
1
 40
1
 40
1
 10
26.051089
 20
53.721302
 30
0.0
 10
26.051297
 20
53.721378
 30
0.0
 10
26.051823
 20
53.721584
 30
0.0
 10
26.051936
 20
53.721584
 30
0.0
  0
SPLINE
  5
131
100
AcDbEntity
  8
Layer_1
 62
7
100
AcDbSpline
 70
8
 71
3
 72
8
 73
4
 74
0
 40
0
 40
0
 40
0
 40
0
 40
1
 40
1
 40
1
 40
1
 10
26.051936
 20
53.721584
 30
0.0
 10
26.051953
 20
53.721593
 30
0.0
 10
26.052782
 20
53.721866
 30
0.0
 10
26.052782
 20
53.721866
 30
0.0
  0
SPLINE
  5
132
100
AcDbEntity
  8
Layer_1
 62
7
100
AcDbSpline
 70
8
 71
3
 72
8
 73
4
 74
0
 40
0
 40
0
 40
0
 40
0
 40
1
 40
1
 40
1
 40
1
 10
26.052782
 20
53.721866
 30
0.0
 10
26.052795
 20
53.721875
 30
0.0
 10
26.053629
 20
53.722995
 30
0.0
 10
26.053629
 20
53.722995
 30
0.0
  0
SPLINE
  5
133
100
AcDbEntity
  8
Layer_1
 62
7
100
AcDbSpline
 70
8
 71
3
 72
8
 73
4
 74
0
 40
0
 40
0
 40
0
 40
0
 40
1
 40
1
 40
1
 40
1
 10
26.053629
 20
53.722995
 30
0.0
 10
26.053648
 20
53.723024
 30
0.0
 10
26.053939
 20
53.723560
 30
0.0
 10
26.054052
 20
53.723842
 30
0.0
  0
SPLINE
  5
134
100
AcDbEntity
  8
Layer_1
 62
7
100
AcDbSpline
 70
8
 71
3
 72
8
 73
4
 74
0
 40
0
 40
0
 40
0
 40
0
 40
1
 40
1
 40
1
 40
1
 10
26.054052
 20
53.723842
 30
0.0
 10
26.054135
 20
53.724051
 30
0.0
 10
26.054157
 20
53.724124
 30
0.0
 10
26.054261
 20
53.724124
 30
0.0
  0
SPLINE
  5
135
100
AcDbEntity
  8
Layer_1
 62
7
100
AcDbSpline
 70
8
 71
3
 72
8
 73
4
 74
0
 40
0
 40
0
 40
0
 40
0
 40
1
 40
1
 40
1
 40
1
 10
26.054261
 20
53.724124
 30
0.0
 10
26.054365
 20
53.724406
 30
0.0
 10
26.054572
 20
53.724689
 30
0.0
 10
26.054684
 20
53.724971
 30
0.0
  0
SPLINE
  5
136
100
AcDbEntity
  8
Layer_1
 62
7
100
AcDbSpline
 70
8
 71
3
 72
8
 73
4
 74
0
 40
0
 40
0
 40
0
 40
0
 40
1
 40
1
 40
1
 40
1
 10
26.054684
 20
53.724971
 30
0.0
 10
26.054893
 20
53.725535
 30
0.0
 10
26.054893
 20
53.726100
 30
0.0
 10
26.055108
 20
53.726946
 30
0.0
  0
SPLINE
  5
137
100
AcDbEntity
  8
Layer_1
 62
7
100
AcDbSpline
 70
8
 71
3
 72
8
 73
4
 74
0
 40
0
 40
0
 40
0
 40
0
 40
1
 40
1
 40
1
 40
1
 10
26.055108
 20
53.726946
 30
0.0
 10
26.055418
 20
53.728358
 30
0.0
 10
26.056039
 20
53.730220
 30
0.0
 10
26.056547
 20
53.732647
 30
0.0
  0
SPLINE
  5
138
100
AcDbEntity
  8
Layer_1
 62
7
100
AcDbSpline
 70
8
 71
3
 72
8
 73
4
 74
0
 40
0
 40
0
 40
0
 40
0
 40
1
 40
1
 40
1
 40
1
 10
26.056547
 20
53.732647
 30
0.0
 10
26.057591
 20
53.737530
 30
0.0
 10
26.058946
 20
53.744416
 30
0.0
 10
26.060625
 20
53.753024
 30
0.0
  0
SPLINE
  5
139
100
AcDbEntity
  8
Layer_1
 62
7
100
AcDbSpline
 70
8
 71
3
 72
8
 73
4
 74
0
 40
0
 40
0
 40
0
 40
0
 40
1
 40
1
 40
1
 40
1
 10
26.060625
 20
53.753024
 30
0.0
 10
26.063984
 20
53.770239
 30
0.0
 10
26.068584
 20
53.794502
 30
0.0
 10
26.073870
 20
53.823317
 30
0.0
  0
SPLINE
  5
13a
100
AcDbEntity
  8
Layer_1
 62
7
100
AcDbSpline
 70
8
 71
3
 72
8
 73
4
 74
0
 40
0
 40
0
 40
0
 40
0
 40
1
 40
1
 40
1
 40
1
 10
26.073870
 20
53.823317
 30
0.0
 10
26.084442
 20
53.880947
 30
0.0
 10
26.097989
 20
53.957118
 30
0.0
 10
26.111359
 20
54.033174
 30
0.0
  0
SPLINE
  5
13b
100
AcDbEntity
  8
Layer_1
 62
7
100
AcDbSpline
 70
8
 71
3
 72
8
 73
4
 74
0
 40
0
 40
0
 40
0
 40
0
 40
1
 40
1
 40
1
 40
1
 10
26.111359
 20
54.033174
 30
0.0
 10
26.124728
 20
54.109231
 30
0.0
 10
26.137823
 20
54.185103
 30
0.0
 10
26.147422
 20
54.242216
 30
0.0
  0
SPLINE
  5
13c
100
AcDbEntity
  8
Layer_1
 62
7
100
AcDbSpline
 70
8
 71
3
 72
8
 73
4
 74
0
 40
0
 40
0
 40
0
 40
0
 40
1
 40
1
 40
1
 40
1
 10
26.147422
 20
54.242216
 30
0.0
 10
26.152220
 20
54.270772
 30
0.0
 10
26.156205
 20
54.294659
 30
0.0
 10
26.158832
 20
54.311491
 30
0.0
  0
SPLINE
  5
13d
100
AcDbEntity
  8
Layer_1
 62
7
100
AcDbSpline
 70
8
 71
3
 72
8
 73
4
 74
0
 40
0
 40
0
 40
0
 40
0
 40
1
 40
1
 40
1
 40
1
 10
26.158832
 20
54.311491
 30
0.0
 10
26.160158
 20
54.319901
 30
0.0
 10
26.161062
 20
54.326618
 30
0.0
 10
26.161691
 20
54.331246
 30
0.0
  0
SPLINE
  5
13e
100
AcDbEntity
  8
Layer_1
 62
7
100
AcDbSpline
 70
8
 71
3
 72
8
 73
4
 74
0
 40
0
 40
0
 40
0
 40
0
 40
1
 40
1
 40
1
 40
1
 10
26.161691
 20
54.331246
 30
0.0
 10
26.162001
 20
54.333504
 30
0.0
 10
26.162199
 20
54.335395
 30
0.0
 10
26.162312
 20
54.336750
 30
0.0
  0
SPLINE
  5
13f
100
AcDbEntity
  8
Layer_1
 62
7
100
AcDbSpline
 70
8
 71
3
 72
8
 73
4
 74
0
 40
0
 40
0
 40
0
 40
0
 40
1
 40
1
 40
1
 40
1
 10
26.162312
 20
54.336750
 30
0.0
 10
26.162373
 20
54.337314
 30
0.0
 10
26.162521
 20
54.337879
 30
0.0
 10
26.162521
 20
54.338443
 30
0.0
  0
SPLINE
  5
140
100
AcDbEntity
  8
Layer_1
 62
7
100
AcDbSpline
 70
8
 71
3
 72
8
 73
4
 74
0
 40
0
 40
0
 40
0
 40
0
 40
1
 40
1
 40
1
 40
1
 10
26.162521
 20
54.338443
 30
0.0
 10
26.162525
 20
54.338725
 30
0.0
 10
26.162564
 20
54.339007
 30
0.0
 10
26.162521
 20
54.339572
 30
0.0
  0
SPLINE
  5
141
100
AcDbEntity
  8
Layer_1
 62
7
100
AcDbSpline
 70
8
 71
3
 72
8
 73
4
 74
0
 40
0
 40
0
 40
0
 40
0
 40
1
 40
1
 40
1
 40
1
 10
26.162521
 20
54.339572
 30
0.0
 10
26.162499
 20
54.339781
 30
0.0
 10
26.162312
 20
54.340419
 30
0.0
 10
26.162312
 20
54.340419
 30
0.0
  0
SPLINE
  5
142
100
AcDbEntity
  8
Layer_1
 62
7
100
AcDbSpline
 70
8
 71
3
 72
8
 73
4
 74
0
 40
0
 40
0
 40
0
 40
0
 40
1
 40
1
 40
1
 40
1
 10
26.162312
 20
54.340419
 30
0.0
 10
26.162304
 20
54.340450
 30
0.0
 10
26.161098
 20
54.342394
 30
0.0
 10
26.161098
 20
54.342394
 30
0.0
  0
SPLINE
  5
143
100
AcDbEntity
  8
Layer_1
 62
7
100
AcDbSpline
 70
8
 71
3
 72
8
 73
4
 74
0
 40
0
 40
0
 40
0
 40
0
 40
1
 40
1
 40
1
 40
1
 10
26.161098
 20
54.342394
 30
0.0
 10
26.161068
 20
54.342425
 30
0.0
 10
26.160590
 20
54.342676
 30
0.0
 10
26.160252
 20
54.342959
 30
0.0
  0
SPLINE
  5
144
100
AcDbEntity
  8
Layer_1
 62
7
100
AcDbSpline
 70
8
 71
3
 72
8
 73
4
 74
0
 40
0
 40
0
 40
0
 40
0
 40
1
 40
1
 40
1
 40
1
 10
26.160252
 20
54.342959
 30
0.0
 10
26.160043
 20
54.343063
 30
0.0
 10
26.159828
 20
54.343241
 30
0.0
 10
26.159631
 20
54.343241
 30
0.0
  0
SPLINE
  5
145
100
AcDbEntity
  8
Layer_1
 62
7
100
AcDbSpline
 70
8
 71
3
 72
8
 73
4
 74
0
 40
0
 40
0
 40
0
 40
0
 40
1
 40
1
 40
1
 40
1
 10
26.159631
 20
54.343241
 30
0.0
 10
26.159207
 20
54.343447
 30
0.0
 10
26.158784
 20
54.343523
 30
0.0
 10
26.158417
 20
54.343523
 30
0.0
  0
SPLINE
  5
146
100
AcDbEntity
  8
Layer_1
 62
7
100
AcDbSpline
 70
8
 71
3
 72
8
 73
4
 74
0
 40
0
 40
0
 40
0
 40
0
 40
1
 40
1
 40
1
 40
1
 10
26.158417
 20
54.343523
 30
0.0
 10
26.157683
 20
54.343732
 30
0.0
 10
26.157063
 20
54.343805
 30
0.0
 10
26.156188
 20
54.344087
 30
0.0
  0
SPLINE
  5
147
100
AcDbEntity
  8
Layer_1
 62
7
100
AcDbSpline
 70
8
 71
3
 72
8
 73
4
 74
0
 40
0
 40
0
 40
0
 40
0
 40
1
 40
1
 40
1
 40
1
 10
26.156188
 20
54.344087
 30
0.0
 10
26.154410
 20
54.344370
 30
0.0
 10
26.152183
 20
54.345216
 30
0.0
 10
26.149262
 20
54.345781
 30
0.0
  0
SPLINE
  5
148
100
AcDbEntity
  8
Layer_1
 62
7
100
AcDbSpline
 70
8
 71
3
 72
8
 73
4
 74
0
 40
0
 40
0
 40
0
 40
0
 40
1
 40
1
 40
1
 40
1
 10
26.149262
 20
54.345781
 30
0.0
 10
26.143420
 20
54.346910
 30
0.0
 10
26.135283
 20
54.348321
 30
0.0
 10
26.125423
 20
54.349845
 30
0.0
  0
SPLINE
  5
149
100
AcDbEntity
  8
Layer_1
 62
7
100
AcDbSpline
 70
8
 71
3
 72
8
 73
4
 74
0
 40
0
 40
0
 40
0
 40
0
 40
1
 40
1
 40
1
 40
1
 10
26.125423
 20
54.349845
 30
0.0
 10
26.105704
 20
54.353006
 30
0.0
 10
26.078928
 20
54.356816
 30
0.0
 10
26.050038
 20
54.360654
 30
0.0
  0
LINE
  5
14a
100
AcDbEntity
  8
Layer_1
 62
7
100
AcDbLine
 10
26.050038
 20
54.360654
 30
0.0
 11
26.049897
 21
54.360894
 31
0.0
  0
SPLINE
  5
14b
100
AcDbEntity
  8
Layer_1
 62
7
100
AcDbSpline
 70
8
 71
3
 72
8
 73
4
 74
0
 40
0
 40
0
 40
0
 40
0
 40
1
 40
1
 40
1
 40
1
 10
15.910320
 20
54.355390
 30
0.0
 10
16.014272
 20
54.355390
 30
0.0
 10
16.104234
 20
54.314824
 30
0.0
 10
16.179875
 20
54.233959
 30
0.0
  0
SPLINE
  5
14c
100
AcDbEntity
  8
Layer_1
 62
7
100
AcDbSpline
 70
8
 71
3
 72
8
 73
4
 74
0
 40
0
 40
0
 40
0
 40
0
 40
1
 40
1
 40
1
 40
1
 10
16.179875
 20
54.233959
 30
0.0
 10
16.317331
 20
54.087008
 30
0.0
 10
16.314611
 20
53.881497
 30
0.0
 10
16.172743
 20
53.728264
 30
0.0
  0
SPLINE
  5
14d
100
AcDbEntity
  8
Layer_1
 62
7
100
AcDbSpline
 70
8
 71
3
 72
8
 73
4
 74
0
 40
0
 40
0
 40
0
 40
0
 40
1
 40
1
 40
1
 40
1
 10
16.172743
 20
53.728264
 30
0.0
 10
16.119745
 20
53.671018
 30
0.0
 10
16.063860
 20
53.637490
 30
0.0
 10
15.989168
 20
53.618037
 30
0.0
  0
SPLINE
  5
14e
100
AcDbEntity
  8
Layer_1
 62
7
100
AcDbSpline
 70
8
 71
3
 72
8
 73
4
 74
0
 40
0
 40
0
 40
0
 40
0
 40
1
 40
1
 40
1
 40
1
 10
15.989168
 20
53.618037
 30
0.0
 10
15.932716
 20
53.603333
 30
0.0
 10
15.905265
 20
53.602430
 30
0.0
 10
15.846547
 20
53.613973
 30
0.0
  0
SPLINE
  5
14f
100
AcDbEntity
  8
Layer_1
 62
7
100
AcDbSpline
 70
8
 71
3
 72
8
 73
4
 74
0
 40
0
 40
0
 40
0
 40
0
 40
1
 40
1
 40
1
 40
1
 10
15.846547
 20
53.613973
 30
0.0
 10
15.700286
 20
53.642697
 30
0.0
 10
15.570731
 20
53.771538
 30
0.0
 10
15.538892
 20
53.919998
 30
0.0
  0
SPLINE
  5
150
100
AcDbEntity
  8
Layer_1
 62
7
100
AcDbSpline
 70
8
 71
3
 72
8
 73
4
 74
0
 40
0
 40
0
 40
0
 40
0
 40
1
 40
1
 40
1
 40
1
 10
15.538892
 20
53.919998
 30
0.0
 10
15.492729
 20
54.135249
 30
0.0
 10
15.680304
 20
54.355402
 30
0.0
 10
15.910319
 20
54.355402
 30
0.0
  0
LINE
  5
151
100
AcDbEntity
  8
Layer_1
 62
7
100
AcDbLine
 10
15.910319
 20
54.355402
 30
0.0
 11
15.910320
 21
54.355390
 31
0.0
  0
SPLINE
  5
152
100
AcDbEntity
  8
Layer_1
 62
7
100
AcDbSpline
 70
8
 71
3
 72
8
 73
4
 74
0
 40
0
 40
0
 40
0
 40
0
 40
1
 40
1
 40
1
 40
1
 10
26.048878
 20
54.352145
 30
0.0
 10
26.077700
 20
54.348335
 30
0.0
 10
26.104255
 20
54.344497
 30
0.0
 10
26.123856
 20
54.341336
 30
0.0
  0
SPLINE
  5
153
100
AcDbEntity
  8
Layer_1
 62
7
100
AcDbSpline
 70
8
 71
3
 72
8
 73
4
 74
0
 40
0
 40
0
 40
0
 40
0
 40
1
 40
1
 40
1
 40
1
 10
26.123856
 20
54.341336
 30
0.0
 10
26.133663
 20
54.339642
 30
0.0
 10
26.141625
 20
54.338372
 30
0.0
 10
26.147286
 20
54.337244
 30
0.0
  0
SPLINE
  5
154
100
AcDbEntity
  8
Layer_1
 62
7
100
AcDbSpline
 70
8
 71
3
 72
8
 73
4
 74
0
 40
0
 40
0
 40
0
 40
0
 40
1
 40
1
 40
1
 40
1
 10
26.147286
 20
54.337244
 30
0.0
 10
26.149855
 20
54.336679
 30
0.0
 10
26.151720
 20
54.336397
 30
0.0
 10
26.153190
 20
54.336115
 30
0.0
  0
SPLINE
  5
155
100
AcDbEntity
  8
Layer_1
 62
7
100
AcDbSpline
 70
8
 71
3
 72
8
 73
4
 74
0
 40
0
 40
0
 40
0
 40
0
 40
1
 40
1
 40
1
 40
1
 10
26.153190
 20
54.336115
 30
0.0
 10
26.153086
 20
54.334986
 30
0.0
 10
26.152982
 20
54.334139
 30
0.0
 10
26.152767
 20
54.332446
 30
0.0
  0
SPLINE
  5
156
100
AcDbEntity
  8
Layer_1
 62
7
100
AcDbSpline
 70
8
 71
3
 72
8
 73
4
 74
0
 40
0
 40
0
 40
0
 40
0
 40
1
 40
1
 40
1
 40
1
 10
26.152767
 20
54.332446
 30
0.0
 10
26.152146
 20
54.327930
 30
0.0
 10
26.151215
 20
54.321467
 30
0.0
 10
26.149919
 20
54.313085
 30
0.0
  0
SPLINE
  5
157
100
AcDbEntity
  8
Layer_1
 62
7
100
AcDbSpline
 70
8
 71
3
 72
8
 73
4
 74
0
 40
0
 40
0
 40
0
 40
0
 40
1
 40
1
 40
1
 40
1
 10
26.149919
 20
54.313085
 30
0.0
 10
26.147295
 20
54.296321
 30
0.0
 10
26.143307
 20
54.272352
 30
0.0
 10
26.138509
 20
54.243814
 30
0.0
  0
SPLINE
  5
158
100
AcDbEntity
  8
Layer_1
 62
7
100
AcDbSpline
 70
8
 71
3
 72
8
 73
4
 74
0
 40
0
 40
0
 40
0
 40
0
 40
1
 40
1
 40
1
 40
1
 10
26.138509
 20
54.243814
 30
0.0
 10
26.128922
 20
54.186734
 30
0.0
 10
26.115813
 20
54.110811
 30
0.0
 10
26.102447
 20
54.034769
 30
0.0
  0
SPLINE
  5
159
100
AcDbEntity
  8
Layer_1
 62
7
100
AcDbSpline
 70
8
 71
3
 72
8
 73
4
 74
0
 40
0
 40
0
 40
0
 40
0
 40
1
 40
1
 40
1
 40
1
 10
26.102447
 20
54.034769
 30
0.0
 10
26.089081
 20
53.958730
 30
0.0
 10
26.075526
 20
53.882713
 30
0.0
 10
26.064958
 20
53.825117
 30
0.0
  0
SPLINE
  5
15a
100
AcDbEntity
  8
Layer_1
 62
7
100
AcDbSpline
 70
8
 71
3
 72
8
 73
4
 74
0
 40
0
 40
0
 40
0
 40
0
 40
1
 40
1
 40
1
 40
1
 10
26.064958
 20
53.825117
 30
0.0
 10
26.059669
 20
53.796319
 30
0.0
 10
26.055058
 20
53.771981
 30
0.0
 10
26.051713
 20
53.754824
 30
0.0
  0
SPLINE
  5
15b
100
AcDbEntity
  8
Layer_1
 62
7
100
AcDbSpline
 70
8
 71
3
 72
8
 73
4
 74
0
 40
0
 40
0
 40
0
 40
0
 40
1
 40
1
 40
1
 40
1
 10
26.051713
 20
53.754824
 30
0.0
 10
26.050048
 20
53.746245
 30
0.0
 10
26.048668
 20
53.739415
 30
0.0
 10
26.047635
 20
53.734645
 30
0.0
  0
SPLINE
  5
15c
100
AcDbEntity
  8
Layer_1
 62
7
100
AcDbSpline
 70
8
 71
3
 72
8
 73
4
 74
0
 40
0
 40
0
 40
0
 40
0
 40
1
 40
1
 40
1
 40
1
 10
26.047635
 20
53.734645
 30
0.0
 10
26.047212
 20
53.732670
 30
0.0
 10
26.046902
 20
53.731174
 30
0.0
 10
26.046591
 20
53.729961
 30
0.0
  0
SPLINE
  5
15d
100
AcDbEntity
  8
Layer_1
 62
7
100
AcDbSpline
 70
8
 71
3
 72
8
 73
4
 74
0
 40
0
 40
0
 40
0
 40
0
 40
1
 40
1
 40
1
 40
1
 10
26.046591
 20
53.729961
 30
0.0
 10
26.045349
 20
53.729966
 30
0.0
 10
26.043966
 20
53.729862
 30
0.0
 10
26.041906
 20
53.729961
 30
0.0
  0
SPLINE
  5
15e
100
AcDbEntity
  8
Layer_1
 62
7
100
AcDbSpline
 70
8
 71
3
 72
8
 73
4
 74
0
 40
0
 40
0
 40
0
 40
0
 40
1
 40
1
 40
1
 40
1
 10
26.041906
 20
53.729961
 30
0.0
 10
26.036869
 20
53.730169
 30
0.0
 10
26.029443
 20
53.730807
 30
0.0
 10
26.020514
 20
53.731654
 30
0.0
  0
SPLINE
  5
15f
100
AcDbEntity
  8
Layer_1
 62
7
100
AcDbSpline
 70
8
 71
3
 72
8
 73
4
 74
0
 40
0
 40
0
 40
0
 40
0
 40
1
 40
1
 40
1
 40
1
 10
26.020514
 20
53.731654
 30
0.0
 10
26.002655
 20
53.733065
 30
0.0
 10
25.978336
 20
53.735605
 30
0.0
 10
25.951648
 20
53.738568
 30
0.0
  0
SPLINE
  5
160
100
AcDbEntity
  8
Layer_1
 62
7
100
AcDbSpline
 70
8
 71
3
 72
8
 73
4
 74
0
 40
0
 40
0
 40
0
 40
0
 40
1
 40
1
 40
1
 40
1
 10
25.951648
 20
53.738568
 30
0.0
 10
25.788210
 20
53.756743
 30
0.0
 10
25.651014
 20
53.724852
 30
0.0
 10
25.548437
 20
53.648311
 30
0.0
  0
SPLINE
  5
161
100
AcDbEntity
  8
Layer_1
 62
7
100
AcDbSpline
 70
8
 71
3
 72
8
 73
4
 74
0
 40
0
 40
0
 40
0
 40
0
 40
1
 40
1
 40
1
 40
1
 10
25.548437
 20
53.648311
 30
0.0
 10
25.445858
 20
53.571781
 30
0.0
 10
25.378102
 20
53.450611
 30
0.0
 10
25.353045
 20
53.291757
 30
0.0
  0
SPLINE
  5
162
100
AcDbEntity
  8
Layer_1
 62
7
100
AcDbSpline
 70
8
 71
3
 72
8
 73
4
 74
0
 40
0
 40
0
 40
0
 40
0
 40
1
 40
1
 40
1
 40
1
 10
25.353045
 20
53.291757
 30
0.0
 10
25.350449
 20
53.275219
 30
0.0
 10
25.348182
 20
53.235033
 30
0.0
 10
25.346526
 20
53.182548
 30
0.0
  0
SPLINE
  5
163
100
AcDbEntity
  8
Layer_1
 62
7
100
AcDbSpline
 70
8
 71
3
 72
8
 73
4
 74
0
 40
0
 40
0
 40
0
 40
0
 40
1
 40
1
 40
1
 40
1
 10
25.346526
 20
53.182548
 30
0.0
 10
25.344861
 20
53.130066
 30
0.0
 10
25.343901
 20
53.065632
 30
0.0
 10
25.343873
 20
53.001827
 30
0.0
  0
LINE
  5
164
100
AcDbEntity
  8
Layer_1
 62
7
100
AcDbLine
 10
25.343873
 20
53.001827
 30
0.0
 11
25.343873
 21
52.765686
 31
0.0
  0
LINE
  5
165
100
AcDbEntity
  8
Layer_1
 62
7
100
AcDbLine
 10
25.343873
 20
52.765686
 30
0.0
 11
25.714688
 21
52.765686
 31
0.0
  0
SPLINE
  5
166
100
AcDbEntity
  8
Layer_1
 62
7
100
AcDbSpline
 70
8
 71
3
 72
8
 73
4
 74
0
 40
0
 40
0
 40
0
 40
0
 40
1
 40
1
 40
1
 40
1
 10
25.714688
 20
52.765686
 30
0.0
 10
25.849826
 20
52.765686
 30
0.0
 10
25.941569
 20
52.765122
 30
0.0
 10
25.999320
 20
52.763428
 30
0.0
  0
SPLINE
  5
167
100
AcDbEntity
  8
Layer_1
 62
7
100
AcDbSpline
 70
8
 71
3
 72
8
 73
4
 74
0
 40
0
 40
0
 40
0
 40
0
 40
1
 40
1
 40
1
 40
1
 10
25.999320
 20
52.763428
 30
0.0
 10
26.028195
 20
52.762582
 30
0.0
 10
26.048635
 20
52.761453
 30
0.0
 10
26.061667
 20
52.760183
 30
0.0
  0
SPLINE
  5
168
100
AcDbEntity
  8
Layer_1
 62
7
100
AcDbSpline
 70
8
 71
3
 72
8
 73
4
 74
0
 40
0
 40
0
 40
0
 40
0
 40
1
 40
1
 40
1
 40
1
 10
26.061667
 20
52.760183
 30
0.0
 10
26.068177
 20
52.759618
 30
0.0
 10
26.072775
 20
52.758772
 30
0.0
 10
26.075521
 20
52.758207
 30
0.0
  0
SPLINE
  5
169
100
AcDbEntity
  8
Layer_1
 62
7
100
AcDbSpline
 70
8
 71
3
 72
8
 73
4
 74
0
 40
0
 40
0
 40
0
 40
0
 40
1
 40
1
 40
1
 40
1
 10
26.075521
 20
52.758207
 30
0.0
 10
26.076142
 20
52.758103
 30
0.0
 10
26.076142
 20
52.757925
 30
0.0
 10
26.076565
 20
52.757925
 30
0.0
  0
SPLINE
  5
16a
100
AcDbEntity
  8
Layer_1
 62
7
100
AcDbSpline
 70
8
 71
3
 72
8
 73
4
 74
0
 40
0
 40
0
 40
0
 40
0
 40
1
 40
1
 40
1
 40
1
 10
26.076565
 20
52.757925
 30
0.0
 10
26.076357
 20
52.757078
 30
0.0
 10
26.076057
 20
52.756514
 30
0.0
 10
26.075718
 20
52.755385
 30
0.0
  0
SPLINE
  5
16b
100
AcDbEntity
  8
Layer_1
 62
7
100
AcDbSpline
 70
8
 71
3
 72
8
 73
4
 74
0
 40
0
 40
0
 40
0
 40
0
 40
1
 40
1
 40
1
 40
1
 10
26.075718
 20
52.755385
 30
0.0
 10
26.074985
 20
52.752140
 30
0.0
 10
26.073969
 20
52.747539
 30
0.0
 10
26.072464
 20
52.741726
 30
0.0
  0
SPLINE
  5
16c
100
AcDbEntity
  8
Layer_1
 62
7
100
AcDbSpline
 70
8
 71
3
 72
8
 73
4
 74
0
 40
0
 40
0
 40
0
 40
0
 40
1
 40
1
 40
1
 40
1
 10
26.072464
 20
52.741726
 30
0.0
 10
26.069481
 20
52.730126
 30
0.0
 10
26.065028
 20
52.713729
 30
0.0
 10
26.059629
 20
52.693641
 30
0.0
  0
SPLINE
  5
16d
100
AcDbEntity
  8
Layer_1
 62
7
100
AcDbSpline
 70
8
 71
3
 72
8
 73
4
 74
0
 40
0
 40
0
 40
0
 40
0
 40
1
 40
1
 40
1
 40
1
 10
26.059629
 20
52.693641
 30
0.0
 10
26.048842
 20
52.653494
 30
0.0
 10
26.033907
 20
52.598729
 30
0.0
 10
26.017046
 20
52.537572
 30
0.0
  0
SPLINE
  5
16e
100
AcDbEntity
  8
Layer_1
 62
7
100
AcDbSpline
 70
8
 71
3
 72
8
 73
4
 74
0
 40
0
 40
0
 40
0
 40
0
 40
1
 40
1
 40
1
 40
1
 10
26.017046
 20
52.537572
 30
0.0
 10
25.983323
 20
52.415257
 30
0.0
 10
25.942222
 20
52.267937
 30
0.0
 10
25.912525
 20
52.164310
 30
0.0
  0
LINE
  5
16f
100
AcDbEntity
  8
Layer_1
 62
7
100
AcDbLine
 10
25.912525
 20
52.164310
 30
0.0
 11
25.900096
 21
52.121116
 31
0.0
  0
LINE
  5
170
100
AcDbEntity
  8
Layer_1
 62
7
100
AcDbLine
 10
25.900096
 20
52.121116
 30
0.0
 11
25.625855
 21
52.121116
 31
0.0
  0
LINE
  5
171
100
AcDbEntity
  8
Layer_1
 62
7
100
AcDbLine
 10
25.625855
 20
52.121116
 30
0.0
 11
25.343872
 21
52.121116
 31
0.0
  0
LINE
  5
172
100
AcDbEntity
  8
Layer_1
 62
7
100
AcDbLine
 10
25.343872
 20
52.121116
 30
0.0
 11
25.343872
 21
50.531296
 31
0.0
  0
LINE
  5
173
100
AcDbEntity
  8
Layer_1
 62
7
100
AcDbLine
 10
25.343872
 20
50.531296
 30
0.0
 11
25.343872
 21
48.950437
 31
0.0
  0
LINE
  5
174
100
AcDbEntity
  8
Layer_1
 62
7
100
AcDbLine
 10
25.343872
 20
48.950437
 30
0.0
 11
24.999338
 21
48.950437
 31
0.0
  0
LINE
  5
175
100
AcDbEntity
  8
Layer_1
 62
7
100
AcDbLine
 10
24.999338
 20
48.950437
 30
0.0
 11
24.654806
 21
48.950437
 31
0.0
  0
LINE
  5
176
100
AcDbEntity
  8
Layer_1
 62
7
100
AcDbLine
 10
24.654806
 20
48.950437
 30
0.0
 11
24.654806
 21
51.105856
 31
0.0
  0
SPLINE
  5
177
100
AcDbEntity
  8
Layer_1
 62
7
100
AcDbSpline
 70
8
 71
3
 72
8
 73
4
 74
0
 40
0
 40
0
 40
0
 40
0
 40
1
 40
1
 40
1
 40
1
 10
24.654806
 20
51.105856
 30
0.0
 10
24.654806
 20
51.841171
 30
0.0
 10
24.655737
 20
52.387971
 30
0.0
 10
24.657233
 20
52.758227
 30
0.0
  0
SPLINE
  5
178
100
AcDbEntity
  8
Layer_1
 62
7
100
AcDbSpline
 70
8
 71
3
 72
8
 73
4
 74
0
 40
0
 40
0
 40
0
 40
0
 40
1
 40
1
 40
1
 40
1
 10
24.657233
 20
52.758227
 30
0.0
 10
24.657967
 20
52.943356
 30
0.0
 10
24.658898
 20
53.084284
 30
0.0
 10
24.660081
 20
53.182630
 30
0.0
  0
SPLINE
  5
179
100
AcDbEntity
  8
Layer_1
 62
7
100
AcDbSpline
 70
8
 71
3
 72
8
 73
4
 74
0
 40
0
 40
0
 40
0
 40
0
 40
1
 40
1
 40
1
 40
1
 10
24.660081
 20
53.182630
 30
0.0
 10
24.661266
 20
53.280973
 30
0.0
 10
24.662649
 20
53.337260
 30
0.0
 10
24.664159
 20
53.350922
 30
0.0
  0
SPLINE
  5
17a
100
AcDbEntity
  8
Layer_1
 62
7
100
AcDbSpline
 70
8
 71
3
 72
8
 73
4
 74
0
 40
0
 40
0
 40
0
 40
0
 40
1
 40
1
 40
1
 40
1
 10
24.664159
 20
53.350922
 30
0.0
 10
24.694338
 20
53.625612
 30
0.0
 10
24.781285
 20
53.845308
 30
0.0
 10
24.924138
 20
54.009835
 30
0.0
  0
SPLINE
  5
17b
100
AcDbEntity
  8
Layer_1
 62
7
100
AcDbSpline
 70
8
 71
3
 72
8
 73
4
 74
0
 40
0
 40
0
 40
0
 40
0
 40
1
 40
1
 40
1
 40
1
 10
24.924138
 20
54.009835
 30
0.0
 10
25.066991
 20
54.174359
 30
0.0
 10
25.265939
 20
54.283980
 30
0.0
 10
25.521315
 20
54.338271
 30
0.0
  0
SPLINE
  5
17c
100
AcDbEntity
  8
Layer_1
 62
7
100
AcDbSpline
 70
8
 71
3
 72
8
 73
4
 74
0
 40
0
 40
0
 40
0
 40
0
 40
1
 40
1
 40
1
 40
1
 10
25.521315
 20
54.338271
 30
0.0
 10
25.644787
 20
54.364517
 30
0.0
 10
25.905242
 20
54.371534
 30
0.0
 10
26.048811
 20
54.352523
 30
0.0
  0
LINE
  5
17d
100
AcDbEntity
  8
Layer_1
 62
7
100
AcDbLine
 10
26.048811
 20
54.352523
 30
0.0
 11
26.048878
 21
54.352145
 31
0.0
  0
LINE
  5
17e
100
AcDbEntity
  8
Layer_1
 62
7
100
AcDbLine
 10
12.051389
 20
54.293465
 30
0.0
 11
12.051389
 21
51.617273
 31
0.0
  0
SPLINE
  5
17f
100
AcDbEntity
  8
Layer_1
 62
7
100
AcDbSpline
 70
8
 71
3
 72
8
 73
4
 74
0
 40
0
 40
0
 40
0
 40
0
 40
1
 40
1
 40
1
 40
1
 10
12.051389
 20
51.617273
 30
0.0
 10
12.051389
 20
50.882542
 30
0.0
 10
12.052038
 20
50.214651
 30
0.0
 10
12.053223
 20
49.730392
 30
0.0
  0
SPLINE
  5
180
100
AcDbEntity
  8
Layer_1
 62
7
100
AcDbSpline
 70
8
 71
3
 72
8
 73
4
 74
0
 40
0
 40
0
 40
0
 40
0
 40
1
 40
1
 40
1
 40
1
 10
12.053223
 20
49.730392
 30
0.0
 10
12.053816
 20
49.488262
 30
0.0
 10
12.054663
 20
49.292126
 30
0.0
 10
12.055453
 20
49.156442
 30
0.0
  0
SPLINE
  5
181
100
AcDbEntity
  8
Layer_1
 62
7
100
AcDbSpline
 70
8
 71
3
 72
8
 73
4
 74
0
 40
0
 40
0
 40
0
 40
0
 40
1
 40
1
 40
1
 40
1
 10
12.055453
 20
49.156442
 30
0.0
 10
12.055848
 20
49.088602
 30
0.0
 10
12.056243
 20
49.035933
 30
0.0
 10
12.056667
 20
49.000170
 30
0.0
  0
SPLINE
  5
182
100
AcDbEntity
  8
Layer_1
 62
7
100
AcDbSpline
 70
8
 71
3
 72
8
 73
4
 74
0
 40
0
 40
0
 40
0
 40
0
 40
1
 40
1
 40
1
 40
1
 10
12.056667
 20
49.000170
 30
0.0
 10
12.056886
 20
48.982277
 30
0.0
 10
12.057062
 20
48.968620
 30
0.0
 10
12.057287
 20
48.959423
 30
0.0
  0
SPLINE
  5
183
100
AcDbEntity
  8
Layer_1
 62
7
100
AcDbSpline
 70
8
 71
3
 72
8
 73
4
 74
0
 40
0
 40
0
 40
0
 40
0
 40
1
 40
1
 40
1
 40
1
 10
12.057287
 20
48.959423
 30
0.0
 10
12.057402
 20
48.954823
 30
0.0
 10
12.057570
 20
48.951210
 30
0.0
 10
12.057683
 20
48.948840
 30
0.0
  0
SPLINE
  5
184
100
AcDbEntity
  8
Layer_1
 62
7
100
AcDbSpline
 70
8
 71
3
 72
8
 73
4
 74
0
 40
0
 40
0
 40
0
 40
0
 40
1
 40
1
 40
1
 40
1
 10
12.057683
 20
48.948840
 30
0.0
 10
12.057741
 20
48.947711
 30
0.0
 10
12.057818
 20
48.946582
 30
0.0
 10
12.057891
 20
48.945989
 30
0.0
  0
SPLINE
  5
185
100
AcDbEntity
  8
Layer_1
 62
7
100
AcDbSpline
 70
8
 71
3
 72
8
 73
4
 74
0
 40
0
 40
0
 40
0
 40
0
 40
1
 40
1
 40
1
 40
1
 10
12.057891
 20
48.945989
 30
0.0
 10
12.057926
 20
48.945707
 30
0.0
 10
12.057810
 20
48.945425
 30
0.0
 10
12.057891
 20
48.944860
 30
0.0
  0
SPLINE
  5
186
100
AcDbEntity
  8
Layer_1
 62
7
100
AcDbSpline
 70
8
 71
3
 72
8
 73
4
 74
0
 40
0
 40
0
 40
0
 40
0
 40
1
 40
1
 40
1
 40
1
 10
12.057891
 20
48.944860
 30
0.0
 10
12.057932
 20
48.944654
 30
0.0
 10
12.058286
 20
48.944014
 30
0.0
 10
12.058286
 20
48.944014
 30
0.0
  0
SPLINE
  5
187
100
AcDbEntity
  8
Layer_1
 62
7
100
AcDbSpline
 70
8
 71
3
 72
8
 73
4
 74
0
 40
0
 40
0
 40
0
 40
0
 40
1
 40
1
 40
1
 40
1
 10
12.058286
 20
48.944014
 30
0.0
 10
12.058300
 20
48.943977
 30
0.0
 10
12.062347
 20
48.940966
 30
0.0
 10
12.062362
 20
48.940966
 30
0.0
  0
SPLINE
  5
188
100
AcDbEntity
  8
Layer_1
 62
7
100
AcDbSpline
 70
8
 71
3
 72
8
 73
4
 74
0
 40
0
 40
0
 40
0
 40
0
 40
1
 40
1
 40
1
 40
1
 10
12.062362
 20
48.940966
 30
0.0
 10
12.061910
 20
48.940966
 30
0.0
 10
12.063124
 20
48.941067
 30
0.0
 10
12.064394
 20
48.940966
 30
0.0
  0
SPLINE
  5
189
100
AcDbEntity
  8
Layer_1
 62
7
100
AcDbSpline
 70
8
 71
3
 72
8
 73
4
 74
0
 40
0
 40
0
 40
0
 40
0
 40
1
 40
1
 40
1
 40
1
 10
12.064394
 20
48.940966
 30
0.0
 10
12.065664
 20
48.940861
 30
0.0
 10
12.067385
 20
48.940757
 30
0.0
 10
12.069691
 20
48.940683
 30
0.0
  0
SPLINE
  5
18a
100
AcDbEntity
  8
Layer_1
 62
7
100
AcDbSpline
 70
8
 71
3
 72
8
 73
4
 74
0
 40
0
 40
0
 40
0
 40
0
 40
1
 40
1
 40
1
 40
1
 10
12.069691
 20
48.940683
 30
0.0
 10
12.074302
 20
48.940401
 30
0.0
 10
12.080898
 20
48.939554
 30
0.0
 10
12.089252
 20
48.938708
 30
0.0
  0
SPLINE
  5
18b
100
AcDbEntity
  8
Layer_1
 62
7
100
AcDbSpline
 70
8
 71
3
 72
8
 73
4
 74
0
 40
0
 40
0
 40
0
 40
0
 40
1
 40
1
 40
1
 40
1
 10
12.089252
 20
48.938708
 30
0.0
 10
12.105959
 20
48.937297
 30
0.0
 10
12.129716
 20
48.934954
 30
0.0
 10
12.158729
 20
48.932188
 30
0.0
  0
SPLINE
  5
18c
100
AcDbEntity
  8
Layer_1
 62
7
100
AcDbSpline
 70
8
 71
3
 72
8
 73
4
 74
0
 40
0
 40
0
 40
0
 40
0
 40
1
 40
1
 40
1
 40
1
 10
12.158729
 20
48.932188
 30
0.0
 10
12.216755
 20
48.926685
 30
0.0
 10
12.295811
 20
48.918952
 30
0.0
 10
12.382033
 20
48.910598
 30
0.0
  0
SPLINE
  5
18d
100
AcDbEntity
  8
Layer_1
 62
7
100
AcDbSpline
 70
8
 71
3
 72
8
 73
4
 74
0
 40
0
 40
0
 40
0
 40
0
 40
1
 40
1
 40
1
 40
1
 10
12.382033
 20
48.910598
 30
0.0
 10
12.554501
 20
48.893863
 30
0.0
 10
12.751343
 20
48.875888
 30
0.0
 10
12.819474
 20
48.870664
 30
0.0
  0
SPLINE
  5
18e
100
AcDbEntity
  8
Layer_1
 62
7
100
AcDbSpline
 70
8
 71
3
 72
8
 73
4
 74
0
 40
0
 40
0
 40
0
 40
0
 40
1
 40
1
 40
1
 40
1
 10
12.819474
 20
48.870664
 30
0.0
 10
12.887471
 20
48.865443
 30
0.0
 10
12.959100
 20
48.859827
 30
0.0
 10
12.978395
 20
48.858020
 30
0.0
  0
SPLINE
  5
18f
100
AcDbEntity
  8
Layer_1
 62
7
100
AcDbSpline
 70
8
 71
3
 72
8
 73
4
 74
0
 40
0
 40
0
 40
0
 40
0
 40
1
 40
1
 40
1
 40
1
 10
12.978395
 20
48.858020
 30
0.0
 10
13.075577
 20
48.848989
 30
0.0
 10
13.538719
 20
48.860278
 30
0.0
 10
13.627934
 20
48.873910
 30
0.0
  0
SPLINE
  5
190
100
AcDbEntity
  8
Layer_1
 62
7
100
AcDbSpline
 70
8
 71
3
 72
8
 73
4
 74
0
 40
0
 40
0
 40
0
 40
0
 40
1
 40
1
 40
1
 40
1
 10
13.627934
 20
48.873910
 30
0.0
 10
13.996133
 20
48.930329
 30
0.0
 10
14.339970
 20
49.076096
 30
0.0
 10
14.532766
 20
49.257969
 30
0.0
  0
SPLINE
  5
191
100
AcDbEntity
  8
Layer_1
 62
7
100
AcDbSpline
 70
8
 71
3
 72
8
 73
4
 74
0
 40
0
 40
0
 40
0
 40
0
 40
1
 40
1
 40
1
 40
1
 10
14.532766
 20
49.257969
 30
0.0
 10
14.698890
 20
49.414684
 30
0.0
 10
14.803761
 20
49.619278
 30
0.0
 10
14.856720
 20
49.889579
 30
0.0
  0
SPLINE
  5
192
100
AcDbEntity
  8
Layer_1
 62
7
100
AcDbSpline
 70
8
 71
3
 72
8
 73
4
 74
0
 40
0
 40
0
 40
0
 40
0
 40
1
 40
1
 40
1
 40
1
 10
14.856720
 20
49.889579
 30
0.0
 10
14.869773
 20
49.956198
 30
0.0
 10
14.871873
 20
50.065821
 30
0.0
 10
14.875056
 20
50.778111
 30
0.0
  0
SPLINE
  5
193
100
AcDbEntity
  8
Layer_1
 62
7
100
AcDbSpline
 70
8
 71
3
 72
8
 73
4
 74
0
 40
0
 40
0
 40
0
 40
0
 40
1
 40
1
 40
1
 40
1
 10
14.875056
 20
50.778111
 30
0.0
 10
14.877258
 20
51.273298
 30
0.0
 10
14.877653
 20
51.536230
 30
0.0
 10
14.868128
 20
51.703317
 30
0.0
  0
SPLINE
  5
194
100
AcDbEntity
  8
Layer_1
 62
7
100
AcDbSpline
 70
8
 71
3
 72
8
 73
4
 74
0
 40
0
 40
0
 40
0
 40
0
 40
1
 40
1
 40
1
 40
1
 10
14.868128
 20
51.703317
 30
0.0
 10
14.858592
 20
51.870401
 30
0.0
 10
14.839145
 20
51.941846
 30
0.0
 10
14.802318
 20
52.052739
 30
0.0
  0
SPLINE
  5
195
100
AcDbEntity
  8
Layer_1
 62
7
100
AcDbSpline
 70
8
 71
3
 72
8
 73
4
 74
0
 40
0
 40
0
 40
0
 40
0
 40
1
 40
1
 40
1
 40
1
 10
14.802318
 20
52.052739
 30
0.0
 10
14.746337
 20
52.221328
 30
0.0
 10
14.667891
 20
52.348088
 30
0.0
 10
14.544574
 20
52.469435
 30
0.0
  0
SPLINE
  5
196
100
AcDbEntity
  8
Layer_1
 62
7
100
AcDbSpline
 70
8
 71
3
 72
8
 73
4
 74
0
 40
0
 40
0
 40
0
 40
0
 40
1
 40
1
 40
1
 40
1
 10
14.544574
 20
52.469435
 30
0.0
 10
14.350413
 20
52.660499
 30
0.0
 10
14.053208
 20
52.787886
 30
0.0
 10
13.712276
 20
52.826807
 30
0.0
  0
SPLINE
  5
197
100
AcDbEntity
  8
Layer_1
 62
7
100
AcDbSpline
 70
8
 71
3
 72
8
 73
4
 74
0
 40
0
 40
0
 40
0
 40
0
 40
1
 40
1
 40
1
 40
1
 10
13.712276
 20
52.826807
 30
0.0
 10
13.608342
 20
52.838660
 30
0.0
 10
13.385632
 20
52.838689
 30
0.0
 10
13.276057
 20
52.826807
 30
0.0
  0
SPLINE
  5
198
100
AcDbEntity
  8
Layer_1
 62
7
100
AcDbSpline
 70
8
 71
3
 72
8
 73
4
 74
0
 40
0
 40
0
 40
0
 40
0
 40
1
 40
1
 40
1
 40
1
 10
13.276057
 20
52.826807
 30
0.0
 10
13.140657
 20
52.812103
 30
0.0
 10
12.978780
 20
52.776820
 30
0.0
 10
12.855935
 20
52.735325
 30
0.0
  0
LINE
  5
199
100
AcDbEntity
  8
Layer_1
 62
7
100
AcDbLine
 10
12.855935
 20
52.735325
 30
0.0
 11
12.748969
 21
52.699056
 31
0.0
  0
LINE
  5
19a
100
AcDbEntity
  8
Layer_1
 62
7
100
AcDbLine
 10
12.748969
 20
52.699056
 30
0.0
 11
12.748969
 21
53.491014
 31
0.0
  0
LINE
  5
19b
100
AcDbEntity
  8
Layer_1
 62
7
100
AcDbLine
 10
12.748969
 20
53.491014
 30
0.0
 11
12.748969
 21
54.293364
 31
0.0
  0
LINE
  5
19c
100
AcDbEntity
  8
Layer_1
 62
7
100
AcDbLine
 10
12.748969
 20
54.293364
 30
0.0
 11
12.400157
 21
54.293364
 31
0.0
  0
LINE
  5
19d
100
AcDbEntity
  8
Layer_1
 62
7
100
AcDbLine
 10
12.400157
 20
54.293364
 30
0.0
 11
12.051389
 21
54.293465
 31
0.0
  0
LINE
  5
19e
100
AcDbEntity
  8
Layer_1
 62
7
100
AcDbLine
 10
17.015026
 20
54.293465
 30
0.0
 11
17.015026
 21
52.071829
 31
0.0
  0
SPLINE
  5
19f
100
AcDbEntity
  8
Layer_1
 62
7
100
AcDbSpline
 70
8
 71
3
 72
8
 73
4
 74
0
 40
0
 40
0
 40
0
 40
0
 40
1
 40
1
 40
1
 40
1
 10
17.015026
 20
52.071829
 30
0.0
 10
17.015026
 20
50.952634
 30
0.0
 10
17.015224
 20
50.377567
 30
0.0
 10
17.019304
 20
50.063109
 30
0.0
  0
SPLINE
  5
1a0
100
AcDbEntity
  8
Layer_1
 62
7
100
AcDbSpline
 70
8
 71
3
 72
8
 73
4
 74
0
 40
0
 40
0
 40
0
 40
0
 40
1
 40
1
 40
1
 40
1
 10
17.019304
 20
50.063109
 30
0.0
 10
17.023388
 20
49.748649
 30
0.0
 10
17.031465
 20
49.694225
 30
0.0
 10
17.047013
 20
49.617926
 30
0.0
  0
SPLINE
  5
1a1
100
AcDbEntity
  8
Layer_1
 62
7
100
AcDbSpline
 70
8
 71
3
 72
8
 73
4
 74
0
 40
0
 40
0
 40
0
 40
0
 40
1
 40
1
 40
1
 40
1
 10
17.047013
 20
49.617926
 30
0.0
 10
17.091475
 20
49.399729
 30
0.0
 10
17.186985
 20
49.228279
 30
0.0
 10
17.336127
 20
49.102041
 30
0.0
  0
SPLINE
  5
1a2
100
AcDbEntity
  8
Layer_1
 62
7
100
AcDbSpline
 70
8
 71
3
 72
8
 73
4
 74
0
 40
0
 40
0
 40
0
 40
0
 40
1
 40
1
 40
1
 40
1
 10
17.336127
 20
49.102041
 30
0.0
 10
17.485269
 20
48.975806
 30
0.0
 10
17.687892
 20
48.895031
 30
0.0
 10
17.945936
 20
48.856937
 30
0.0
  0
LINE
  5
1a3
100
AcDbEntity
  8
Layer_1
 62
7
100
AcDbLine
 10
17.945936
 20
48.856937
 30
0.0
 11
17.951437
 21
48.855808
 31
0.0
  0
LINE
  5
1a4
100
AcDbEntity
  8
Layer_1
 62
7
100
AcDbLine
 10
17.951437
 20
48.855808
 30
0.0
 11
17.951437
 21
48.856090
 31
0.0
  0
SPLINE
  5
1a5
100
AcDbEntity
  8
Layer_1
 62
7
100
AcDbSpline
 70
8
 71
3
 72
8
 73
4
 74
0
 40
0
 40
0
 40
0
 40
0
 40
1
 40
1
 40
1
 40
1
 10
17.951437
 20
48.856090
 30
0.0
 10
17.970247
 20
48.853268
 30
0.0
 10
17.988977
 20
48.850756
 30
0.0
 10
18.004207
 20
48.849147
 30
0.0
  0
SPLINE
  5
1a6
100
AcDbEntity
  8
Layer_1
 62
7
100
AcDbSpline
 70
8
 71
3
 72
8
 73
4
 74
0
 40
0
 40
0
 40
0
 40
0
 40
1
 40
1
 40
1
 40
1
 10
18.004207
 20
48.849147
 30
0.0
 10
18.021019
 20
48.847454
 30
0.0
 10
18.033403
 20
48.846325
 30
0.0
 10
18.039251
 20
48.846890
 30
0.0
  0
SPLINE
  5
1a7
100
AcDbEntity
  8
Layer_1
 62
7
100
AcDbSpline
 70
8
 71
3
 72
8
 73
4
 74
0
 40
0
 40
0
 40
0
 40
0
 40
1
 40
1
 40
1
 40
1
 10
18.039251
 20
48.846890
 30
0.0
 10
18.045124
 20
48.847454
 30
0.0
 10
18.049538
 20
48.851913
 30
0.0
 10
18.054940
 20
48.860126
 30
0.0
  0
SPLINE
  5
1a8
100
AcDbEntity
  8
Layer_1
 62
7
100
AcDbSpline
 70
8
 71
3
 72
8
 73
4
 74
0
 40
0
 40
0
 40
0
 40
0
 40
1
 40
1
 40
1
 40
1
 10
18.054940
 20
48.860126
 30
0.0
 10
18.060341
 20
48.868338
 30
0.0
 10
18.066892
 20
48.880954
 30
0.0
 10
18.075313
 20
48.899857
 30
0.0
  0
SPLINE
  5
1a9
100
AcDbEntity
  8
Layer_1
 62
7
100
AcDbSpline
 70
8
 71
3
 72
8
 73
4
 74
0
 40
0
 40
0
 40
0
 40
0
 40
1
 40
1
 40
1
 40
1
 10
18.075313
 20
48.899857
 30
0.0
 10
18.092159
 20
48.937661
 30
0.0
 10
18.116895
 20
49.000650
 30
0.0
 10
18.155793
 20
49.102786
 30
0.0
  0
SPLINE
  5
1aa
100
AcDbEntity
  8
Layer_1
 62
7
100
AcDbSpline
 70
8
 71
3
 72
8
 73
4
 74
0
 40
0
 40
0
 40
0
 40
0
 40
1
 40
1
 40
1
 40
1
 10
18.155793
 20
49.102786
 30
0.0
 10
18.182158
 20
49.172018
 30
0.0
 10
18.206599
 20
49.236946
 30
0.0
 10
18.224862
 20
49.285954
 30
0.0
  0
SPLINE
  5
1ab
100
AcDbEntity
  8
Layer_1
 62
7
100
AcDbSpline
 70
8
 71
3
 72
8
 73
4
 74
0
 40
0
 40
0
 40
0
 40
0
 40
1
 40
1
 40
1
 40
1
 10
18.224862
 20
49.285954
 30
0.0
 10
18.233995
 20
49.310451
 30
0.0
 10
18.241612
 20
49.331033
 30
0.0
 10
18.247070
 20
49.346059
 30
0.0
  0
SPLINE
  5
1ac
100
AcDbEntity
  8
Layer_1
 62
7
100
AcDbSpline
 70
8
 71
3
 72
8
 73
4
 74
0
 40
0
 40
0
 40
0
 40
0
 40
1
 40
1
 40
1
 40
1
 10
18.247070
 20
49.346059
 30
0.0
 10
18.252529
 20
49.361073
 30
0.0
 10
18.255746
 20
49.370132
 30
0.0
 10
18.256646
 20
49.373576
 30
0.0
  0
SPLINE
  5
1ad
100
AcDbEntity
  8
Layer_1
 62
7
100
AcDbSpline
 70
8
 71
3
 72
8
 73
4
 74
0
 40
0
 40
0
 40
0
 40
0
 40
1
 40
1
 40
1
 40
1
 10
18.256646
 20
49.373576
 30
0.0
 10
18.257803
 20
49.378006
 30
0.0
 10
18.258594
 20
49.381986
 30
0.0
 10
18.257662
 20
49.385993
 30
0.0
  0
SPLINE
  5
1ae
100
AcDbEntity
  8
Layer_1
 62
7
100
AcDbSpline
 70
8
 71
3
 72
8
 73
4
 74
0
 40
0
 40
0
 40
0
 40
0
 40
1
 40
1
 40
1
 40
1
 10
18.257662
 20
49.385993
 30
0.0
 10
18.256731
 20
49.390029
 30
0.0
 10
18.253677
 20
49.393388
 30
0.0
 10
18.249512
 20
49.395758
 30
0.0
  0
SPLINE
  5
1af
100
AcDbEntity
  8
Layer_1
 62
7
100
AcDbSpline
 70
8
 71
3
 72
8
 73
4
 74
0
 40
0
 40
0
 40
0
 40
0
 40
1
 40
1
 40
1
 40
1
 10
18.249512
 20
49.395758
 30
0.0
 10
18.241183
 20
49.400528
 30
0.0
 10
18.227439
 20
49.403237
 30
0.0
 10
18.202243
 20
49.407978
 30
0.0
  0
SPLINE
  5
1b0
100
AcDbEntity
  8
Layer_1
 62
7
100
AcDbSpline
 70
8
 71
3
 72
8
 73
4
 74
0
 40
0
 40
0
 40
0
 40
0
 40
1
 40
1
 40
1
 40
1
 10
18.202243
 20
49.407978
 30
0.0
 10
17.943358
 20
49.456817
 30
0.0
 10
17.791908
 20
49.581757
 30
0.0
 10
17.738315
 20
49.789797
 30
0.0
  0
SPLINE
  5
1b1
100
AcDbEntity
  8
Layer_1
 62
7
100
AcDbSpline
 70
8
 71
3
 72
8
 73
4
 74
0
 40
0
 40
0
 40
0
 40
0
 40
1
 40
1
 40
1
 40
1
 10
17.738315
 20
49.789797
 30
0.0
 10
17.736396
 20
49.797219
 30
0.0
 10
17.734392
 20
49.820119
 30
0.0
 10
17.732815
 20
49.862940
 30
0.0
  0
SPLINE
  5
1b2
100
AcDbEntity
  8
Layer_1
 62
7
100
AcDbSpline
 70
8
 71
3
 72
8
 73
4
 74
0
 40
0
 40
0
 40
0
 40
0
 40
1
 40
1
 40
1
 40
1
 10
17.732815
 20
49.862940
 30
0.0
 10
17.731234
 20
49.905762
 30
0.0
 10
17.729829
 20
49.969025
 30
0.0
 10
17.728739
 20
50.059147
 30
0.0
  0
SPLINE
  5
1b3
100
AcDbEntity
  8
Layer_1
 62
7
100
AcDbSpline
 70
8
 71
3
 72
8
 73
4
 74
0
 40
0
 40
0
 40
0
 40
0
 40
1
 40
1
 40
1
 40
1
 10
17.728739
 20
50.059147
 30
0.0
 10
17.726566
 20
50.239391
 30
0.0
 10
17.725217
 20
50.527275
 30
0.0
 10
17.724055
 20
50.974574
 30
0.0
  0
LINE
  5
1b4
100
AcDbEntity
  8
Layer_1
 62
7
100
AcDbLine
 10
17.724055
 20
50.974574
 30
0.0
 11
17.721201
 21
52.111673
 31
0.0
  0
LINE
  5
1b5
100
AcDbEntity
  8
Layer_1
 62
7
100
AcDbLine
 10
17.721201
 20
52.111673
 30
0.0
 11
18.023966
 21
52.111673
 31
0.0
  0
LINE
  5
1b6
100
AcDbEntity
  8
Layer_1
 62
7
100
AcDbLine
 10
18.023966
 20
52.111673
 30
0.0
 11
18.334474
 21
52.111673
 31
0.0
  0
LINE
  5
1b7
100
AcDbEntity
  8
Layer_1
 62
7
100
AcDbLine
 10
18.334474
 20
52.111673
 30
0.0
 11
18.423103
 21
52.430739
 31
0.0
  0
SPLINE
  5
1b8
100
AcDbEntity
  8
Layer_1
 62
7
100
AcDbSpline
 70
8
 71
3
 72
8
 73
4
 74
0
 40
0
 40
0
 40
0
 40
0
 40
1
 40
1
 40
1
 40
1
 10
18.423103
 20
52.430739
 30
0.0
 10
18.447205
 20
52.517568
 30
0.0
 10
18.469495
 20
52.597668
 30
0.0
 10
18.486060
 20
52.656895
 30
0.0
  0
SPLINE
  5
1b9
100
AcDbEntity
  8
Layer_1
 62
7
100
AcDbSpline
 70
8
 71
3
 72
8
 73
4
 74
0
 40
0
 40
0
 40
0
 40
0
 40
1
 40
1
 40
1
 40
1
 10
18.486060
 20
52.656895
 30
0.0
 10
18.494343
 20
52.686509
 30
0.0
 10
18.501333
 20
52.710859
 30
0.0
 10
18.506230
 20
52.728207
 30
0.0
  0
SPLINE
  5
1ba
100
AcDbEntity
  8
Layer_1
 62
7
100
AcDbSpline
 70
8
 71
3
 72
8
 73
4
 74
0
 40
0
 40
0
 40
0
 40
0
 40
1
 40
1
 40
1
 40
1
 10
18.506230
 20
52.728207
 30
0.0
 10
18.508685
 20
52.736871
 30
0.0
 10
18.510517
 20
52.743842
 30
0.0
 10
18.511937
 20
52.748781
 30
0.0
  0
SPLINE
  5
1bb
100
AcDbEntity
  8
Layer_1
 62
7
100
AcDbSpline
 70
8
 71
3
 72
8
 73
4
 74
0
 40
0
 40
0
 40
0
 40
0
 40
1
 40
1
 40
1
 40
1
 10
18.511937
 20
52.748781
 30
0.0
 10
18.513348
 20
52.753720
 30
0.0
 10
18.514279
 20
52.756824
 30
0.0
 10
18.514364
 20
52.757135
 30
0.0
  0
SPLINE
  5
1bc
100
AcDbEntity
  8
Layer_1
 62
7
100
AcDbSpline
 70
8
 71
3
 72
8
 73
4
 74
0
 40
0
 40
0
 40
0
 40
0
 40
1
 40
1
 40
1
 40
1
 10
18.514364
 20
52.757135
 30
0.0
 10
18.515097
 20
52.759110
 30
0.0
 10
18.514053
 20
52.762187
 30
0.0
 10
18.512727
 20
52.763457
 30
0.0
  0
SPLINE
  5
1bd
100
AcDbEntity
  8
Layer_1
 62
7
100
AcDbSpline
 70
8
 71
3
 72
8
 73
4
 74
0
 40
0
 40
0
 40
0
 40
0
 40
1
 40
1
 40
1
 40
1
 10
18.512727
 20
52.763457
 30
0.0
 10
18.511400
 20
52.764868
 30
0.0
 10
18.510046
 20
52.765150
 30
0.0
 10
18.508448
 20
52.765714
 30
0.0
  0
SPLINE
  5
1be
100
AcDbEntity
  8
Layer_1
 62
7
100
AcDbSpline
 70
8
 71
3
 72
8
 73
4
 74
0
 40
0
 40
0
 40
0
 40
0
 40
1
 40
1
 40
1
 40
1
 10
18.508448
 20
52.765714
 30
0.0
 10
18.505225
 20
52.766843
 30
0.0
 10
18.500876
 20
52.767690
 30
0.0
 10
18.494594
 20
52.768254
 30
0.0
  0
SPLINE
  5
1bf
100
AcDbEntity
  8
Layer_1
 62
7
100
AcDbSpline
 70
8
 71
3
 72
8
 73
4
 74
0
 40
0
 40
0
 40
0
 40
0
 40
1
 40
1
 40
1
 40
1
 10
18.494594
 20
52.768254
 30
0.0
 10
18.482041
 20
52.769666
 30
0.0
 10
18.462141
 20
52.770794
 30
0.0
 10
18.432248
 20
52.771726
 30
0.0
  0
SPLINE
  5
1c0
100
AcDbEntity
  8
Layer_1
 62
7
100
AcDbSpline
 70
8
 71
3
 72
8
 73
4
 74
0
 40
0
 40
0
 40
0
 40
0
 40
1
 40
1
 40
1
 40
1
 10
18.432248
 20
52.771726
 30
0.0
 10
18.372462
 20
52.773419
 30
0.0
 10
18.273054
 20
52.773984
 30
0.0
 10
18.115628
 20
52.773984
 30
0.0
  0
LINE
  5
1c1
100
AcDbEntity
  8
Layer_1
 62
7
100
AcDbLine
 10
18.115628
 20
52.773984
 30
0.0
 11
17.721585
 21
52.773984
 31
0.0
  0
LINE
  5
1c2
100
AcDbEntity
  8
Layer_1
 62
7
100
AcDbLine
 10
17.721585
 20
52.773984
 30
0.0
 11
17.721585
 21
53.529063
 31
0.0
  0
LINE
  5
1c3
100
AcDbEntity
  8
Layer_1
 62
7
100
AcDbLine
 10
17.721585
 20
53.529063
 30
0.0
 11
17.721585
 21
54.293107
 31
0.0
  0
LINE
  5
1c4
100
AcDbEntity
  8
Layer_1
 62
7
100
AcDbLine
 10
17.721585
 20
54.293107
 30
0.0
 11
17.368291
 21
54.293107
 31
0.0
  0
LINE
  5
1c5
100
AcDbEntity
  8
Layer_1
 62
7
100
AcDbLine
 10
17.368291
 20
54.293107
 30
0.0
 11
17.015026
 21
54.293465
 31
0.0
  0
LINE
  5
1c6
100
AcDbEntity
  8
Layer_1
 62
7
100
AcDbLine
 10
12.060150
 20
54.284688
 30
0.0
 11
12.400200
 21
54.284688
 31
0.0
  0
LINE
  5
1c7
100
AcDbEntity
  8
Layer_1
 62
7
100
AcDbLine
 10
12.400200
 20
54.284688
 30
0.0
 11
12.740251
 21
54.284688
 31
0.0
  0
LINE
  5
1c8
100
AcDbEntity
  8
Layer_1
 62
7
100
AcDbLine
 10
12.740251
 20
54.284688
 30
0.0
 11
12.740251
 21
53.491102
 31
0.0
  0
LINE
  5
1c9
100
AcDbEntity
  8
Layer_1
 62
7
100
AcDbLine
 10
12.740251
 20
53.491102
 30
0.0
 11
12.740251
 21
52.687124
 31
0.0
  0
LINE
  5
1ca
100
AcDbEntity
  8
Layer_1
 62
7
100
AcDbLine
 10
12.740251
 20
52.687124
 30
0.0
 11
12.858627
 21
52.727058
 31
0.0
  0
SPLINE
  5
1cb
100
AcDbEntity
  8
Layer_1
 62
7
100
AcDbSpline
 70
8
 71
3
 72
8
 73
4
 74
0
 40
0
 40
0
 40
0
 40
0
 40
1
 40
1
 40
1
 40
1
 10
12.858627
 20
52.727058
 30
0.0
 10
12.980677
 20
52.768288
 30
0.0
 10
13.142271
 20
52.803510
 30
0.0
 10
13.276916
 20
52.818132
 30
0.0
  0
SPLINE
  5
1cc
100
AcDbEntity
  8
Layer_1
 62
7
100
AcDbSpline
 70
8
 71
3
 72
8
 73
4
 74
0
 40
0
 40
0
 40
0
 40
0
 40
1
 40
1
 40
1
 40
1
 10
13.276916
 20
52.818132
 30
0.0
 10
13.385205
 20
52.829900
 30
0.0
 10
13.608794
 20
52.829844
 30
0.0
 10
13.711300
 20
52.818132
 30
0.0
  0
SPLINE
  5
1cd
100
AcDbEntity
  8
Layer_1
 62
7
100
AcDbSpline
 70
8
 71
3
 72
8
 73
4
 74
0
 40
0
 40
0
 40
0
 40
0
 40
1
 40
1
 40
1
 40
1
 10
13.711300
 20
52.818132
 30
0.0
 10
14.050647
 20
52.779394
 30
0.0
 10
14.346157
 20
52.652487
 30
0.0
 10
14.538505
 20
52.463209
 30
0.0
  0
SPLINE
  5
1ce
100
AcDbEntity
  8
Layer_1
 62
7
100
AcDbSpline
 70
8
 71
3
 72
8
 73
4
 74
0
 40
0
 40
0
 40
0
 40
0
 40
1
 40
1
 40
1
 40
1
 10
14.538505
 20
52.463209
 30
0.0
 10
14.660967
 20
52.342703
 30
0.0
 10
14.738384
 20
52.217690
 30
0.0
 10
14.794001
 20
52.050216
 30
0.0
  0
SPLINE
  5
1cf
100
AcDbEntity
  8
Layer_1
 62
7
100
AcDbSpline
 70
8
 71
3
 72
8
 73
4
 74
0
 40
0
 40
0
 40
0
 40
0
 40
1
 40
1
 40
1
 40
1
 10
14.794001
 20
52.050216
 30
0.0
 10
14.830765
 20
51.939515
 30
0.0
 10
14.849695
 20
51.869382
 30
0.0
 10
14.859200
 20
51.702832
 30
0.0
  0
SPLINE
  5
1d0
100
AcDbEntity
  8
Layer_1
 62
7
100
AcDbSpline
 70
8
 71
3
 72
8
 73
4
 74
0
 40
0
 40
0
 40
0
 40
0
 40
1
 40
1
 40
1
 40
1
 10
14.859200
 20
51.702832
 30
0.0
 10
14.868705
 20
51.536281
 30
0.0
 10
14.868544
 20
51.273414
 30
0.0
 10
14.866331
 20
50.778238
 30
0.0
  0
SPLINE
  5
1d1
100
AcDbEntity
  8
Layer_1
 62
7
100
AcDbSpline
 70
8
 71
3
 72
8
 73
4
 74
0
 40
0
 40
0
 40
0
 40
0
 40
1
 40
1
 40
1
 40
1
 10
14.866331
 20
50.778238
 30
0.0
 10
14.863148
 20
50.065963
 30
0.0
 10
14.860729
 20
49.956537
 30
0.0
 10
14.847995
 20
49.891538
 30
0.0
  0
SPLINE
  5
1d2
100
AcDbEntity
  8
Layer_1
 62
7
100
AcDbSpline
 70
8
 71
3
 72
8
 73
4
 74
0
 40
0
 40
0
 40
0
 40
0
 40
1
 40
1
 40
1
 40
1
 10
14.847995
 20
49.891538
 30
0.0
 10
14.795297
 20
49.622572
 30
0.0
 10
14.691373
 20
49.419767
 30
0.0
 10
14.526690
 20
49.264412
 30
0.0
  0
SPLINE
  5
1d3
100
AcDbEntity
  8
Layer_1
 62
7
100
AcDbSpline
 70
8
 71
3
 72
8
 73
4
 74
0
 40
0
 40
0
 40
0
 40
0
 40
1
 40
1
 40
1
 40
1
 10
14.526690
 20
49.264412
 30
0.0
 10
14.336000
 20
49.084526
 30
0.0
 10
13.993508
 20
48.938998
 30
0.0
 10
13.626748
 20
48.882797
 30
0.0
  0
SPLINE
  5
1d4
100
AcDbEntity
  8
Layer_1
 62
7
100
AcDbSpline
 70
8
 71
3
 72
8
 73
4
 74
0
 40
0
 40
0
 40
0
 40
0
 40
1
 40
1
 40
1
 40
1
 10
13.626748
 20
48.882797
 30
0.0
 10
13.541436
 20
48.869730
 30
0.0
 10
13.073097
 20
48.858187
 30
0.0
 10
12.979246
 20
48.866908
 30
0.0
  0
SPLINE
  5
1d5
100
AcDbEntity
  8
Layer_1
 62
7
100
AcDbSpline
 70
8
 71
3
 72
8
 73
4
 74
0
 40
0
 40
0
 40
0
 40
0
 40
1
 40
1
 40
1
 40
1
 10
12.979246
 20
48.866908
 30
0.0
 10
12.959679
 20
48.868601
 30
0.0
 10
12.888140
 20
48.874528
 30
0.0
 10
12.820121
 20
48.879749
 30
0.0
  0
SPLINE
  5
1d6
100
AcDbEntity
  8
Layer_1
 62
7
100
AcDbSpline
 70
8
 71
3
 72
8
 73
4
 74
0
 40
0
 40
0
 40
0
 40
0
 40
1
 40
1
 40
1
 40
1
 10
12.820121
 20
48.879749
 30
0.0
 10
12.752236
 20
48.884970
 30
0.0
 10
12.555517
 20
48.902750
 30
0.0
 10
12.383088
 20
48.919480
 30
0.0
  0
SPLINE
  5
1d7
100
AcDbEntity
  8
Layer_1
 62
7
100
AcDbSpline
 70
8
 71
3
 72
8
 73
4
 74
0
 40
0
 40
0
 40
0
 40
0
 40
1
 40
1
 40
1
 40
1
 10
12.383088
 20
48.919480
 30
0.0
 10
12.296861
 20
48.927834
 30
0.0
 10
12.217614
 20
48.935567
 30
0.0
 10
12.159579
 20
48.941070
 30
0.0
  0
SPLINE
  5
1d8
100
AcDbEntity
  8
Layer_1
 62
7
100
AcDbSpline
 70
8
 71
3
 72
8
 73
4
 74
0
 40
0
 40
0
 40
0
 40
0
 40
1
 40
1
 40
1
 40
1
 10
12.159579
 20
48.941070
 30
0.0
 10
12.130562
 20
48.943892
 30
0.0
 10
12.106823
 20
48.946037
 30
0.0
 10
12.090102
 20
48.947589
 30
0.0
  0
SPLINE
  5
1d9
100
AcDbEntity
  8
Layer_1
 62
7
100
AcDbSpline
 70
8
 71
3
 72
8
 73
4
 74
0
 40
0
 40
0
 40
0
 40
0
 40
1
 40
1
 40
1
 40
1
 10
12.090102
 20
48.947589
 30
0.0
 10
12.081743
 20
48.948436
 30
0.0
 10
12.075181
 20
48.949000
 30
0.0
 10
12.070544
 20
48.949565
 30
0.0
  0
SPLINE
  5
1da
100
AcDbEntity
  8
Layer_1
 62
7
100
AcDbSpline
 70
8
 71
3
 72
8
 73
4
 74
0
 40
0
 40
0
 40
0
 40
0
 40
1
 40
1
 40
1
 40
1
 10
12.070544
 20
48.949565
 30
0.0
 10
12.068823
 20
48.949666
 30
0.0
 10
12.067640
 20
48.949666
 30
0.0
 10
12.066469
 20
48.949771
 30
0.0
  0
SPLINE
  5
1db
100
AcDbEntity
  8
Layer_1
 62
7
100
AcDbSpline
 70
8
 71
3
 72
8
 73
4
 74
0
 40
0
 40
0
 40
0
 40
0
 40
1
 40
1
 40
1
 40
1
 10
12.066469
 20
48.949771
 30
0.0
 10
12.066365
 20
48.952029
 30
0.0
 10
12.066159
 20
48.955387
 30
0.0
 10
12.066074
 20
48.959762
 30
0.0
  0
SPLINE
  5
1dc
100
AcDbEntity
  8
Layer_1
 62
7
100
AcDbSpline
 70
8
 71
3
 72
8
 73
4
 74
0
 40
0
 40
0
 40
0
 40
0
 40
1
 40
1
 40
1
 40
1
 10
12.066074
 20
48.959762
 30
0.0
 10
12.065855
 20
48.968877
 30
0.0
 10
12.065679
 20
48.982452
 30
0.0
 10
12.065453
 20
49.000306
 30
0.0
  0
SPLINE
  5
1dd
100
AcDbEntity
  8
Layer_1
 62
7
100
AcDbSpline
 70
8
 71
3
 72
8
 73
4
 74
0
 40
0
 40
0
 40
0
 40
0
 40
1
 40
1
 40
1
 40
1
 10
12.065453
 20
49.000306
 30
0.0
 10
12.065030
 20
49.036035
 30
0.0
 10
12.064635
 20
49.088746
 30
0.0
 10
12.064239
 20
49.156578
 30
0.0
  0
SPLINE
  5
1de
100
AcDbEntity
  8
Layer_1
 62
7
100
AcDbSpline
 70
8
 71
3
 72
8
 73
4
 74
0
 40
0
 40
0
 40
0
 40
0
 40
1
 40
1
 40
1
 40
1
 10
12.064239
 20
49.156578
 30
0.0
 10
12.063449
 20
49.292245
 30
0.0
 10
12.062800
 20
49.488403
 30
0.0
 10
12.062207
 20
49.730527
 30
0.0
  0
SPLINE
  5
1df
100
AcDbEntity
  8
Layer_1
 62
7
100
AcDbSpline
 70
8
 71
3
 72
8
 73
4
 74
0
 40
0
 40
0
 40
0
 40
0
 40
1
 40
1
 40
1
 40
1
 10
12.062207
 20
49.730527
 30
0.0
 10
12.060994
 20
50.214776
 30
0.0
 10
12.060175
 20
50.882685
 30
0.0
 10
12.060175
 20
51.617412
 30
0.0
  0
LINE
  5
1e0
100
AcDbEntity
  8
Layer_1
 62
7
100
AcDbLine
 10
12.060175
 20
51.617412
 30
0.0
 11
12.060150
 21
54.284688
 31
0.0
  0
LINE
  5
1e1
100
AcDbEntity
  8
Layer_1
 62
7
100
AcDbLine
 10
17.023991
 20
54.284688
 30
0.0
 11
17.368320
 21
54.284688
 31
0.0
  0
LINE
  5
1e2
100
AcDbEntity
  8
Layer_1
 62
7
100
AcDbLine
 10
17.368320
 20
54.284688
 30
0.0
 11
17.712853
 21
54.284688
 31
0.0
  0
LINE
  5
1e3
100
AcDbEntity
  8
Layer_1
 62
7
100
AcDbLine
 10
17.712853
 20
54.284688
 30
0.0
 11
17.712853
 21
53.529408
 31
0.0
  0
LINE
  5
1e4
100
AcDbEntity
  8
Layer_1
 62
7
100
AcDbLine
 10
17.712853
 20
53.529408
 30
0.0
 11
17.712853
 21
52.765565
 31
0.0
  0
LINE
  5
1e5
100
AcDbEntity
  8
Layer_1
 62
7
100
AcDbLine
 10
17.712853
 20
52.765565
 30
0.0
 11
18.115657
 21
52.765565
 31
0.0
  0
SPLINE
  5
1e6
100
AcDbEntity
  8
Layer_1
 62
7
100
AcDbSpline
 70
8
 71
3
 72
8
 73
4
 74
0
 40
0
 40
0
 40
0
 40
0
 40
1
 40
1
 40
1
 40
1
 10
18.115657
 20
52.765565
 30
0.0
 10
18.273060
 20
52.765565
 30
0.0
 10
18.372504
 20
52.765000
 30
0.0
 10
18.432073
 20
52.763307
 30
0.0
  0
SPLINE
  5
1e7
100
AcDbEntity
  8
Layer_1
 62
7
100
AcDbSpline
 70
8
 71
3
 72
8
 73
4
 74
0
 40
0
 40
0
 40
0
 40
0
 40
1
 40
1
 40
1
 40
1
 10
18.432073
 20
52.763307
 30
0.0
 10
18.461857
 20
52.762460
 30
0.0
 10
18.481632
 20
52.761332
 30
0.0
 10
18.493603
 20
52.759836
 30
0.0
  0
SPLINE
  5
1e8
100
AcDbEntity
  8
Layer_1
 62
7
100
AcDbSpline
 70
8
 71
3
 72
8
 73
4
 74
0
 40
0
 40
0
 40
0
 40
0
 40
1
 40
1
 40
1
 40
1
 10
18.493603
 20
52.759836
 30
0.0
 10
18.499391
 20
52.758989
 30
0.0
 10
18.503179
 20
52.758142
 30
0.0
 10
18.505217
 20
52.757578
 30
0.0
  0
SPLINE
  5
1e9
100
AcDbEntity
  8
Layer_1
 62
7
100
AcDbSpline
 70
8
 71
3
 72
8
 73
4
 74
0
 40
0
 40
0
 40
0
 40
0
 40
1
 40
1
 40
1
 40
1
 10
18.505217
 20
52.757578
 30
0.0
 10
18.504793
 20
52.756167
 30
0.0
 10
18.504370
 20
52.755038
 30
0.0
 10
18.503382
 20
52.751454
 30
0.0
  0
SPLINE
  5
1ea
100
AcDbEntity
  8
Layer_1
 62
7
100
AcDbSpline
 70
8
 71
3
 72
8
 73
4
 74
0
 40
0
 40
0
 40
0
 40
0
 40
1
 40
1
 40
1
 40
1
 10
18.503382
 20
52.751454
 30
0.0
 10
18.501971
 20
52.746487
 30
0.0
 10
18.500128
 20
52.739544
 30
0.0
 10
18.497676
 20
52.730880
 30
0.0
  0
SPLINE
  5
1eb
100
AcDbEntity
  8
Layer_1
 62
7
100
AcDbSpline
 70
8
 71
3
 72
8
 73
4
 74
0
 40
0
 40
0
 40
0
 40
0
 40
1
 40
1
 40
1
 40
1
 10
18.497676
 20
52.730880
 30
0.0
 10
18.492773
 20
52.713523
 30
0.0
 10
18.485992
 20
52.689187
 30
0.0
 10
18.477708
 20
52.659571
 30
0.0
  0
SPLINE
  5
1ec
100
AcDbEntity
  8
Layer_1
 62
7
100
AcDbSpline
 70
8
 71
3
 72
8
 73
4
 74
0
 40
0
 40
0
 40
0
 40
0
 40
1
 40
1
 40
1
 40
1
 10
18.477708
 20
52.659571
 30
0.0
 10
18.461142
 20
52.600335
 30
0.0
 10
18.438650
 20
52.520043
 30
0.0
 10
18.414547
 20
52.433209
 30
0.0
  0
LINE
  5
1ed
100
AcDbEntity
  8
Layer_1
 62
7
100
AcDbLine
 10
18.414547
 20
52.433209
 30
0.0
 11
18.327955
 21
52.120665
 31
0.0
  0
LINE
  5
1ee
100
AcDbEntity
  8
Layer_1
 62
7
100
AcDbLine
 10
18.327955
 20
52.120665
 30
0.0
 11
18.023968
 21
52.120665
 31
0.0
  0
LINE
  5
1ef
100
AcDbEntity
  8
Layer_1
 62
7
100
AcDbLine
 10
18.023968
 20
52.120665
 30
0.0
 11
17.712238
 21
52.120665
 31
0.0
  0
LINE
  5
1f0
100
AcDbEntity
  8
Layer_1
 62
7
100
AcDbLine
 10
17.712238
 20
52.120665
 30
0.0
 11
17.715294
 21
50.974803
 31
0.0
  0
SPLINE
  5
1f1
100
AcDbEntity
  8
Layer_1
 62
7
100
AcDbSpline
 70
8
 71
3
 72
8
 73
4
 74
0
 40
0
 40
0
 40
0
 40
0
 40
1
 40
1
 40
1
 40
1
 10
17.715294
 20
50.974803
 30
0.0
 10
17.716451
 20
50.527495
 30
0.0
 10
17.717806
 20
50.239690
 30
0.0
 10
17.719979
 20
50.059376
 30
0.0
  0
SPLINE
  5
1f2
100
AcDbEntity
  8
Layer_1
 62
7
100
AcDbSpline
 70
8
 71
3
 72
8
 73
4
 74
0
 40
0
 40
0
 40
0
 40
0
 40
1
 40
1
 40
1
 40
1
 10
17.719979
 20
50.059376
 30
0.0
 10
17.721080
 20
49.969220
 30
0.0
 10
17.722265
 20
49.905928
 30
0.0
 10
17.723851
 20
49.862966
 30
0.0
  0
SPLINE
  5
1f3
100
AcDbEntity
  8
Layer_1
 62
7
100
AcDbSpline
 70
8
 71
3
 72
8
 73
4
 74
0
 40
0
 40
0
 40
0
 40
0
 40
1
 40
1
 40
1
 40
1
 10
17.723851
 20
49.862966
 30
0.0
 10
17.725432
 20
49.820003
 30
0.0
 10
17.727218
 20
49.797854
 30
0.0
 10
17.729758
 20
49.787988
 30
0.0
  0
SPLINE
  5
1f4
100
AcDbEntity
  8
Layer_1
 62
7
100
AcDbSpline
 70
8
 71
3
 72
8
 73
4
 74
0
 40
0
 40
0
 40
0
 40
0
 40
1
 40
1
 40
1
 40
1
 10
17.729758
 20
49.787988
 30
0.0
 10
17.784146
 20
49.576863
 30
0.0
 10
17.939633
 20
49.448884
 30
0.0
 10
18.200613
 20
49.399650
 30
0.0
  0
SPLINE
  5
1f5
100
AcDbEntity
  8
Layer_1
 62
7
100
AcDbSpline
 70
8
 71
3
 72
8
 73
4
 74
0
 40
0
 40
0
 40
0
 40
0
 40
1
 40
1
 40
1
 40
1
 10
18.200613
 20
49.399650
 30
0.0
 10
18.225703
 20
49.394909
 30
0.0
 10
18.239553
 20
49.391494
 30
0.0
 10
18.245233
 20
49.388248
 30
0.0
  0
SPLINE
  5
1f6
100
AcDbEntity
  8
Layer_1
 62
7
100
AcDbSpline
 70
8
 71
3
 72
8
 73
4
 74
0
 40
0
 40
0
 40
0
 40
0
 40
1
 40
1
 40
1
 40
1
 10
18.245233
 20
49.388248
 30
0.0
 10
18.248072
 20
49.386555
 30
0.0
 10
18.248750
 20
49.385708
 30
0.0
 10
18.249105
 20
49.384156
 30
0.0
  0
SPLINE
  5
1f7
100
AcDbEntity
  8
Layer_1
 62
7
100
AcDbSpline
 70
8
 71
3
 72
8
 73
4
 74
0
 40
0
 40
0
 40
0
 40
0
 40
1
 40
1
 40
1
 40
1
 10
18.249105
 20
49.384156
 30
0.0
 10
18.249472
 20
49.382745
 30
0.0
 10
18.249123
 20
49.379951
 30
0.0
 10
18.248089
 20
49.376000
 30
0.0
  0
SPLINE
  5
1f8
100
AcDbEntity
  8
Layer_1
 62
7
100
AcDbSpline
 70
8
 71
3
 72
8
 73
4
 74
0
 40
0
 40
0
 40
0
 40
0
 40
1
 40
1
 40
1
 40
1
 10
18.248089
 20
49.376000
 30
0.0
 10
18.247638
 20
49.374306
 30
0.0
 10
18.244161
 20
49.364288
 30
0.0
 10
18.238717
 20
49.349302
 30
0.0
  0
SPLINE
  5
1f9
100
AcDbEntity
  8
Layer_1
 62
7
100
AcDbSpline
 70
8
 71
3
 72
8
 73
4
 74
0
 40
0
 40
0
 40
0
 40
0
 40
1
 40
1
 40
1
 40
1
 10
18.238717
 20
49.349302
 30
0.0
 10
18.233273
 20
49.334316
 30
0.0
 10
18.225839
 20
49.313685
 30
0.0
 10
18.216712
 20
49.289197
 30
0.0
  0
SPLINE
  5
1fa
100
AcDbEntity
  8
Layer_1
 62
7
100
AcDbSpline
 70
8
 71
3
 72
8
 73
4
 74
0
 40
0
 40
0
 40
0
 40
0
 40
1
 40
1
 40
1
 40
1
 10
18.216712
 20
49.289197
 30
0.0
 10
18.198458
 20
49.240214
 30
0.0
 10
18.173798
 20
49.175241
 30
0.0
 10
18.147438
 20
49.106029
 30
0.0
  0
SPLINE
  5
1fb
100
AcDbEntity
  8
Layer_1
 62
7
100
AcDbSpline
 70
8
 71
3
 72
8
 73
4
 74
0
 40
0
 40
0
 40
0
 40
0
 40
1
 40
1
 40
1
 40
1
 10
18.147438
 20
49.106029
 30
0.0
 10
18.108555
 20
49.003929
 30
0.0
 10
18.083833
 20
48.940915
 30
0.0
 10
18.067163
 20
48.903506
 30
0.0
  0
SPLINE
  5
1fc
100
AcDbEntity
  8
Layer_1
 62
7
100
AcDbSpline
 70
8
 71
3
 72
8
 73
4
 74
0
 40
0
 40
0
 40
0
 40
0
 40
1
 40
1
 40
1
 40
1
 10
18.067163
 20
48.903506
 30
0.0
 10
18.058829
 20
48.884795
 30
0.0
 10
18.052484
 20
48.872631
 30
0.0
 10
18.047605
 20
48.865200
 30
0.0
  0
SPLINE
  5
1fd
100
AcDbEntity
  8
Layer_1
 62
7
100
AcDbSpline
 70
8
 71
3
 72
8
 73
4
 74
0
 40
0
 40
0
 40
0
 40
0
 40
1
 40
1
 40
1
 40
1
 10
18.047605
 20
48.865200
 30
0.0
 10
18.042725
 20
48.857778
 30
0.0
 10
18.039432
 20
48.855915
 30
0.0
 10
18.038435
 20
48.855830
 30
0.0
  0
SPLINE
  5
1fe
100
AcDbEntity
  8
Layer_1
 62
7
100
AcDbSpline
 70
8
 71
3
 72
8
 73
4
 74
0
 40
0
 40
0
 40
0
 40
0
 40
1
 40
1
 40
1
 40
1
 10
18.038435
 20
48.855830
 30
0.0
 10
18.034973
 20
48.855548
 30
0.0
 10
18.021889
 20
48.856395
 30
0.0
 10
18.005225
 20
48.858088
 30
0.0
  0
SPLINE
  5
1ff
100
AcDbEntity
  8
Layer_1
 62
7
100
AcDbSpline
 70
8
 71
3
 72
8
 73
4
 74
0
 40
0
 40
0
 40
0
 40
0
 40
1
 40
1
 40
1
 40
1
 10
18.005225
 20
48.858088
 30
0.0
 10
17.988563
 20
48.859781
 30
0.0
 10
17.967836
 20
48.862350
 30
0.0
 10
17.947158
 20
48.865426
 30
0.0
  0
SPLINE
  5
200
100
AcDbEntity
  8
Layer_1
 62
7
100
AcDbSpline
 70
8
 71
3
 72
8
 73
4
 74
0
 40
0
 40
0
 40
0
 40
0
 40
1
 40
1
 40
1
 40
1
 10
17.947158
 20
48.865426
 30
0.0
 10
17.690242
 20
48.903354
 30
0.0
 10
17.489385
 20
48.983804
 30
0.0
 10
17.341831
 20
49.108699
 30
0.0
  0
SPLINE
  5
201
100
AcDbEntity
  8
Layer_1
 62
7
100
AcDbSpline
 70
8
 71
3
 72
8
 73
4
 74
0
 40
0
 40
0
 40
0
 40
0
 40
1
 40
1
 40
1
 40
1
 10
17.341831
 20
49.108699
 30
0.0
 10
17.194277
 20
49.233590
 30
0.0
 10
17.099718
 20
49.403031
 30
0.0
 10
17.055569
 20
49.619690
 30
0.0
  0
SPLINE
  5
202
100
AcDbEntity
  8
Layer_1
 62
7
100
AcDbSpline
 70
8
 71
3
 72
8
 73
4
 74
0
 40
0
 40
0
 40
0
 40
0
 40
1
 40
1
 40
1
 40
1
 10
17.055569
 20
49.619690
 30
0.0
 10
17.040064
 20
49.695777
 30
0.0
 10
17.032351
 20
49.748717
 30
0.0
 10
17.028267
 20
50.063042
 30
0.0
  0
SPLINE
  5
203
100
AcDbEntity
  8
Layer_1
 62
7
100
AcDbSpline
 70
8
 71
3
 72
8
 73
4
 74
0
 40
0
 40
0
 40
0
 40
0
 40
1
 40
1
 40
1
 40
1
 10
17.028267
 20
50.063042
 30
0.0
 10
17.024183
 20
50.377364
 30
0.0
 10
17.023989
 20
50.952567
 30
0.0
 10
17.023989
 20
52.071761
 30
0.0
  0
LINE
  5
204
100
AcDbEntity
  8
Layer_1
 62
7
100
AcDbLine
 10
17.023989
 20
52.071761
 30
0.0
 11
17.023991
 21
54.284688
 31
0.0
  0
LINE
  5
205
100
AcDbEntity
  8
Layer_1
 62
7
100
AcDbLine
 10
22.318714
 20
52.838508
 30
0.0
 11
22.293856
 21
52.601348
 31
0.0
  0
SPLINE
  5
206
100
AcDbEntity
  8
Layer_1
 62
7
100
AcDbSpline
 70
8
 71
3
 72
8
 73
4
 74
0
 40
0
 40
0
 40
0
 40
0
 40
1
 40
1
 40
1
 40
1
 10
22.293856
 20
52.601348
 30
0.0
 10
22.287170
 20
52.537298
 30
0.0
 10
22.281094
 20
52.477890
 30
0.0
 10
22.276742
 20
52.433666
 30
0.0
  0
SPLINE
  5
207
100
AcDbEntity
  8
Layer_1
 62
7
100
AcDbSpline
 70
8
 71
3
 72
8
 73
4
 74
0
 40
0
 40
0
 40
0
 40
0
 40
1
 40
1
 40
1
 40
1
 10
22.276742
 20
52.433666
 30
0.0
 10
22.274569
 20
52.411540
 30
0.0
 10
22.272841
 20
52.393246
 30
0.0
 10
22.271650
 20
52.380080
 30
0.0
  0
SPLINE
  5
208
100
AcDbEntity
  8
Layer_1
 62
7
100
AcDbSpline
 70
8
 71
3
 72
8
 73
4
 74
0
 40
0
 40
0
 40
0
 40
0
 40
1
 40
1
 40
1
 40
1
 10
22.271650
 20
52.380080
 30
0.0
 10
22.271030
 20
52.373505
 30
0.0
 10
22.270719
 20
52.368255
 30
0.0
 10
22.270437
 20
52.364389
 30
0.0
  0
SPLINE
  5
209
100
AcDbEntity
  8
Layer_1
 62
7
100
AcDbSpline
 70
8
 71
3
 72
8
 73
4
 74
0
 40
0
 40
0
 40
0
 40
0
 40
1
 40
1
 40
1
 40
1
 10
22.270437
 20
52.364389
 30
0.0
 10
22.270126
 20
52.360522
 30
0.0
 10
22.269816
 20
52.358490
 30
0.0
 10
22.269816
 20
52.356853
 30
0.0
  0
SPLINE
  5
20a
100
AcDbEntity
  8
Layer_1
 62
7
100
AcDbSpline
 70
8
 71
3
 72
8
 73
4
 74
0
 40
0
 40
0
 40
0
 40
0
 40
1
 40
1
 40
1
 40
1
 10
22.269816
 20
52.356853
 30
0.0
 10
22.269915
 20
52.353495
 30
0.0
 10
22.272215
 20
52.350419
 30
0.0
 10
22.274907
 20
52.348500
 30
0.0
  0
SPLINE
  5
20b
100
AcDbEntity
  8
Layer_1
 62
7
100
AcDbSpline
 70
8
 71
3
 72
8
 73
4
 74
0
 40
0
 40
0
 40
0
 40
0
 40
1
 40
1
 40
1
 40
1
 10
22.274907
 20
52.348500
 30
0.0
 10
22.277617
 20
52.346524
 30
0.0
 10
22.280885
 20
52.345423
 30
0.0
 10
22.285098
 20
52.344436
 30
0.0
  0
SPLINE
  5
20c
100
AcDbEntity
  8
Layer_1
 62
7
100
AcDbSpline
 70
8
 71
3
 72
8
 73
4
 74
0
 40
0
 40
0
 40
0
 40
0
 40
1
 40
1
 40
1
 40
1
 10
22.285098
 20
52.344436
 30
0.0
 10
22.293506
 20
52.342460
 30
0.0
 10
22.305272
 20
52.341585
 30
0.0
 10
22.320958
 20
52.341585
 30
0.0
  0
SPLINE
  5
20d
100
AcDbEntity
  8
Layer_1
 62
7
100
AcDbSpline
 70
8
 71
3
 72
8
 73
4
 74
0
 40
0
 40
0
 40
0
 40
0
 40
1
 40
1
 40
1
 40
1
 10
22.320958
 20
52.341585
 30
0.0
 10
22.539758
 20
52.341551
 30
0.0
 10
22.802171
 20
52.281492
 30
0.0
 10
22.940750
 20
52.200186
 30
0.0
  0
SPLINE
  5
20e
100
AcDbEntity
  8
Layer_1
 62
7
100
AcDbSpline
 70
8
 71
3
 72
8
 73
4
 74
0
 40
0
 40
0
 40
0
 40
0
 40
1
 40
1
 40
1
 40
1
 10
22.940750
 20
52.200186
 30
0.0
 10
23.059721
 20
52.130387
 30
0.0
 10
23.159761
 20
51.999580
 30
0.0
 10
23.192171
 20
51.871547
 30
0.0
  0
SPLINE
  5
20f
100
AcDbEntity
  8
Layer_1
 62
7
100
AcDbSpline
 70
8
 71
3
 72
8
 73
4
 74
0
 40
0
 40
0
 40
0
 40
0
 40
1
 40
1
 40
1
 40
1
 10
23.192171
 20
51.871547
 30
0.0
 10
23.199568
 20
51.842320
 30
0.0
 10
23.206576
 20
51.799685
 30
0.0
 10
23.210713
 20
51.764376
 30
0.0
  0
SPLINE
  5
210
100
AcDbEntity
  8
Layer_1
 62
7
100
AcDbSpline
 70
8
 71
3
 72
8
 73
4
 74
0
 40
0
 40
0
 40
0
 40
0
 40
1
 40
1
 40
1
 40
1
 10
23.210713
 20
51.764376
 30
0.0
 10
23.212773
 20
51.746709
 30
0.0
 10
23.214052
 20
51.730777
 30
0.0
 10
23.214385
 20
51.719553
 30
0.0
  0
SPLINE
  5
211
100
AcDbEntity
  8
Layer_1
 62
7
100
AcDbSpline
 70
8
 71
3
 72
8
 73
4
 74
0
 40
0
 40
0
 40
0
 40
0
 40
1
 40
1
 40
1
 40
1
 10
23.214385
 20
51.719553
 30
0.0
 10
23.214593
 20
51.713937
 30
0.0
 10
23.214489
 20
51.709478
 30
0.0
 10
23.214176
 20
51.706712
 30
0.0
  0
SPLINE
  5
212
100
AcDbEntity
  8
Layer_1
 62
7
100
AcDbSpline
 70
8
 71
3
 72
8
 73
4
 74
0
 40
0
 40
0
 40
0
 40
0
 40
1
 40
1
 40
1
 40
1
 10
23.214176
 20
51.706712
 30
0.0
 10
23.213753
 20
51.706921
 30
0.0
 10
23.213555
 20
51.706994
 30
0.0
 10
23.212963
 20
51.707277
 30
0.0
  0
SPLINE
  5
213
100
AcDbEntity
  8
Layer_1
 62
7
100
AcDbSpline
 70
8
 71
3
 72
8
 73
4
 74
0
 40
0
 40
0
 40
0
 40
0
 40
1
 40
1
 40
1
 40
1
 10
23.212963
 20
51.707277
 30
0.0
 10
23.210253
 20
51.708688
 30
0.0
 10
23.206517
 20
51.710607
 30
0.0
 10
23.202165
 20
51.712978
 30
0.0
  0
SPLINE
  5
214
100
AcDbEntity
  8
Layer_1
 62
7
100
AcDbSpline
 70
8
 71
3
 72
8
 73
4
 74
0
 40
0
 40
0
 40
0
 40
0
 40
1
 40
1
 40
1
 40
1
 10
23.202165
 20
51.712978
 30
0.0
 10
23.193455
 20
51.717747
 30
0.0
 10
23.182014
 20
51.724238
 30
0.0
 10
23.170177
 20
51.731520
 30
0.0
  0
SPLINE
  5
215
100
AcDbEntity
  8
Layer_1
 62
7
100
AcDbSpline
 70
8
 71
3
 72
8
 73
4
 74
0
 40
0
 40
0
 40
0
 40
0
 40
1
 40
1
 40
1
 40
1
 10
23.170177
 20
51.731520
 30
0.0
 10
22.972366
 20
51.853234
 30
0.0
 10
22.607354
 20
51.965253
 30
0.0
 10
22.303853
 20
51.997610
 30
0.0
  0
SPLINE
  5
216
100
AcDbEntity
  8
Layer_1
 62
7
100
AcDbSpline
 70
8
 71
3
 72
8
 73
4
 74
0
 40
0
 40
0
 40
0
 40
0
 40
1
 40
1
 40
1
 40
1
 10
22.303853
 20
51.997610
 30
0.0
 10
22.159367
 20
52.013019
 30
0.0
 10
21.889034
 20
52.003960
 30
0.0
 10
21.777375
 20
51.979886
 30
0.0
  0
SPLINE
  5
217
100
AcDbEntity
  8
Layer_1
 62
7
100
AcDbSpline
 70
8
 71
3
 72
8
 73
4
 74
0
 40
0
 40
0
 40
0
 40
0
 40
1
 40
1
 40
1
 40
1
 10
21.777375
 20
51.979886
 30
0.0
 10
21.344713
 20
51.886561
 30
0.0
 10
21.096962
 20
51.640201
 30
0.0
 10
21.000496
 20
51.207489
 30
0.0
  0
SPLINE
  5
218
100
AcDbEntity
  8
Layer_1
 62
7
100
AcDbSpline
 70
8
 71
3
 72
8
 73
4
 74
0
 40
0
 40
0
 40
0
 40
0
 40
1
 40
1
 40
1
 40
1
 10
21.000496
 20
51.207489
 30
0.0
 10
20.989201
 20
51.156833
 30
0.0
 10
20.983410
 20
51.130623
 30
0.0
 10
20.980122
 20
51.054071
 30
0.0
  0
SPLINE
  5
219
100
AcDbEntity
  8
Layer_1
 62
7
100
AcDbSpline
 70
8
 71
3
 72
8
 73
4
 74
0
 40
0
 40
0
 40
0
 40
0
 40
1
 40
1
 40
1
 40
1
 10
20.980122
 20
51.054071
 30
0.0
 10
20.976837
 20
50.977518
 30
0.0
 10
20.975982
 20
50.850532
 30
0.0
 10
20.974218
 20
50.597274
 30
0.0
  0
SPLINE
  5
21a
100
AcDbEntity
  8
Layer_1
 62
7
100
AcDbSpline
 70
8
 71
3
 72
8
 73
4
 74
0
 40
0
 40
0
 40
0
 40
0
 40
1
 40
1
 40
1
 40
1
 10
20.974218
 20
50.597274
 30
0.0
 10
20.972101
 20
50.292906
 30
0.0
 10
20.972468
 20
50.121834
 30
0.0
 10
20.982366
 20
49.999892
 30
0.0
  0
SPLINE
  5
21b
100
AcDbEntity
  8
Layer_1
 62
7
100
AcDbSpline
 70
8
 71
3
 72
8
 73
4
 74
0
 40
0
 40
0
 40
0
 40
0
 40
1
 40
1
 40
1
 40
1
 10
20.982366
 20
49.999892
 30
0.0
 10
20.992266
 20
49.877949
 30
0.0
 10
21.011799
 20
49.805023
 30
0.0
 10
21.047361
 20
49.697942
 30
0.0
  0
SPLINE
  5
21c
100
AcDbEntity
  8
Layer_1
 62
7
100
AcDbSpline
 70
8
 71
3
 72
8
 73
4
 74
0
 40
0
 40
0
 40
0
 40
0
 40
1
 40
1
 40
1
 40
1
 10
21.047361
 20
49.697942
 30
0.0
 10
21.131144
 20
49.445647
 30
0.0
 10
21.279127
 20
49.254114
 30
0.0
 10
21.501101
 20
49.117676
 30
0.0
  0
SPLINE
  5
21d
100
AcDbEntity
  8
Layer_1
 62
7
100
AcDbSpline
 70
8
 71
3
 72
8
 73
4
 74
0
 40
0
 40
0
 40
0
 40
0
 40
1
 40
1
 40
1
 40
1
 10
21.501101
 20
49.117676
 30
0.0
 10
21.723075
 20
48.981239
 30
0.0
 10
22.018816
 20
48.899775
 30
0.0
 10
22.397986
 20
48.867068
 30
0.0
  0
LINE
  5
21e
100
AcDbEntity
  8
Layer_1
 62
7
100
AcDbLine
 10
22.397986
 20
48.867068
 30
0.0
 11
22.400639
 21
48.866862
 31
0.0
  0
LINE
  5
21f
100
AcDbEntity
  8
Layer_1
 62
7
100
AcDbLine
 10
22.400639
 20
48.866862
 30
0.0
 11
22.400847
 21
48.867068
 31
0.0
  0
SPLINE
  5
220
100
AcDbEntity
  8
Layer_1
 62
7
100
AcDbSpline
 70
8
 71
3
 72
8
 73
4
 74
0
 40
0
 40
0
 40
0
 40
0
 40
1
 40
1
 40
1
 40
1
 10
22.400847
 20
48.867068
 30
0.0
 10
22.453055
 20
48.862779
 30
0.0
 10
22.638544
 20
48.863512
 30
0.0
 10
22.833194
 20
48.866862
 30
0.0
  0
SPLINE
  5
221
100
AcDbEntity
  8
Layer_1
 62
7
100
AcDbSpline
 70
8
 71
3
 72
8
 73
4
 74
0
 40
0
 40
0
 40
0
 40
0
 40
1
 40
1
 40
1
 40
1
 10
22.833194
 20
48.866862
 30
0.0
 10
23.029128
 20
48.870221
 30
0.0
 10
23.231523
 20
48.876260
 30
0.0
 10
23.308328
 20
48.882752
 30
0.0
  0
SPLINE
  5
222
100
AcDbEntity
  8
Layer_1
 62
7
100
AcDbSpline
 70
8
 71
3
 72
8
 73
4
 74
0
 40
0
 40
0
 40
0
 40
0
 40
1
 40
1
 40
1
 40
1
 10
23.308328
 20
48.882752
 30
0.0
 10
23.445417
 20
48.894351
 30
0.0
 10
23.585458
 20
48.906797
 30
0.0
 10
23.693813
 20
48.916982
 30
0.0
  0
SPLINE
  5
223
100
AcDbEntity
  8
Layer_1
 62
7
100
AcDbSpline
 70
8
 71
3
 72
8
 73
4
 74
0
 40
0
 40
0
 40
0
 40
0
 40
1
 40
1
 40
1
 40
1
 10
23.693813
 20
48.916982
 30
0.0
 10
23.747990
 20
48.922062
 30
0.0
 10
23.794194
 20
48.926691
 30
0.0
 10
23.828285
 20
48.930219
 30
0.0
  0
SPLINE
  5
224
100
AcDbEntity
  8
Layer_1
 62
7
100
AcDbSpline
 70
8
 71
3
 72
8
 73
4
 74
0
 40
0
 40
0
 40
0
 40
0
 40
1
 40
1
 40
1
 40
1
 10
23.828285
 20
48.930219
 30
0.0
 10
23.845331
 20
48.931912
 30
0.0
 10
23.859420
 20
48.933492
 30
0.0
 10
23.869849
 20
48.934706
 30
0.0
  0
SPLINE
  5
225
100
AcDbEntity
  8
Layer_1
 62
7
100
AcDbSpline
 70
8
 71
3
 72
8
 73
4
 74
0
 40
0
 40
0
 40
0
 40
0
 40
1
 40
1
 40
1
 40
1
 10
23.869849
 20
48.934706
 30
0.0
 10
23.880280
 20
48.935835
 30
0.0
 10
23.886794
 20
48.936681
 30
0.0
 10
23.890019
 20
48.937246
 30
0.0
  0
LINE
  5
226
100
AcDbEntity
  8
Layer_1
 62
7
100
AcDbLine
 10
23.890019
 20
48.937246
 30
0.0
 11
23.913856
 21
48.942326
 31
0.0
  0
LINE
  5
227
100
AcDbEntity
  8
Layer_1
 62
7
100
AcDbLine
 10
23.913856
 20
48.942326
 30
0.0
 11
23.910799
 21
50.286023
 31
0.0
  0
SPLINE
  5
228
100
AcDbEntity
  8
Layer_1
 62
7
100
AcDbSpline
 70
8
 71
3
 72
8
 73
4
 74
0
 40
0
 40
0
 40
0
 40
0
 40
1
 40
1
 40
1
 40
1
 10
23.910799
 20
50.286023
 30
0.0
 10
23.908005
 20
51.502516
 30
0.0
 10
23.906408
 20
51.637026
 30
0.0
 10
23.892257
 20
51.744634
 30
0.0
  0
SPLINE
  5
229
100
AcDbEntity
  8
Layer_1
 62
7
100
AcDbSpline
 70
8
 71
3
 72
8
 73
4
 74
0
 40
0
 40
0
 40
0
 40
0
 40
1
 40
1
 40
1
 40
1
 10
23.892257
 20
51.744634
 30
0.0
 10
23.851232
 20
52.056736
 30
0.0
 10
23.762939
 20
52.269621
 30
0.0
 10
23.603958
 20
52.438588
 30
0.0
  0
SPLINE
  5
22a
100
AcDbEntity
  8
Layer_1
 62
7
100
AcDbSpline
 70
8
 71
3
 72
8
 73
4
 74
0
 40
0
 40
0
 40
0
 40
0
 40
1
 40
1
 40
1
 40
1
 10
23.603958
 20
52.438588
 30
0.0
 10
23.373345
 20
52.683689
 30
0.0
 10
23.011835
 20
52.807071
 30
0.0
 10
22.455651
 20
52.832020
 30
0.0
  0
LINE
  5
22b
100
AcDbEntity
  8
Layer_1
 62
7
100
AcDbLine
 10
22.455651
 20
52.832020
 30
0.0
 11
22.318714
 21
52.838508
 31
0.0
  0
LINE
  5
22c
100
AcDbEntity
  8
Layer_1
 62
7
100
AcDbLine
 10
22.326664
 20
52.829138
 30
0.0
 11
22.455227
 21
52.823437
 31
0.0
  0
SPLINE
  5
22d
100
AcDbEntity
  8
Layer_1
 62
7
100
AcDbSpline
 70
8
 71
3
 72
8
 73
4
 74
0
 40
0
 40
0
 40
0
 40
0
 40
1
 40
1
 40
1
 40
1
 10
22.455227
 20
52.823437
 30
0.0
 10
23.010278
 20
52.798545
 30
0.0
 10
23.368949
 20
52.675480
 30
0.0
 10
23.597422
 20
52.432653
 30
0.0
  0
SPLINE
  5
22e
100
AcDbEntity
  8
Layer_1
 62
7
100
AcDbSpline
 70
8
 71
3
 72
8
 73
4
 74
0
 40
0
 40
0
 40
0
 40
0
 40
1
 40
1
 40
1
 40
1
 10
23.597422
 20
52.432653
 30
0.0
 10
23.754986
 20
52.265191
 30
0.0
 10
23.842600
 20
52.054585
 30
0.0
 10
23.883480
 20
51.743587
 30
0.0
  0
SPLINE
  5
22f
100
AcDbEntity
  8
Layer_1
 62
7
100
AcDbSpline
 70
8
 71
3
 72
8
 73
4
 74
0
 40
0
 40
0
 40
0
 40
0
 40
1
 40
1
 40
1
 40
1
 10
23.883480
 20
51.743587
 30
0.0
 10
23.897512
 20
51.636834
 30
0.0
 10
23.899239
 20
51.502685
 30
0.0
 10
23.902019
 20
50.286200
 30
0.0
  0
LINE
  5
230
100
AcDbEntity
  8
Layer_1
 62
7
100
AcDbLine
 10
23.902019
 20
50.286200
 30
0.0
 11
23.905076
 21
48.949633
 31
0.0
  0
LINE
  5
231
100
AcDbEntity
  8
Layer_1
 62
7
100
AcDbLine
 10
23.905076
 20
48.949633
 30
0.0
 11
23.888165
 21
48.946161
 31
0.0
  0
SPLINE
  5
232
100
AcDbEntity
  8
Layer_1
 62
7
100
AcDbSpline
 70
8
 71
3
 72
8
 73
4
 74
0
 40
0
 40
0
 40
0
 40
0
 40
1
 40
1
 40
1
 40
1
 10
23.888165
 20
48.946161
 30
0.0
 10
23.886048
 20
48.945879
 30
0.0
 10
23.879173
 20
48.944750
 30
0.0
 10
23.868810
 20
48.943621
 30
0.0
  0
SPLINE
  5
233
100
AcDbEntity
  8
Layer_1
 62
7
100
AcDbSpline
 70
8
 71
3
 72
8
 73
4
 74
0
 40
0
 40
0
 40
0
 40
0
 40
1
 40
1
 40
1
 40
1
 10
23.868810
 20
48.943621
 30
0.0
 10
23.858453
 20
48.942492
 30
0.0
 10
23.844474
 20
48.940799
 30
0.0
 10
23.827450
 20
48.939134
 30
0.0
  0
SPLINE
  5
234
100
AcDbEntity
  8
Layer_1
 62
7
100
AcDbSpline
 70
8
 71
3
 72
8
 73
4
 74
0
 40
0
 40
0
 40
0
 40
0
 40
1
 40
1
 40
1
 40
1
 10
23.827450
 20
48.939134
 30
0.0
 10
23.793405
 20
48.935606
 30
0.0
 10
23.747138
 20
48.930978
 30
0.0
 10
23.692979
 20
48.925898
 30
0.0
  0
SPLINE
  5
235
100
AcDbEntity
  8
Layer_1
 62
7
100
AcDbSpline
 70
8
 71
3
 72
8
 73
4
 74
0
 40
0
 40
0
 40
0
 40
0
 40
1
 40
1
 40
1
 40
1
 10
23.692979
 20
48.925898
 30
0.0
 10
23.584658
 20
48.915709
 30
0.0
 10
23.444758
 20
48.903263
 30
0.0
 10
23.307697
 20
48.891670
 30
0.0
  0
SPLINE
  5
236
100
AcDbEntity
  8
Layer_1
 62
7
100
AcDbSpline
 70
8
 71
3
 72
8
 73
4
 74
0
 40
0
 40
0
 40
0
 40
0
 40
1
 40
1
 40
1
 40
1
 10
23.307697
 20
48.891670
 30
0.0
 10
23.231737
 20
48.885235
 30
0.0
 10
23.029031
 20
48.879139
 30
0.0
 10
22.833174
 20
48.875781
 30
0.0
  0
SPLINE
  5
237
100
AcDbEntity
  8
Layer_1
 62
7
100
AcDbSpline
 70
8
 71
3
 72
8
 73
4
 74
0
 40
0
 40
0
 40
0
 40
0
 40
1
 40
1
 40
1
 40
1
 10
22.833174
 20
48.875781
 30
0.0
 10
22.637318
 20
48.872422
 30
0.0
 10
22.447346
 20
48.871773
 30
0.0
 10
22.398586
 20
48.875987
 30
0.0
  0
LINE
  5
238
100
AcDbEntity
  8
Layer_1
 62
7
100
AcDbLine
 10
22.398586
 20
48.875987
 30
0.0
 11
22.396159
 21
48.876269
 31
0.0
  0
SPLINE
  5
239
100
AcDbEntity
  8
Layer_1
 62
7
100
AcDbSpline
 70
8
 71
3
 72
8
 73
4
 74
0
 40
0
 40
0
 40
0
 40
0
 40
1
 40
1
 40
1
 40
1
 10
22.396159
 20
48.876269
 30
0.0
 10
22.019150
 20
48.909083
 30
0.0
 10
21.725573
 20
48.989971
 30
0.0
 10
21.505778
 20
49.125068
 30
0.0
  0
SPLINE
  5
23a
100
AcDbEntity
  8
Layer_1
 62
7
100
AcDbSpline
 70
8
 71
3
 72
8
 73
4
 74
0
 40
0
 40
0
 40
0
 40
0
 40
1
 40
1
 40
1
 40
1
 10
21.505778
 20
49.125068
 30
0.0
 10
21.285451
 20
49.260495
 30
0.0
 10
21.138931
 20
49.450238
 30
0.0
 10
21.055706
 20
49.700852
 30
0.0
  0
SPLINE
  5
23b
100
AcDbEntity
  8
Layer_1
 62
7
100
AcDbSpline
 70
8
 71
3
 72
8
 73
4
 74
0
 40
0
 40
0
 40
0
 40
0
 40
1
 40
1
 40
1
 40
1
 10
21.055706
 20
49.700852
 30
0.0
 10
21.020217
 20
49.807712
 30
0.0
 10
21.000968
 20
49.879261
 30
0.0
 10
20.991119
 20
50.000560
 30
0.0
  0
SPLINE
  5
23c
100
AcDbEntity
  8
Layer_1
 62
7
100
AcDbSpline
 70
8
 71
3
 72
8
 73
4
 74
0
 40
0
 40
0
 40
0
 40
0
 40
1
 40
1
 40
1
 40
1
 10
20.991119
 20
50.000560
 30
0.0
 10
20.981272
 20
50.121860
 30
0.0
 10
20.980843
 20
50.292790
 30
0.0
 10
20.982971
 20
50.597127
 30
0.0
  0
SPLINE
  5
23d
100
AcDbEntity
  8
Layer_1
 62
7
100
AcDbSpline
 70
8
 71
3
 72
8
 73
4
 74
0
 40
0
 40
0
 40
0
 40
0
 40
1
 40
1
 40
1
 40
1
 10
20.982971
 20
50.597127
 30
0.0
 10
20.984721
 20
50.850385
 30
0.0
 10
20.985624
 20
50.977515
 30
0.0
 10
20.988875
 20
51.053718
 30
0.0
  0
SPLINE
  5
23e
100
AcDbEntity
  8
Layer_1
 62
7
100
AcDbSpline
 70
8
 71
3
 72
8
 73
4
 74
0
 40
0
 40
0
 40
0
 40
0
 40
1
 40
1
 40
1
 40
1
 10
20.988875
 20
51.053718
 30
0.0
 10
20.992152
 20
51.129921
 30
0.0
 10
20.997751
 20
51.155064
 30
0.0
 10
21.009046
 20
51.205711
 30
0.0
  0
SPLINE
  5
23f
100
AcDbEntity
  8
Layer_1
 62
7
100
AcDbSpline
 70
8
 71
3
 72
8
 73
4
 74
0
 40
0
 40
0
 40
0
 40
0
 40
1
 40
1
 40
1
 40
1
 10
21.009046
 20
51.205711
 30
0.0
 10
21.104971
 20
51.635996
 30
0.0
 10
21.348980
 20
51.878588
 30
0.0
 10
21.779201
 20
51.971386
 30
0.0
  0
SPLINE
  5
240
100
AcDbEntity
  8
Layer_1
 62
7
100
AcDbSpline
 70
8
 71
3
 72
8
 73
4
 74
0
 40
0
 40
0
 40
0
 40
0
 40
1
 40
1
 40
1
 40
1
 10
21.779201
 20
51.971386
 30
0.0
 10
21.888402
 20
51.994951
 30
0.0
 10
22.159870
 20
52.004146
 30
0.0
 10
22.302826
 20
51.988912
 30
0.0
  0
SPLINE
  5
241
100
AcDbEntity
  8
Layer_1
 62
7
100
AcDbSpline
 70
8
 71
3
 72
8
 73
4
 74
0
 40
0
 40
0
 40
0
 40
0
 40
1
 40
1
 40
1
 40
1
 10
22.302826
 20
51.988912
 30
0.0
 10
22.604930
 20
51.956705
 30
0.0
 10
22.969753
 20
51.844476
 30
0.0
 10
23.165483
 20
51.724044
 30
0.0
  0
SPLINE
  5
242
100
AcDbEntity
  8
Layer_1
 62
7
100
AcDbSpline
 70
8
 71
3
 72
8
 73
4
 74
0
 40
0
 40
0
 40
0
 40
0
 40
1
 40
1
 40
1
 40
1
 10
23.165483
 20
51.724044
 30
0.0
 10
23.177432
 20
51.716678
 30
0.0
 10
23.188986
 20
51.709961
 30
0.0
 10
23.197878
 20
51.705106
 30
0.0
  0
SPLINE
  5
243
100
AcDbEntity
  8
Layer_1
 62
7
100
AcDbSpline
 70
8
 71
3
 72
8
 73
4
 74
0
 40
0
 40
0
 40
0
 40
0
 40
1
 40
1
 40
1
 40
1
 10
23.197878
 20
51.705106
 30
0.0
 10
23.202323
 20
51.702566
 30
0.0
 10
23.206131
 20
51.700817
 30
0.0
 10
23.209085
 20
51.699406
 30
0.0
  0
SPLINE
  5
244
100
AcDbEntity
  8
Layer_1
 62
7
100
AcDbSpline
 70
8
 71
3
 72
8
 73
4
 74
0
 40
0
 40
0
 40
0
 40
0
 40
1
 40
1
 40
1
 40
1
 10
23.209085
 20
51.699406
 30
0.0
 10
23.210553
 20
51.698559
 30
0.0
 10
23.211851
 20
51.698277
 30
0.0
 10
23.212955
 20
51.697712
 30
0.0
  0
SPLINE
  5
245
100
AcDbEntity
  8
Layer_1
 62
7
100
AcDbSpline
 70
8
 71
3
 72
8
 73
4
 74
0
 40
0
 40
0
 40
0
 40
0
 40
1
 40
1
 40
1
 40
1
 10
23.212955
 20
51.697712
 30
0.0
 10
23.214055
 20
51.697430
 30
0.0
 10
23.214563
 20
51.696583
 30
0.0
 10
23.216418
 20
51.696583
 30
0.0
  0
SPLINE
  5
246
100
AcDbEntity
  8
Layer_1
 62
7
100
AcDbSpline
 70
8
 71
3
 72
8
 73
4
 74
0
 40
0
 40
0
 40
0
 40
0
 40
1
 40
1
 40
1
 40
1
 10
23.216418
 20
51.696583
 30
0.0
 10
23.216522
 20
51.696583
 30
0.0
 10
23.218534
 20
51.697148
 30
0.0
 10
23.218647
 20
51.697148
 30
0.0
  0
SPLINE
  5
247
100
AcDbEntity
  8
Layer_1
 62
7
100
AcDbSpline
 70
8
 71
3
 72
8
 73
4
 74
0
 40
0
 40
0
 40
0
 40
0
 40
1
 40
1
 40
1
 40
1
 10
23.218647
 20
51.697148
 30
0.0
 10
23.218705
 20
51.697176
 30
0.0
 10
23.219381
 20
51.697430
 30
0.0
 10
23.219691
 20
51.697712
 30
0.0
  0
SPLINE
  5
248
100
AcDbEntity
  8
Layer_1
 62
7
100
AcDbSpline
 70
8
 71
3
 72
8
 73
4
 74
0
 40
0
 40
0
 40
0
 40
0
 40
1
 40
1
 40
1
 40
1
 10
23.219691
 20
51.697712
 30
0.0
 10
23.220002
 20
51.697921
 30
0.0
 10
23.220115
 20
51.697994
 30
0.0
 10
23.220312
 20
51.698277
 30
0.0
  0
SPLINE
  5
249
100
AcDbEntity
  8
Layer_1
 62
7
100
AcDbSpline
 70
8
 71
3
 72
8
 73
4
 74
0
 40
0
 40
0
 40
0
 40
0
 40
1
 40
1
 40
1
 40
1
 10
23.220312
 20
51.698277
 30
0.0
 10
23.221159
 20
51.699123
 30
0.0
 10
23.221441
 20
51.699688
 30
0.0
 10
23.221752
 20
51.700534
 30
0.0
  0
SPLINE
  5
24a
100
AcDbEntity
  8
Layer_1
 62
7
100
AcDbSpline
 70
8
 71
3
 72
8
 73
4
 74
0
 40
0
 40
0
 40
0
 40
0
 40
1
 40
1
 40
1
 40
1
 10
23.221752
 20
51.700534
 30
0.0
 10
23.222372
 20
51.701946
 30
0.0
 10
23.222796
 20
51.703611
 30
0.0
 10
23.222965
 20
51.705417
 30
0.0
  0
SPLINE
  5
24b
100
AcDbEntity
  8
Layer_1
 62
7
100
AcDbSpline
 70
8
 71
3
 72
8
 73
4
 74
0
 40
0
 40
0
 40
0
 40
0
 40
1
 40
1
 40
1
 40
1
 10
23.222965
 20
51.705417
 30
0.0
 10
23.223388
 20
51.709029
 30
0.0
 10
23.223388
 20
51.713630
 30
0.0
 10
23.223174
 20
51.719472
 30
0.0
  0
SPLINE
  5
24c
100
AcDbEntity
  8
Layer_1
 62
7
100
AcDbSpline
 70
8
 71
3
 72
8
 73
4
 74
0
 40
0
 40
0
 40
0
 40
0
 40
1
 40
1
 40
1
 40
1
 10
23.223174
 20
51.719472
 30
0.0
 10
23.222863
 20
51.731156
 30
0.0
 10
23.221593
 20
51.747299
 30
0.0
 10
23.219502
 20
51.765113
 30
0.0
  0
SPLINE
  5
24d
100
AcDbEntity
  8
Layer_1
 62
7
100
AcDbSpline
 70
8
 71
3
 72
8
 73
4
 74
0
 40
0
 40
0
 40
0
 40
0
 40
1
 40
1
 40
1
 40
1
 10
23.219502
 20
51.765113
 30
0.0
 10
23.215328
 20
51.800749
 30
0.0
 10
23.208332
 20
51.843584
 30
0.0
 10
23.200760
 20
51.873506
 30
0.0
  0
SPLINE
  5
24e
100
AcDbEntity
  8
Layer_1
 62
7
100
AcDbSpline
 70
8
 71
3
 72
8
 73
4
 74
0
 40
0
 40
0
 40
0
 40
0
 40
1
 40
1
 40
1
 40
1
 10
23.200760
 20
51.873506
 30
0.0
 10
23.167644
 20
52.004324
 30
0.0
 10
23.066511
 20
52.136305
 30
0.0
 10
22.945263
 20
52.207442
 30
0.0
  0
SPLINE
  5
24f
100
AcDbEntity
  8
Layer_1
 62
7
100
AcDbSpline
 70
8
 71
3
 72
8
 73
4
 74
0
 40
0
 40
0
 40
0
 40
0
 40
1
 40
1
 40
1
 40
1
 10
22.945263
 20
52.207442
 30
0.0
 10
22.804141
 20
52.290238
 30
0.0
 10
22.541395
 20
52.350029
 30
0.0
 10
22.320988
 20
52.350063
 30
0.0
  0
SPLINE
  5
250
100
AcDbEntity
  8
Layer_1
 62
7
100
AcDbSpline
 70
8
 71
3
 72
8
 73
4
 74
0
 40
0
 40
0
 40
0
 40
0
 40
1
 40
1
 40
1
 40
1
 10
22.320988
 20
52.350063
 30
0.0
 10
22.305646
 20
52.350066
 30
0.0
 10
22.294295
 20
52.350910
 30
0.0
 10
22.287166
 20
52.352603
 30
0.0
  0
SPLINE
  5
251
100
AcDbEntity
  8
Layer_1
 62
7
100
AcDbSpline
 70
8
 71
3
 72
8
 73
4
 74
0
 40
0
 40
0
 40
0
 40
0
 40
1
 40
1
 40
1
 40
1
 10
22.287166
 20
52.352603
 30
0.0
 10
22.283599
 20
52.353450
 30
0.0
 10
22.281053
 20
52.354579
 30
0.0
 10
22.279831
 20
52.355454
 30
0.0
  0
SPLINE
  5
252
100
AcDbEntity
  8
Layer_1
 62
7
100
AcDbSpline
 70
8
 71
3
 72
8
 73
4
 74
0
 40
0
 40
0
 40
0
 40
0
 40
1
 40
1
 40
1
 40
1
 10
22.279831
 20
52.355454
 30
0.0
 10
22.278617
 20
52.356300
 30
0.0
 10
22.278787
 20
52.356300
 30
0.0
 10
22.278787
 20
52.356583
 30
0.0
  0
LINE
  5
253
100
AcDbEntity
  8
Layer_1
 62
7
100
AcDbLine
 10
22.278787
 20
52.356583
 30
0.0
 11
22.278787
 21
52.356791
 31
0.0
  0
SPLINE
  5
254
100
AcDbEntity
  8
Layer_1
 62
7
100
AcDbSpline
 70
8
 71
3
 72
8
 73
4
 74
0
 40
0
 40
0
 40
0
 40
0
 40
1
 40
1
 40
1
 40
1
 10
22.278787
 20
52.356791
 30
0.0
 10
22.278792
 20
52.356687
 30
0.0
 10
22.278891
 20
52.359331
 30
0.0
 10
22.279210
 20
52.363113
 30
0.0
  0
SPLINE
  5
255
100
AcDbEntity
  8
Layer_1
 62
7
100
AcDbSpline
 70
8
 71
3
 72
8
 73
4
 74
0
 40
0
 40
0
 40
0
 40
0
 40
1
 40
1
 40
1
 40
1
 10
22.279210
 20
52.363113
 30
0.0
 10
22.279521
 20
52.366923
 30
0.0
 10
22.279831
 20
52.372229
 30
0.0
 10
22.280424
 20
52.378805
 30
0.0
  0
SPLINE
  5
256
100
AcDbEntity
  8
Layer_1
 62
7
100
AcDbSpline
 70
8
 71
3
 72
8
 73
4
 74
0
 40
0
 40
0
 40
0
 40
0
 40
1
 40
1
 40
1
 40
1
 10
22.280424
 20
52.378805
 30
0.0
 10
22.281609
 20
52.391928
 30
0.0
 10
22.283542
 20
52.410292
 30
0.0
 10
22.285724
 20
52.432390
 30
0.0
  0
SPLINE
  5
257
100
AcDbEntity
  8
Layer_1
 62
7
100
AcDbSpline
 70
8
 71
3
 72
8
 73
4
 74
0
 40
0
 40
0
 40
0
 40
0
 40
1
 40
1
 40
1
 40
1
 10
22.285724
 20
52.432390
 30
0.0
 10
22.290073
 20
52.476589
 30
0.0
 10
22.295946
 20
52.536036
 30
0.0
 10
22.302635
 20
52.600073
 30
0.0
  0
LINE
  5
258
100
AcDbEntity
  8
Layer_1
 62
7
100
AcDbLine
 10
22.302635
 20
52.600073
 30
0.0
 11
22.326664
 21
52.829138
 31
0.0
  0
SPLINE
  5
259
100
AcDbEntity
  8
Layer_1
 62
7
100
AcDbSpline
 70
8
 71
3
 72
8
 73
4
 74
0
 40
0
 40
0
 40
0
 40
0
 40
1
 40
1
 40
1
 40
1
 10
20.223812
 20
52.810991
 30
0.0
 10
20.102084
 20
52.789232
 30
0.0
 10
19.978989
 20
52.751203
 30
0.0
 10
19.857681
 20
52.697913
 30
0.0
  0
SPLINE
  5
25a
100
AcDbEntity
  8
Layer_1
 62
7
100
AcDbSpline
 70
8
 71
3
 72
8
 73
4
 74
0
 40
0
 40
0
 40
0
 40
0
 40
1
 40
1
 40
1
 40
1
 10
19.857681
 20
52.697913
 30
0.0
 10
19.829284
 20
52.685439
 30
0.0
 10
19.807000
 20
52.676662
 30
0.0
 10
19.791465
 20
52.671836
 30
0.0
  0
SPLINE
  5
25b
100
AcDbEntity
  8
Layer_1
 62
7
100
AcDbSpline
 70
8
 71
3
 72
8
 73
4
 74
0
 40
0
 40
0
 40
0
 40
0
 40
1
 40
1
 40
1
 40
1
 10
19.791465
 20
52.671836
 30
0.0
 10
19.783693
 20
52.669296
 30
0.0
 10
19.777526
 20
52.667998
 30
0.0
 10
19.773535
 20
52.667546
 30
0.0
  0
SPLINE
  5
25c
100
AcDbEntity
  8
Layer_1
 62
7
100
AcDbSpline
 70
8
 71
3
 72
8
 73
4
 74
0
 40
0
 40
0
 40
0
 40
0
 40
1
 40
1
 40
1
 40
1
 10
19.773535
 20
52.667546
 30
0.0
 10
19.771532
 20
52.667337
 30
0.0
 10
19.770154
 20
52.667442
 30
0.0
 10
19.769457
 20
52.667546
 30
0.0
  0
SPLINE
  5
25d
100
AcDbEntity
  8
Layer_1
 62
7
100
AcDbSpline
 70
8
 71
3
 72
8
 73
4
 74
0
 40
0
 40
0
 40
0
 40
0
 40
1
 40
1
 40
1
 40
1
 10
19.769457
 20
52.667546
 30
0.0
 10
19.769034
 20
52.668393
 30
0.0
 10
19.767933
 20
52.670425
 30
0.0
 10
19.766804
 20
52.673671
 30
0.0
  0
SPLINE
  5
25e
100
AcDbEntity
  8
Layer_1
 62
7
100
AcDbSpline
 70
8
 71
3
 72
8
 73
4
 74
0
 40
0
 40
0
 40
0
 40
0
 40
1
 40
1
 40
1
 40
1
 10
19.766804
 20
52.673671
 30
0.0
 10
19.765591
 20
52.677114
 30
0.0
 10
19.764208
 20
52.681573
 30
0.0
 10
19.762726
 20
52.686709
 30
0.0
  0
SPLINE
  5
25f
100
AcDbEntity
  8
Layer_1
 62
7
100
AcDbSpline
 70
8
 71
3
 72
8
 73
4
 74
0
 40
0
 40
0
 40
0
 40
0
 40
1
 40
1
 40
1
 40
1
 10
19.762726
 20
52.686709
 30
0.0
 10
19.759754
 20
52.696982
 30
0.0
 10
19.756489
 20
52.709908
 30
0.0
 10
19.753557
 20
52.722975
 30
0.0
  0
LINE
  5
260
100
AcDbEntity
  8
Layer_1
 62
7
100
AcDbLine
 10
19.753557
 20
52.722975
 30
0.0
 11
19.742147
 21
52.774319
 31
0.0
  0
LINE
  5
261
100
AcDbEntity
  8
Layer_1
 62
7
100
AcDbLine
 10
19.742147
 20
52.774319
 30
0.0
 11
19.412282
 21
52.774319
 31
0.0
  0
LINE
  5
262
100
AcDbEntity
  8
Layer_1
 62
7
100
AcDbLine
 10
19.412282
 20
52.774319
 30
0.0
 11
19.081809
 21
52.774319
 31
0.0
  0
LINE
  5
263
100
AcDbEntity
  8
Layer_1
 62
7
100
AcDbLine
 10
19.081809
 20
52.774319
 30
0.0
 11
19.081809
 21
50.857692
 31
0.0
  0
LINE
  5
264
100
AcDbEntity
  8
Layer_1
 62
7
100
AcDbLine
 10
19.081809
 20
50.857692
 30
0.0
 11
19.081809
 21
48.941265
 31
0.0
  0
LINE
  5
265
100
AcDbEntity
  8
Layer_1
 62
7
100
AcDbLine
 10
19.081809
 20
48.941265
 30
0.0
 11
19.430620
 21
48.941265
 31
0.0
  0
LINE
  5
266
100
AcDbEntity
  8
Layer_1
 62
7
100
AcDbLine
 10
19.430620
 20
48.941265
 30
0.0
 11
19.779635
 21
48.941265
 31
0.0
  0
LINE
  5
267
100
AcDbEntity
  8
Layer_1
 62
7
100
AcDbLine
 10
19.779635
 20
48.941265
 30
0.0
 11
19.779635
 21
50.294743
 31
0.0
  0
SPLINE
  5
268
100
AcDbEntity
  8
Layer_1
 62
7
100
AcDbSpline
 70
8
 71
3
 72
8
 73
4
 74
0
 40
0
 40
0
 40
0
 40
0
 40
1
 40
1
 40
1
 40
1
 10
19.779635
 20
50.294743
 30
0.0
 10
19.779719
 20
51.035227
 30
0.0
 10
19.779127
 20
51.387375
 30
0.0
 10
19.785539
 20
51.568965
 30
0.0
  0
SPLINE
  5
269
100
AcDbEntity
  8
Layer_1
 62
7
100
AcDbSpline
 70
8
 71
3
 72
8
 73
4
 74
0
 40
0
 40
0
 40
0
 40
0
 40
1
 40
1
 40
1
 40
1
 10
19.785539
 20
51.568965
 30
0.0
 10
19.788754
 20
51.659759
 30
0.0
 10
19.793853
 20
51.707883
 30
0.0
 10
19.801431
 20
51.740314
 30
0.0
  0
SPLINE
  5
26a
100
AcDbEntity
  8
Layer_1
 62
7
100
AcDbSpline
 70
8
 71
3
 72
8
 73
4
 74
0
 40
0
 40
0
 40
0
 40
0
 40
1
 40
1
 40
1
 40
1
 10
19.801431
 20
51.740314
 30
0.0
 10
19.809006
 20
51.772744
 30
0.0
 10
19.819042
 20
51.789742
 30
0.0
 10
19.833215
 20
51.819367
 30
0.0
  0
SPLINE
  5
26b
100
AcDbEntity
  8
Layer_1
 62
7
100
AcDbSpline
 70
8
 71
3
 72
8
 73
4
 74
0
 40
0
 40
0
 40
0
 40
0
 40
1
 40
1
 40
1
 40
1
 10
19.833215
 20
51.819367
 30
0.0
 10
19.854413
 20
51.863681
 30
0.0
 10
19.881667
 20
51.899541
 30
0.0
 10
19.936922
 20
51.955265
 30
0.0
  0
SPLINE
  5
26c
100
AcDbEntity
  8
Layer_1
 62
7
100
AcDbSpline
 70
8
 71
3
 72
8
 73
4
 74
0
 40
0
 40
0
 40
0
 40
0
 40
1
 40
1
 40
1
 40
1
 10
19.936922
 20
51.955265
 30
0.0
 10
20.001741
 20
52.020637
 30
0.0
 10
20.024036
 20
52.036703
 30
0.0
 10
20.103789
 20
52.075882
 30
0.0
  0
SPLINE
  5
26d
100
AcDbEntity
  8
Layer_1
 62
7
100
AcDbSpline
 70
8
 71
3
 72
8
 73
4
 74
0
 40
0
 40
0
 40
0
 40
0
 40
1
 40
1
 40
1
 40
1
 10
20.103789
 20
52.075882
 30
0.0
 10
20.335100
 20
52.189515
 30
0.0
 10
20.624276
 20
52.202633
 30
0.0
 10
20.883520
 20
52.111131
 30
0.0
  0
SPLINE
  5
26e
100
AcDbEntity
  8
Layer_1
 62
7
100
AcDbSpline
 70
8
 71
3
 72
8
 73
4
 74
0
 40
0
 40
0
 40
0
 40
0
 40
1
 40
1
 40
1
 40
1
 10
20.883520
 20
52.111131
 30
0.0
 10
20.904362
 20
52.103765
 30
0.0
 10
20.924056
 20
52.097867
 30
0.0
 10
20.938940
 20
52.094028
 30
0.0
  0
SPLINE
  5
26f
100
AcDbEntity
  8
Layer_1
 62
7
100
AcDbSpline
 70
8
 71
3
 72
8
 73
4
 74
0
 40
0
 40
0
 40
0
 40
0
 40
1
 40
1
 40
1
 40
1
 10
20.938940
 20
52.094028
 30
0.0
 10
20.946379
 20
52.092053
 30
0.0
 10
20.952495
 20
52.090670
 30
0.0
 10
20.957276
 20
52.089964
 30
0.0
  0
SPLINE
  5
270
100
AcDbEntity
  8
Layer_1
 62
7
100
AcDbSpline
 70
8
 71
3
 72
8
 73
4
 74
0
 40
0
 40
0
 40
0
 40
0
 40
1
 40
1
 40
1
 40
1
 10
20.957276
 20
52.089964
 30
0.0
 10
20.959675
 20
52.089682
 30
0.0
 10
20.961814
 20
52.089400
 30
0.0
 10
20.963586
 20
52.089400
 30
0.0
  0
SPLINE
  5
271
100
AcDbEntity
  8
Layer_1
 62
7
100
AcDbSpline
 70
8
 71
3
 72
8
 73
4
 74
0
 40
0
 40
0
 40
0
 40
0
 40
1
 40
1
 40
1
 40
1
 10
20.963586
 20
52.089400
 30
0.0
 10
20.964518
 20
52.089408
 30
0.0
 10
20.965139
 20
52.089609
 30
0.0
 10
20.966042
 20
52.089682
 30
0.0
  0
SPLINE
  5
272
100
AcDbEntity
  8
Layer_1
 62
7
100
AcDbSpline
 70
8
 71
3
 72
8
 73
4
 74
0
 40
0
 40
0
 40
0
 40
0
 40
1
 40
1
 40
1
 40
1
 10
20.966042
 20
52.089682
 30
0.0
 10
20.966465
 20
52.089781
 30
0.0
 10
20.967142
 20
52.089891
 30
0.0
 10
20.967679
 20
52.089964
 30
0.0
  0
SPLINE
  5
273
100
AcDbEntity
  8
Layer_1
 62
7
100
AcDbSpline
 70
8
 71
3
 72
8
 73
4
 74
0
 40
0
 40
0
 40
0
 40
0
 40
1
 40
1
 40
1
 40
1
 10
20.967679
 20
52.089964
 30
0.0
 10
20.967887
 20
52.090069
 30
0.0
 10
20.968187
 20
52.090173
 30
0.0
 10
20.968525
 20
52.090247
 30
0.0
  0
SPLINE
  5
274
100
AcDbEntity
  8
Layer_1
 62
7
100
AcDbSpline
 70
8
 71
3
 72
8
 73
4
 74
0
 40
0
 40
0
 40
0
 40
0
 40
1
 40
1
 40
1
 40
1
 10
20.968525
 20
52.090247
 30
0.0
 10
20.968836
 20
52.090455
 30
0.0
 10
20.969259
 20
52.090811
 30
0.0
 10
20.969372
 20
52.090811
 30
0.0
  0
SPLINE
  5
275
100
AcDbEntity
  8
Layer_1
 62
7
100
AcDbSpline
 70
8
 71
3
 72
8
 73
4
 74
0
 40
0
 40
0
 40
0
 40
0
 40
1
 40
1
 40
1
 40
1
 10
20.969372
 20
52.090811
 30
0.0
 10
20.969400
 20
52.090839
 30
0.0
 10
20.969880
 20
52.091376
 30
0.0
 10
20.969993
 20
52.091658
 30
0.0
  0
SPLINE
  5
276
100
AcDbEntity
  8
Layer_1
 62
7
100
AcDbSpline
 70
8
 71
3
 72
8
 73
4
 74
0
 40
0
 40
0
 40
0
 40
0
 40
1
 40
1
 40
1
 40
1
 10
20.969993
 20
52.091658
 30
0.0
 10
20.970097
 20
52.091867
 30
0.0
 10
20.970097
 20
52.091940
 30
0.0
 10
20.970201
 20
52.092222
 30
0.0
  0
SPLINE
  5
277
100
AcDbEntity
  8
Layer_1
 62
7
100
AcDbSpline
 70
8
 71
3
 72
8
 73
4
 74
0
 40
0
 40
0
 40
0
 40
0
 40
1
 40
1
 40
1
 40
1
 10
20.970201
 20
52.092222
 30
0.0
 10
20.970410
 20
52.092504
 30
0.0
 10
20.970709
 20
52.092787
 30
0.0
 10
20.970822
 20
52.093069
 30
0.0
  0
SPLINE
  5
278
100
AcDbEntity
  8
Layer_1
 62
7
100
AcDbSpline
 70
8
 71
3
 72
8
 73
4
 74
0
 40
0
 40
0
 40
0
 40
0
 40
1
 40
1
 40
1
 40
1
 10
20.970822
 20
52.093069
 30
0.0
 10
20.971133
 20
52.093633
 30
0.0
 10
20.971330
 20
52.094480
 30
0.0
 10
20.971669
 20
52.095044
 30
0.0
  0
SPLINE
  5
279
100
AcDbEntity
  8
Layer_1
 62
7
100
AcDbSpline
 70
8
 71
3
 72
8
 73
4
 74
0
 40
0
 40
0
 40
0
 40
0
 40
1
 40
1
 40
1
 40
1
 10
20.971669
 20
52.095044
 30
0.0
 10
20.972177
 20
52.096456
 30
0.0
 10
20.972713
 20
52.098600
 30
0.0
 10
20.973503
 20
52.101169
 30
0.0
  0
SPLINE
  5
27a
100
AcDbEntity
  8
Layer_1
 62
7
100
AcDbSpline
 70
8
 71
3
 72
8
 73
4
 74
0
 40
0
 40
0
 40
0
 40
0
 40
1
 40
1
 40
1
 40
1
 10
20.973503
 20
52.101169
 30
0.0
 10
20.975112
 20
52.106305
 30
0.0
 10
20.977279
 20
52.113502
 30
0.0
 10
20.979825
 20
52.122561
 30
0.0
  0
SPLINE
  5
27b
100
AcDbEntity
  8
Layer_1
 62
7
100
AcDbSpline
 70
8
 71
3
 72
8
 73
4
 74
0
 40
0
 40
0
 40
0
 40
0
 40
1
 40
1
 40
1
 40
1
 10
20.979825
 20
52.122561
 30
0.0
 10
20.984916
 20
52.140708
 30
0.0
 10
20.991786
 20
52.166139
 30
0.0
 10
20.999792
 20
52.196520
 30
0.0
  0
SPLINE
  5
27c
100
AcDbEntity
  8
Layer_1
 62
7
100
AcDbSpline
 70
8
 71
3
 72
8
 73
4
 74
0
 40
0
 40
0
 40
0
 40
0
 40
1
 40
1
 40
1
 40
1
 10
20.999792
 20
52.196520
 30
0.0
 10
21.015806
 20
52.257277
 30
0.0
 10
21.036381
 20
52.337705
 30
0.0
 10
21.056637
 20
52.417991
 30
0.0
  0
SPLINE
  5
27d
100
AcDbEntity
  8
Layer_1
 62
7
100
AcDbSpline
 70
8
 71
3
 72
8
 73
4
 74
0
 40
0
 40
0
 40
0
 40
0
 40
1
 40
1
 40
1
 40
1
 10
21.056637
 20
52.417991
 30
0.0
 10
21.076892
 20
52.498278
 30
0.0
 10
21.096875
 20
52.578389
 30
0.0
 10
21.111445
 20
52.638850
 30
0.0
  0
SPLINE
  5
27e
100
AcDbEntity
  8
Layer_1
 62
7
100
AcDbSpline
 70
8
 71
3
 72
8
 73
4
 74
0
 40
0
 40
0
 40
0
 40
0
 40
1
 40
1
 40
1
 40
1
 10
21.111445
 20
52.638850
 30
0.0
 10
21.118726
 20
52.669082
 30
0.0
 10
21.124551
 20
52.694482
 30
0.0
 10
21.128558
 20
52.712403
 30
0.0
  0
SPLINE
  5
27f
100
AcDbEntity
  8
Layer_1
 62
7
100
AcDbSpline
 70
8
 71
3
 72
8
 73
4
 74
0
 40
0
 40
0
 40
0
 40
0
 40
1
 40
1
 40
1
 40
1
 10
21.128558
 20
52.712403
 30
0.0
 10
21.130562
 20
52.721377
 30
0.0
 10
21.132083
 20
52.728376
 30
0.0
 10
21.133043
 20
52.733400
 30
0.0
  0
SPLINE
  5
280
100
AcDbEntity
  8
Layer_1
 62
7
100
AcDbSpline
 70
8
 71
3
 72
8
 73
4
 74
0
 40
0
 40
0
 40
0
 40
0
 40
1
 40
1
 40
1
 40
1
 10
21.133043
 20
52.733400
 30
0.0
 10
21.133551
 20
52.735940
 30
0.0
 10
21.133890
 20
52.738000
 30
0.0
 10
21.134087
 20
52.739524
 30
0.0
  0
SPLINE
  5
281
100
AcDbEntity
  8
Layer_1
 62
7
100
AcDbSpline
 70
8
 71
3
 72
8
 73
4
 74
0
 40
0
 40
0
 40
0
 40
0
 40
1
 40
1
 40
1
 40
1
 10
21.134087
 20
52.739524
 30
0.0
 10
21.134187
 20
52.740371
 30
0.0
 10
21.134296
 20
52.740653
 30
0.0
 10
21.134296
 20
52.741500
 30
0.0
  0
SPLINE
  5
282
100
AcDbEntity
  8
Layer_1
 62
7
100
AcDbSpline
 70
8
 71
3
 72
8
 73
4
 74
0
 40
0
 40
0
 40
0
 40
0
 40
1
 40
1
 40
1
 40
1
 10
21.134296
 20
52.741500
 30
0.0
 10
21.134307
 20
52.741782
 30
0.0
 10
21.134350
 20
52.742346
 30
0.0
 10
21.134296
 20
52.742629
 30
0.0
  0
SPLINE
  5
283
100
AcDbEntity
  8
Layer_1
 62
7
100
AcDbSpline
 70
8
 71
3
 72
8
 73
4
 74
0
 40
0
 40
0
 40
0
 40
0
 40
1
 40
1
 40
1
 40
1
 10
21.134296
 20
52.742629
 30
0.0
 10
21.134269
 20
52.742838
 30
0.0
 10
21.134087
 20
52.743475
 30
0.0
 10
21.134087
 20
52.743475
 30
0.0
  0
SPLINE
  5
284
100
AcDbEntity
  8
Layer_1
 62
7
100
AcDbSpline
 70
8
 71
3
 72
8
 73
4
 74
0
 40
0
 40
0
 40
0
 40
0
 40
1
 40
1
 40
1
 40
1
 10
21.134087
 20
52.743475
 30
0.0
 10
21.134075
 20
52.743512
 30
0.0
 10
21.133241
 20
52.745169
 30
0.0
 10
21.133241
 20
52.745451
 30
0.0
  0
SPLINE
  5
285
100
AcDbEntity
  8
Layer_1
 62
7
100
AcDbSpline
 70
8
 71
3
 72
8
 73
4
 74
0
 40
0
 40
0
 40
0
 40
0
 40
1
 40
1
 40
1
 40
1
 10
21.133241
 20
52.745451
 30
0.0
 10
21.133197
 20
52.745502
 30
0.0
 10
21.132620
 20
52.745733
 30
0.0
 10
21.132394
 20
52.746015
 30
0.0
  0
SPLINE
  5
286
100
AcDbEntity
  8
Layer_1
 62
7
100
AcDbSpline
 70
8
 71
3
 72
8
 73
4
 74
0
 40
0
 40
0
 40
0
 40
0
 40
1
 40
1
 40
1
 40
1
 10
21.132394
 20
52.746015
 30
0.0
 10
21.132185
 20
52.746224
 30
0.0
 10
21.131971
 20
52.746298
 30
0.0
 10
21.131773
 20
52.746298
 30
0.0
  0
SPLINE
  5
287
100
AcDbEntity
  8
Layer_1
 62
7
100
AcDbSpline
 70
8
 71
3
 72
8
 73
4
 74
0
 40
0
 40
0
 40
0
 40
0
 40
1
 40
1
 40
1
 40
1
 10
21.131773
 20
52.746298
 30
0.0
 10
21.131350
 20
52.746506
 30
0.0
 10
21.130926
 20
52.746862
 30
0.0
 10
21.130559
 20
52.747144
 30
0.0
  0
SPLINE
  5
288
100
AcDbEntity
  8
Layer_1
 62
7
100
AcDbSpline
 70
8
 71
3
 72
8
 73
4
 74
0
 40
0
 40
0
 40
0
 40
0
 40
1
 40
1
 40
1
 40
1
 10
21.130559
 20
52.747144
 30
0.0
 10
21.129826
 20
52.747426
 30
0.0
 10
21.128923
 20
52.747709
 30
0.0
 10
21.127907
 20
52.748273
 30
0.0
  0
SPLINE
  5
289
100
AcDbEntity
  8
Layer_1
 62
7
100
AcDbSpline
 70
8
 71
3
 72
8
 73
4
 74
0
 40
0
 40
0
 40
0
 40
0
 40
1
 40
1
 40
1
 40
1
 10
21.127907
 20
52.748273
 30
0.0
 10
21.125903
 20
52.749120
 30
0.0
 10
21.123388
 20
52.749684
 30
0.0
 10
21.120165
 20
52.750531
 30
0.0
  0
SPLINE
  5
28a
100
AcDbEntity
  8
Layer_1
 62
7
100
AcDbSpline
 70
8
 71
3
 72
8
 73
4
 74
0
 40
0
 40
0
 40
0
 40
0
 40
1
 40
1
 40
1
 40
1
 10
21.120165
 20
52.750531
 30
0.0
 10
21.113719
 20
52.752224
 30
0.0
 10
21.104838
 20
52.754256
 30
0.0
 10
21.093882
 20
52.756655
 30
0.0
  0
SPLINE
  5
28b
100
AcDbEntity
  8
Layer_1
 62
7
100
AcDbSpline
 70
8
 71
3
 72
8
 73
4
 74
0
 40
0
 40
0
 40
0
 40
0
 40
1
 40
1
 40
1
 40
1
 10
21.093882
 20
52.756655
 30
0.0
 10
21.071967
 20
52.761396
 30
0.0
 10
21.041796
 20
52.767436
 30
0.0
 10
21.007698
 20
52.773758
 30
0.0
  0
SPLINE
  5
28c
100
AcDbEntity
  8
Layer_1
 62
7
100
AcDbSpline
 70
8
 71
3
 72
8
 73
4
 74
0
 40
0
 40
0
 40
0
 40
0
 40
1
 40
1
 40
1
 40
1
 10
21.007698
 20
52.773758
 30
0.0
 10
20.939500
 20
52.786458
 30
0.0
 10
20.855241
 20
52.800908
 30
0.0
 10
20.787246
 20
52.810839
 30
0.0
  0
SPLINE
  5
28d
100
AcDbEntity
  8
Layer_1
 62
7
100
AcDbSpline
 70
8
 71
3
 72
8
 73
4
 74
0
 40
0
 40
0
 40
0
 40
0
 40
1
 40
1
 40
1
 40
1
 10
20.787246
 20
52.810839
 30
0.0
 10
20.606417
 20
52.837227
 30
0.0
 10
20.371641
 20
52.837255
 30
0.0
 10
20.223891
 20
52.810839
 30
0.0
  0
LINE
  5
28e
100
AcDbEntity
  8
Layer_1
 62
7
100
AcDbLine
 10
20.223891
 20
52.810839
 30
0.0
 11
20.223812
 21
52.810991
 31
0.0
  0
SPLINE
  5
28f
100
AcDbEntity
  8
Layer_1
 62
7
100
AcDbSpline
 70
8
 71
3
 72
8
 73
4
 74
0
 40
0
 40
0
 40
0
 40
0
 40
1
 40
1
 40
1
 40
1
 10
20.225448
 20
52.802242
 30
0.0
 10
20.371594
 20
52.828376
 30
0.0
 10
20.606001
 20
52.828489
 30
0.0
 10
20.785747
 20
52.802242
 30
0.0
  0
SPLINE
  5
290
100
AcDbEntity
  8
Layer_1
 62
7
100
AcDbSpline
 70
8
 71
3
 72
8
 73
4
 74
0
 40
0
 40
0
 40
0
 40
0
 40
1
 40
1
 40
1
 40
1
 10
20.785747
 20
52.802242
 30
0.0
 10
20.853574
 20
52.792336
 30
0.0
 10
20.937911
 20
52.777830
 30
0.0
 10
21.005996
 20
52.765161
 30
0.0
  0
SPLINE
  5
291
100
AcDbEntity
  8
Layer_1
 62
7
100
AcDbSpline
 70
8
 71
3
 72
8
 73
4
 74
0
 40
0
 40
0
 40
0
 40
0
 40
1
 40
1
 40
1
 40
1
 10
21.005996
 20
52.765161
 30
0.0
 10
21.040039
 20
52.758840
 30
0.0
 10
21.070009
 20
52.752969
 30
0.0
 10
21.091773
 20
52.748256
 30
0.0
  0
SPLINE
  5
292
100
AcDbEntity
  8
Layer_1
 62
7
100
AcDbSpline
 70
8
 71
3
 72
8
 73
4
 74
0
 40
0
 40
0
 40
0
 40
0
 40
1
 40
1
 40
1
 40
1
 10
21.091773
 20
52.748256
 30
0.0
 10
21.102655
 20
52.745998
 30
0.0
 10
21.111650
 20
52.743797
 30
0.0
 10
21.117853
 20
52.742132
 30
0.0
  0
SPLINE
  5
293
100
AcDbEntity
  8
Layer_1
 62
7
100
AcDbSpline
 70
8
 71
3
 72
8
 73
4
 74
0
 40
0
 40
0
 40
0
 40
0
 40
1
 40
1
 40
1
 40
1
 10
21.117853
 20
52.742132
 30
0.0
 10
21.120952
 20
52.741285
 30
0.0
 10
21.123351
 20
52.740721
 30
0.0
 10
21.124988
 20
52.740156
 30
0.0
  0
SPLINE
  5
294
100
AcDbEntity
  8
Layer_1
 62
7
100
AcDbSpline
 70
8
 71
3
 72
8
 73
4
 74
0
 40
0
 40
0
 40
0
 40
0
 40
1
 40
1
 40
1
 40
1
 10
21.124988
 20
52.740156
 30
0.0
 10
21.124779
 20
52.739028
 30
0.0
 10
21.124779
 20
52.737616
 30
0.0
 10
21.124367
 20
52.735472
 30
0.0
  0
SPLINE
  5
295
100
AcDbEntity
  8
Layer_1
 62
7
100
AcDbSpline
 70
8
 71
3
 72
8
 73
4
 74
0
 40
0
 40
0
 40
0
 40
0
 40
1
 40
1
 40
1
 40
1
 10
21.124367
 20
52.735472
 30
0.0
 10
21.123435
 20
52.730617
 30
0.0
 10
21.121883
 20
52.723590
 30
0.0
 10
21.119882
 20
52.714700
 30
0.0
  0
SPLINE
  5
296
100
AcDbEntity
  8
Layer_1
 62
7
100
AcDbSpline
 70
8
 71
3
 72
8
 73
4
 74
0
 40
0
 40
0
 40
0
 40
0
 40
1
 40
1
 40
1
 40
1
 10
21.119882
 20
52.714700
 30
0.0
 10
21.115897
 20
52.696864
 30
0.0
 10
21.110044
 20
52.671557
 30
0.0
 10
21.102768
 20
52.641353
 30
0.0
  0
SPLINE
  5
297
100
AcDbEntity
  8
Layer_1
 62
7
100
AcDbSpline
 70
8
 71
3
 72
8
 73
4
 74
0
 40
0
 40
0
 40
0
 40
0
 40
1
 40
1
 40
1
 40
1
 10
21.102768
 20
52.641353
 30
0.0
 10
21.088211
 20
52.580941
 30
0.0
 10
21.068211
 20
52.500756
 30
0.0
 10
21.047961
 20
52.420492
 30
0.0
  0
SPLINE
  5
298
100
AcDbEntity
  8
Layer_1
 62
7
100
AcDbSpline
 70
8
 71
3
 72
8
 73
4
 74
0
 40
0
 40
0
 40
0
 40
0
 40
1
 40
1
 40
1
 40
1
 10
21.047961
 20
52.420492
 30
0.0
 10
21.027711
 20
52.340228
 30
0.0
 10
21.007115
 20
52.259933
 30
0.0
 10
20.991116
 20
52.199224
 30
0.0
  0
SPLINE
  5
299
100
AcDbEntity
  8
Layer_1
 62
7
100
AcDbSpline
 70
8
 71
3
 72
8
 73
4
 74
0
 40
0
 40
0
 40
0
 40
0
 40
1
 40
1
 40
1
 40
1
 10
20.991116
 20
52.199224
 30
0.0
 10
20.983115
 20
52.168871
 30
0.0
 10
20.976215
 20
52.143525
 30
0.0
 10
20.971149
 20
52.125471
 30
0.0
  0
SPLINE
  5
29a
100
AcDbEntity
  8
Layer_1
 62
7
100
AcDbSpline
 70
8
 71
3
 72
8
 73
4
 74
0
 40
0
 40
0
 40
0
 40
0
 40
1
 40
1
 40
1
 40
1
 10
20.971149
 20
52.125471
 30
0.0
 10
20.968609
 20
52.116440
 30
0.0
 10
20.966591
 20
52.109271
 30
0.0
 10
20.965036
 20
52.104276
 30
0.0
  0
SPLINE
  5
29b
100
AcDbEntity
  8
Layer_1
 62
7
100
AcDbSpline
 70
8
 71
3
 72
8
 73
4
 74
0
 40
0
 40
0
 40
0
 40
0
 40
1
 40
1
 40
1
 40
1
 10
20.965036
 20
52.104276
 30
0.0
 10
20.964302
 20
52.101736
 30
0.0
 10
20.963681
 20
52.099676
 30
0.0
 10
20.963201
 20
52.098377
 30
0.0
  0
SPLINE
  5
29c
100
AcDbEntity
  8
Layer_1
 62
7
100
AcDbSpline
 70
8
 71
3
 72
8
 73
4
 74
0
 40
0
 40
0
 40
0
 40
0
 40
1
 40
1
 40
1
 40
1
 10
20.963201
 20
52.098377
 30
0.0
 10
20.962157
 20
52.098383
 30
0.0
 10
20.960746
 20
52.098482
 30
0.0
 10
20.958717
 20
52.098660
 30
0.0
  0
SPLINE
  5
29d
100
AcDbEntity
  8
Layer_1
 62
7
100
AcDbSpline
 70
8
 71
3
 72
8
 73
4
 74
0
 40
0
 40
0
 40
0
 40
0
 40
1
 40
1
 40
1
 40
1
 10
20.958717
 20
52.098660
 30
0.0
 10
20.954472
 20
52.099224
 30
0.0
 10
20.948255
 20
52.100635
 30
0.0
 10
20.940990
 20
52.102526
 30
0.0
  0
SPLINE
  5
29e
100
AcDbEntity
  8
Layer_1
 62
7
100
AcDbSpline
 70
8
 71
3
 72
8
 73
4
 74
0
 40
0
 40
0
 40
0
 40
0
 40
1
 40
1
 40
1
 40
1
 10
20.940990
 20
52.102526
 30
0.0
 10
20.926465
 20
52.106280
 30
0.0
 10
20.907226
 20
52.112150
 30
0.0
 10
20.886590
 20
52.119431
 30
0.0
  0
SPLINE
  5
29f
100
AcDbEntity
  8
Layer_1
 62
7
100
AcDbSpline
 70
8
 71
3
 72
8
 73
4
 74
0
 40
0
 40
0
 40
0
 40
0
 40
1
 40
1
 40
1
 40
1
 10
20.886590
 20
52.119431
 30
0.0
 10
20.625152
 20
52.211707
 30
0.0
 10
20.333614
 20
52.198575
 30
0.0
 10
20.099931
 20
52.083778
 30
0.0
  0
SPLINE
  5
2a0
100
AcDbEntity
  8
Layer_1
 62
7
100
AcDbSpline
 70
8
 71
3
 72
8
 73
4
 74
0
 40
0
 40
0
 40
0
 40
0
 40
1
 40
1
 40
1
 40
1
 10
20.099931
 20
52.083778
 30
0.0
 10
20.019891
 20
52.044456
 30
0.0
 10
19.995649
 20
52.026910
 30
0.0
 10
19.930618
 20
51.961325
 30
0.0
  0
SPLINE
  5
2a1
100
AcDbEntity
  8
Layer_1
 62
7
100
AcDbSpline
 70
8
 71
3
 72
8
 73
4
 74
0
 40
0
 40
0
 40
0
 40
0
 40
1
 40
1
 40
1
 40
1
 10
19.930618
 20
51.961325
 30
0.0
 10
19.875054
 20
51.905289
 30
0.0
 10
19.846958
 20
51.868499
 30
0.0
 10
19.825282
 20
51.823185
 30
0.0
  0
SPLINE
  5
2a2
100
AcDbEntity
  8
Layer_1
 62
7
100
AcDbSpline
 70
8
 71
3
 72
8
 73
4
 74
0
 40
0
 40
0
 40
0
 40
0
 40
1
 40
1
 40
1
 40
1
 10
19.825282
 20
51.823185
 30
0.0
 10
19.811250
 20
51.793854
 30
0.0
 10
19.800703
 20
51.775769
 30
0.0
 10
19.792887
 20
51.742300
 30
0.0
  0
SPLINE
  5
2a3
100
AcDbEntity
  8
Layer_1
 62
7
100
AcDbSpline
 70
8
 71
3
 72
8
 73
4
 74
0
 40
0
 40
0
 40
0
 40
0
 40
1
 40
1
 40
1
 40
1
 10
19.792887
 20
51.742300
 30
0.0
 10
19.785072
 20
51.708829
 30
0.0
 10
19.780012
 20
51.660326
 30
0.0
 10
19.776792
 20
51.569321
 30
0.0
  0
SPLINE
  5
2a4
100
AcDbEntity
  8
Layer_1
 62
7
100
AcDbSpline
 70
8
 71
3
 72
8
 73
4
 74
0
 40
0
 40
0
 40
0
 40
0
 40
1
 40
1
 40
1
 40
1
 10
19.776792
 20
51.569321
 30
0.0
 10
19.770354
 20
51.387307
 30
0.0
 10
19.770973
 20
51.035170
 30
0.0
 10
19.770888
 20
50.294692
 30
0.0
  0
LINE
  5
2a5
100
AcDbEntity
  8
Layer_1
 62
7
100
AcDbLine
 10
19.770888
 20
50.294692
 30
0.0
 11
19.770679
 21
48.949974
 31
0.0
  0
LINE
  5
2a6
100
AcDbEntity
  8
Layer_1
 62
7
100
AcDbLine
 10
19.770679
 20
48.949974
 30
0.0
 11
19.430628
 21
48.949974
 31
0.0
  0
LINE
  5
2a7
100
AcDbEntity
  8
Layer_1
 62
7
100
AcDbLine
 10
19.430628
 20
48.949974
 30
0.0
 11
19.090781
 21
48.949974
 31
0.0
  0
LINE
  5
2a8
100
AcDbEntity
  8
Layer_1
 62
7
100
AcDbLine
 10
19.090781
 20
48.949974
 30
0.0
 11
19.090572
 21
50.857638
 31
0.0
  0
LINE
  5
2a9
100
AcDbEntity
  8
Layer_1
 62
7
100
AcDbLine
 10
19.090572
 20
50.857638
 30
0.0
 11
19.090572
 21
52.765508
 31
0.0
  0
LINE
  5
2aa
100
AcDbEntity
  8
Layer_1
 62
7
100
AcDbLine
 10
19.090572
 20
52.765508
 30
0.0
 11
19.412286
 21
52.765508
 31
0.0
  0
LINE
  5
2ab
100
AcDbEntity
  8
Layer_1
 62
7
100
AcDbLine
 10
19.412286
 20
52.765508
 30
0.0
 11
19.735018
 21
52.765508
 31
0.0
  0
LINE
  5
2ac
100
AcDbEntity
  8
Layer_1
 62
7
100
AcDbLine
 10
19.735018
 20
52.765508
 30
0.0
 11
19.745000
 21
52.721089
 31
0.0
  0
SPLINE
  5
2ad
100
AcDbEntity
  8
Layer_1
 62
7
100
AcDbSpline
 70
8
 71
3
 72
8
 73
4
 74
0
 40
0
 40
0
 40
0
 40
0
 40
1
 40
1
 40
1
 40
1
 10
19.745000
 20
52.721089
 30
0.0
 10
19.747964
 20
52.707853
 30
0.0
 10
19.751342
 20
52.694702
 30
0.0
 10
19.754367
 20
52.684214
 30
0.0
  0
SPLINE
  5
2ae
100
AcDbEntity
  8
Layer_1
 62
7
100
AcDbSpline
 70
8
 71
3
 72
8
 73
4
 74
0
 40
0
 40
0
 40
0
 40
0
 40
1
 40
1
 40
1
 40
1
 10
19.754367
 20
52.684214
 30
0.0
 10
19.755891
 20
52.678965
 30
0.0
 10
19.757161
 20
52.674449
 30
0.0
 10
19.758446
 20
52.670752
 30
0.0
  0
SPLINE
  5
2af
100
AcDbEntity
  8
Layer_1
 62
7
100
AcDbSpline
 70
8
 71
3
 72
8
 73
4
 74
0
 40
0
 40
0
 40
0
 40
0
 40
1
 40
1
 40
1
 40
1
 10
19.758446
 20
52.670752
 30
0.0
 10
19.759716
 20
52.667083
 30
0.0
 10
19.760844
 20
52.664431
 30
0.0
 10
19.762117
 20
52.662399
 30
0.0
  0
SPLINE
  5
2b0
100
AcDbEntity
  8
Layer_1
 62
7
100
AcDbSpline
 70
8
 71
3
 72
8
 73
4
 74
0
 40
0
 40
0
 40
0
 40
0
 40
1
 40
1
 40
1
 40
1
 10
19.762117
 20
52.662399
 30
0.0
 10
19.763472
 20
52.660141
 30
0.0
 10
19.765769
 20
52.659125
 30
0.0
 10
19.767824
 20
52.658730
 30
0.0
  0
SPLINE
  5
2b1
100
AcDbEntity
  8
Layer_1
 62
7
100
AcDbSpline
 70
8
 71
3
 72
8
 73
4
 74
0
 40
0
 40
0
 40
0
 40
0
 40
1
 40
1
 40
1
 40
1
 10
19.767824
 20
52.658730
 30
0.0
 10
19.769884
 20
52.658447
 30
0.0
 10
19.772029
 20
52.658447
 30
0.0
 10
19.774552
 20
52.658730
 30
0.0
  0
SPLINE
  5
2b2
100
AcDbEntity
  8
Layer_1
 62
7
100
AcDbSpline
 70
8
 71
3
 72
8
 73
4
 74
0
 40
0
 40
0
 40
0
 40
0
 40
1
 40
1
 40
1
 40
1
 10
19.774552
 20
52.658730
 30
0.0
 10
19.779581
 20
52.659294
 30
0.0
 10
19.786047
 20
52.660987
 30
0.0
 10
19.794110
 20
52.663415
 30
0.0
  0
SPLINE
  5
2b3
100
AcDbEntity
  8
Layer_1
 62
7
100
AcDbSpline
 70
8
 71
3
 72
8
 73
4
 74
0
 40
0
 40
0
 40
0
 40
0
 40
1
 40
1
 40
1
 40
1
 10
19.794110
 20
52.663415
 30
0.0
 10
19.810236
 20
52.668438
 30
0.0
 10
19.832780
 20
52.677159
 30
0.0
 10
19.861346
 20
52.689689
 30
0.0
  0
SPLINE
  5
2b4
100
AcDbEntity
  8
Layer_1
 62
7
100
AcDbSpline
 70
8
 71
3
 72
8
 73
4
 74
0
 40
0
 40
0
 40
0
 40
0
 40
1
 40
1
 40
1
 40
1
 10
19.861346
 20
52.689689
 30
0.0
 10
19.982054
 20
52.742716
 30
0.0
 10
20.104449
 20
52.780534
 30
0.0
 10
20.225437
 20
52.802158
 30
0.0
  0
LINE
  5
2b5
100
AcDbEntity
  8
Layer_1
 62
7
100
AcDbLine
 10
20.225437
 20
52.802158
 30
0.0
 11
20.225448
 21
52.802242
 31
0.0
  0
LINE
  5
2b6
100
AcDbEntity
  8
Layer_1
 62
7
100
AcDbLine
 10
15.548888
 20
52.774331
 30
0.0
 11
15.548888
 21
50.857700
 31
0.0
  0
LINE
  5
2b7
100
AcDbEntity
  8
Layer_1
 62
7
100
AcDbLine
 10
15.548888
 20
50.857700
 30
0.0
 11
15.548888
 21
48.941073
 31
0.0
  0
LINE
  5
2b8
100
AcDbEntity
  8
Layer_1
 62
7
100
AcDbLine
 10
15.548888
 20
48.941073
 30
0.0
 11
15.897903
 21
48.941073
 31
0.0
  0
LINE
  5
2b9
100
AcDbEntity
  8
Layer_1
 62
7
100
AcDbLine
 10
15.897903
 20
48.941073
 30
0.0
 11
16.246715
 21
48.941073
 31
0.0
  0
LINE
  5
2ba
100
AcDbEntity
  8
Layer_1
 62
7
100
AcDbLine
 10
16.246715
 20
48.941073
 30
0.0
 11
16.246715
 21
50.857700
 31
0.0
  0
LINE
  5
2bb
100
AcDbEntity
  8
Layer_1
 62
7
100
AcDbLine
 10
16.246715
 20
50.857700
 30
0.0
 11
16.246715
 21
52.774331
 31
0.0
  0
LINE
  5
2bc
100
AcDbEntity
  8
Layer_1
 62
7
100
AcDbLine
 10
16.246715
 20
52.774331
 30
0.0
 11
15.897903
 21
52.774331
 31
0.0
  0
LINE
  5
2bd
100
AcDbEntity
  8
Layer_1
 62
7
100
AcDbLine
 10
15.897903
 20
52.774331
 30
0.0
 11
15.548888
 21
52.774331
 31
0.0
  0
LINE
  5
2be
100
AcDbEntity
  8
Layer_1
 62
7
100
AcDbLine
 10
15.557854
 20
52.765554
 30
0.0
 11
15.897905
 21
52.765554
 31
0.0
  0
LINE
  5
2bf
100
AcDbEntity
  8
Layer_1
 62
7
100
AcDbLine
 10
15.897905
 20
52.765554
 30
0.0
 11
16.237752
 21
52.765554
 31
0.0
  0
LINE
  5
2c0
100
AcDbEntity
  8
Layer_1
 62
7
100
AcDbLine
 10
16.237752
 20
52.765554
 30
0.0
 11
16.237752
 21
50.857686
 31
0.0
  0
LINE
  5
2c1
100
AcDbEntity
  8
Layer_1
 62
7
100
AcDbLine
 10
16.237752
 20
50.857686
 30
0.0
 11
16.237752
 21
48.950019
 31
0.0
  0
LINE
  5
2c2
100
AcDbEntity
  8
Layer_1
 62
7
100
AcDbLine
 10
16.237752
 20
48.950019
 30
0.0
 11
15.897893
 21
48.950019
 31
0.0
  0
LINE
  5
2c3
100
AcDbEntity
  8
Layer_1
 62
7
100
AcDbLine
 10
15.897893
 20
48.950019
 30
0.0
 11
15.557843
 21
48.950019
 31
0.0
  0
LINE
  5
2c4
100
AcDbEntity
  8
Layer_1
 62
7
100
AcDbLine
 10
15.557843
 20
48.950019
 30
0.0
 11
15.557843
 21
50.857686
 31
0.0
  0
LINE
  5
2c5
100
AcDbEntity
  8
Layer_1
 62
7
100
AcDbLine
 10
15.557843
 20
50.857686
 30
0.0
 11
15.557854
 21
52.765554
 31
0.0
  0
SPLINE
  5
2c6
100
AcDbEntity
  8
Layer_1
 62
7
100
AcDbSpline
 70
8
 71
3
 72
8
 73
4
 74
0
 40
0
 40
0
 40
0
 40
0
 40
1
 40
1
 40
1
 40
1
 10
13.224566
 20
52.140872
 30
0.0
 10
13.078548
 20
52.120580
 30
0.0
 10
12.933187
 20
52.078771
 30
0.0
 10
12.811167
 20
52.018421
 30
0.0
  0
LINE
  5
2c7
100
AcDbEntity
  8
Layer_1
 62
7
100
AcDbLine
 10
12.811167
 20
52.018421
 30
0.0
 11
12.740264
 21
51.983378
 31
0.0
  0
LINE
  5
2c8
100
AcDbEntity
  8
Layer_1
 62
7
100
AcDbLine
 10
12.740264
 20
51.983378
 30
0.0
 11
12.740264
 21
50.763963
 31
0.0
  0
SPLINE
  5
2c9
100
AcDbEntity
  8
Layer_1
 62
7
100
AcDbSpline
 70
8
 71
3
 72
8
 73
4
 74
0
 40
0
 40
0
 40
0
 40
0
 40
1
 40
1
 40
1
 40
1
 10
12.740264
 20
50.763963
 30
0.0
 10
12.740264
 20
50.188475
 30
0.0
 10
12.740473
 20
49.884209
 30
0.0
 10
12.742494
 20
49.723232
 30
0.0
  0
SPLINE
  5
2ca
100
AcDbEntity
  8
Layer_1
 62
7
100
AcDbSpline
 70
8
 71
3
 72
8
 73
4
 74
0
 40
0
 40
0
 40
0
 40
0
 40
1
 40
1
 40
1
 40
1
 10
12.742494
 20
49.723232
 30
0.0
 10
12.743510
 20
49.642745
 30
0.0
 10
12.745034
 20
49.598148
 30
0.0
 10
12.747179
 20
49.573073
 30
0.0
  0
SPLINE
  5
2cb
100
AcDbEntity
  8
Layer_1
 62
7
100
AcDbSpline
 70
8
 71
3
 72
8
 73
4
 74
0
 40
0
 40
0
 40
0
 40
0
 40
1
 40
1
 40
1
 40
1
 10
12.747179
 20
49.573073
 30
0.0
 10
12.748251
 20
49.560542
 30
0.0
 10
12.749436
 20
49.552922
 30
0.0
 10
12.751051
 20
49.547814
 30
0.0
  0
SPLINE
  5
2cc
100
AcDbEntity
  8
Layer_1
 62
7
100
AcDbSpline
 70
8
 71
3
 72
8
 73
4
 74
0
 40
0
 40
0
 40
0
 40
0
 40
1
 40
1
 40
1
 40
1
 10
12.751051
 20
49.547814
 30
0.0
 10
12.751869
 20
49.545274
 30
0.0
 10
12.752800
 20
49.543327
 30
0.0
 10
12.754107
 20
49.541690
 30
0.0
  0
SPLINE
  5
2cd
100
AcDbEntity
  8
Layer_1
 62
7
100
AcDbSpline
 70
8
 71
3
 72
8
 73
4
 74
0
 40
0
 40
0
 40
0
 40
0
 40
1
 40
1
 40
1
 40
1
 10
12.754107
 20
49.541690
 30
0.0
 10
12.755405
 20
49.539996
 30
0.0
 10
12.757158
 20
49.538867
 30
0.0
 10
12.758792
 20
49.538444
 30
0.0
  0
SPLINE
  5
2ce
100
AcDbEntity
  8
Layer_1
 62
7
100
AcDbSpline
 70
8
 71
3
 72
8
 73
4
 74
0
 40
0
 40
0
 40
0
 40
0
 40
1
 40
1
 40
1
 40
1
 10
12.758792
 20
49.538444
 30
0.0
 10
12.779665
 20
49.532009
 30
0.0
 10
12.830087
 20
49.523543
 30
0.0
 10
12.888374
 20
49.515838
 30
0.0
  0
SPLINE
  5
2cf
100
AcDbEntity
  8
Layer_1
 62
7
100
AcDbSpline
 70
8
 71
3
 72
8
 73
4
 74
0
 40
0
 40
0
 40
0
 40
0
 40
1
 40
1
 40
1
 40
1
 10
12.888374
 20
49.515838
 30
0.0
 10
12.946661
 20
49.508133
 30
0.0
 10
13.012449
 20
49.501191
 30
0.0
 10
13.062372
 20
49.498115
 30
0.0
  0
SPLINE
  5
2d0
100
AcDbEntity
  8
Layer_1
 62
7
100
AcDbSpline
 70
8
 71
3
 72
8
 73
4
 74
0
 40
0
 40
0
 40
0
 40
0
 40
1
 40
1
 40
1
 40
1
 10
13.062372
 20
49.498115
 30
0.0
 10
13.123087
 20
49.494389
 30
0.0
 10
13.179008
 20
49.490946
 30
0.0
 10
13.185842
 20
49.490382
 30
0.0
  0
SPLINE
  5
2d1
100
AcDbEntity
  8
Layer_1
 62
7
100
AcDbSpline
 70
8
 71
3
 72
8
 73
4
 74
0
 40
0
 40
0
 40
0
 40
0
 40
1
 40
1
 40
1
 40
1
 10
13.185842
 20
49.490382
 30
0.0
 10
13.188523
 20
49.490173
 30
0.0
 10
13.193566
 20
49.490099
 30
0.0
 10
13.201530
 20
49.490382
 30
0.0
  0
SPLINE
  5
2d2
100
AcDbEntity
  8
Layer_1
 62
7
100
AcDbSpline
 70
8
 71
3
 72
8
 73
4
 74
0
 40
0
 40
0
 40
0
 40
0
 40
1
 40
1
 40
1
 40
1
 10
13.201530
 20
49.490382
 30
0.0
 10
13.209492
 20
49.490664
 30
0.0
 10
13.219971
 20
49.491228
 30
0.0
 10
13.232500
 20
49.491793
 30
0.0
  0
SPLINE
  5
2d3
100
AcDbEntity
  8
Layer_1
 62
7
100
AcDbSpline
 70
8
 71
3
 72
8
 73
4
 74
0
 40
0
 40
0
 40
0
 40
0
 40
1
 40
1
 40
1
 40
1
 10
13.232500
 20
49.491793
 30
0.0
 10
13.257558
 20
49.492922
 30
0.0
 10
13.290239
 20
49.495095
 30
0.0
 10
13.324592
 20
49.497296
 30
0.0
  0
LINE
  5
2d4
100
AcDbEntity
  8
Layer_1
 62
7
100
AcDbLine
 10
13.324592
 20
49.497296
 30
0.0
 11
13.328871
 21
49.497505
 31
0.0
  0
LINE
  5
2d5
100
AcDbEntity
  8
Layer_1
 62
7
100
AcDbLine
 10
13.328871
 20
49.497505
 30
0.0
 11
13.328871
 21
49.498352
 31
0.0
  0
SPLINE
  5
2d6
100
AcDbEntity
  8
Layer_1
 62
7
100
AcDbSpline
 70
8
 71
3
 72
8
 73
4
 74
0
 40
0
 40
0
 40
0
 40
0
 40
1
 40
1
 40
1
 40
1
 10
13.328871
 20
49.498352
 30
0.0
 10
13.748171
 20
49.526348
 30
0.0
 10
14.021229
 20
49.654595
 30
0.0
 10
14.136313
 20
49.882004
 30
0.0
  0
SPLINE
  5
2d7
100
AcDbEntity
  8
Layer_1
 62
7
100
AcDbSpline
 70
8
 71
3
 72
8
 73
4
 74
0
 40
0
 40
0
 40
0
 40
0
 40
1
 40
1
 40
1
 40
1
 10
14.136313
 20
49.882004
 30
0.0
 10
14.162478
 20
49.933708
 30
0.0
 10
14.175943
 20
49.958004
 30
0.0
 10
14.182359
 20
50.070467
 30
0.0
  0
SPLINE
  5
2d8
100
AcDbEntity
  8
Layer_1
 62
7
100
AcDbSpline
 70
8
 71
3
 72
8
 73
4
 74
0
 40
0
 40
0
 40
0
 40
0
 40
1
 40
1
 40
1
 40
1
 10
14.182359
 20
50.070467
 30
0.0
 10
14.188774
 20
50.182932
 30
0.0
 10
14.188605
 20
50.384318
 30
0.0
 10
14.188675
 20
50.792947
 30
0.0
  0
SPLINE
  5
2d9
100
AcDbEntity
  8
Layer_1
 62
7
100
AcDbSpline
 70
8
 71
3
 72
8
 73
4
 74
0
 40
0
 40
0
 40
0
 40
0
 40
1
 40
1
 40
1
 40
1
 10
14.188675
 20
50.792947
 30
0.0
 10
14.188743
 20
51.195405
 30
0.0
 10
14.188628
 20
51.397699
 30
0.0
 10
14.182765
 20
51.515631
 30
0.0
  0
SPLINE
  5
2da
100
AcDbEntity
  8
Layer_1
 62
7
100
AcDbSpline
 70
8
 71
3
 72
8
 73
4
 74
0
 40
0
 40
0
 40
0
 40
0
 40
1
 40
1
 40
1
 40
1
 10
14.182765
 20
51.515631
 30
0.0
 10
14.176904
 20
51.633563
 30
0.0
 10
14.165056
 20
51.667650
 30
0.0
 10
14.141813
 20
51.731395
 30
0.0
  0
SPLINE
  5
2db
100
AcDbEntity
  8
Layer_1
 62
7
100
AcDbSpline
 70
8
 71
3
 72
8
 73
4
 74
0
 40
0
 40
0
 40
0
 40
0
 40
1
 40
1
 40
1
 40
1
 10
14.141813
 20
51.731395
 30
0.0
 10
14.065041
 20
51.941922
 30
0.0
 10
13.890986
 20
52.081972
 30
0.0
 10
13.642026
 20
52.133997
 30
0.0
  0
SPLINE
  5
2dc
100
AcDbEntity
  8
Layer_1
 62
7
100
AcDbSpline
 70
8
 71
3
 72
8
 73
4
 74
0
 40
0
 40
0
 40
0
 40
0
 40
1
 40
1
 40
1
 40
1
 10
13.642026
 20
52.133997
 30
0.0
 10
13.517237
 20
52.160074
 30
0.0
 10
13.370570
 20
52.161231
 30
0.0
 10
13.224553
 20
52.140911
 30
0.0
  0
LINE
  5
2dd
100
AcDbEntity
  8
Layer_1
 62
7
100
AcDbLine
 10
13.224553
 20
52.140911
 30
0.0
 11
13.224566
 21
52.140872
 31
0.0
  0
SPLINE
  5
2de
100
AcDbEntity
  8
Layer_1
 62
7
100
AcDbSpline
 70
8
 71
3
 72
8
 73
4
 74
0
 40
0
 40
0
 40
0
 40
0
 40
1
 40
1
 40
1
 40
1
 10
13.225780
 20
52.132095
 30
0.0
 10
13.370954
 20
52.152273
 30
0.0
 10
13.516711
 20
52.150975
 30
0.0
 10
13.640197
 20
52.125180
 30
0.0
  0
SPLINE
  5
2df
100
AcDbEntity
  8
Layer_1
 62
7
100
AcDbSpline
 70
8
 71
3
 72
8
 73
4
 74
0
 40
0
 40
0
 40
0
 40
0
 40
1
 40
1
 40
1
 40
1
 10
13.640197
 20
52.125180
 30
0.0
 10
13.886867
 20
52.073632
 30
0.0
 10
14.057730
 20
51.935964
 30
0.0
 10
14.133464
 20
51.728285
 30
0.0
  0
SPLINE
  5
2e0
100
AcDbEntity
  8
Layer_1
 62
7
100
AcDbSpline
 70
8
 71
3
 72
8
 73
4
 74
0
 40
0
 40
0
 40
0
 40
0
 40
1
 40
1
 40
1
 40
1
 10
14.133464
 20
51.728285
 30
0.0
 10
14.156699
 20
51.664565
 30
0.0
 10
14.168172
 20
51.632598
 30
0.0
 10
14.174009
 20
51.515168
 30
0.0
  0
SPLINE
  5
2e1
100
AcDbEntity
  8
Layer_1
 62
7
100
AcDbSpline
 70
8
 71
3
 72
8
 73
4
 74
0
 40
0
 40
0
 40
0
 40
0
 40
1
 40
1
 40
1
 40
1
 10
14.174009
 20
51.515168
 30
0.0
 10
14.179845
 20
51.397735
 30
0.0
 10
14.179781
 20
51.195348
 30
0.0
 10
14.179716
 20
50.792891
 30
0.0
  0
SPLINE
  5
2e2
100
AcDbEntity
  8
Layer_1
 62
7
100
AcDbSpline
 70
8
 71
3
 72
8
 73
4
 74
0
 40
0
 40
0
 40
0
 40
0
 40
1
 40
1
 40
1
 40
1
 10
14.179716
 20
50.792891
 30
0.0
 10
14.179644
 20
50.384258
 30
0.0
 10
14.179781
 20
50.182879
 30
0.0
 10
14.173400
 20
50.071023
 30
0.0
  0
SPLINE
  5
2e3
100
AcDbEntity
  8
Layer_1
 62
7
100
AcDbSpline
 70
8
 71
3
 72
8
 73
4
 74
0
 40
0
 40
0
 40
0
 40
0
 40
1
 40
1
 40
1
 40
1
 10
14.173400
 20
50.071023
 30
0.0
 10
14.167018
 20
49.959164
 30
0.0
 10
14.154592
 20
49.937628
 30
0.0
 10
14.128372
 20
49.885817
 30
0.0
  0
SPLINE
  5
2e4
100
AcDbEntity
  8
Layer_1
 62
7
100
AcDbSpline
 70
8
 71
3
 72
8
 73
4
 74
0
 40
0
 40
0
 40
0
 40
0
 40
1
 40
1
 40
1
 40
1
 10
14.128372
 20
49.885817
 30
0.0
 10
14.014745
 20
49.661290
 30
0.0
 10
13.744905
 20
49.533203
 30
0.0
 10
13.324190
 20
49.506037
 30
0.0
  0
LINE
  5
2e5
100
AcDbEntity
  8
Layer_1
 62
7
100
AcDbLine
 10
13.324190
 20
49.506037
 30
0.0
 11
13.319912
 21
49.505828
 31
0.0
  0
SPLINE
  5
2e6
100
AcDbEntity
  8
Layer_1
 62
7
100
AcDbSpline
 70
8
 71
3
 72
8
 73
4
 74
0
 40
0
 40
0
 40
0
 40
0
 40
1
 40
1
 40
1
 40
1
 10
13.319912
 20
49.505828
 30
0.0
 10
13.287346
 20
49.503852
 30
0.0
 10
13.255939
 20
49.501933
 30
0.0
 10
13.232098
 20
49.500748
 30
0.0
  0
SPLINE
  5
2e7
100
AcDbEntity
  8
Layer_1
 62
7
100
AcDbSpline
 70
8
 71
3
 72
8
 73
4
 74
0
 40
0
 40
0
 40
0
 40
0
 40
1
 40
1
 40
1
 40
1
 10
13.232098
 20
49.500748
 30
0.0
 10
13.219598
 20
49.500183
 30
0.0
 10
13.209015
 20
49.499619
 30
0.0
 10
13.201128
 20
49.499337
 30
0.0
  0
SPLINE
  5
2e8
100
AcDbEntity
  8
Layer_1
 62
7
100
AcDbSpline
 70
8
 71
3
 72
8
 73
4
 74
0
 40
0
 40
0
 40
0
 40
0
 40
1
 40
1
 40
1
 40
1
 10
13.201128
 20
49.499337
 30
0.0
 10
13.193243
 20
49.499054
 30
0.0
 10
13.187638
 20
49.499054
 30
0.0
 10
13.186661
 20
49.499128
 30
0.0
  0
SPLINE
  5
2e9
100
AcDbEntity
  8
Layer_1
 62
7
100
AcDbSpline
 70
8
 71
3
 72
8
 73
4
 74
0
 40
0
 40
0
 40
0
 40
0
 40
1
 40
1
 40
1
 40
1
 10
13.186661
 20
49.499128
 30
0.0
 10
13.178923
 20
49.499692
 30
0.0
 10
13.123717
 20
49.503333
 30
0.0
 10
13.062988
 20
49.507086
 30
0.0
  0
SPLINE
  5
2ea
100
AcDbEntity
  8
Layer_1
 62
7
100
AcDbSpline
 70
8
 71
3
 72
8
 73
4
 74
0
 40
0
 40
0
 40
0
 40
0
 40
1
 40
1
 40
1
 40
1
 10
13.062988
 20
49.507086
 30
0.0
 10
13.013404
 20
49.510134
 30
0.0
 10
12.947715
 20
49.516908
 30
0.0
 10
12.889601
 20
49.524612
 30
0.0
  0
SPLINE
  5
2eb
100
AcDbEntity
  8
Layer_1
 62
7
100
AcDbSpline
 70
8
 71
3
 72
8
 73
4
 74
0
 40
0
 40
0
 40
0
 40
0
 40
1
 40
1
 40
1
 40
1
 10
12.889601
 20
49.524612
 30
0.0
 10
12.831488
 20
49.532289
 30
0.0
 10
12.780468
 20
49.540953
 30
0.0
 10
12.761446
 20
49.546823
 30
0.0
  0
SPLINE
  5
2ec
100
AcDbEntity
  8
Layer_1
 62
7
100
AcDbSpline
 70
8
 71
3
 72
8
 73
4
 74
0
 40
0
 40
0
 40
0
 40
0
 40
1
 40
1
 40
1
 40
1
 10
12.761446
 20
49.546823
 30
0.0
 10
12.761247
 20
49.546883
 30
0.0
 10
12.761357
 20
49.546835
 30
0.0
 10
12.761051
 20
49.547105
 30
0.0
  0
SPLINE
  5
2ed
100
AcDbEntity
  8
Layer_1
 62
7
100
AcDbSpline
 70
8
 71
3
 72
8
 73
4
 74
0
 40
0
 40
0
 40
0
 40
0
 40
1
 40
1
 40
1
 40
1
 10
12.761051
 20
49.547105
 30
0.0
 10
12.760740
 20
49.547388
 30
0.0
 10
12.760035
 20
49.548517
 30
0.0
 10
12.759414
 20
49.550351
 30
0.0
  0
SPLINE
  5
2ee
100
AcDbEntity
  8
Layer_1
 62
7
100
AcDbSpline
 70
8
 71
3
 72
8
 73
4
 74
0
 40
0
 40
0
 40
0
 40
0
 40
1
 40
1
 40
1
 40
1
 10
12.759414
 20
49.550351
 30
0.0
 10
12.758200
 20
49.554189
 30
0.0
 10
12.757015
 20
49.561527
 30
0.0
 10
12.755951
 20
49.573775
 30
0.0
  0
SPLINE
  5
2ef
100
AcDbEntity
  8
Layer_1
 62
7
100
AcDbSpline
 70
8
 71
3
 72
8
 73
4
 74
0
 40
0
 40
0
 40
0
 40
0
 40
1
 40
1
 40
1
 40
1
 10
12.755951
 20
49.573775
 30
0.0
 10
12.753834
 20
49.598301
 30
0.0
 10
12.752282
 20
49.642903
 30
0.0
 10
12.751266
 20
49.723325
 30
0.0
  0
SPLINE
  5
2f0
100
AcDbEntity
  8
Layer_1
 62
7
100
AcDbSpline
 70
8
 71
3
 72
8
 73
4
 74
0
 40
0
 40
0
 40
0
 40
0
 40
1
 40
1
 40
1
 40
1
 10
12.751266
 20
49.723325
 30
0.0
 10
12.749234
 20
49.884166
 30
0.0
 10
12.749036
 20
50.188365
 30
0.0
 10
12.749036
 20
50.763850
 30
0.0
  0
LINE
  5
2f1
100
AcDbEntity
  8
Layer_1
 62
7
100
AcDbLine
 10
12.749036
 20
50.763850
 30
0.0
 11
12.749036
 21
51.977761
 31
0.0
  0
LINE
  5
2f2
100
AcDbEntity
  8
Layer_1
 62
7
100
AcDbLine
 10
12.749036
 20
51.977761
 30
0.0
 11
12.815050
 21
52.010361
 31
0.0
  0
SPLINE
  5
2f3
100
AcDbEntity
  8
Layer_1
 62
7
100
AcDbSpline
 70
8
 71
3
 72
8
 73
4
 74
0
 40
0
 40
0
 40
0
 40
0
 40
1
 40
1
 40
1
 40
1
 10
12.815050
 20
52.010361
 30
0.0
 10
12.936025
 20
52.070195
 30
0.0
 10
13.080625
 20
52.111817
 30
0.0
 10
13.225800
 20
52.131999
 30
0.0
  0
LINE
  5
2f4
100
AcDbEntity
  8
Layer_1
 62
7
100
AcDbLine
 10
13.225800
 20
52.131999
 30
0.0
 11
13.225780
 21
52.132095
 31
0.0
  0
SPLINE
  5
2f5
100
AcDbEntity
  8
Layer_1
 62
7
100
AcDbSpline
 70
8
 71
3
 72
8
 73
4
 74
0
 40
0
 40
0
 40
0
 40
0
 40
1
 40
1
 40
1
 40
1
 10
22.210326
 20
51.308150
 30
0.0
 10
22.059535
 20
51.308150
 30
0.0
 10
21.941408
 20
51.280238
 30
0.0
 10
21.852753
 20
51.221558
 30
0.0
  0
SPLINE
  5
2f6
100
AcDbEntity
  8
Layer_1
 62
7
100
AcDbSpline
 70
8
 71
3
 72
8
 73
4
 74
0
 40
0
 40
0
 40
0
 40
0
 40
1
 40
1
 40
1
 40
1
 10
21.852753
 20
51.221558
 30
0.0
 10
21.764097
 20
51.162881
 30
0.0
 10
21.705217
 20
51.073487
 30
0.0
 10
21.672234
 20
50.951596
 30
0.0
  0
SPLINE
  5
2f7
100
AcDbEntity
  8
Layer_1
 62
7
100
AcDbSpline
 70
8
 71
3
 72
8
 73
4
 74
0
 40
0
 40
0
 40
0
 40
0
 40
1
 40
1
 40
1
 40
1
 10
21.672234
 20
50.951596
 30
0.0
 10
21.658462
 20
50.900700
 30
0.0
 10
21.656608
 20
50.849194
 30
0.0
 10
21.656545
 20
50.539828
 30
0.0
  0
SPLINE
  5
2f8
100
AcDbEntity
  8
Layer_1
 62
7
100
AcDbSpline
 70
8
 71
3
 72
8
 73
4
 74
0
 40
0
 40
0
 40
0
 40
0
 40
1
 40
1
 40
1
 40
1
 10
21.656545
 20
50.539828
 30
0.0
 10
21.656457
 20
50.289158
 30
0.0
 10
21.659656
 20
50.168844
 30
0.0
 10
21.667956
 20
50.123781
 30
0.0
  0
SPLINE
  5
2f9
100
AcDbEntity
  8
Layer_1
 62
7
100
AcDbSpline
 70
8
 71
3
 72
8
 73
4
 74
0
 40
0
 40
0
 40
0
 40
0
 40
1
 40
1
 40
1
 40
1
 10
21.667956
 20
50.123781
 30
0.0
 10
21.712313
 20
49.882764
 30
0.0
 10
21.834140
 20
49.715793
 30
0.0
 10
22.040809
 20
49.613196
 30
0.0
  0
SPLINE
  5
2fa
100
AcDbEntity
  8
Layer_1
 62
7
100
AcDbSpline
 70
8
 71
3
 72
8
 73
4
 74
0
 40
0
 40
0
 40
0
 40
0
 40
1
 40
1
 40
1
 40
1
 10
22.040809
 20
49.613196
 30
0.0
 10
22.244857
 20
49.511898
 30
0.0
 10
22.526411
 20
49.472585
 30
0.0
 10
22.866384
 20
49.497468
 30
0.0
  0
SPLINE
  5
2fb
100
AcDbEntity
  8
Layer_1
 62
7
100
AcDbSpline
 70
8
 71
3
 72
8
 73
4
 74
0
 40
0
 40
0
 40
0
 40
0
 40
1
 40
1
 40
1
 40
1
 10
22.866384
 20
49.497468
 30
0.0
 10
22.866488
 20
49.497477
 30
0.0
 10
22.866592
 20
49.497457
 30
0.0
 10
22.866807
 20
49.497468
 30
0.0
  0
SPLINE
  5
2fc
100
AcDbEntity
  8
Layer_1
 62
7
100
AcDbSpline
 70
8
 71
3
 72
8
 73
4
 74
0
 40
0
 40
0
 40
0
 40
0
 40
1
 40
1
 40
1
 40
1
 10
22.866807
 20
49.497468
 30
0.0
 10
22.932511
 20
49.502294
 30
0.0
 10
23.038836
 20
49.512934
 30
0.0
 10
23.103355
 20
49.521090
 30
0.0
  0
LINE
  5
2fd
100
AcDbEntity
  8
Layer_1
 62
7
100
AcDbLine
 10
23.103355
 20
49.521090
 30
0.0
 11
23.224176
 21
49.536358
 31
0.0
  0
LINE
  5
2fe
100
AcDbEntity
  8
Layer_1
 62
7
100
AcDbLine
 10
23.224176
 20
49.536358
 30
0.0
 11
23.221946
 21
50.274118
 31
0.0
  0
LINE
  5
2ff
100
AcDbEntity
  8
Layer_1
 62
7
100
AcDbLine
 10
23.221946
 20
50.274118
 30
0.0
 11
23.219717
 21
51.010453
 31
0.0
  0
LINE
  5
300
100
AcDbEntity
  8
Layer_1
 62
7
100
AcDbLine
 10
23.219717
 20
51.010453
 30
0.0
 11
23.164502
 21
51.040199
 31
0.0
  0
SPLINE
  5
301
100
AcDbEntity
  8
Layer_1
 62
7
100
AcDbSpline
 70
8
 71
3
 72
8
 73
4
 74
0
 40
0
 40
0
 40
0
 40
0
 40
1
 40
1
 40
1
 40
1
 10
23.164502
 20
51.040199
 30
0.0
 10
23.089406
 20
51.080563
 30
0.0
 10
22.879861
 20
51.168472
 30
0.0
 10
22.779628
 20
51.201769
 30
0.0
  0
SPLINE
  5
302
100
AcDbEntity
  8
Layer_1
 62
7
100
AcDbSpline
 70
8
 71
3
 72
8
 73
4
 74
0
 40
0
 40
0
 40
0
 40
0
 40
1
 40
1
 40
1
 40
1
 10
22.779628
 20
51.201769
 30
0.0
 10
22.565947
 20
51.272756
 30
0.0
 10
22.377080
 20
51.308124
 30
0.0
 10
22.210364
 20
51.308124
 30
0.0
  0
LINE
  5
303
100
AcDbEntity
  8
Layer_1
 62
7
100
AcDbLine
 10
22.210364
 20
51.308124
 30
0.0
 11
22.210326
 21
51.308150
 31
0.0
  0
SPLINE
  5
304
100
AcDbEntity
  8
Layer_1
 62
7
100
AcDbSpline
 70
8
 71
3
 72
8
 73
4
 74
0
 40
0
 40
0
 40
0
 40
0
 40
1
 40
1
 40
1
 40
1
 10
22.210326
 20
51.299372
 30
0.0
 10
22.375795
 20
51.299372
 30
0.0
 10
22.563702
 20
51.264196
 30
0.0
 10
22.776736
 20
51.193423
 30
0.0
  0
SPLINE
  5
305
100
AcDbEntity
  8
Layer_1
 62
7
100
AcDbSpline
 70
8
 71
3
 72
8
 73
4
 74
0
 40
0
 40
0
 40
0
 40
0
 40
1
 40
1
 40
1
 40
1
 10
22.776736
 20
51.193423
 30
0.0
 10
22.876041
 20
51.160434
 30
0.0
 10
23.086423
 20
51.072110
 30
0.0
 10
23.160184
 20
51.032466
 30
0.0
  0
LINE
  5
306
100
AcDbEntity
  8
Layer_1
 62
7
100
AcDbLine
 10
23.160184
 20
51.032466
 30
0.0
 11
23.210917
 21
51.005176
 31
0.0
  0
LINE
  5
307
100
AcDbEntity
  8
Layer_1
 62
7
100
AcDbLine
 10
23.210917
 20
51.005176
 30
0.0
 11
23.213146
 21
50.274138
 31
0.0
  0
LINE
  5
308
100
AcDbEntity
  8
Layer_1
 62
7
100
AcDbLine
 10
23.213146
 20
50.274138
 30
0.0
 11
23.215376
 21
49.544323
 31
0.0
  0
LINE
  5
309
100
AcDbEntity
  8
Layer_1
 62
7
100
AcDbLine
 10
23.215376
 20
49.544323
 30
0.0
 11
23.102093
 21
49.529845
 31
0.0
  0
SPLINE
  5
30a
100
AcDbEntity
  8
Layer_1
 62
7
100
AcDbSpline
 70
8
 71
3
 72
8
 73
4
 74
0
 40
0
 40
0
 40
0
 40
0
 40
1
 40
1
 40
1
 40
1
 10
23.102093
 20
49.529845
 30
0.0
 10
23.037884
 20
49.521717
 30
0.0
 10
22.931829
 20
49.511218
 30
0.0
 10
22.866361
 20
49.506420
 30
0.0
  0
SPLINE
  5
30b
100
AcDbEntity
  8
Layer_1
 62
7
100
AcDbSpline
 70
8
 71
3
 72
8
 73
4
 74
0
 40
0
 40
0
 40
0
 40
0
 40
1
 40
1
 40
1
 40
1
 10
22.866361
 20
49.506420
 30
0.0
 10
22.866305
 20
49.506415
 30
0.0
 10
22.866257
 20
49.506423
 30
0.0
 10
22.866152
 20
49.506420
 30
0.0
  0
SPLINE
  5
30c
100
AcDbEntity
  8
Layer_1
 62
7
100
AcDbSpline
 70
8
 71
3
 72
8
 73
4
 74
0
 40
0
 40
0
 40
0
 40
0
 40
1
 40
1
 40
1
 40
1
 10
22.866152
 20
49.506420
 30
0.0
 10
22.527009
 20
49.481557
 30
0.0
 10
22.246704
 20
49.520814
 30
0.0
 10
22.044652
 20
49.621127
 30
0.0
  0
SPLINE
  5
30d
100
AcDbEntity
  8
Layer_1
 62
7
100
AcDbSpline
 70
8
 71
3
 72
8
 73
4
 74
0
 40
0
 40
0
 40
0
 40
0
 40
1
 40
1
 40
1
 40
1
 10
22.044652
 20
49.621127
 30
0.0
 10
21.840155
 20
49.722648
 30
0.0
 10
21.720456
 20
49.886492
 30
0.0
 10
21.676486
 20
50.125396
 30
0.0
  0
SPLINE
  5
30e
100
AcDbEntity
  8
Layer_1
 62
7
100
AcDbSpline
 70
8
 71
3
 72
8
 73
4
 74
0
 40
0
 40
0
 40
0
 40
0
 40
1
 40
1
 40
1
 40
1
 10
21.676486
 20
50.125396
 30
0.0
 10
21.668632
 20
50.168051
 30
0.0
 10
21.665191
 20
50.289226
 30
0.0
 10
21.665279
 20
50.539814
 30
0.0
  0
SPLINE
  5
30f
100
AcDbEntity
  8
Layer_1
 62
7
100
AcDbSpline
 70
8
 71
3
 72
8
 73
4
 74
0
 40
0
 40
0
 40
0
 40
0
 40
1
 40
1
 40
1
 40
1
 10
21.665279
 20
50.539814
 30
0.0
 10
21.665340
 20
50.849143
 30
0.0
 10
21.667339
 20
50.899698
 30
0.0
 10
21.680762
 20
50.949341
 30
0.0
  0
SPLINE
  5
310
100
AcDbEntity
  8
Layer_1
 62
7
100
AcDbSpline
 70
8
 71
3
 72
8
 73
4
 74
0
 40
0
 40
0
 40
0
 40
0
 40
1
 40
1
 40
1
 40
1
 10
21.680762
 20
50.949341
 30
0.0
 10
21.713338
 20
51.069728
 30
0.0
 10
21.770894
 20
51.156814
 30
0.0
 10
21.857613
 20
51.214209
 30
0.0
  0
SPLINE
  5
311
100
AcDbEntity
  8
Layer_1
 62
7
100
AcDbSpline
 70
8
 71
3
 72
8
 73
4
 74
0
 40
0
 40
0
 40
0
 40
0
 40
1
 40
1
 40
1
 40
1
 10
21.857613
 20
51.214209
 30
0.0
 10
21.944331
 20
51.271607
 30
0.0
 10
22.060593
 20
51.299375
 30
0.0
 10
22.210296
 20
51.299375
 30
0.0
  0
LINE
  5
312
100
AcDbEntity
  8
Layer_1
 62
7
100
AcDbLine
 10
22.210296
 20
51.299375
 30
0.0
 11
22.210326
 21
51.299372
 31
0.0
  0
ENDSEC
  0
SECTION
  2
OBJECTS
  0
DICTIONARY
  5
C
330
0
100
AcDbDictionary
  3
ACAD_GROUP
350
D
  3
ACAD_MLINESTYLE
350
17
  0
DICTIONARY
  5
D
330
C
100
AcDbDictionary
  0
DICTIONARY
  5
1A
330
C
100
AcDbDictionary
  0
DICTIONARY
  5
17
330
C
100
AcDbDictionary
  3
STANDARD
350
18
  0
DICTIONARY
  5
19
330
C
100
AcDbDictionary
  0
ENDSEC
  0
EOF
